<?xml version="1.0" encoding="UTF-8" standalone="no"?>
<!-- Generator: Adobe Illustrator 13.0.0, SVG Export Plug-In . SVG Version: 6.00 Build 14948)  -->

<svg
   version="1.1"
   id="Layer_1"
   x="0px"
   y="0px"
   width="25.226593"
   height="20.926941"
   viewBox="0 0 25.226592 20.926941"
   enable-background="new 0 0 187.087 425.197"
   xml:space="preserve"
   sodipodi:docname="sfondo_cell.svg"
   xmlns:inkscape="http://www.inkscape.org/namespaces/inkscape"
   xmlns:sodipodi="http://sodipodi.sourceforge.net/DTD/sodipodi-0.dtd"
   xmlns:xlink="http://www.w3.org/1999/xlink"
   xmlns="http://www.w3.org/2000/svg"
   xmlns:svg="http://www.w3.org/2000/svg"><defs
   id="defs4221" /><sodipodi:namedview
   id="namedview4219"
   pagecolor="#ffffff"
   bordercolor="#000000"
   borderopacity="0.25"
   inkscape:showpageshadow="2"
   inkscape:pageopacity="0.0"
   inkscape:pagecheckerboard="0"
   inkscape:deskcolor="#d1d1d1"
   showgrid="false" />


































































<g
   id="g916"
   transform="translate(-142.083,-132.73399)">
	<defs
   id="defs904"><path
     id="SVGID_186_"
     d="m 164.906,152.886 c -1.122,-1.071 -2.144,-2.168 -3.189,-3.265 -2.064,-2.219 -4.132,-4.437 -6.912,-6.299 l -0.024,-0.027 c -0.918,-0.459 -1.734,-1.019 -2.499,-1.683 -0.74,-0.612 -1.429,-1.325 -2.092,-2.04 l 0.383,-0.867 1.224,-1.046 c 0.74,0.766 1.505,1.531 2.321,2.27 0.867,0.765 1.785,1.505 2.806,2.168 h 0.025 c 2.832,1.531 4.719,3.699 6.581,5.867 0.943,1.122 1.887,2.218 2.983,3.239 0.382,0.382 0.434,0.841 0.28,1.224 -0.051,0.153 -0.153,0.281 -0.254,0.408 -0.127,0.127 -0.255,0.229 -0.409,0.28 -0.137,0.069 -0.292,0.107 -0.453,0.107 -0.26,0 -0.535,-0.1 -0.771,-0.336 m -13.237,-15.686 -1.428,1.225 c -0.027,0 -0.052,0.025 -0.052,0.076 l -0.435,1.02 c -0.051,0.076 -0.051,0.153 0.026,0.229 0.714,0.791 1.429,1.531 2.219,2.194 0.791,0.663 1.633,1.275 2.577,1.735 2.728,1.836 4.769,4.029 6.834,6.248 1.021,1.097 2.066,2.194 3.188,3.265 0.562,0.536 1.199,0.561 1.709,0.332 0.204,-0.103 0.384,-0.23 0.535,-0.383 0.153,-0.153 0.281,-0.357 0.358,-0.535 v -0.026 c 0.204,-0.536 0.153,-1.173 -0.409,-1.709 -1.045,-0.995 -1.989,-2.092 -2.933,-3.188 -1.888,-2.193 -3.801,-4.388 -6.707,-5.943 -0.996,-0.663 -1.914,-1.377 -2.755,-2.143 -0.844,-0.765 -1.634,-1.556 -2.425,-2.397 -0.038,-0.039 -0.089,-0.058 -0.143,-0.058 -0.054,0 -0.108,0.019 -0.159,0.058" /></defs>
	<clipPath
   id="SVGID_187_">
		<use
   xlink:href="#SVGID_186_"
   overflow="visible"
   id="use906" />
	</clipPath>
	
		<linearGradient
   id="SVGID_188_"
   gradientUnits="userSpaceOnUse"
   x1="0"
   y1="425.19479"
   x2="1"
   y2="425.19479"
   gradientTransform="matrix(17.5916,0,0,-17.5916,149.7166,7625.2979)">
		<stop
   offset="0"
   style="stop-color:#161730"
   id="stop909" />
		<stop
   offset="1"
   style="stop-color:#242C5B"
   id="stop911" />
	</linearGradient>
	<rect
   x="149.70399"
   y="137.142"
   clip-path="url(#SVGID_187_)"
   fill="url(#SVGID_188_)"
   width="17.702"
   height="16.611"
   id="rect914"
   style="fill:url(#SVGID_188_)" />
</g>
<g
   id="g931"
   transform="translate(-142.083,-132.73399)">
	<defs
   id="defs919"><path
     id="SVGID_189_"
     d="m 147.205,135.874 c -0.255,-0.23 -0.485,-0.485 -0.715,-0.715 -0.229,-0.204 -0.356,-0.51 -0.381,-0.816 0,-0.281 0.101,-0.586 0.331,-0.816 0.229,-0.23 0.51,-0.357 0.814,-0.357 0.307,-0.026 0.587,0.076 0.843,0.306 0.229,0.229 0.459,0.459 0.688,0.689 l 0.537,0.535 -1.251,1.658 -0.307,0.128 c -0.177,-0.204 -0.38,-0.408 -0.559,-0.612 m 0.05,-3.137 c -0.433,0 -0.814,0.178 -1.121,0.484 -0.307,0.331 -0.459,0.74 -0.434,1.147 0,0.409 0.178,0.817 0.483,1.123 0.23,0.204 0.485,0.459 0.716,0.689 0.203,0.229 0.433,0.484 0.662,0.714 0.077,0.076 0.179,0.102 0.256,0.051 l 0.484,-0.23 c 0.025,-0.026 0.051,-0.051 0.076,-0.076 l 1.403,-1.811 c 0.076,-0.076 0.051,-0.204 -0.026,-0.281 -0.229,-0.229 -0.432,-0.459 -0.663,-0.688 -0.229,-0.23 -0.483,-0.46 -0.714,-0.689 -0.284,-0.285 -0.656,-0.436 -1.035,-0.436 -0.028,0 -0.058,0.001 -0.087,0.003" /></defs>
	<clipPath
   id="SVGID_190_">
		<use
   xlink:href="#SVGID_189_"
   overflow="visible"
   id="use921" />
	</clipPath>
	
		<linearGradient
   id="SVGID_191_"
   gradientUnits="userSpaceOnUse"
   x1="0"
   y1="425.1929"
   x2="1"
   y2="425.1929"
   gradientTransform="matrix(4.1301,0,0,-4.1301,145.6999,1890.9728)">
		<stop
   offset="0"
   style="stop-color:#161730"
   id="stop924" />
		<stop
   offset="1"
   style="stop-color:#242C5B"
   id="stop926" />
	</linearGradient>
	<rect
   x="145.675"
   y="132.73399"
   clip-path="url(#SVGID_190_)"
   fill="url(#SVGID_191_)"
   width="4.1830001"
   height="4.2620001"
   id="rect929"
   style="fill:url(#SVGID_191_)" />
</g>
<g
   id="g946"
   transform="translate(-142.083,-132.73399)">
	<defs
   id="defs934"><path
     id="SVGID_192_"
     d="m 144.629,142.454 c -0.893,-0.816 -1.606,-1.836 -2.04,-2.907 l 5.713,-2.832 c 0.025,-0.026 0.051,-0.051 0.076,-0.076 l 1.683,-2.169 2.271,2.169 -2.09,1.786 c -0.027,0 -0.052,0.025 -0.052,0.076 l -2.551,5.866 c -1.097,-0.408 -2.117,-1.072 -3.01,-1.913 m 5.254,-8.468 c -0.611,0.74 -1.225,1.607 -1.811,2.372 l -5.867,2.882 c -0.102,0.051 -0.153,0.179 -0.102,0.281 0.46,1.199 1.249,2.321 2.219,3.265 0.996,0.918 2.143,1.658 3.367,2.04 0.103,0.052 0.229,0 0.28,-0.102 l 2.603,-6.019 2.219,-1.888 c 0.102,-0.076 0.102,-0.229 0.025,-0.306 l -2.627,-2.525 c -0.052,-0.038 -0.108,-0.058 -0.162,-0.058 -0.055,0 -0.105,0.02 -0.144,0.058" /></defs>
	<clipPath
   id="SVGID_193_">
		<use
   xlink:href="#SVGID_192_"
   overflow="visible"
   id="use936" />
	</clipPath>
	
		<linearGradient
   id="SVGID_194_"
   gradientUnits="userSpaceOnUse"
   x1="0"
   y1="425.19479"
   x2="1"
   y2="425.19479"
   gradientTransform="matrix(10.7872,0,0,-10.7872,142.0809,4726.0791)">
		<stop
   offset="0"
   style="stop-color:#161730"
   id="stop939" />
		<stop
   offset="1"
   style="stop-color:#242C5B"
   id="stop941" />
	</linearGradient>
	<rect
   x="142.052"
   y="133.92799"
   clip-path="url(#SVGID_193_)"
   fill="url(#SVGID_194_)"
   width="10.841"
   height="10.95"
   id="rect944"
   style="fill:url(#SVGID_194_)" />
</g>
<g
   id="g961"
   transform="translate(-142.083,-132.73399)">
	<defs
   id="defs949"><path
     id="SVGID_195_"
     d="m 143.966,138.399 c -0.077,0.076 -0.077,0.204 0,0.306 l 4.387,4.361 c 0.076,0.102 0.229,0.102 0.306,0 0.077,-0.077 0.077,-0.204 0,-0.305 l -4.386,-4.362 c -0.038,-0.051 -0.091,-0.077 -0.145,-0.077 -0.054,0 -0.111,0.026 -0.162,0.077" /></defs>
	<clipPath
   id="SVGID_196_">
		<use
   xlink:href="#SVGID_195_"
   overflow="visible"
   id="use951" />
	</clipPath>
	
		<linearGradient
   id="SVGID_197_"
   gradientUnits="userSpaceOnUse"
   x1="0"
   y1="425.1929"
   x2="1"
   y2="425.1929"
   gradientTransform="matrix(4.8077,0,0,-4.8077,143.9077,2184.9595)">
		<stop
   offset="0"
   style="stop-color:#161730"
   id="stop954" />
		<stop
   offset="1"
   style="stop-color:#242C5B"
   id="stop956" />
	</linearGradient>
	<rect
   x="143.88901"
   y="138.32201"
   clip-path="url(#SVGID_196_)"
   fill="url(#SVGID_197_)"
   width="4.8470001"
   height="4.8460002"
   id="rect959"
   style="fill:url(#SVGID_197_)" />
</g>
<g
   id="g976"
   transform="translate(-142.083,-132.73399)">
	<defs
   id="defs964"><path
     id="SVGID_198_"
     d="m 163.809,150.029 0.052,0.052 c 0.484,0.51 0.943,1.019 1.429,1.504 0.204,0.23 0.51,-0.101 0.306,-0.28 -0.46,-0.485 -0.892,-0.969 -1.352,-1.454 l -0.128,-0.128 c -0.047,-0.047 -0.1,-0.067 -0.147,-0.067 -0.163,0 -0.297,0.217 -0.16,0.373 m -1.173,-1.275 0.28,0.332 c 0.204,0.203 0.511,-0.128 0.306,-0.307 l -0.279,-0.305 c -0.05,-0.056 -0.105,-0.079 -0.157,-0.079 -0.166,0 -0.305,0.224 -0.15,0.359 m -2.474,-2.398 c 0.536,0.459 1.071,0.97 1.555,1.48 0.205,0.204 0.511,-0.103 0.308,-0.306 -0.511,-0.509 -1.046,-1.021 -1.581,-1.48 -0.042,-0.047 -0.091,-0.067 -0.138,-0.067 -0.157,0 -0.301,0.217 -0.144,0.373 m -1.3,-1.096 c 0.101,0.077 0.229,0.178 0.331,0.255 0.229,0.178 0.484,-0.102 0.279,-0.331 l -0.356,-0.281 c -0.043,-0.034 -0.088,-0.049 -0.13,-0.049 -0.179,0 -0.31,0.262 -0.124,0.406 m -2.857,-1.913 c 0.408,0.254 0.815,0.51 1.249,0.714 0.204,0.153 0.383,0.28 0.587,0.408 0.153,0.128 0.383,-0.025 0.331,-0.204 0,-0.051 -0.024,-0.102 -0.076,-0.152 -0.204,-0.129 -0.433,-0.307 -0.638,-0.409 -0.408,-0.23 -0.816,-0.459 -1.224,-0.715 -0.042,-0.024 -0.082,-0.035 -0.119,-0.035 -0.191,0 -0.303,0.286 -0.11,0.393 m -1.403,-1.071 c 0.103,0.101 0.229,0.204 0.357,0.28 0.23,0.179 0.484,-0.179 0.255,-0.332 -0.102,-0.076 -0.204,-0.178 -0.332,-0.28 -0.038,-0.038 -0.08,-0.054 -0.121,-0.054 -0.155,0 -0.3,0.224 -0.159,0.386 m -2.449,-2.449 c 0.051,0.026 0.077,0.076 0.102,0.128 0.46,0.485 0.919,0.969 1.403,1.453 0.178,0.178 0.51,-0.102 0.28,-0.331 -0.46,-0.459 -0.943,-0.944 -1.378,-1.454 l -0.076,-0.102 c -0.052,-0.045 -0.104,-0.064 -0.154,-0.064 -0.177,0 -0.316,0.231 -0.177,0.37" /></defs>
	<clipPath
   id="SVGID_199_">
		<use
   xlink:href="#SVGID_198_"
   overflow="visible"
   id="use966" />
	</clipPath>
	
		<linearGradient
   id="SVGID_200_"
   gradientUnits="userSpaceOnUse"
   x1="0"
   y1="425.19089"
   x2="1"
   y2="425.19089"
   gradientTransform="matrix(13.5656,0,0,-13.5656,152.0975,5913.6084)">
		<stop
   offset="0"
   style="stop-color:#161730"
   id="stop969" />
		<stop
   offset="1"
   style="stop-color:#242C5B"
   id="stop971" />
	</linearGradient>
	<rect
   x="152.01401"
   y="139.457"
   clip-path="url(#SVGID_199_)"
   fill="url(#SVGID_200_)"
   width="13.785"
   height="12.358"
   id="rect974"
   style="fill:url(#SVGID_200_)" />
</g>
<g
   id="g991"
   transform="translate(-142.083,-132.73399)">
	<defs
   id="defs979"><path
     id="SVGID_201_"
     d="m 149.781,134.828 -1.403,1.811 c -0.025,0.025 -0.051,0.05 -0.076,0.076 l -0.484,0.23 -3.316,1.658 3.928,3.953 1.3,-3.009 c 0,-0.026 0,-0.026 0.026,-0.026 l 0.435,-1.02 c 0,-0.051 0.024,-0.076 0.052,-0.076 l 1.428,-1.225 0.662,-0.561 -2.271,-2.169 z" /></defs>
	<clipPath
   id="SVGID_202_">
		<use
   xlink:href="#SVGID_201_"
   overflow="visible"
   id="use981" />
	</clipPath>
	
		<linearGradient
   id="SVGID_203_"
   gradientUnits="userSpaceOnUse"
   x1="0"
   y1="425.19681"
   x2="0.99949998"
   y2="425.19681"
   gradientTransform="matrix(7.8302,0,0,-7.8302,144.4994,3467.9048)">
		<stop
   offset="0"
   style="stop-color:#F7A715"
   id="stop984" />
		<stop
   offset="1"
   style="stop-color:#FDC623"
   id="stop986" />
	</linearGradient>
	<rect
   x="144.50101"
   y="134.47"
   clip-path="url(#SVGID_202_)"
   fill="url(#SVGID_203_)"
   width="7.8299999"
   height="8.0860004"
   id="rect989"
   style="fill:url(#SVGID_203_)" />
</g>
<g
   id="g1006"
   transform="translate(-142.083,-132.73399)">
	<defs
   id="defs994"><path
     id="SVGID_204_"
     d="m 142.589,139.547 c 0.434,1.071 1.147,2.091 2.04,2.907 0.894,0.841 1.913,1.505 3.01,1.913 l 0.612,-1.403 -4.184,-4.158 z" /></defs>
	<clipPath
   id="SVGID_205_">
		<use
   xlink:href="#SVGID_204_"
   overflow="visible"
   id="use996" />
	</clipPath>
	
		<linearGradient
   id="SVGID_206_"
   gradientUnits="userSpaceOnUse"
   x1="0.00048828131"
   y1="425.19681"
   x2="1.0005"
   y2="425.19681"
   gradientTransform="matrix(5.6618,0,0,-5.6618,142.5877,2548.9766)">
		<stop
   offset="0"
   style="stop-color:#F7A715"
   id="stop999" />
		<stop
   offset="1"
   style="stop-color:#FDC623"
   id="stop1001" />
	</linearGradient>
	<rect
   x="142.589"
   y="138.806"
   clip-path="url(#SVGID_205_)"
   fill="url(#SVGID_206_)"
   width="5.6620002"
   height="5.5609999"
   id="rect1004"
   style="fill:url(#SVGID_206_)" />
</g>






















































































































































































































</svg>
