<?xml version="1.0" encoding="UTF-8" standalone="no"?>
<!-- Generator: Adobe Illustrator 13.0.0, SVG Export Plug-In . SVG Version: 6.00 Build 14948)  -->

<svg
   version="1.1"
   id="Layer_1"
   x="0px"
   y="0px"
   width="21.574844"
   height="23.11499"
   viewBox="0 0 21.574844 23.114991"
   enable-background="new 0 0 187.087 425.197"
   xml:space="preserve"
   sodipodi:docname="sfondo_cell.svg"
   xmlns:inkscape="http://www.inkscape.org/namespaces/inkscape"
   xmlns:sodipodi="http://sodipodi.sourceforge.net/DTD/sodipodi-0.dtd"
   xmlns:xlink="http://www.w3.org/1999/xlink"
   xmlns="http://www.w3.org/2000/svg"
   xmlns:svg="http://www.w3.org/2000/svg"><defs
   id="defs4221" /><sodipodi:namedview
   id="namedview4219"
   pagecolor="#ffffff"
   bordercolor="#000000"
   borderopacity="0.25"
   inkscape:showpageshadow="2"
   inkscape:pageopacity="0.0"
   inkscape:pagecheckerboard="0"
   inkscape:deskcolor="#d1d1d1"
   showgrid="false" />













































































































































































<g
   id="g2521"
   transform="translate(-103.27767,-272.359)">
	<defs
   id="defs2509"><path
     id="SVGID_507_"
     d="m 116.032,294.607 c -0.537,-0.28 -0.996,-0.663 -1.353,-1.199 -0.408,-0.587 -0.638,-1.249 -0.688,-1.912 -0.026,-0.715 0.102,-1.402 0.433,-2.015 0.052,-0.077 0.026,-0.179 -0.024,-0.256 l -2.016,-2.857 2.5,-2.015 2.143,3.061 c 0.051,0.077 0.128,0.103 0.229,0.103 0.689,-0.103 1.377,0 2.016,0.28 0.638,0.254 1.172,0.689 1.58,1.275 0.383,0.536 0.587,1.096 0.663,1.683 0.052,0.409 0.052,0.791 -0.025,1.175 l -0.97,-2.168 c -0.051,-0.076 -0.127,-0.128 -0.203,-0.128 l -3.571,-0.052 c -0.076,0 -0.178,0.052 -0.204,0.153 l -1.147,3.367 c -0.052,0.078 0,0.178 0.052,0.229 l 1.709,1.632 c -0.411,-0.05 -0.768,-0.178 -1.124,-0.356 m -1.225,-10.738 -2.856,2.271 c -0.103,0.075 -0.103,0.202 -0.051,0.306 l 2.065,2.934 c -0.306,0.662 -0.459,1.402 -0.407,2.143 0.025,0.74 0.279,1.479 0.738,2.142 0.409,0.588 0.945,1.046 1.531,1.327 0.587,0.331 1.276,0.484 1.938,0.484 0.077,0 0.154,-0.025 0.205,-0.076 0.077,-0.103 0.052,-0.255 -0.051,-0.331 l -0.103,-0.077 -1.964,-1.888 1.071,-3.087 3.239,0.078 1.123,2.474 0.024,0.127 c 0.026,0.051 0.076,0.127 0.128,0.153 0.128,0.024 0.255,-0.026 0.308,-0.153 0.228,-0.638 0.305,-1.325 0.202,-1.989 -0.075,-0.664 -0.307,-1.301 -0.714,-1.888 -0.459,-0.663 -1.097,-1.147 -1.785,-1.453 -0.663,-0.281 -1.402,-0.409 -2.117,-0.332 l -2.218,-3.112 v -0.025 c -0.042,-0.055 -0.098,-0.079 -0.156,-0.079 -0.05,-0.003 -0.103,0.015 -0.15,0.051 m -6.071,-5.764 1.147,-3.367 c 0.026,-0.077 0,-0.178 -0.076,-0.23 l -1.684,-1.657 c 0.383,0.075 0.765,0.205 1.123,0.383 0.51,0.281 0.994,0.662 1.351,1.174 0.408,0.612 0.639,1.274 0.664,1.938 0.052,0.688 -0.102,1.401 -0.434,2.014 -0.025,0.078 -0.025,0.178 0.024,0.255 l 2.398,3.393 -2.5,1.989 -2.524,-3.571 c -0.024,-0.075 -0.128,-0.101 -0.203,-0.101 -0.689,0.101 -1.404,0 -2.042,-0.281 -0.611,-0.254 -1.173,-0.688 -1.58,-1.301 -0.357,-0.51 -0.563,-1.071 -0.639,-1.657 -0.051,-0.409 -0.051,-0.791 0.025,-1.198 l 0.969,2.168 c 0.026,0.102 0.104,0.151 0.205,0.151 l 3.545,0.052 c 0.104,-0.002 0.181,-0.053 0.231,-0.154 m -1.428,-5.663 c -0.075,0.102 -0.05,0.255 0.052,0.306 l 0.102,0.076 1.964,1.914 -1.071,3.06 -3.238,-0.051 -1.123,-2.499 -0.025,-0.102 c -0.024,-0.076 -0.076,-0.127 -0.153,-0.153 -0.102,-0.051 -0.229,0.026 -0.28,0.127 -0.229,0.638 -0.307,1.327 -0.229,2.016 0.103,0.662 0.331,1.302 0.74,1.861 0.459,0.663 1.071,1.174 1.759,1.454 0.689,0.306 1.43,0.409 2.144,0.332 l 2.576,3.672 c 0.075,0.104 0.203,0.104 0.306,0.027 l 2.855,-2.272 c 0.103,-0.074 0.103,-0.203 0.053,-0.305 l -2.449,-3.468 c 0.332,-0.664 0.485,-1.378 0.434,-2.118 -0.051,-0.74 -0.306,-1.505 -0.765,-2.168 -0.408,-0.562 -0.918,-1.021 -1.505,-1.327 -0.612,-0.306 -1.275,-0.458 -1.939,-0.458 -0.014,-0.005 -0.027,-0.007 -0.042,-0.007 -0.066,0 -0.124,0.042 -0.166,0.083" /></defs>
	<clipPath
   id="SVGID_508_">
		<use
   xlink:href="#SVGID_507_"
   overflow="visible"
   id="use2511" />
	</clipPath>
	
		<linearGradient
   id="SVGID_509_"
   gradientUnits="userSpaceOnUse"
   x1="0"
   y1="425.19681"
   x2="1"
   y2="425.19681"
   gradientTransform="matrix(18.7181,0,0,-18.7181,103.2807,8242.7822)">
		<stop
   offset="0"
   style="stop-color:#161730"
   id="stop2514" />
		<stop
   offset="1"
   style="stop-color:#242C5B"
   id="stop2516" />
	</linearGradient>
	<rect
   x="103.227"
   y="272.35901"
   clip-path="url(#SVGID_508_)"
   fill="url(#SVGID_509_)"
   width="18.823999"
   height="23.115"
   id="rect2519"
   style="fill:url(#SVGID_509_)" />
</g>
<g
   id="g2536"
   transform="translate(-103.27767,-272.359)">
	<defs
   id="defs2524"><path
     id="SVGID_510_"
     d="m 115.98,287.619 0.229,0.356 c 0.178,0.229 0.51,-0.051 0.357,-0.255 l -0.256,-0.356 c -0.05,-0.064 -0.11,-0.091 -0.17,-0.091 -0.151,0 -0.288,0.18 -0.16,0.346 m -1.989,-2.832 1.504,2.143 c 0.179,0.229 0.511,-0.025 0.357,-0.256 l -0.255,-0.356 c -0.434,-0.586 -0.842,-1.199 -1.25,-1.785 -0.05,-0.063 -0.11,-0.09 -0.171,-0.09 -0.153,-10e-4 -0.296,0.178 -0.185,0.344 m -3.953,-5.637 2.244,3.188 c 0.178,0.23 0.51,-0.024 0.356,-0.254 l -2.245,-3.188 c -0.047,-0.063 -0.105,-0.087 -0.162,-0.087 -0.157,0 -0.306,0.191 -0.193,0.341" /></defs>
	<clipPath
   id="SVGID_511_">
		<use
   xlink:href="#SVGID_510_"
   overflow="visible"
   id="use2526" />
	</clipPath>
	
		<linearGradient
   id="SVGID_512_"
   gradientUnits="userSpaceOnUse"
   x1="0"
   y1="425.18701"
   x2="1"
   y2="425.18701"
   gradientTransform="matrix(6.6081,0,0,-6.6081,109.9998,3093.1626)">
		<stop
   offset="0"
   style="stop-color:#161730"
   id="stop2529" />
		<stop
   offset="1"
   style="stop-color:#242C5B"
   id="stop2531" />
	</linearGradient>
	<rect
   x="109.925"
   y="278.80899"
   clip-path="url(#SVGID_511_)"
   fill="url(#SVGID_512_)"
   width="6.7950001"
   height="9.3950005"
   id="rect2534"
   style="fill:url(#SVGID_512_)" />
</g>
<g
   id="g2551"
   transform="translate(-103.27767,-272.359)">
	<defs
   id="defs2539"><path
     id="SVGID_513_"
     d="m 114.73,273.105 -0.076,-0.05 c 1.046,0.05 1.913,0.229 2.678,0.56 0.893,0.384 1.607,0.97 2.219,1.836 l -2.192,1.761 c -0.052,-2.347 -1.2,-3.137 -2.629,-4.107 m -0.969,-0.435 c -0.077,0.103 -0.05,0.23 0.051,0.307 0.23,0.179 0.46,0.332 0.689,0.484 1.378,0.945 2.5,1.71 2.423,4.185 -0.025,0.05 0,0.101 0.025,0.151 0.077,0.103 0.229,0.103 0.307,0.027 l 2.729,-2.169 c 0.076,-0.052 0.102,-0.205 0.051,-0.28 -0.689,-1.021 -1.505,-1.709 -2.526,-2.143 -0.994,-0.435 -2.142,-0.638 -3.545,-0.638 -0.076,0.001 -0.153,0.027 -0.204,0.076" /></defs>
	<clipPath
   id="SVGID_514_">
		<use
   xlink:href="#SVGID_513_"
   overflow="visible"
   id="use2541" />
	</clipPath>
	
		<linearGradient
   id="SVGID_515_"
   gradientUnits="userSpaceOnUse"
   x1="0"
   y1="425.19479"
   x2="1"
   y2="425.19479"
   gradientTransform="matrix(6.3459,0,0,-6.3459,113.7162,2973.4841)">
		<stop
   offset="0"
   style="stop-color:#161730"
   id="stop2544" />
		<stop
   offset="1"
   style="stop-color:#242C5B"
   id="stop2546" />
	</linearGradient>
	<rect
   x="113.684"
   y="272.595"
   clip-path="url(#SVGID_514_)"
   fill="url(#SVGID_515_)"
   width="6.4029999"
   height="5.3049998"
   id="rect2549"
   style="fill:url(#SVGID_515_)" />
</g>
<g
   id="g2566"
   transform="translate(-103.27767,-272.359)">
	<defs
   id="defs2554"><path
     id="SVGID_516_"
     d="m 117.179,277.9 2.807,-2.244 2.704,3.418 -2.78,2.245 z m 2.704,-2.703 -3.138,2.499 c -0.102,0.077 -0.102,0.204 -0.025,0.307 l 2.984,3.749 c 0.076,0.077 0.205,0.104 0.306,0.026 l 3.138,-2.5 c 0.076,-0.077 0.103,-0.204 0.025,-0.306 l -2.983,-3.75 c -0.041,-0.056 -0.104,-0.08 -0.166,-0.08 -0.054,0 -0.106,0.019 -0.141,0.055" /></defs>
	<clipPath
   id="SVGID_517_">
		<use
   xlink:href="#SVGID_516_"
   overflow="visible"
   id="use2556" />
	</clipPath>
	
		<linearGradient
   id="SVGID_518_"
   gradientUnits="userSpaceOnUse"
   x1="0"
   y1="425.19479"
   x2="1"
   y2="425.19479"
   gradientTransform="matrix(6.5539,0,0,-6.5539,116.6651,3065.1636)">
		<stop
   offset="0"
   style="stop-color:#161730"
   id="stop2559" />
		<stop
   offset="1"
   style="stop-color:#242C5B"
   id="stop2561" />
	</linearGradient>
	<rect
   x="116.644"
   y="275.142"
   clip-path="url(#SVGID_517_)"
   fill="url(#SVGID_518_)"
   width="6.6059999"
   height="6.7129998"
   id="rect2564"
   style="fill:url(#SVGID_518_)" />
</g>
<g
   id="g2581"
   transform="translate(-103.27767,-272.359)">
	<defs
   id="defs2569"><path
     id="SVGID_519_"
     d="m 120.802,282.313 c -0.153,-0.357 -0.23,-0.689 -0.23,-0.994 l 2.014,-1.607 c 0.282,0.103 0.588,0.255 0.893,0.459 0.282,0.203 0.589,0.485 0.868,0.79 l -2.959,2.372 c -0.255,-0.357 -0.433,-0.688 -0.586,-1.02 m 1.581,-2.984 -2.169,1.735 c -0.051,0.023 -0.076,0.102 -0.076,0.177 0,0.383 0.076,0.792 0.28,1.25 0.178,0.409 0.434,0.842 0.766,1.276 0.076,0.077 0.203,0.102 0.306,0.025 l 3.292,-2.627 c 0.075,-0.078 0.101,-0.205 0.024,-0.306 -0.357,-0.436 -0.715,-0.765 -1.07,-1.021 -0.385,-0.281 -0.791,-0.484 -1.15,-0.562 -0.02,-0.007 -0.039,-0.01 -0.056,-0.01 -0.05,0.002 -0.092,0.026 -0.147,0.063" /></defs>
	<clipPath
   id="SVGID_520_">
		<use
   xlink:href="#SVGID_519_"
   overflow="visible"
   id="use2571" />
	</clipPath>
	
		<linearGradient
   id="SVGID_521_"
   gradientUnits="userSpaceOnUse"
   x1="0"
   y1="425.19479"
   x2="1"
   y2="425.19479"
   gradientTransform="matrix(4.7136,0,0,-4.7136,120.1415,2285.7605)">
		<stop
   offset="0"
   style="stop-color:#161730"
   id="stop2574" />
		<stop
   offset="1"
   style="stop-color:#242C5B"
   id="stop2576" />
	</linearGradient>
	<rect
   x="120.138"
   y="279.26801"
   clip-path="url(#SVGID_520_)"
   fill="url(#SVGID_521_)"
   width="4.744"
   height="4.6009998"
   id="rect2579"
   style="fill:url(#SVGID_521_)" />
</g>
<g
   id="g2596"
   transform="translate(-103.27767,-272.359)">
	<defs
   id="defs2584"><path
     id="SVGID_522_"
     d="m 103.813,290.093 13.773,-10.994 1.249,1.557 -13.747,10.992 z m 13.672,-11.479 -14.105,11.273 c -0.076,0.077 -0.102,0.206 -0.026,0.28 l 1.531,1.914 c 0.077,0.103 0.204,0.103 0.281,0.025 l 14.105,-11.247 c 0.075,-0.077 0.101,-0.204 0.024,-0.307 l -1.505,-1.913 c -0.044,-0.045 -0.115,-0.072 -0.181,-0.072 -0.047,10e-4 -0.092,0.015 -0.124,0.047" /></defs>
	<clipPath
   id="SVGID_523_">
		<use
   xlink:href="#SVGID_522_"
   overflow="visible"
   id="use2586" />
	</clipPath>
	
		<linearGradient
   id="SVGID_524_"
   gradientUnits="userSpaceOnUse"
   x1="0"
   y1="425.1958"
   x2="1"
   y2="425.1958"
   gradientTransform="matrix(16.0338,0,0,-16.0338,103.3088,7102.8989)">
		<stop
   offset="0"
   style="stop-color:#161730"
   id="stop2589" />
		<stop
   offset="1"
   style="stop-color:#242C5B"
   id="stop2591" />
	</linearGradient>
	<rect
   x="103.278"
   y="278.56799"
   clip-path="url(#SVGID_523_)"
   fill="url(#SVGID_524_)"
   width="16.094"
   height="13.616"
   id="rect2594"
   style="fill:url(#SVGID_524_)" />
</g>
<g
   id="g2611"
   transform="translate(-103.27767,-272.359)">
	<defs
   id="defs2599"><path
     id="SVGID_525_"
     d="m 121.081,276.37 0.51,-0.407 1.174,1.453 -0.511,0.409 z m 0.434,-0.892 -0.866,0.688 c -0.077,0.077 -0.103,0.204 -0.026,0.307 l 1.429,1.785 c 0.076,0.102 0.203,0.128 0.307,0.051 l 0.841,-0.688 c 0.102,-0.077 0.127,-0.204 0.052,-0.306 l -1.454,-1.785 c -0.047,-0.063 -0.112,-0.096 -0.173,-0.096 -0.042,-0.001 -0.08,0.013 -0.11,0.044" /></defs>
	<clipPath
   id="SVGID_526_">
		<use
   xlink:href="#SVGID_525_"
   overflow="visible"
   id="use2601" />
	</clipPath>
	
		<linearGradient
   id="SVGID_527_"
   gradientUnits="userSpaceOnUse"
   x1="0"
   y1="425.19189"
   x2="1"
   y2="425.19189"
   gradientTransform="matrix(2.7176,0,0,-2.7176,120.5757,1432.4277)">
		<stop
   offset="0"
   style="stop-color:#161730"
   id="stop2604" />
		<stop
   offset="1"
   style="stop-color:#242C5B"
   id="stop2606" />
	</linearGradient>
	<rect
   x="120.546"
   y="275.43301"
   clip-path="url(#SVGID_526_)"
   fill="url(#SVGID_527_)"
   width="2.779"
   height="2.9519999"
   id="rect2609"
   style="fill:url(#SVGID_527_)" />
</g>
<g
   id="g2626"
   transform="translate(-103.27767,-272.359)">
	<defs
   id="defs2614"><path
     id="SVGID_528_"
     d="m 119.73,276.472 -1.327,1.046 c -0.076,0.076 -0.103,0.203 -0.025,0.307 0.076,0.101 0.203,0.101 0.305,0.025 l 1.148,-0.919 1.2,1.479 c 0.05,0.102 0.203,0.126 0.279,0.05 0.104,-0.075 0.128,-0.229 0.051,-0.305 l -1.325,-1.658 c -0.041,-0.055 -0.097,-0.08 -0.156,-0.08 -0.05,0 -0.103,0.02 -0.15,0.055" /></defs>
	<clipPath
   id="SVGID_529_">
		<use
   xlink:href="#SVGID_528_"
   overflow="visible"
   id="use2616" />
	</clipPath>
	
		<linearGradient
   id="SVGID_530_"
   gradientUnits="userSpaceOnUse"
   x1="0"
   y1="425.1929"
   x2="1"
   y2="425.1929"
   gradientTransform="matrix(3.0746,0,0,-3.0746,118.333,1584.7728)">
		<stop
   offset="0"
   style="stop-color:#161730"
   id="stop2619" />
		<stop
   offset="1"
   style="stop-color:#242C5B"
   id="stop2621" />
	</linearGradient>
	<rect
   x="118.301"
   y="276.41699"
   clip-path="url(#SVGID_529_)"
   fill="url(#SVGID_530_)"
   width="3.138"
   height="2.119"
   id="rect2624"
   style="fill:url(#SVGID_530_)" />
</g>
<g
   id="g2641"
   transform="translate(-103.27767,-272.359)">
	<defs
   id="defs2629"><path
     id="SVGID_531_"
     d="m 107.334,288.255 -1.684,1.353 c -0.229,0.179 0.024,0.51 0.256,0.332 l 1.683,-1.353 c 0.186,-0.124 0.054,-0.381 -0.124,-0.381 -0.042,10e-4 -0.087,0.016 -0.131,0.049 m 1.352,-1.071 -0.332,0.256 c -0.229,0.179 0.025,0.535 0.256,0.356 l 0.332,-0.28 c 0.185,-0.123 0.054,-0.381 -0.124,-0.381 -0.043,0 -0.088,0.015 -0.132,0.049 m 2.703,-2.167 -1.709,1.351 c -0.204,0.18 0.053,0.511 0.281,0.333 l 1.683,-1.327 c 0.189,-0.146 0.052,-0.396 -0.132,-0.396 -0.04,-0.001 -0.082,0.011 -0.123,0.039 m 1.326,-1.071 -0.331,0.28 c -0.204,0.152 0.051,0.511 0.281,0.332 l 0.331,-0.281 c 0.185,-0.124 0.038,-0.38 -0.147,-0.38 -0.044,0 -0.09,0.014 -0.134,0.049 m 2.704,-2.143 -1.683,1.325 c -0.23,0.18 0.05,0.512 0.28,0.357 l 1.684,-1.351 c 0.183,-0.144 0.041,-0.385 -0.142,-0.385 -0.045,10e-4 -0.093,0.018 -0.139,0.054" /></defs>
	<clipPath
   id="SVGID_532_">
		<use
   xlink:href="#SVGID_531_"
   overflow="visible"
   id="use2631" />
	</clipPath>
	
		<linearGradient
   id="SVGID_533_"
   gradientUnits="userSpaceOnUse"
   x1="0"
   y1="425.19089"
   x2="1"
   y2="425.19089"
   gradientTransform="matrix(10.225,0,0,-10.225,105.5576,4633.499)">
		<stop
   offset="0"
   style="stop-color:#161730"
   id="stop2634" />
		<stop
   offset="1"
   style="stop-color:#242C5B"
   id="stop2636" />
	</linearGradient>
	<rect
   x="105.421"
   y="281.75"
   clip-path="url(#SVGID_532_)"
   fill="url(#SVGID_533_)"
   width="10.462"
   height="8.3669996"
   id="rect2639"
   style="fill:url(#SVGID_533_)" />
</g>
<g
   id="g2656"
   transform="translate(-103.27767,-272.359)">
	<defs
   id="defs2644"><path
     id="SVGID_534_"
     d="m 114.73,273.105 c 1.429,0.97 2.576,1.76 2.628,4.106 l 2.192,-1.761 c -0.611,-0.866 -1.326,-1.452 -2.219,-1.836 -0.765,-0.331 -1.632,-0.51 -2.678,-0.56 z" /></defs>
	<clipPath
   id="SVGID_535_">
		<use
   xlink:href="#SVGID_534_"
   overflow="visible"
   id="use2646" />
	</clipPath>
	
		<linearGradient
   id="SVGID_536_"
   gradientUnits="userSpaceOnUse"
   x1="0.00048828131"
   y1="425.19681"
   x2="1"
   y2="425.19681"
   gradientTransform="matrix(4.897,0,0,-4.897,114.6542,2357.312)">
		<stop
   offset="0"
   style="stop-color:#F7A715"
   id="stop2649" />
		<stop
   offset="1"
   style="stop-color:#FDC623"
   id="stop2651" />
	</linearGradient>
	<rect
   x="114.654"
   y="273.05499"
   clip-path="url(#SVGID_535_)"
   fill="url(#SVGID_536_)"
   width="4.8959999"
   height="4.1560001"
   id="rect2654"
   style="fill:url(#SVGID_536_)" />
</g>
<g
   id="g2671"
   transform="translate(-103.27767,-272.359)">
	<defs
   id="defs2659"><path
     id="SVGID_537_"
     d="m 120.571,281.319 c 0,0.305 0.077,0.637 0.23,0.994 0.153,0.332 0.331,0.663 0.585,1.02 l 2.959,-2.372 c -0.279,-0.305 -0.586,-0.587 -0.868,-0.79 -0.305,-0.204 -0.61,-0.356 -0.893,-0.459 z" /></defs>
	<clipPath
   id="SVGID_538_">
		<use
   xlink:href="#SVGID_537_"
   overflow="visible"
   id="use2661" />
	</clipPath>
	
		<linearGradient
   id="SVGID_539_"
   gradientUnits="userSpaceOnUse"
   x1="0.00048828131"
   y1="425.19681"
   x2="1"
   y2="425.19681"
   gradientTransform="matrix(3.7747,0,0,-3.7747,120.5709,1886.4966)">
		<stop
   offset="0"
   style="stop-color:#F7A715"
   id="stop2664" />
		<stop
   offset="1"
   style="stop-color:#FDC623"
   id="stop2666" />
	</linearGradient>
	<rect
   x="120.571"
   y="279.711"
   clip-path="url(#SVGID_538_)"
   fill="url(#SVGID_539_)"
   width="3.7739999"
   height="3.6210001"
   id="rect2669"
   style="fill:url(#SVGID_539_)" />
</g>







































































































</svg>
