<?xml version="1.0" encoding="UTF-8" standalone="no"?>
<!-- Generator: Adobe Illustrator 13.0.0, SVG Export Plug-In . SVG Version: 6.00 Build 14948)  -->

<svg
   version="1.1"
   id="Layer_1"
   x="0px"
   y="0px"
   width="18.467751"
   height="22.215996"
   viewBox="0 0 18.46775 22.215996"
   enable-background="new 0 0 187.087 425.197"
   xml:space="preserve"
   sodipodi:docname="sfondo_cell.svg"
   xmlns:inkscape="http://www.inkscape.org/namespaces/inkscape"
   xmlns:sodipodi="http://sodipodi.sourceforge.net/DTD/sodipodi-0.dtd"
   xmlns:xlink="http://www.w3.org/1999/xlink"
   xmlns="http://www.w3.org/2000/svg"
   xmlns:svg="http://www.w3.org/2000/svg"><defs
   id="defs4221" /><sodipodi:namedview
   id="namedview4219"
   pagecolor="#ffffff"
   bordercolor="#000000"
   borderopacity="0.25"
   inkscape:showpageshadow="2"
   inkscape:pageopacity="0.0"
   inkscape:pagecheckerboard="0"
   inkscape:deskcolor="#d1d1d1"
   showgrid="false" />




























<g
   id="g351"
   transform="translate(-103.75174,-83.692999)">
	<defs
   id="defs339"><path
     id="SVGID_73_"
     d="m 118.877,95.248 h 1.505 v 10.202 h -1.505 z m -0.229,-0.434 c -0.129,0 -0.23,0.102 -0.23,0.23 v 10.636 c 0,0.127 0.102,0.229 0.23,0.229 h 1.964 c 0.128,0 0.229,-0.102 0.229,-0.229 V 95.044 c 0,-0.128 -0.102,-0.23 -0.229,-0.23 z" /></defs>
	<clipPath
   id="SVGID_74_">
		<use
   xlink:href="#SVGID_73_"
   overflow="visible"
   id="use341" />
	</clipPath>
	
		<linearGradient
   id="SVGID_75_"
   gradientUnits="userSpaceOnUse"
   x1="0"
   y1="425.19681"
   x2="1"
   y2="425.19681"
   gradientTransform="matrix(2.4236,0,0,-2.4236,118.4169,1130.8557)">
		<stop
   offset="0"
   style="stop-color:#161730"
   id="stop344" />
		<stop
   offset="1"
   style="stop-color:#242C5B"
   id="stop346" />
	</linearGradient>
	<rect
   x="118.418"
   y="94.814003"
   clip-path="url(#SVGID_74_)"
   fill="url(#SVGID_75_)"
   width="2.424"
   height="11.095"
   id="rect349"
   style="fill:url(#SVGID_75_)" />
</g>
<g
   id="g366"
   transform="translate(-103.75174,-83.692999)">
	<defs
   id="defs354"><path
     id="SVGID_76_"
     d="m 119.057,101.445 v 2.27 c 0,0.128 0.102,0.23 0.229,0.23 0.103,0 0.204,-0.102 0.204,-0.23 v -2.27 c 0,-0.126 -0.102,-0.203 -0.204,-0.203 -0.128,0 -0.229,0.077 -0.229,0.203 m 0.713,-0.892 v 1.938 c 0,0.127 0.104,0.23 0.23,0.23 0.102,0 0.203,-0.103 0.203,-0.23 v -1.938 c 0,-0.128 -0.102,-0.23 -0.203,-0.23 -0.127,0 -0.23,0.102 -0.23,0.23" /></defs>
	<clipPath
   id="SVGID_77_">
		<use
   xlink:href="#SVGID_76_"
   overflow="visible"
   id="use356" />
	</clipPath>
	
		<linearGradient
   id="SVGID_78_"
   gradientUnits="userSpaceOnUse"
   x1="0.00048828131"
   y1="425.19681"
   x2="0.99949998"
   y2="425.19681"
   gradientTransform="matrix(1.1472,0,0,-1.1472,119.0569,589.9106)">
		<stop
   offset="0"
   style="stop-color:#161730"
   id="stop359" />
		<stop
   offset="1"
   style="stop-color:#242C5B"
   id="stop361" />
	</linearGradient>
	<rect
   x="119.057"
   y="100.323"
   clip-path="url(#SVGID_77_)"
   fill="url(#SVGID_78_)"
   width="1.146"
   height="3.622"
   id="rect364"
   style="fill:url(#SVGID_78_)" />
</g>
<g
   id="g381"
   transform="translate(-103.75174,-83.692999)">
	<defs
   id="defs369"><path
     id="SVGID_79_"
     d="m 105.589,95.248 h 1.505 v 10.202 h -1.505 z m -0.23,-0.434 c -0.127,0 -0.23,0.102 -0.23,0.23 v 10.636 c 0,0.127 0.104,0.229 0.23,0.229 h 1.964 c 0.102,0 0.204,-0.102 0.204,-0.229 V 95.044 c 0,-0.128 -0.103,-0.23 -0.204,-0.23 z" /></defs>
	<clipPath
   id="SVGID_80_">
		<use
   xlink:href="#SVGID_79_"
   overflow="visible"
   id="use371" />
	</clipPath>
	
		<linearGradient
   id="SVGID_81_"
   gradientUnits="userSpaceOnUse"
   x1="0"
   y1="425.19681"
   x2="1.0005"
   y2="425.19681"
   gradientTransform="matrix(2.398,0,0,-2.398,105.1288,1120.0029)">
		<stop
   offset="0"
   style="stop-color:#161730"
   id="stop374" />
		<stop
   offset="1"
   style="stop-color:#242C5B"
   id="stop376" />
	</linearGradient>
	<rect
   x="105.129"
   y="94.814003"
   clip-path="url(#SVGID_80_)"
   fill="url(#SVGID_81_)"
   width="2.398"
   height="11.095"
   id="rect379"
   style="fill:url(#SVGID_81_)" />
</g>
<g
   id="g396"
   transform="translate(-103.75174,-83.692999)">
	<defs
   id="defs384"><path
     id="SVGID_82_"
     d="m 110.868,88.207 v -0.228 c 0,-0.588 0.229,-1.123 0.612,-1.506 0.384,-0.382 0.919,-0.612 1.505,-0.612 0.587,0 1.122,0.23 1.505,0.612 0.383,0.383 0.611,0.918 0.611,1.506 0,0.076 0,0.153 -0.024,0.228 v 0.077 h -4.184 z m 0.306,-2.065 c -0.459,0.485 -0.765,1.122 -0.765,1.837 0,0.076 0.025,0.178 0.025,0.28 0,0.102 0.026,0.204 0.052,0.28 0.025,0.103 0.102,0.18 0.229,0.18 h 4.541 c 0.102,0 0.203,-0.052 0.229,-0.18 0.024,-0.076 0.024,-0.178 0.051,-0.28 v -0.28 c 0,-0.715 -0.28,-1.352 -0.739,-1.812 v -0.025 c -0.46,-0.459 -1.097,-0.74 -1.812,-0.74 -0.714,0 -1.352,0.281 -1.811,0.74" /></defs>
	<clipPath
   id="SVGID_83_">
		<use
   xlink:href="#SVGID_82_"
   overflow="visible"
   id="use386" />
	</clipPath>
	
		<linearGradient
   id="SVGID_84_"
   gradientUnits="userSpaceOnUse"
   x1="0"
   y1="425.19681"
   x2="1"
   y2="425.19681"
   gradientTransform="matrix(5.1263,0,0,-5.1263,110.4106,2266.7483)">
		<stop
   offset="0"
   style="stop-color:#161730"
   id="stop389" />
		<stop
   offset="1"
   style="stop-color:#242C5B"
   id="stop391" />
	</linearGradient>
	<rect
   x="110.409"
   y="85.402"
   clip-path="url(#SVGID_83_)"
   fill="url(#SVGID_84_)"
   width="5.1269999"
   height="3.3169999"
   id="rect394"
   style="fill:url(#SVGID_84_)" />
</g>
<g
   id="g406"
   transform="translate(-103.75174,-83.692999)">
	<defs
   id="defs399"><rect
     id="SVGID_85_"
     width="187.08701"
     height="425.19699"
     x="0"
     y="0" /></defs>
	<clipPath
   id="SVGID_86_">
		<use
   xlink:href="#SVGID_85_"
   overflow="visible"
   id="use401" />
	</clipPath>
	<path
   clip-path="url(#SVGID_86_)"
   fill="#221f20"
   d="m 112.756,83.922 c 0,-0.127 0.102,-0.229 0.229,-0.229 0.129,0 0.23,0.102 0.23,0.229 v 1.02 c 0,0.102 -0.102,0.204 -0.23,0.204 -0.127,0 -0.229,-0.102 -0.229,-0.204 z"
   id="path404" />
</g>
<g
   id="g421"
   transform="translate(-103.75174,-83.692999)">
	<defs
   id="defs409"><path
     id="SVGID_87_"
     d="m 113.904,84.024 -0.256,0.97 c -0.025,0.128 0.025,0.23 0.153,0.28 0.127,0.026 0.255,-0.05 0.28,-0.178 l 0.255,-0.969 c 0.026,-0.128 -0.025,-0.23 -0.153,-0.281 -0.016,-0.003 -0.032,-0.005 -0.049,-0.005 -0.108,0 -0.208,0.072 -0.23,0.183" /></defs>
	<clipPath
   id="SVGID_88_">
		<use
   xlink:href="#SVGID_87_"
   overflow="visible"
   id="use411" />
	</clipPath>
	
		<linearGradient
   id="SVGID_89_"
   gradientUnits="userSpaceOnUse"
   x1="0"
   y1="425.18121"
   x2="1"
   y2="425.18121"
   gradientTransform="matrix(0.7016,0,0,-0.7016,113.6425,382.8954)">
		<stop
   offset="0"
   style="stop-color:#161730"
   id="stop414" />
		<stop
   offset="1"
   style="stop-color:#242C5B"
   id="stop416" />
	</linearGradient>
	<rect
   x="113.623"
   y="83.841003"
   clip-path="url(#SVGID_88_)"
   fill="url(#SVGID_89_)"
   width="0.74000001"
   height="1.459"
   id="rect419"
   style="fill:url(#SVGID_89_)" />
</g>
<g
   id="g436"
   transform="translate(-103.75174,-83.692999)">
	<defs
   id="defs424"><path
     id="SVGID_90_"
     d="m 115,84.408 -0.51,0.866 c -0.051,0.103 -0.025,0.256 0.076,0.307 0.103,0.077 0.256,0.025 0.307,-0.077 l 0.51,-0.867 c 0.076,-0.128 0.026,-0.256 -0.077,-0.306 -0.033,-0.025 -0.072,-0.037 -0.112,-0.037 -0.08,0 -0.16,0.046 -0.194,0.114" /></defs>
	<clipPath
   id="SVGID_91_">
		<use
   xlink:href="#SVGID_90_"
   overflow="visible"
   id="use426" />
	</clipPath>
	
		<linearGradient
   id="SVGID_92_"
   gradientUnits="userSpaceOnUse"
   x1="0"
   y1="425.17529"
   x2="1"
   y2="425.17529"
   gradientTransform="matrix(0.9551,0,0,-0.9551,114.4648,491.0602)">
		<stop
   offset="0"
   style="stop-color:#161730"
   id="stop429" />
		<stop
   offset="1"
   style="stop-color:#242C5B"
   id="stop431" />
	</linearGradient>
	<rect
   x="114.439"
   y="84.293999"
   clip-path="url(#SVGID_91_)"
   fill="url(#SVGID_92_)"
   width="1.02"
   height="1.364"
   id="rect434"
   style="fill:url(#SVGID_92_)" />
</g>
<g
   id="g451"
   transform="translate(-103.75174,-83.692999)">
	<defs
   id="defs439"><path
     id="SVGID_93_"
     d="m 115.944,85.046 -0.714,0.738 c -0.076,0.077 -0.076,0.231 0,0.307 0.102,0.076 0.229,0.076 0.331,0 l 0.715,-0.714 c 0.075,-0.103 0.075,-0.23 0,-0.331 -0.052,-0.039 -0.108,-0.058 -0.166,-0.058 -0.058,0 -0.114,0.019 -0.166,0.058" /></defs>
	<clipPath
   id="SVGID_94_">
		<use
   xlink:href="#SVGID_93_"
   overflow="visible"
   id="use441" />
	</clipPath>
	
		<linearGradient
   id="SVGID_95_"
   gradientUnits="userSpaceOnUse"
   x1="0"
   y1="425.189"
   x2="1"
   y2="425.189"
   gradientTransform="matrix(1.1605,0,0,-1.1605,115.1724,579.0225)">
		<stop
   offset="0"
   style="stop-color:#161730"
   id="stop444" />
		<stop
   offset="1"
   style="stop-color:#242C5B"
   id="stop446" />
	</linearGradient>
	<rect
   x="115.154"
   y="84.987999"
   clip-path="url(#SVGID_94_)"
   fill="url(#SVGID_95_)"
   width="1.197"
   height="1.179"
   id="rect449"
   style="fill:url(#SVGID_95_)" />
</g>
<g
   id="g466"
   transform="translate(-103.75174,-83.692999)">
	<defs
   id="defs454"><path
     id="SVGID_96_"
     d="m 110.664,84.331 c -0.103,0.05 -0.152,0.178 -0.076,0.28 l 0.485,0.893 c 0.076,0.102 0.203,0.154 0.306,0.077 0.127,-0.051 0.153,-0.204 0.102,-0.307 l -0.51,-0.866 c -0.051,-0.068 -0.125,-0.114 -0.198,-0.114 -0.038,0 -0.075,0.012 -0.109,0.037" /></defs>
	<clipPath
   id="SVGID_97_">
		<use
   xlink:href="#SVGID_96_"
   overflow="visible"
   id="use456" />
	</clipPath>
	
		<linearGradient
   id="SVGID_98_"
   gradientUnits="userSpaceOnUse"
   x1="0"
   y1="425.1763"
   x2="1"
   y2="425.1763"
   gradientTransform="matrix(0.9541,0,0,-0.9541,110.5507,490.6277)">
		<stop
   offset="0"
   style="stop-color:#161730"
   id="stop459" />
		<stop
   offset="1"
   style="stop-color:#242C5B"
   id="stop461" />
	</linearGradient>
	<rect
   x="110.512"
   y="84.293999"
   clip-path="url(#SVGID_97_)"
   fill="url(#SVGID_98_)"
   width="1.021"
   height="1.364"
   id="rect464"
   style="fill:url(#SVGID_98_)" />
</g>
<g
   id="g481"
   transform="translate(-103.75174,-83.692999)">
	<defs
   id="defs469"><path
     id="SVGID_99_"
     d="m 111.786,83.846 c -0.127,0.051 -0.203,0.153 -0.153,0.281 l 0.256,0.969 c 0.025,0.128 0.153,0.204 0.28,0.178 0.103,-0.05 0.179,-0.152 0.154,-0.28 l -0.256,-0.97 c -0.045,-0.111 -0.147,-0.183 -0.24,-0.183 -0.014,0 -0.028,0.002 -0.041,0.005" /></defs>
	<clipPath
   id="SVGID_100_">
		<use
   xlink:href="#SVGID_99_"
   overflow="visible"
   id="use471" />
	</clipPath>
	
		<linearGradient
   id="SVGID_101_"
   gradientUnits="userSpaceOnUse"
   x1="0"
   y1="425.18311"
   x2="1"
   y2="425.18311"
   gradientTransform="matrix(0.7097,0,0,-0.7097,111.6171,386.3305)">
		<stop
   offset="0"
   style="stop-color:#161730"
   id="stop474" />
		<stop
   offset="1"
   style="stop-color:#242C5B"
   id="stop476" />
	</linearGradient>
	<rect
   x="111.583"
   y="83.841003"
   clip-path="url(#SVGID_100_)"
   fill="url(#SVGID_101_)"
   width="0.76499999"
   height="1.459"
   id="rect479"
   style="fill:url(#SVGID_101_)" />
</g>
<g
   id="g496"
   transform="translate(-103.75174,-83.692999)">
	<defs
   id="defs484"><path
     id="SVGID_102_"
     d="m 112.756,83.922 v 1.021 c 0,0.103 0.103,0.204 0.229,0.204 0.128,0 0.229,-0.101 0.229,-0.204 v -1.021 c 0,-0.126 -0.102,-0.228 -0.229,-0.228 -0.127,0 -0.229,0.102 -0.229,0.228" /></defs>
	<clipPath
   id="SVGID_103_">
		<use
   xlink:href="#SVGID_102_"
   overflow="visible"
   id="use486" />
	</clipPath>
	
		<linearGradient
   id="SVGID_104_"
   gradientUnits="userSpaceOnUse"
   x1="-0.00048828131"
   y1="425.19479"
   x2="0.99949998"
   y2="425.19479"
   gradientTransform="matrix(0.4589,0,0,-0.4589,112.756,279.5599)">
		<stop
   offset="0"
   style="stop-color:#161730"
   id="stop489" />
		<stop
   offset="1"
   style="stop-color:#242C5B"
   id="stop491" />
	</linearGradient>
	<rect
   x="112.756"
   y="83.694"
   clip-path="url(#SVGID_103_)"
   fill="url(#SVGID_104_)"
   width="0.45899999"
   height="1.4529999"
   id="rect494"
   style="fill:url(#SVGID_104_)" />
</g>
<g
   id="g511"
   transform="translate(-103.75174,-83.692999)">
	<defs
   id="defs499"><path
     id="SVGID_105_"
     d="m 105.767,101.445 v 2.27 c 0,0.128 0.077,0.23 0.204,0.23 0.127,0 0.23,-0.102 0.23,-0.23 v -2.27 c 0,-0.126 -0.104,-0.203 -0.23,-0.203 -0.126,0 -0.204,0.077 -0.204,0.203 m 0.714,-0.892 v 1.938 c 0,0.127 0.102,0.23 0.204,0.23 0.128,0 0.229,-0.103 0.229,-0.23 v -1.938 c 0,-0.128 -0.102,-0.23 -0.229,-0.23 -0.102,0 -0.204,0.102 -0.204,0.23" /></defs>
	<clipPath
   id="SVGID_106_">
		<use
   xlink:href="#SVGID_105_"
   overflow="visible"
   id="use501" />
	</clipPath>
	
		<linearGradient
   id="SVGID_107_"
   gradientUnits="userSpaceOnUse"
   x1="-0.00048828131"
   y1="425.19681"
   x2="1"
   y2="425.19681"
   gradientTransform="matrix(1.1477,0,0,-1.1477,105.7674,590.1311)">
		<stop
   offset="0"
   style="stop-color:#161730"
   id="stop504" />
		<stop
   offset="1"
   style="stop-color:#242C5B"
   id="stop506" />
	</linearGradient>
	<rect
   x="105.767"
   y="100.323"
   clip-path="url(#SVGID_106_)"
   fill="url(#SVGID_107_)"
   width="1.148"
   height="3.622"
   id="rect509"
   style="fill:url(#SVGID_107_)" />
</g>
<g
   id="g526"
   transform="translate(-103.75174,-83.692999)">
	<defs
   id="defs514"><path
     id="SVGID_108_"
     d="m 104.186,88.719 h 17.573 v 6.096 h -17.573 z m -0.204,-0.435 c -0.127,0 -0.23,0.102 -0.23,0.23 v 6.53 c 0,0.101 0.104,0.204 0.23,0.204 h 18.008 c 0.127,0 0.228,-0.103 0.228,-0.204 v -6.53 c 0,-0.128 -0.101,-0.23 -0.228,-0.23 z" /></defs>
	<clipPath
   id="SVGID_109_">
		<use
   xlink:href="#SVGID_108_"
   overflow="visible"
   id="use516" />
	</clipPath>
	
		<linearGradient
   id="SVGID_110_"
   gradientUnits="userSpaceOnUse"
   x1="-0.00048828131"
   y1="425.19681"
   x2="0.99949998"
   y2="425.19681"
   gradientTransform="matrix(18.4658,0,0,-18.4658,103.748,7943.3555)">
		<stop
   offset="0"
   style="stop-color:#161730"
   id="stop519" />
		<stop
   offset="1"
   style="stop-color:#242C5B"
   id="stop521" />
	</linearGradient>
	<rect
   x="103.752"
   y="88.283997"
   clip-path="url(#SVGID_109_)"
   fill="url(#SVGID_110_)"
   width="18.466"
   height="6.9640002"
   id="rect524"
   style="fill:url(#SVGID_110_)" />
</g>
<g
   id="g541"
   transform="translate(-103.75174,-83.692999)">
	<defs
   id="defs529"><path
     id="SVGID_111_"
     d="m 121.836,92.442 -2.423,2.449 c -0.103,0.076 -0.103,0.203 0,0.306 0.076,0.076 0.204,0.076 0.307,0 l 2.422,-2.449 c 0.102,-0.077 0.102,-0.23 0,-0.306 -0.039,-0.038 -0.089,-0.058 -0.144,-0.058 -0.054,0 -0.111,0.02 -0.162,0.058 m 0,-2.448 -4.896,4.897 c -0.076,0.076 -0.076,0.203 0,0.306 0.102,0.076 0.229,0.076 0.307,0 l 4.896,-4.898 c 0.102,-0.102 0.102,-0.23 0,-0.305 -0.039,-0.051 -0.089,-0.077 -0.144,-0.077 -0.055,0 -0.112,0.026 -0.163,0.077 m -15.584,-1.633 -2.423,2.423 c -0.103,0.077 -0.103,0.229 0,0.306 0.076,0.077 0.204,0.077 0.306,0 l 2.422,-2.423 c 0.078,-0.102 0.078,-0.229 0,-0.306 -0.038,-0.051 -0.095,-0.077 -0.151,-0.077 -0.058,0 -0.116,0.026 -0.154,0.077 m 2.474,0 -4.896,4.897 c -0.103,0.077 -0.103,0.204 0,0.306 0.076,0.077 0.204,0.077 0.306,0 l 4.897,-4.897 c 0.077,-0.102 0.077,-0.229 0,-0.306 -0.051,-0.051 -0.109,-0.077 -0.163,-0.077 -0.054,0 -0.106,0.026 -0.144,0.077 m 2.448,0 -6.529,6.53 c -0.076,0.076 -0.076,0.203 0,0.306 0.076,0.076 0.229,0.076 0.307,0 l 6.529,-6.53 c 0.076,-0.102 0.076,-0.229 0,-0.306 -0.037,-0.051 -0.096,-0.077 -0.152,-0.077 -0.059,0 -0.116,0.026 -0.155,0.077 m 2.449,0 -6.529,6.53 c -0.078,0.076 -0.078,0.203 0,0.306 0.102,0.076 0.229,0.076 0.307,0 l 6.528,-6.53 c 0.104,-0.102 0.104,-0.229 0,-0.306 -0.038,-0.051 -0.089,-0.077 -0.143,-0.077 -0.055,0 -0.112,0.026 -0.163,0.077 m 2.474,0 -6.528,6.53 c -0.077,0.076 -0.077,0.203 0,0.306 0.075,0.076 0.229,0.076 0.306,0 l 6.529,-6.53 c 0.075,-0.102 0.075,-0.229 0,-0.306 -0.038,-0.051 -0.096,-0.077 -0.153,-0.077 -0.058,0 -0.115,0.026 -0.154,0.077 m 2.448,0 -6.529,6.53 c -0.075,0.076 -0.075,0.203 0,0.306 0.103,0.076 0.229,0.076 0.308,0 l 6.528,-6.53 c 0.103,-0.102 0.103,-0.229 0,-0.306 -0.037,-0.051 -0.089,-0.077 -0.143,-0.077 -0.055,0 -0.112,0.026 -0.164,0.077 m 2.475,0 -6.529,6.53 c -0.103,0.076 -0.103,0.203 0,0.306 0.076,0.076 0.204,0.076 0.307,0 l 6.528,-6.53 c 0.077,-0.102 0.077,-0.229 0,-0.306 -0.05,-0.051 -0.108,-0.077 -0.162,-0.077 -0.054,0 -0.105,0.026 -0.144,0.077" /></defs>
	<clipPath
   id="SVGID_112_">
		<use
   xlink:href="#SVGID_111_"
   overflow="visible"
   id="use531" />
	</clipPath>
	
		<linearGradient
   id="SVGID_113_"
   gradientUnits="userSpaceOnUse"
   x1="-0.0009765625"
   y1="425.19681"
   x2="0.99900001"
   y2="425.19681"
   gradientTransform="matrix(18.4658,0,0,-18.4658,103.7476,7943.3721)">
		<stop
   offset="0"
   style="stop-color:#161730"
   id="stop534" />
		<stop
   offset="1"
   style="stop-color:#242C5B"
   id="stop536" />
	</linearGradient>
	<rect
   x="103.727"
   y="88.283997"
   clip-path="url(#SVGID_112_)"
   fill="url(#SVGID_113_)"
   width="18.517"
   height="6.9889998"
   id="rect539"
   style="fill:url(#SVGID_113_)" />
</g>
<g
   id="g556"
   transform="translate(-103.75174,-83.692999)">
	<defs
   id="defs544"><polygon
     id="SVGID_114_"
     points="106.481,88.719 104.186,91.013 104.186,92.876 108.343,88.719 " /></defs>
	<clipPath
   id="SVGID_115_">
		<use
   xlink:href="#SVGID_114_"
   overflow="visible"
   id="use546" />
	</clipPath>
	
		<linearGradient
   id="SVGID_116_"
   gradientUnits="userSpaceOnUse"
   x1="0"
   y1="425.19681"
   x2="1"
   y2="425.19681"
   gradientTransform="matrix(4.1577,0,0,-4.1577,104.1826,1858.6172)">
		<stop
   offset="0"
   style="stop-color:#F7A715"
   id="stop549" />
		<stop
   offset="1"
   style="stop-color:#FDC623"
   id="stop551" />
	</linearGradient>
	<rect
   x="104.186"
   y="88.719002"
   clip-path="url(#SVGID_115_)"
   fill="url(#SVGID_116_)"
   width="4.1570001"
   height="4.1570001"
   id="rect554"
   style="fill:url(#SVGID_116_)" />
</g>
<g
   id="g571"
   transform="translate(-103.75174,-83.692999)">
	<defs
   id="defs559"><polygon
     id="SVGID_117_"
     points="111.405,88.719 105.333,94.814 107.17,94.814 113.266,88.719 " /></defs>
	<clipPath
   id="SVGID_118_">
		<use
   xlink:href="#SVGID_117_"
   overflow="visible"
   id="use561" />
	</clipPath>
	
		<linearGradient
   id="SVGID_119_"
   gradientUnits="userSpaceOnUse"
   x1="0"
   y1="425.19681"
   x2="1"
   y2="425.19681"
   gradientTransform="matrix(7.9325,0,0,-7.9325,105.335,3464.6536)">
		<stop
   offset="0"
   style="stop-color:#F7A715"
   id="stop564" />
		<stop
   offset="1"
   style="stop-color:#FDC623"
   id="stop566" />
	</linearGradient>
	<rect
   x="105.333"
   y="88.719002"
   clip-path="url(#SVGID_118_)"
   fill="url(#SVGID_119_)"
   width="7.9330001"
   height="6.0949998"
   id="rect569"
   style="fill:url(#SVGID_119_)" />
</g>
<g
   id="g586"
   transform="translate(-103.75174,-83.692999)">
	<defs
   id="defs574"><polygon
     id="SVGID_120_"
     points="116.327,88.719 110.256,94.814 112.092,94.814 118.189,88.719 " /></defs>
	<clipPath
   id="SVGID_121_">
		<use
   xlink:href="#SVGID_120_"
   overflow="visible"
   id="use576" />
	</clipPath>
	
		<linearGradient
   id="SVGID_122_"
   gradientUnits="userSpaceOnUse"
   x1="-0.00048828131"
   y1="425.19479"
   x2="0.99949998"
   y2="425.19479"
   gradientTransform="matrix(7.9325,0,0,-7.9325,110.2566,3464.6377)">
		<stop
   offset="0"
   style="stop-color:#F7A715"
   id="stop579" />
		<stop
   offset="1"
   style="stop-color:#FDC623"
   id="stop581" />
	</linearGradient>
	<rect
   x="110.256"
   y="88.719002"
   clip-path="url(#SVGID_121_)"
   fill="url(#SVGID_122_)"
   width="7.934"
   height="6.0949998"
   id="rect584"
   style="fill:url(#SVGID_122_)" />
</g>
<g
   id="g601"
   transform="translate(-103.75174,-83.692999)">
	<defs
   id="defs589"><polygon
     id="SVGID_123_"
     points="121.759,88.719 121.249,88.719 115.179,94.814 117.015,94.814 121.759,90.044 " /></defs>
	<clipPath
   id="SVGID_124_">
		<use
   xlink:href="#SVGID_123_"
   overflow="visible"
   id="use591" />
	</clipPath>
	
		<linearGradient
   id="SVGID_125_"
   gradientUnits="userSpaceOnUse"
   x1="0"
   y1="425.19681"
   x2="1"
   y2="425.19681"
   gradientTransform="matrix(6.5804,0,0,-6.5804,115.1785,2889.731)">
		<stop
   offset="0"
   style="stop-color:#F7A715"
   id="stop594" />
		<stop
   offset="1"
   style="stop-color:#FDC623"
   id="stop596" />
	</linearGradient>
	<rect
   x="115.179"
   y="88.719002"
   clip-path="url(#SVGID_124_)"
   fill="url(#SVGID_125_)"
   width="6.5799999"
   height="6.0949998"
   id="rect599"
   style="fill:url(#SVGID_125_)" />
</g>
<g
   id="g616"
   transform="translate(-103.75174,-83.692999)">
	<defs
   id="defs604"><polygon
     id="SVGID_126_"
     points="121.759,94.814 121.759,93.13 120.076,94.814 " /></defs>
	<clipPath
   id="SVGID_127_">
		<use
   xlink:href="#SVGID_126_"
   overflow="visible"
   id="use606" />
	</clipPath>
	
		<linearGradient
   id="SVGID_128_"
   gradientUnits="userSpaceOnUse"
   x1="-0.00048828131"
   y1="425.1958"
   x2="0.99900001"
   y2="425.1958"
   gradientTransform="matrix(1.6832,0,0,-1.6832,120.0759,809.6832)">
		<stop
   offset="0"
   style="stop-color:#F7A715"
   id="stop609" />
		<stop
   offset="1"
   style="stop-color:#FDC623"
   id="stop611" />
	</linearGradient>
	<rect
   x="120.076"
   y="93.129997"
   clip-path="url(#SVGID_127_)"
   fill="url(#SVGID_128_)"
   width="1.683"
   height="1.684"
   id="rect614"
   style="fill:url(#SVGID_128_)" />
</g>
















































































































































































































































</svg>
