<?xml version="1.0" encoding="UTF-8" standalone="no"?>
<!-- Generator: Adobe Illustrator 13.0.0, SVG Export Plug-In . SVG Version: 6.00 Build 14948)  -->

<svg
   version="1.1"
   id="Layer_1"
   x="0px"
   y="0px"
   width="8.4420013"
   height="24.376984"
   viewBox="0 0 8.4420011 24.376984"
   enable-background="new 0 0 187.087 425.197"
   xml:space="preserve"
   sodipodi:docname="sfondo_cell.svg"
   xmlns:inkscape="http://www.inkscape.org/namespaces/inkscape"
   xmlns:sodipodi="http://sodipodi.sourceforge.net/DTD/sodipodi-0.dtd"
   xmlns:xlink="http://www.w3.org/1999/xlink"
   xmlns="http://www.w3.org/2000/svg"
   xmlns:svg="http://www.w3.org/2000/svg"><defs
   id="defs4221" /><sodipodi:namedview
   id="namedview4219"
   pagecolor="#ffffff"
   bordercolor="#000000"
   borderopacity="0.25"
   inkscape:showpageshadow="2"
   inkscape:pageopacity="0.0"
   inkscape:pagecheckerboard="0"
   inkscape:deskcolor="#d1d1d1"
   showgrid="false" />







































































































<g
   id="g1471"
   transform="translate(-109.19799,-178.132)">
	<defs
   id="defs1459"><path
     id="SVGID_297_"
     d="m 111.06,180.963 c 0,-0.663 0.281,-1.25 0.689,-1.683 0.433,-0.409 1.02,-0.688 1.683,-0.688 0.639,0 1.225,0.279 1.658,0.688 l 0.025,0.025 c 0.409,0.408 0.664,0.995 0.664,1.658 v 6.504 h -4.72 v -6.504 z m 0.383,-1.989 c -0.512,0.509 -0.816,1.198 -0.816,1.989 v 6.734 c 0,0.127 0.076,0.229 0.204,0.229 h 5.177 c 0.128,0 0.23,-0.102 0.23,-0.229 v -6.734 c 0,-0.765 -0.307,-1.48 -0.817,-1.989 -0.51,-0.51 -1.224,-0.842 -1.989,-0.842 -0.791,0 -1.479,0.332 -1.989,0.842" /></defs>
	<clipPath
   id="SVGID_298_">
		<use
   xlink:href="#SVGID_297_"
   overflow="visible"
   id="use1461" />
	</clipPath>
	
		<linearGradient
   id="SVGID_299_"
   gradientUnits="userSpaceOnUse"
   x1="-0.00048828131"
   y1="425.19681"
   x2="0.99949998"
   y2="425.19681"
   gradientTransform="matrix(5.6108,0,0,-5.6108,110.6286,2568.7166)">
		<stop
   offset="0"
   style="stop-color:#161730"
   id="stop1464" />
		<stop
   offset="1"
   style="stop-color:#242C5B"
   id="stop1466" />
	</linearGradient>
	<rect
   x="110.627"
   y="178.132"
   clip-path="url(#SVGID_298_)"
   fill="url(#SVGID_299_)"
   width="5.6110001"
   height="9.7939997"
   id="rect1469"
   style="fill:url(#SVGID_299_)" />
</g>
<g
   id="g1486"
   transform="translate(-109.19799,-178.132)">
	<defs
   id="defs1474"><path
     id="SVGID_300_"
     d="m 111.953,178.692 v 6.837 c 0,0.128 0.076,0.229 0.204,0.229 0.127,0 0.229,-0.101 0.229,-0.229 v -6.837 c 0,-0.127 -0.103,-0.228 -0.229,-0.228 -0.128,0 -0.204,0.101 -0.204,0.228 m 2.499,0 v 6.837 c 0,0.128 0.103,0.229 0.229,0.229 0.126,0 0.229,-0.101 0.229,-0.229 v -6.837 c 0,-0.127 -0.103,-0.228 -0.229,-0.228 -0.126,0 -0.229,0.101 -0.229,0.228" /></defs>
	<clipPath
   id="SVGID_301_">
		<use
   xlink:href="#SVGID_300_"
   overflow="visible"
   id="use1476" />
	</clipPath>
	
		<linearGradient
   id="SVGID_302_"
   gradientUnits="userSpaceOnUse"
   x1="0.00048828131"
   y1="425.19781"
   x2="1"
   y2="425.19781"
   gradientTransform="matrix(2.9586,0,0,-2.9586,111.9526,1440.0994)">
		<stop
   offset="0"
   style="stop-color:#161730"
   id="stop1479" />
		<stop
   offset="1"
   style="stop-color:#242C5B"
   id="stop1481" />
	</linearGradient>
	<rect
   x="111.953"
   y="178.464"
   clip-path="url(#SVGID_301_)"
   fill="url(#SVGID_302_)"
   width="2.9579999"
   height="7.2940001"
   id="rect1484"
   style="fill:url(#SVGID_302_)" />
</g>
<g
   id="g1501"
   transform="translate(-109.19799,-178.132)">
	<defs
   id="defs1489"><path
     id="SVGID_303_"
     d="m 112.004,200.093 0.586,-1.786 v -0.076 -8.775 h 1.685 v 8.775 0.076 l 0.587,1.786 -1.43,1.836 z m 0.357,-11.069 c -0.127,0 -0.229,0.101 -0.229,0.203 v 8.978 l -0.587,1.862 c -0.026,0.077 -0.026,0.153 0.025,0.205 0.484,0.611 1.198,1.683 1.709,2.193 0.102,0.076 0.255,0.05 0.332,-0.051 l 1.656,-2.117 c 0.053,-0.077 0.077,-0.153 0.053,-0.23 l -0.613,-1.862 v -8.978 c 0,-0.102 -0.102,-0.203 -0.229,-0.203 z" /></defs>
	<clipPath
   id="SVGID_304_">
		<use
   xlink:href="#SVGID_303_"
   overflow="visible"
   id="use1491" />
	</clipPath>
	
		<linearGradient
   id="SVGID_305_"
   gradientUnits="userSpaceOnUse"
   x1="0"
   y1="425.1929"
   x2="1"
   y2="425.1929"
   gradientTransform="matrix(3.8017,0,0,-3.8017,111.5285,1812.2507)">
		<stop
   offset="0"
   style="stop-color:#161730"
   id="stop1494" />
		<stop
   offset="1"
   style="stop-color:#242C5B"
   id="stop1496" />
	</linearGradient>
	<rect
   x="111.519"
   y="189.024"
   clip-path="url(#SVGID_304_)"
   fill="url(#SVGID_305_)"
   width="3.826"
   height="13.517"
   id="rect1499"
   style="fill:url(#SVGID_305_)" />
</g>
<g
   id="g1516"
   transform="translate(-109.19799,-178.132)">
	<defs
   id="defs1504"><path
     id="SVGID_306_"
     d="m 109.81,188.844 c -0.102,-0.101 -0.151,-0.229 -0.151,-0.382 0,-0.153 0.05,-0.281 0.151,-0.383 l 0.026,-0.025 c 0.103,-0.076 0.23,-0.128 0.383,-0.128 h 6.426 c 0.154,0 0.281,0.052 0.385,0.153 0.102,0.102 0.178,0.23 0.178,0.383 0,0.153 -0.076,0.281 -0.178,0.382 -0.104,0.103 -0.23,0.18 -0.385,0.18 h -6.426 c -0.153,0 -0.306,-0.077 -0.409,-0.18 m 0.409,-1.377 c -0.28,0 -0.511,0.102 -0.715,0.28 -0.178,0.179 -0.306,0.434 -0.306,0.715 0,0.281 0.128,0.535 0.306,0.714 0.179,0.179 0.435,0.28 0.715,0.28 h 6.426 c 0.281,0 0.536,-0.101 0.716,-0.28 0.179,-0.179 0.28,-0.433 0.28,-0.714 0,-0.281 -0.102,-0.51 -0.28,-0.689 v -0.026 c -0.18,-0.178 -0.435,-0.28 -0.716,-0.28 z" /></defs>
	<clipPath
   id="SVGID_307_">
		<use
   xlink:href="#SVGID_306_"
   overflow="visible"
   id="use1506" />
	</clipPath>
	
		<linearGradient
   id="SVGID_308_"
   gradientUnits="userSpaceOnUse"
   x1="-0.00048828131"
   y1="425.19681"
   x2="0.99949998"
   y2="425.19681"
   gradientTransform="matrix(8.4424,0,0,-8.4424,109.1926,3778.1355)">
		<stop
   offset="0"
   style="stop-color:#161730"
   id="stop1509" />
		<stop
   offset="1"
   style="stop-color:#242C5B"
   id="stop1511" />
	</linearGradient>
	<rect
   x="109.198"
   y="187.467"
   clip-path="url(#SVGID_307_)"
   fill="url(#SVGID_308_)"
   width="8.4420004"
   height="1.989"
   id="rect1514"
   style="fill:url(#SVGID_308_)" />
</g>
<g
   id="g1531"
   transform="translate(-109.19799,-178.132)">
	<defs
   id="defs1519"><path
     id="SVGID_309_"
     d="m 113.202,196.777 v 1.454 c 0,0.076 0.051,0.179 0.128,0.204 0.154,0.076 0.306,-0.051 0.306,-0.204 v -1.454 c 0,-0.076 -0.051,-0.178 -0.102,-0.204 -0.027,-0.009 -0.056,-0.014 -0.083,-0.014 -0.128,0 -0.249,0.092 -0.249,0.218 m 0,-1.734 v 0.433 c 0,0.076 0.051,0.179 0.128,0.204 0.154,0.076 0.306,-0.051 0.306,-0.204 v -0.433 c 0,-0.077 -0.051,-0.153 -0.102,-0.179 -0.036,-0.018 -0.073,-0.026 -0.109,-0.026 -0.118,0 -0.223,0.087 -0.223,0.205 m 0,-3.445 v 2.143 c 0,0.103 0.051,0.179 0.128,0.205 0.154,0.076 0.306,-0.026 0.306,-0.205 v -2.143 c 0,-0.075 -0.051,-0.178 -0.102,-0.203 -0.031,-0.016 -0.064,-0.023 -0.096,-0.023 -0.123,0 -0.236,0.106 -0.236,0.226" /></defs>
	<clipPath
   id="SVGID_310_">
		<use
   xlink:href="#SVGID_309_"
   overflow="visible"
   id="use1521" />
	</clipPath>
	
		<linearGradient
   id="SVGID_311_"
   gradientUnits="userSpaceOnUse"
   x1="-0.00048828131"
   y1="425.1362"
   x2="0.99900001"
   y2="425.1362"
   gradientTransform="matrix(0.4338,0,0,-0.4338,113.2023,379.3499)">
		<stop
   offset="0"
   style="stop-color:#161730"
   id="stop1524" />
		<stop
   offset="1"
   style="stop-color:#242C5B"
   id="stop1526" />
	</linearGradient>
	<rect
   x="113.202"
   y="191.37199"
   clip-path="url(#SVGID_310_)"
   fill="url(#SVGID_311_)"
   width="0.43399999"
   height="7.1389999"
   id="rect1529"
   style="fill:url(#SVGID_311_)" />
</g>
<g
   id="g1546"
   transform="translate(-109.19799,-178.132)">
	<defs
   id="defs1534"><path
     id="SVGID_312_"
     d="m 112.387,178.846 v 6.683 c 0,0.128 -0.103,0.229 -0.229,0.229 -0.128,0 -0.204,-0.101 -0.204,-0.229 v -6.403 c -0.077,0.051 -0.128,0.103 -0.204,0.154 -0.408,0.433 -0.689,1.02 -0.689,1.683 v 6.504 h 4.72 v -6.504 c 0,-0.663 -0.255,-1.25 -0.664,-1.658 l -0.025,-0.025 c -0.051,-0.051 -0.102,-0.103 -0.179,-0.154 v 6.403 c 0,0.128 -0.103,0.229 -0.229,0.229 -0.126,0 -0.229,-0.101 -0.229,-0.229 v -6.683 c -0.306,-0.179 -0.663,-0.254 -1.021,-0.254 -0.384,0 -0.741,0.075 -1.047,0.254" /></defs>
	<clipPath
   id="SVGID_313_">
		<use
   xlink:href="#SVGID_312_"
   overflow="visible"
   id="use1536" />
	</clipPath>
	
		<linearGradient
   id="SVGID_314_"
   gradientUnits="userSpaceOnUse"
   x1="0"
   y1="425.19781"
   x2="1.0005"
   y2="425.19781"
   gradientTransform="matrix(4.7188,0,0,-4.7188,111.0612,2189.4355)">
		<stop
   offset="0"
   style="stop-color:#F7A715"
   id="stop1539" />
		<stop
   offset="1"
   style="stop-color:#FDC623"
   id="stop1541" />
	</linearGradient>
	<rect
   x="111.06"
   y="178.592"
   clip-path="url(#SVGID_313_)"
   fill="url(#SVGID_314_)"
   width="4.7199998"
   height="8.875"
   id="rect1544"
   style="fill:url(#SVGID_314_)" />
</g>


















































































































































































</svg>
