<?xml version="1.0" encoding="UTF-8" standalone="no"?>
<!-- Generator: Adobe Illustrator 13.0.0, SVG Export Plug-In . SVG Version: 6.00 Build 14948)  -->

<svg
   version="1.1"
   id="Layer_1"
   x="0px"
   y="0px"
   width="20.43631"
   height="16.693802"
   viewBox="0 0 20.436309 16.693802"
   enable-background="new 0 0 187.087 425.197"
   xml:space="preserve"
   sodipodi:docname="sfondo_cell.svg"
   xmlns:inkscape="http://www.inkscape.org/namespaces/inkscape"
   xmlns:sodipodi="http://sodipodi.sourceforge.net/DTD/sodipodi-0.dtd"
   xmlns:xlink="http://www.w3.org/1999/xlink"
   xmlns="http://www.w3.org/2000/svg"
   xmlns:svg="http://www.w3.org/2000/svg"><defs
   id="defs4221" /><sodipodi:namedview
   id="namedview4219"
   pagecolor="#ffffff"
   bordercolor="#000000"
   borderopacity="0.25"
   inkscape:showpageshadow="2"
   inkscape:pageopacity="0.0"
   inkscape:pagecheckerboard="0"
   inkscape:deskcolor="#d1d1d1"
   showgrid="false" />














































































































































































































<g
   id="g3016"
   transform="translate(-143.54549,-229.27673)">
	<defs
   id="defs3004"><path
     id="SVGID_606_"
     d="m 144.336,237.035 12.88,-2.04 -0.943,3.214 -5.892,2.168 z m -0.612,-0.306 c -0.076,0 -0.128,0.051 -0.152,0.103 -0.053,0.102 -0.026,0.203 0.076,0.28 l 6.605,3.646 c 0.051,0.026 0.103,0.026 0.153,0 l 6.096,-2.218 c 0.051,-0.024 0.102,-0.051 0.128,-0.127 l 1.071,-3.623 v -0.075 c -0.026,-0.103 -0.128,-0.179 -0.23,-0.179 z" /></defs>
	<clipPath
   id="SVGID_607_">
		<use
   xlink:href="#SVGID_606_"
   overflow="visible"
   id="use3006" />
	</clipPath>
	
		<linearGradient
   id="SVGID_608_"
   gradientUnits="userSpaceOnUse"
   x1="0"
   y1="425.19681"
   x2="1"
   y2="425.19681"
   gradientTransform="matrix(14.156,0,0,-14.156,143.5487,6256.7344)">
		<stop
   offset="0"
   style="stop-color:#161730"
   id="stop3009" />
		<stop
   offset="1"
   style="stop-color:#242C5B"
   id="stop3011" />
	</linearGradient>
	<rect
   x="143.519"
   y="234.536"
   clip-path="url(#SVGID_607_)"
   fill="url(#SVGID_608_)"
   width="14.183"
   height="6.2480001"
   id="rect3014"
   style="fill:url(#SVGID_608_)" />
</g>
<g
   id="g3031"
   transform="translate(-143.54549,-229.27673)">
	<defs
   id="defs3019"><path
     id="SVGID_609_"
     d="m 148.085,237.035 -1.887,0.307 c -0.255,0.051 -0.153,0.407 0.076,0.382 l 1.861,-0.306 c 0.264,-0.049 0.19,-0.388 -0.009,-0.388 -0.013,0 -0.027,0.002 -0.041,0.005 m 1.505,-0.23 -0.383,0.051 c -0.254,0.051 -0.153,0.435 0.077,0.384 l 0.356,-0.051 c 0.264,-0.048 0.189,-0.389 -0.01,-0.389 -0.012,0 -0.026,0.002 -0.04,0.005 m 3.01,-0.484 -1.888,0.306 c -0.255,0.052 -0.153,0.408 0.051,0.385 l 1.889,-0.308 c 0.238,-0.048 0.186,-0.387 -0.012,-0.387 -0.013,0 -0.026,0.001 -0.04,0.004 m 1.504,-0.23 -0.382,0.052 c -0.255,0.05 -0.178,0.433 0.052,0.382 l 0.383,-0.051 c 0.236,-0.071 0.187,-0.388 -0.008,-0.388 -0.015,0 -0.029,10e-4 -0.045,0.005 m 2.118,-0.357 -0.995,0.179 c -0.279,0.051 -0.179,0.408 0.052,0.383 l 1.02,-0.178 c 0.246,-0.05 0.16,-0.385 -0.052,-0.385 -0.009,0 -0.017,0 -0.025,0.001" /></defs>
	<clipPath
   id="SVGID_610_">
		<use
   xlink:href="#SVGID_609_"
   overflow="visible"
   id="use3021" />
	</clipPath>
	
		<linearGradient
   id="SVGID_611_"
   gradientUnits="userSpaceOnUse"
   x1="0"
   y1="425.19479"
   x2="1"
   y2="425.19479"
   gradientTransform="matrix(10.3993,0,0,-10.3993,146.0442,4658.4751)">
		<stop
   offset="0"
   style="stop-color:#161730"
   id="stop3024" />
		<stop
   offset="1"
   style="stop-color:#242C5B"
   id="stop3026" />
	</linearGradient>
	<rect
   x="145.94299"
   y="235.733"
   clip-path="url(#SVGID_610_)"
   fill="url(#SVGID_611_)"
   width="10.601"
   height="2.016"
   id="rect3029"
   style="fill:url(#SVGID_611_)" />
</g>
<g
   id="g3046"
   transform="translate(-143.54549,-229.27673)">
	<defs
   id="defs3034"><path
     id="SVGID_612_"
     d="m 155.839,238.54 0.688,4.362 -0.535,0.255 -3.749,-3.367 c -0.076,-0.077 -0.204,-0.051 -0.281,0.025 -0.076,0.077 -0.051,0.204 0.026,0.281 l 3.851,3.468 c 0.051,0.051 0.153,0.051 0.229,0.026 l 0.766,-0.408 c 0.076,-0.025 0.102,-0.127 0.102,-0.203 l -0.714,-4.49 c -0.025,-0.127 -0.128,-0.178 -0.229,-0.178 -0.103,0.023 -0.18,0.127 -0.154,0.229" /></defs>
	<clipPath
   id="SVGID_613_">
		<use
   xlink:href="#SVGID_612_"
   overflow="visible"
   id="use3036" />
	</clipPath>
	
		<linearGradient
   id="SVGID_614_"
   gradientUnits="userSpaceOnUse"
   x1="0"
   y1="425.1958"
   x2="1"
   y2="425.1958"
   gradientTransform="matrix(5.0196,0,0,-5.0196,151.9164,2375.2896)">
		<stop
   offset="0"
   style="stop-color:#161730"
   id="stop3039" />
		<stop
   offset="1"
   style="stop-color:#242C5B"
   id="stop3041" />
	</linearGradient>
	<rect
   x="151.886"
   y="238.311"
   clip-path="url(#SVGID_613_)"
   fill="url(#SVGID_614_)"
   width="5.0500002"
   height="5.3039999"
   id="rect3044"
   style="fill:url(#SVGID_614_)" />
</g>
<g
   id="g3061"
   transform="translate(-143.54549,-229.27673)">
	<defs
   id="defs3049"><path
     id="SVGID_615_"
     d="m 149.259,241.396 -0.128,-0.075 0.663,-0.817 0.281,0.153 -0.639,0.892 c -0.05,-0.05 -0.101,-0.101 -0.177,-0.153 m 0.331,-1.274 -0.918,1.097 c -0.051,0.103 -0.051,0.229 0.025,0.28 l 0.103,0.076 c 0.076,0.051 0.153,0.103 0.229,0.153 0.077,0.052 0.152,0.103 0.229,0.18 l 0.102,0.101 c 0.102,0.052 0.205,0.025 0.28,-0.051 l 0.868,-1.25 c 0.075,-0.102 0.05,-0.229 -0.052,-0.28 l -0.612,-0.356 c -0.026,-0.019 -0.061,-0.027 -0.095,-0.027 -0.061,-0.002 -0.126,0.027 -0.159,0.077" /></defs>
	<clipPath
   id="SVGID_616_">
		<use
   xlink:href="#SVGID_615_"
   overflow="visible"
   id="use3051" />
	</clipPath>
	
		<linearGradient
   id="SVGID_617_"
   gradientUnits="userSpaceOnUse"
   x1="0"
   y1="425.19089"
   x2="1"
   y2="425.19089"
   gradientTransform="matrix(1.9164,0,0,-1.9164,148.6364,1055.8698)">
		<stop
   offset="0"
   style="stop-color:#161730"
   id="stop3054" />
		<stop
   offset="1"
   style="stop-color:#242C5B"
   id="stop3056" />
	</linearGradient>
	<rect
   x="148.621"
   y="240.043"
   clip-path="url(#SVGID_616_)"
   fill="url(#SVGID_617_)"
   width="1.9630001"
   height="2.017"
   id="rect3059"
   style="fill:url(#SVGID_617_)" />
</g>
<g
   id="g3076"
   transform="translate(-143.54549,-229.27673)">
	<defs
   id="defs3064"><path
     id="SVGID_618_"
     d="m 146.605,245.248 v -0.025 c -0.459,-0.28 -0.815,-0.74 -0.944,-1.325 -0.126,-0.563 0,-1.15 0.282,-1.608 0.306,-0.458 0.765,-0.815 1.352,-0.942 0.562,-0.128 1.147,0 1.606,0.279 0.459,0.308 0.816,0.767 0.943,1.354 0.127,0.56 0,1.146 -0.279,1.604 -0.307,0.46 -0.766,0.817 -1.353,0.944 -0.147,0.034 -0.298,0.05 -0.448,0.05 -0.414,-0.001 -0.821,-0.125 -1.159,-0.331 m 0.587,-4.286 c -0.663,0.153 -1.225,0.562 -1.557,1.098 l -0.024,0.025 c -0.331,0.535 -0.484,1.225 -0.331,1.912 0.152,0.664 0.56,1.225 1.096,1.557 l 0.026,0.025 c 0.536,0.332 1.224,0.485 1.913,0.332 0.662,-0.153 1.224,-0.562 1.581,-1.123 0.331,-0.536 0.484,-1.225 0.331,-1.912 -0.152,-0.664 -0.562,-1.225 -1.097,-1.582 h -0.024 c -0.396,-0.244 -0.871,-0.392 -1.369,-0.392 -0.18,0.001 -0.362,0.02 -0.545,0.06" /></defs>
	<clipPath
   id="SVGID_619_">
		<use
   xlink:href="#SVGID_618_"
   overflow="visible"
   id="use3066" />
	</clipPath>
	
		<linearGradient
   id="SVGID_620_"
   gradientUnits="userSpaceOnUse"
   x1="0"
   y1="425.18701"
   x2="1"
   y2="425.18701"
   gradientTransform="matrix(5.0672,0,0,-5.0672,145.2198,2397.9802)">
		<stop
   offset="0"
   style="stop-color:#161730"
   id="stop3069" />
		<stop
   offset="1"
   style="stop-color:#242C5B"
   id="stop3071" />
	</linearGradient>
	<rect
   x="145.127"
   y="240.903"
   clip-path="url(#SVGID_619_)"
   fill="url(#SVGID_620_)"
   width="5.2540002"
   height="5.1620002"
   id="rect3074"
   style="fill:url(#SVGID_620_)" />
</g>
<g
   id="g3091"
   transform="translate(-143.54549,-229.27673)">
	<defs
   id="defs3079"><path
     id="SVGID_621_"
     d="m 147.091,244.457 c -0.255,-0.152 -0.434,-0.407 -0.511,-0.738 l -0.025,-0.026 c -0.051,-0.331 0,-0.637 0.179,-0.918 0.152,-0.255 0.408,-0.459 0.739,-0.51 l 0.025,-0.025 c 0.332,-0.052 0.638,0 0.918,0.178 0.256,0.153 0.434,0.409 0.511,0.74 l 0.026,0.025 c 0.05,0.332 0,0.638 -0.179,0.893 -0.153,0.281 -0.408,0.459 -0.74,0.535 l -0.025,0.025 c -0.081,0.013 -0.16,0.02 -0.237,0.02 -0.242,-0.001 -0.469,-0.065 -0.681,-0.199 m 0.331,-2.601 h -0.024 c -0.435,0.102 -0.792,0.356 -0.995,0.714 -0.229,0.357 -0.308,0.791 -0.229,1.199 v 0.025 c 0.102,0.434 0.382,0.789 0.713,0.994 0.358,0.23 0.791,0.307 1.199,0.23 h 0.026 c 0.433,-0.103 0.79,-0.384 0.995,-0.715 0.229,-0.356 0.306,-0.79 0.229,-1.199 v -0.025 c -0.102,-0.434 -0.382,-0.791 -0.714,-0.994 -0.268,-0.172 -0.578,-0.258 -0.89,-0.258 -0.104,0.001 -0.208,0.009 -0.31,0.029" /></defs>
	<clipPath
   id="SVGID_622_">
		<use
   xlink:href="#SVGID_621_"
   overflow="visible"
   id="use3081" />
	</clipPath>
	
		<linearGradient
   id="SVGID_623_"
   gradientUnits="userSpaceOnUse"
   x1="0"
   y1="425.189"
   x2="1"
   y2="425.189"
   gradientTransform="matrix(3.2199,0,0,-3.2199,146.1427,1612.5292)">
		<stop
   offset="0"
   style="stop-color:#161730"
   id="stop3084" />
		<stop
   offset="1"
   style="stop-color:#242C5B"
   id="stop3086" />
	</linearGradient>
	<rect
   x="146.095"
   y="241.828"
   clip-path="url(#SVGID_622_)"
   fill="url(#SVGID_623_)"
   width="3.3169999"
   height="3.2679999"
   id="rect3089"
   style="fill:url(#SVGID_623_)" />
</g>
<g
   id="g3106"
   transform="translate(-143.54549,-229.27673)">
	<defs
   id="defs3094"><path
     id="SVGID_624_"
     d="m 148.953,233.771 c 0.483,-0.408 0.943,-0.791 1.224,-0.587 1.122,0.714 2.271,0.79 3.239,0.866 0.944,0.052 1.709,0.102 1.99,0.816 l -9.515,1.531 c 0.025,-0.435 0.127,-0.944 0.307,-1.354 0.076,-0.229 0.178,-0.407 0.28,-0.534 0.076,-0.076 0.153,-0.128 0.204,-0.128 0.051,0.025 0.076,0.025 0.103,0.052 0.2,0.145 0.399,0.205 0.599,0.205 0.536,0.001 1.066,-0.44 1.569,-0.867 m -0.256,-0.307 c -0.562,0.483 -1.174,1.02 -1.684,0.662 -0.075,-0.051 -0.152,-0.102 -0.229,-0.127 -0.23,-0.052 -0.435,0.051 -0.612,0.256 -0.128,0.152 -0.256,0.382 -0.357,0.662 -0.204,0.536 -0.332,1.226 -0.357,1.685 v 0.05 c 0.025,0.103 0.128,0.18 0.229,0.153 l 10.025,-1.58 c 0.102,-0.026 0.178,-0.129 0.153,-0.23 -0.307,-1.224 -1.25,-1.275 -2.423,-1.352 -0.919,-0.052 -2.017,-0.127 -3.036,-0.79 -0.135,-0.087 -0.271,-0.124 -0.407,-0.124 -0.427,0 -0.857,0.368 -1.302,0.735" /></defs>
	<clipPath
   id="SVGID_625_">
		<use
   xlink:href="#SVGID_624_"
   overflow="visible"
   id="use3096" />
	</clipPath>
	
		<linearGradient
   id="SVGID_626_"
   gradientUnits="userSpaceOnUse"
   x1="0"
   y1="425.1958"
   x2="1"
   y2="425.1958"
   gradientTransform="matrix(10.4115,0,0,-10.4115,145.4561,4661.7021)">
		<stop
   offset="0"
   style="stop-color:#161730"
   id="stop3099" />
		<stop
   offset="1"
   style="stop-color:#242C5B"
   id="stop3101" />
	</linearGradient>
	<rect
   x="145.45799"
   y="232.729"
   clip-path="url(#SVGID_625_)"
   fill="url(#SVGID_626_)"
   width="10.432"
   height="4.1030002"
   id="rect3104"
   style="fill:url(#SVGID_626_)" />
</g>
<g
   id="g3121"
   transform="translate(-143.54549,-229.27673)">
	<defs
   id="defs3109"><path
     id="SVGID_627_"
     d="m 163.746,229.281 -3.163,0.714 c -0.051,0 -0.101,0.051 -0.127,0.077 l -3.112,4.565 c -0.051,0.077 -0.025,0.204 0.051,0.256 0.076,0.05 0.204,0.05 0.256,-0.052 l 3.086,-4.488 3.112,-0.689 c 0.102,-0.024 0.152,-0.128 0.126,-0.229 -0.021,-0.088 -0.101,-0.158 -0.188,-0.158 -0.014,-10e-4 -0.027,0.001 -0.041,0.004" /></defs>
	<clipPath
   id="SVGID_628_">
		<use
   xlink:href="#SVGID_627_"
   overflow="visible"
   id="use3111" />
	</clipPath>
	
		<linearGradient
   id="SVGID_629_"
   gradientUnits="userSpaceOnUse"
   x1="0"
   y1="425.19479"
   x2="1"
   y2="425.19479"
   gradientTransform="matrix(6.6647,0,0,-6.6647,157.3183,3065.8916)">
		<stop
   offset="0"
   style="stop-color:#161730"
   id="stop3114" />
		<stop
   offset="1"
   style="stop-color:#242C5B"
   id="stop3116" />
	</linearGradient>
	<rect
   x="157.293"
   y="229.276"
   clip-path="url(#SVGID_628_)"
   fill="url(#SVGID_629_)"
   width="6.7080002"
   height="5.6669998"
   id="rect3119"
   style="fill:url(#SVGID_629_)" />
</g>
<g
   id="g3136"
   transform="translate(-143.54549,-229.27673)">
	<defs
   id="defs3124"><path
     id="SVGID_630_"
     d="m 146.886,244.789 c -0.331,-0.205 -0.611,-0.561 -0.713,-0.994 v -0.025 c -0.078,-0.408 0,-0.842 0.229,-1.199 0.203,-0.357 0.561,-0.612 0.995,-0.714 h 0.024 c 0.408,-0.076 0.842,0 1.199,0.229 0.332,0.203 0.612,0.561 0.714,0.994 v 0.025 c 0.077,0.409 0,0.843 -0.229,1.199 -0.205,0.331 -0.563,0.612 -0.995,0.715 h -0.026 c -0.102,0.019 -0.205,0.027 -0.309,0.027 -0.31,0 -0.621,-0.086 -0.889,-0.257 m 0.409,-3.443 c -0.587,0.127 -1.046,0.484 -1.352,0.942 -0.282,0.458 -0.408,1.046 -0.282,1.608 0.129,0.585 0.485,1.045 0.944,1.325 v 0.025 c 0.459,0.28 1.047,0.409 1.607,0.28 0.587,-0.127 1.046,-0.484 1.353,-0.944 0.279,-0.458 0.406,-1.045 0.279,-1.604 -0.102,-0.435 -0.306,-0.792 -0.586,-1.071 l -0.229,-0.18 -0.229,-0.153 c -0.328,-0.182 -0.682,-0.272 -1.053,-0.272 -0.148,0 -0.299,0.015 -0.452,0.044" /></defs>
	<clipPath
   id="SVGID_631_">
		<use
   xlink:href="#SVGID_630_"
   overflow="visible"
   id="use3126" />
	</clipPath>
	
		<linearGradient
   id="SVGID_632_"
   gradientUnits="userSpaceOnUse"
   x1="0"
   y1="425.18799"
   x2="1"
   y2="425.18799"
   gradientTransform="matrix(4.2822,0,0,-4.2822,145.6098,2064.2329)">
		<stop
   offset="0"
   style="stop-color:#F7A715"
   id="stop3129" />
		<stop
   offset="1"
   style="stop-color:#FDC623"
   id="stop3131" />
	</linearGradient>
	<rect
   x="145.535"
   y="241.302"
   clip-path="url(#SVGID_631_)"
   fill="url(#SVGID_632_)"
   width="4.4369998"
   height="4.3540001"
   id="rect3134"
   style="fill:url(#SVGID_632_)" />
</g>
<g
   id="g3151"
   transform="translate(-143.54549,-229.27673)">
	<defs
   id="defs3139"><path
     id="SVGID_633_"
     d="m 148.953,233.771 c -0.689,0.586 -1.43,1.197 -2.168,0.663 -0.026,-0.026 -0.052,-0.026 -0.103,-0.052 -0.051,0 -0.128,0.052 -0.204,0.128 -0.103,0.127 -0.204,0.305 -0.28,0.534 -0.18,0.409 -0.281,0.919 -0.307,1.354 l 9.515,-1.531 c -0.281,-0.715 -1.046,-0.765 -1.99,-0.816 -0.969,-0.076 -2.117,-0.152 -3.239,-0.866 -0.054,-0.039 -0.113,-0.058 -0.18,-0.058 -0.278,-0.001 -0.653,0.314 -1.044,0.644" /></defs>
	<clipPath
   id="SVGID_634_">
		<use
   xlink:href="#SVGID_633_"
   overflow="visible"
   id="use3141" />
	</clipPath>
	
		<linearGradient
   id="SVGID_635_"
   gradientUnits="userSpaceOnUse"
   x1="0"
   y1="425.1958"
   x2="1.0005"
   y2="425.1958"
   gradientTransform="matrix(9.5138,0,0,-9.5138,145.889,4279.9785)">
		<stop
   offset="0"
   style="stop-color:#F7A715"
   id="stop3144" />
		<stop
   offset="1"
   style="stop-color:#FDC623"
   id="stop3146" />
	</linearGradient>
	<rect
   x="145.892"
   y="233.12601"
   clip-path="url(#SVGID_634_)"
   fill="url(#SVGID_635_)"
   width="9.5150003"
   height="3.2709999"
   id="rect3149"
   style="fill:url(#SVGID_635_)" />
</g>







































































</svg>
