<?xml version="1.0" encoding="UTF-8" standalone="no"?>
<!-- Generator: Adobe Illustrator 13.0.0, SVG Export Plug-In . SVG Version: 6.00 Build 14948)  -->

<svg
   version="1.1"
   id="Layer_1"
   x="0px"
   y="0px"
   width="22.062012"
   height="21.527008"
   viewBox="0 0 22.062011 21.527009"
   enable-background="new 0 0 187.087 425.197"
   xml:space="preserve"
   sodipodi:docname="sfondo_cell.svg"
   xmlns:inkscape="http://www.inkscape.org/namespaces/inkscape"
   xmlns:sodipodi="http://sodipodi.sourceforge.net/DTD/sodipodi-0.dtd"
   xmlns:xlink="http://www.w3.org/1999/xlink"
   xmlns="http://www.w3.org/2000/svg"
   xmlns:svg="http://www.w3.org/2000/svg"><defs
   id="defs4221" /><sodipodi:namedview
   id="namedview4219"
   pagecolor="#ffffff"
   bordercolor="#000000"
   borderopacity="0.25"
   inkscape:showpageshadow="2"
   inkscape:pageopacity="0.0"
   inkscape:pagecheckerboard="0"
   inkscape:deskcolor="#d1d1d1"
   showgrid="false" />






























































































<g
   id="g1336"
   transform="translate(-144.116,-179.55999)">
	<defs
   id="defs1324"><path
     id="SVGID_270_"
     d="m 144.753,192.007 c -0.101,-0.102 -0.178,-0.255 -0.178,-0.434 v -1.784 c 0,-0.153 0.077,-0.307 0.178,-0.434 0.128,-0.103 0.281,-0.179 0.434,-0.179 h 19.922 c 0.178,0 0.331,0.076 0.433,0.179 0.102,0.127 0.179,0.281 0.179,0.434 v 1.784 c 0,0.179 -0.077,0.332 -0.179,0.434 -0.127,0.103 -0.28,0.179 -0.433,0.179 h -19.922 c -0.179,0 -0.331,-0.076 -0.434,-0.179 m 0.434,-3.264 c -0.28,0 -0.534,0.101 -0.739,0.281 v 0.025 c -0.204,0.178 -0.332,0.459 -0.332,0.74 v 1.784 c 0,0.281 0.128,0.562 0.332,0.74 0.178,0.204 0.459,0.332 0.739,0.332 h 19.922 c 0.279,0 0.534,-0.128 0.739,-0.306 v -0.026 c 0.203,-0.178 0.331,-0.459 0.331,-0.74 v -1.784 c 0,-0.281 -0.128,-0.562 -0.331,-0.74 -0.18,-0.205 -0.46,-0.306 -0.739,-0.306 z" /></defs>
	<clipPath
   id="SVGID_271_">
		<use
   xlink:href="#SVGID_270_"
   overflow="visible"
   id="use1326" />
	</clipPath>
	
		<linearGradient
   id="SVGID_272_"
   gradientUnits="userSpaceOnUse"
   x1="0"
   y1="425.19681"
   x2="1"
   y2="425.19681"
   gradientTransform="matrix(22.0631,0,0,-22.0631,144.1159,9571.8438)">
		<stop
   offset="0"
   style="stop-color:#161730"
   id="stop1329" />
		<stop
   offset="1"
   style="stop-color:#242C5B"
   id="stop1331" />
	</linearGradient>
	<rect
   x="144.11501"
   y="188.743"
   clip-path="url(#SVGID_271_)"
   fill="url(#SVGID_272_)"
   width="22.063"
   height="3.902"
   id="rect1334"
   style="fill:url(#SVGID_272_)" />
</g>
<g
   id="g1351"
   transform="translate(-144.116,-179.55999)">
	<defs
   id="defs1339"><path
     id="SVGID_273_"
     d="m 147.304,190.477 c -0.077,0 -0.178,0.05 -0.204,0.102 -0.076,0.153 0.052,0.332 0.204,0.332 h 2.168 c 0.076,0 0.153,-0.051 0.179,-0.128 0.077,-0.153 -0.025,-0.306 -0.179,-0.306 z m 3.443,0 c -0.076,0 -0.153,0.05 -0.178,0.102 -0.076,0.153 0.024,0.332 0.178,0.332 h 0.434 c 0.077,0 0.179,-0.051 0.204,-0.128 0.077,-0.153 -0.051,-0.306 -0.204,-0.306 z m 1.735,0 c -0.077,0 -0.153,0.05 -0.205,0.102 -0.051,0.153 0.052,0.332 0.205,0.332 h 2.168 c 0.075,0 0.152,-0.051 0.179,-0.128 0.076,-0.153 -0.026,-0.306 -0.179,-0.306 z m 3.443,0 c -0.077,0 -0.152,0.05 -0.178,0.102 -0.078,0.153 0.025,0.332 0.178,0.332 h 0.435 c 0.101,0 0.178,-0.051 0.202,-0.128 0.078,-0.153 -0.024,-0.306 -0.202,-0.306 z m 1.734,0 c -0.076,0 -0.153,0.05 -0.178,0.102 -0.076,0.153 0.024,0.332 0.178,0.332 h 2.168 c 0.077,0 0.153,-0.051 0.18,-0.128 0.076,-0.153 -0.026,-0.306 -0.18,-0.306 z m 3.469,0 c -0.102,0 -0.178,0.05 -0.204,0.102 -0.076,0.153 0.051,0.332 0.204,0.332 h 0.434 c 0.076,0 0.153,-0.051 0.18,-0.128 0.076,-0.153 -0.026,-0.306 -0.18,-0.306 z m 1.709,0 c -0.077,0 -0.153,0.05 -0.178,0.102 -0.077,0.153 0.024,0.332 0.178,0.332 h 0.153 c 0.076,0 0.179,-0.051 0.204,-0.128 0.051,-0.153 -0.052,-0.306 -0.204,-0.306 z" /></defs>
	<clipPath
   id="SVGID_274_">
		<use
   xlink:href="#SVGID_273_"
   overflow="visible"
   id="use1341" />
	</clipPath>
	
		<linearGradient
   id="SVGID_275_"
   gradientUnits="userSpaceOnUse"
   x1="0"
   y1="425.19781"
   x2="1"
   y2="425.19781"
   gradientTransform="matrix(16.1304,0,0,-16.1304,147.081,7049.2817)">
		<stop
   offset="0"
   style="stop-color:#161730"
   id="stop1344" />
		<stop
   offset="1"
   style="stop-color:#242C5B"
   id="stop1346" />
	</linearGradient>
	<rect
   x="147.02299"
   y="190.47701"
   clip-path="url(#SVGID_274_)"
   fill="url(#SVGID_275_)"
   width="16.222"
   height="0.43399999"
   id="rect1349"
   style="fill:url(#SVGID_275_)" />
</g>
<g
   id="g1366"
   transform="translate(-144.116,-179.55999)">
	<defs
   id="defs1354"><path
     id="SVGID_276_"
     d="m 146.87,184.916 c 0.688,-1.249 1.659,-2.346 2.831,-3.162 0.766,-0.561 1.658,-0.995 2.576,-1.301 0.893,-0.281 1.861,-0.433 2.856,-0.433 2.525,0 4.821,0.968 6.504,2.601 1.658,1.556 2.73,3.698 2.908,6.122 h -18.823 c 0.102,-1.378 0.511,-2.679 1.148,-3.827 m 5.28,-4.896 c -0.995,0.331 -1.888,0.79 -2.729,1.351 -1.198,0.867 -2.219,2.015 -2.933,3.316 -0.714,1.276 -1.148,2.704 -1.225,4.234 v 0.051 c 0,0.102 0.102,0.204 0.229,0.204 h 19.309 c 0.127,0 0.229,-0.102 0.229,-0.229 -0.152,-2.628 -1.3,-4.974 -3.086,-6.657 -1.76,-1.684 -4.157,-2.73 -6.811,-2.73 -1.019,0 -2.039,0.179 -2.983,0.46" /></defs>
	<clipPath
   id="SVGID_277_">
		<use
   xlink:href="#SVGID_276_"
   overflow="visible"
   id="use1356" />
	</clipPath>
	
		<linearGradient
   id="SVGID_278_"
   gradientUnits="userSpaceOnUse"
   x1="0"
   y1="425.19681"
   x2="1"
   y2="425.19681"
   gradientTransform="matrix(19.7669,0,0,-19.7669,145.2578,8589.1699)">
		<stop
   offset="0"
   style="stop-color:#161730"
   id="stop1359" />
		<stop
   offset="1"
   style="stop-color:#242C5B"
   id="stop1361" />
	</linearGradient>
	<rect
   x="145.26401"
   y="179.56"
   clip-path="url(#SVGID_277_)"
   fill="url(#SVGID_278_)"
   width="19.767"
   height="9.6160002"
   id="rect1364"
   style="fill:url(#SVGID_278_)" />
</g>
<g
   id="g1381"
   transform="translate(-144.116,-179.55999)">
	<defs
   id="defs1369"><path
     id="SVGID_279_"
     d="m 149.268,181.625 v 6.097 c 0,0.128 0.076,0.23 0.204,0.23 0.128,0 0.229,-0.102 0.229,-0.23 v -6.097 c 0,-0.126 -0.102,-0.203 -0.229,-0.203 -0.127,0 -0.204,0.077 -0.204,0.203 m 11.325,0 v 6.097 c 0,0.128 0.103,0.23 0.229,0.23 0.102,0 0.204,-0.102 0.204,-0.23 v -6.097 c 0,-0.126 -0.103,-0.203 -0.204,-0.203 -0.127,0 -0.229,0.077 -0.229,0.203" /></defs>
	<clipPath
   id="SVGID_280_">
		<use
   xlink:href="#SVGID_279_"
   overflow="visible"
   id="use1371" />
	</clipPath>
	
		<linearGradient
   id="SVGID_281_"
   gradientUnits="userSpaceOnUse"
   x1="0"
   y1="425.19681"
   x2="1"
   y2="425.19681"
   gradientTransform="matrix(11.7586,0,0,-11.7586,149.2701,5184.4038)">
		<stop
   offset="0"
   style="stop-color:#161730"
   id="stop1374" />
		<stop
   offset="1"
   style="stop-color:#242C5B"
   id="stop1376" />
	</linearGradient>
	<rect
   x="149.26801"
   y="181.422"
   clip-path="url(#SVGID_280_)"
   fill="url(#SVGID_281_)"
   width="11.759"
   height="6.5300002"
   id="rect1379"
   style="fill:url(#SVGID_281_)" />
</g>
<g
   id="g1396"
   transform="translate(-144.116,-179.55999)">
	<defs
   id="defs1384"><path
     id="SVGID_282_"
     d="m 156.257,179.917 v 7.397 c 0,0.051 -0.025,0.102 -0.051,0.128 -0.052,0.025 -0.104,0.051 -0.153,0.051 h -1.811 c -0.051,0 -0.104,-0.026 -0.154,-0.051 -0.024,-0.026 -0.05,-0.077 -0.05,-0.128 v -7.397 c 0,-0.127 -0.103,-0.23 -0.23,-0.23 -0.127,0 -0.229,0.103 -0.229,0.23 v 7.397 c 0,0.179 0.076,0.332 0.204,0.433 0.102,0.129 0.28,0.205 0.459,0.205 h 1.811 c 0.179,0 0.331,-0.076 0.459,-0.205 0.128,-0.101 0.179,-0.254 0.179,-0.433 v -7.397 c 0,-0.127 -0.077,-0.23 -0.203,-0.23 -0.129,0 -0.231,0.103 -0.231,0.23" /></defs>
	<clipPath
   id="SVGID_283_">
		<use
   xlink:href="#SVGID_282_"
   overflow="visible"
   id="use1386" />
	</clipPath>
	
		<linearGradient
   id="SVGID_284_"
   gradientUnits="userSpaceOnUse"
   x1="0.00048828131"
   y1="425.19681"
   x2="1.0005"
   y2="425.19681"
   gradientTransform="matrix(3.1119,0,0,-3.1119,153.5777,1507.0099)">
		<stop
   offset="0"
   style="stop-color:#161730"
   id="stop1389" />
		<stop
   offset="1"
   style="stop-color:#242C5B"
   id="stop1391" />
	</linearGradient>
	<rect
   x="153.57899"
   y="179.687"
   clip-path="url(#SVGID_283_)"
   fill="url(#SVGID_284_)"
   width="3.1110001"
   height="8.2650003"
   id="rect1394"
   style="fill:url(#SVGID_284_)" />
</g>
<g
   id="g1411"
   transform="translate(-144.116,-179.55999)">
	<defs
   id="defs1399"><path
     id="SVGID_285_"
     d="m 146.717,192.645 h 16.86 v 1.02 h -1.276 c -0.101,0 -0.204,0.076 -0.229,0.179 -0.077,0.382 -0.204,0.74 -0.331,1.096 -0.153,0.332 -0.331,0.689 -0.537,1.021 -0.05,0.076 -0.05,0.204 0.026,0.254 l 0.918,0.919 -2.065,2.066 -0.919,-0.919 c -0.076,-0.076 -0.204,-0.076 -0.281,-0.025 -0.331,0.204 -0.662,0.383 -1.019,0.536 -0.358,0.153 -0.714,0.254 -1.071,0.357 -0.103,0 -0.18,0.102 -0.18,0.205 v 1.3 h -2.934 v -1.3 c 0,-0.103 -0.076,-0.205 -0.178,-0.23 -0.382,-0.078 -0.74,-0.205 -1.071,-0.332 -0.356,-0.153 -0.714,-0.332 -1.02,-0.536 -0.104,-0.051 -0.205,-0.025 -0.281,0.025 l -0.918,0.919 -2.065,-2.066 0.918,-0.919 c 0.076,-0.076 0.076,-0.178 0.024,-0.28 -0.204,-0.306 -0.382,-0.663 -0.535,-0.995 v -0.025 c -0.128,-0.331 -0.256,-0.715 -0.331,-1.071 -0.025,-0.103 -0.128,-0.179 -0.23,-0.179 h -1.275 z m -0.229,-0.459 c -0.127,0 -0.23,0.102 -0.23,0.23 v 1.479 c 0,0.127 0.104,0.229 0.23,0.229 h 1.326 c 0.102,0.332 0.203,0.638 0.332,0.97 0.127,0.331 0.279,0.637 0.459,0.943 l -0.944,0.944 c -0.076,0.077 -0.076,0.229 0,0.306 l 2.397,2.398 c 0.076,0.076 0.229,0.076 0.307,0 l 0.942,-0.945 c 0.308,0.179 0.613,0.333 0.944,0.46 0.306,0.128 0.638,0.255 0.995,0.331 v 1.327 c 0,0.128 0.077,0.229 0.204,0.229 h 3.392 c 0.104,0 0.204,-0.101 0.204,-0.229 v -1.327 c 0.331,-0.076 0.664,-0.203 0.996,-0.331 0.331,-0.127 0.637,-0.281 0.943,-0.46 l 0.942,0.945 c 0.078,0.076 0.231,0.076 0.308,0 l 2.396,-2.398 c 0.077,-0.077 0.077,-0.229 0,-0.306 l -0.943,-0.944 c 0.152,-0.306 0.332,-0.612 0.459,-0.943 0.128,-0.307 0.229,-0.638 0.333,-0.97 h 1.324 c 0.128,0 0.23,-0.102 0.23,-0.229 v -1.479 c 0,-0.128 -0.103,-0.23 -0.23,-0.23 z" /></defs>
	<clipPath
   id="SVGID_286_">
		<use
   xlink:href="#SVGID_285_"
   overflow="visible"
   id="use1401" />
	</clipPath>
	
		<linearGradient
   id="SVGID_287_"
   gradientUnits="userSpaceOnUse"
   x1="0"
   y1="425.19681"
   x2="1"
   y2="425.19681"
   gradientTransform="matrix(17.7776,0,0,-17.7776,146.2558,7755.604)">
		<stop
   offset="0"
   style="stop-color:#161730"
   id="stop1404" />
		<stop
   offset="1"
   style="stop-color:#242C5B"
   id="stop1406" />
	</linearGradient>
	<rect
   x="146.258"
   y="192.186"
   clip-path="url(#SVGID_286_)"
   fill="url(#SVGID_287_)"
   width="17.778"
   height="8.901"
   id="rect1409"
   style="fill:url(#SVGID_287_)" />
</g>
<g
   id="g1426"
   transform="translate(-144.116,-179.55999)">
	<defs
   id="defs1414"><path
     id="SVGID_288_"
     d="m 151.87,195.629 c -0.817,-0.765 -1.353,-1.811 -1.454,-2.984 h 9.463 c -0.128,1.173 -0.638,2.219 -1.455,2.984 -0.841,0.817 -2.014,1.326 -3.29,1.326 -1.249,0 -2.423,-0.509 -3.264,-1.326 m -1.683,-3.443 c -0.128,0 -0.23,0.102 -0.23,0.23 0.051,1.402 0.663,2.627 1.608,3.545 0.918,0.893 2.192,1.428 3.569,1.428 1.403,0 2.678,-0.535 3.598,-1.428 0.942,-0.893 1.529,-2.143 1.606,-3.52 v -0.025 c 0,-0.128 -0.102,-0.23 -0.229,-0.23 z" /></defs>
	<clipPath
   id="SVGID_289_">
		<use
   xlink:href="#SVGID_288_"
   overflow="visible"
   id="use1416" />
	</clipPath>
	
		<linearGradient
   id="SVGID_290_"
   gradientUnits="userSpaceOnUse"
   x1="0"
   y1="425.19681"
   x2="1"
   y2="425.19681"
   gradientTransform="matrix(10.3811,0,0,-10.3811,149.959,4608.8032)">
		<stop
   offset="0"
   style="stop-color:#161730"
   id="stop1419" />
		<stop
   offset="1"
   style="stop-color:#242C5B"
   id="stop1421" />
	</linearGradient>
	<rect
   x="149.95599"
   y="192.186"
   clip-path="url(#SVGID_289_)"
   fill="url(#SVGID_290_)"
   width="10.382"
   height="5.2030001"
   id="rect1424"
   style="fill:url(#SVGID_290_)" />
</g>
<g
   id="g1441"
   transform="translate(-144.116,-179.55999)">
	<defs
   id="defs1429"><path
     id="SVGID_291_"
     d="m 157.864,197.44 c -0.817,0.433 -1.786,0.689 -2.73,0.664 -0.434,0.025 -0.867,-0.052 -1.301,-0.128 -0.306,-0.077 -0.357,0.357 -0.101,0.408 0.483,0.102 0.918,0.153 1.401,0.153 1.072,0 2.017,-0.23 2.935,-0.714 0.238,-0.131 0.088,-0.41 -0.104,-0.41 -0.032,0 -0.067,0.009 -0.1,0.027 m -8.8,-3.444 c 0.434,1.454 1.352,2.705 2.627,3.521 0.255,0.153 0.459,-0.23 0.229,-0.357 -1.174,-0.766 -2.041,-1.913 -2.449,-3.265 -0.047,-0.112 -0.125,-0.156 -0.2,-0.156 -0.131,0 -0.256,0.128 -0.207,0.257 m 11.987,-1.58 c -0.05,1.402 -0.586,2.728 -1.529,3.774 -0.128,0.128 -0.026,0.358 0.152,0.358 0.077,0 0.103,-0.027 0.153,-0.077 1.021,-1.122 1.607,-2.551 1.658,-4.055 0,-0.15 -0.104,-0.221 -0.21,-0.221 -0.11,0 -0.224,0.077 -0.224,0.221 m -11.426,-0.23 c -0.077,0 -0.179,0.051 -0.204,0.127 -0.077,0.153 0.051,0.307 0.204,0.307 h 4.311 c 0.076,0 0.179,-0.052 0.203,-0.103 0.077,-0.153 -0.051,-0.331 -0.203,-0.331 z m 6.478,0 c -0.075,0 -0.178,0.051 -0.202,0.127 -0.077,0.153 0.05,0.307 0.202,0.307 h 4.312 c 0.077,0 0.179,-0.052 0.204,-0.103 0.077,-0.153 -0.051,-0.331 -0.204,-0.331 z" /></defs>
	<clipPath
   id="SVGID_292_">
		<use
   xlink:href="#SVGID_291_"
   overflow="visible"
   id="use1431" />
	</clipPath>
	
		<linearGradient
   id="SVGID_293_"
   gradientUnits="userSpaceOnUse"
   x1="0"
   y1="425.19681"
   x2="1"
   y2="425.19681"
   gradientTransform="matrix(12.4322,0,0,-12.4322,149.0563,5481.5059)">
		<stop
   offset="0"
   style="stop-color:#161730"
   id="stop1434" />
		<stop
   offset="1"
   style="stop-color:#242C5B"
   id="stop1436" />
	</linearGradient>
	<rect
   x="149.015"
   y="192.186"
   clip-path="url(#SVGID_292_)"
   fill="url(#SVGID_293_)"
   width="12.471"
   height="6.3509998"
   id="rect1439"
   style="fill:url(#SVGID_293_)" />
</g>
<g
   id="g1456"
   transform="translate(-144.116,-179.55999)">
	<defs
   id="defs1444"><path
     id="SVGID_294_"
     d="m 157.864,197.44 c 0.229,-0.127 0.483,0.23 0.204,0.383 -0.918,0.484 -1.862,0.714 -2.935,0.714 -0.483,0 -0.918,-0.051 -1.401,-0.153 -0.257,-0.051 -0.205,-0.485 0.101,-0.408 0.434,0.076 0.867,0.153 1.301,0.128 0.043,10e-4 0.085,10e-4 0.128,10e-4 0.903,0 1.822,-0.251 2.602,-0.665 m -6.173,0.077 c -1.275,-0.816 -2.193,-2.067 -2.627,-3.521 -0.077,-0.203 0.279,-0.407 0.407,-0.101 0.408,1.352 1.275,2.499 2.449,3.265 0.192,0.107 0.08,0.392 -0.111,0.392 -0.036,0 -0.076,-0.01 -0.118,-0.035 m 9.794,-4.872 c -0.103,1.428 -0.688,2.78 -1.658,3.826 -0.051,0.05 -0.076,0.077 -0.153,0.077 -0.179,0 -0.28,-0.23 -0.152,-0.358 0.893,-0.994 1.402,-2.219 1.529,-3.545 h -0.739 c -0.102,1.301 -0.688,2.449 -1.58,3.316 -0.92,0.893 -2.194,1.428 -3.598,1.428 -1.377,0 -2.651,-0.535 -3.569,-1.428 -0.894,-0.867 -1.48,-2.015 -1.582,-3.316 h -3.266 v 1.02 h 1.275 c 0.103,0 0.205,0.076 0.23,0.179 0.075,0.356 0.203,0.74 0.331,1.071 v 0.025 c 0.153,0.332 0.331,0.689 0.535,0.995 0.052,0.102 0.052,0.204 -0.024,0.28 l -0.918,0.919 2.065,2.066 0.918,-0.919 c 0.076,-0.05 0.178,-0.076 0.281,-0.025 0.306,0.204 0.663,0.383 1.02,0.536 0.331,0.127 0.689,0.254 1.071,0.332 0.102,0.025 0.178,0.127 0.178,0.23 v 1.3 h 2.934 v -1.3 c 0,-0.103 0.077,-0.205 0.18,-0.205 0.357,-0.103 0.713,-0.204 1.071,-0.357 0.356,-0.153 0.688,-0.332 1.019,-0.536 0.077,-0.051 0.205,-0.051 0.281,0.025 l 0.919,0.919 2.065,-2.066 -0.918,-0.919 c -0.076,-0.05 -0.076,-0.178 -0.026,-0.254 0.206,-0.332 0.384,-0.689 0.537,-1.021 0.127,-0.356 0.254,-0.714 0.331,-1.096 0.024,-0.103 0.128,-0.179 0.229,-0.179 h 1.276 v -1.02 z" /></defs>
	<clipPath
   id="SVGID_295_">
		<use
   xlink:href="#SVGID_294_"
   overflow="visible"
   id="use1446" />
	</clipPath>
	
		<linearGradient
   id="SVGID_296_"
   gradientUnits="userSpaceOnUse"
   x1="0"
   y1="425.19681"
   x2="1.0005"
   y2="425.19681"
   gradientTransform="matrix(16.8592,0,0,-16.8592,146.7194,7365.1206)">
		<stop
   offset="0"
   style="stop-color:#F7A715"
   id="stop1449" />
		<stop
   offset="1"
   style="stop-color:#FDC623"
   id="stop1451" />
	</linearGradient>
	<rect
   x="146.717"
   y="192.645"
   clip-path="url(#SVGID_295_)"
   fill="url(#SVGID_296_)"
   width="16.860001"
   height="8.0089998"
   id="rect1454"
   style="fill:url(#SVGID_296_)" />
</g>
























































































































































































</svg>
