<?xml version="1.0" encoding="UTF-8" standalone="no"?>
<!-- Generator: Adobe Illustrator 13.0.0, SVG Export Plug-In . SVG Version: 6.00 Build 14948)  -->

<svg
   version="1.1"
   id="Layer_1"
   x="0px"
   y="0px"
   width="22.063999"
   height="13.084999"
   viewBox="0 0 22.063999 13.084999"
   enable-background="new 0 0 187.087 425.197"
   xml:space="preserve"
   sodipodi:docname="sfondo_cell.svg"
   xmlns:inkscape="http://www.inkscape.org/namespaces/inkscape"
   xmlns:sodipodi="http://sodipodi.sourceforge.net/DTD/sodipodi-0.dtd"
   xmlns:xlink="http://www.w3.org/1999/xlink"
   xmlns="http://www.w3.org/2000/svg"
   xmlns:svg="http://www.w3.org/2000/svg"><defs
   id="defs4221" /><sodipodi:namedview
   id="namedview4219"
   pagecolor="#ffffff"
   bordercolor="#000000"
   borderopacity="0.25"
   inkscape:showpageshadow="2"
   inkscape:pageopacity="0.0"
   inkscape:pagecheckerboard="0"
   inkscape:deskcolor="#d1d1d1"
   showgrid="false" />












<g
   id="g111"
   transform="translate(-20.065999,-88.386)">
	<defs
   id="defs99"><path
     id="SVGID_25_"
     d="m 20.704,100.832 c -0.102,-0.101 -0.179,-0.254 -0.179,-0.432 v -1.786 c 0,-0.153 0.077,-0.306 0.179,-0.434 0.127,-0.101 0.28,-0.178 0.433,-0.178 h 19.921 c 0.179,0 0.331,0.077 0.434,0.178 0.102,0.128 0.179,0.281 0.179,0.434 v 1.786 c 0,0.178 -0.077,0.331 -0.179,0.432 -0.128,0.103 -0.281,0.18 -0.434,0.18 H 21.137 c -0.178,0 -0.331,-0.077 -0.433,-0.18 m 0.433,-3.264 c -0.28,0 -0.535,0.102 -0.739,0.281 v 0.025 c -0.204,0.178 -0.332,0.459 -0.332,0.74 v 1.786 c 0,0.28 0.128,0.56 0.332,0.739 0.179,0.204 0.459,0.332 0.739,0.332 h 19.921 c 0.281,0 0.536,-0.128 0.74,-0.306 v -0.026 c 0.203,-0.179 0.332,-0.459 0.332,-0.739 v -1.786 c 0,-0.281 -0.129,-0.562 -0.332,-0.74 -0.178,-0.204 -0.459,-0.306 -0.74,-0.306 z" /></defs>
	<clipPath
   id="SVGID_26_">
		<use
   xlink:href="#SVGID_25_"
   overflow="visible"
   id="use101" />
	</clipPath>
	
		<linearGradient
   id="SVGID_27_"
   gradientUnits="userSpaceOnUse"
   x1="-0.00048828131"
   y1="425.19681"
   x2="0.99949998"
   y2="425.19681"
   gradientTransform="matrix(22.0631,0,0,-22.0631,20.069,9480.6719)">
		<stop
   offset="0"
   style="stop-color:#161730"
   id="stop104" />
		<stop
   offset="1"
   style="stop-color:#242C5B"
   id="stop106" />
	</linearGradient>
	<rect
   x="20.066"
   y="97.568001"
   clip-path="url(#SVGID_26_)"
   fill="url(#SVGID_27_)"
   width="22.063999"
   height="3.9030001"
   id="rect109"
   style="fill:url(#SVGID_27_)" />
</g>
<g
   id="g126"
   transform="translate(-20.065999,-88.386)">
	<defs
   id="defs114"><path
     id="SVGID_28_"
     d="m 23.255,99.302 c -0.076,0 -0.179,0.052 -0.204,0.102 -0.077,0.154 0.051,0.332 0.204,0.332 h 2.168 c 0.077,0 0.153,-0.051 0.178,-0.128 0.077,-0.152 -0.025,-0.306 -0.178,-0.306 z m 3.444,0 c -0.077,0 -0.153,0.052 -0.18,0.102 -0.076,0.154 0.027,0.332 0.18,0.332 h 0.432 c 0.077,0 0.18,-0.051 0.205,-0.128 0.076,-0.152 -0.052,-0.306 -0.205,-0.306 z m 1.734,0 c -0.077,0 -0.153,0.052 -0.204,0.102 -0.052,0.154 0.051,0.332 0.204,0.332 H 30.6 c 0.076,0 0.154,-0.051 0.179,-0.128 0.077,-0.152 -0.025,-0.306 -0.179,-0.306 z m 3.443,0 c -0.076,0 -0.153,0.052 -0.178,0.102 -0.077,0.154 0.025,0.332 0.178,0.332 h 0.433 c 0.103,0 0.179,-0.051 0.204,-0.128 0.077,-0.152 -0.025,-0.306 -0.204,-0.306 z m 1.735,0 c -0.077,0 -0.153,0.052 -0.18,0.102 -0.076,0.154 0.027,0.332 0.18,0.332 h 2.168 c 0.076,0 0.153,-0.051 0.178,-0.128 0.076,-0.152 -0.025,-0.306 -0.178,-0.306 z m 3.468,0 c -0.102,0 -0.178,0.052 -0.203,0.102 -0.078,0.154 0.05,0.332 0.203,0.332 h 0.434 c 0.076,0 0.153,-0.051 0.178,-0.128 0.077,-0.152 -0.025,-0.306 -0.178,-0.306 z m 1.709,0 c -0.076,0 -0.153,0.052 -0.179,0.102 -0.076,0.154 0.026,0.332 0.179,0.332 h 0.153 c 0.077,0 0.178,-0.051 0.204,-0.128 0.051,-0.152 -0.051,-0.306 -0.204,-0.306 z" /></defs>
	<clipPath
   id="SVGID_29_">
		<use
   xlink:href="#SVGID_28_"
   overflow="visible"
   id="use116" />
	</clipPath>
	
		<linearGradient
   id="SVGID_30_"
   gradientUnits="userSpaceOnUse"
   x1="0"
   y1="425.19781"
   x2="1"
   y2="425.19781"
   gradientTransform="matrix(16.1304,0,0,-16.1304,23.0263,6958.1099)">
		<stop
   offset="0"
   style="stop-color:#161730"
   id="stop119" />
		<stop
   offset="1"
   style="stop-color:#242C5B"
   id="stop121" />
	</linearGradient>
	<rect
   x="22.974001"
   y="99.302002"
   clip-path="url(#SVGID_29_)"
   fill="url(#SVGID_30_)"
   width="16.222"
   height="0.43399999"
   id="rect124"
   style="fill:url(#SVGID_30_)" />
</g>
<g
   id="g141"
   transform="translate(-20.065999,-88.386)">
	<defs
   id="defs129"><path
     id="SVGID_31_"
     d="m 22.821,93.742 c 0.689,-1.249 1.658,-2.347 2.832,-3.162 0.765,-0.562 1.658,-0.995 2.576,-1.301 0.892,-0.281 1.862,-0.434 2.856,-0.434 2.526,0 4.821,0.969 6.504,2.602 1.658,1.556 2.729,3.698 2.907,6.121 H 21.674 c 0.101,-1.377 0.51,-2.678 1.147,-3.826 m 5.28,-4.897 c -0.995,0.332 -1.888,0.791 -2.729,1.352 -1.199,0.867 -2.22,2.014 -2.933,3.316 -0.715,1.275 -1.148,2.703 -1.224,4.233 v 0.052 c 0,0.102 0.101,0.204 0.229,0.204 h 19.308 c 0.128,0 0.23,-0.102 0.23,-0.229 -0.153,-2.628 -1.302,-4.974 -3.087,-6.658 -1.76,-1.684 -4.157,-2.729 -6.81,-2.729 -1.021,0 -2.04,0.179 -2.984,0.459" /></defs>
	<clipPath
   id="SVGID_32_">
		<use
   xlink:href="#SVGID_31_"
   overflow="visible"
   id="use131" />
	</clipPath>
	
		<linearGradient
   id="SVGID_33_"
   gradientUnits="userSpaceOnUse"
   x1="0"
   y1="425.19681"
   x2="1"
   y2="425.19681"
   gradientTransform="matrix(19.7669,0,0,-19.7669,21.2109,8497.998)">
		<stop
   offset="0"
   style="stop-color:#161730"
   id="stop134" />
		<stop
   offset="1"
   style="stop-color:#242C5B"
   id="stop136" />
	</linearGradient>
	<rect
   x="21.215"
   y="88.386002"
   clip-path="url(#SVGID_32_)"
   fill="url(#SVGID_33_)"
   width="19.767"
   height="9.6160002"
   id="rect139"
   style="fill:url(#SVGID_33_)" />
</g>
<g
   id="g156"
   transform="translate(-20.065999,-88.386)">
	<defs
   id="defs144"><path
     id="SVGID_34_"
     d="m 25.219,90.452 v 6.096 c 0,0.127 0.076,0.229 0.204,0.229 0.127,0 0.23,-0.102 0.23,-0.229 v -6.096 c 0,-0.128 -0.103,-0.203 -0.23,-0.203 -0.128,0 -0.204,0.075 -0.204,0.203 m 11.325,0 v 6.096 c 0,0.127 0.101,0.229 0.229,0.229 0.103,0 0.204,-0.102 0.204,-0.229 v -6.096 c 0,-0.128 -0.101,-0.203 -0.204,-0.203 -0.128,0 -0.229,0.075 -0.229,0.203" /></defs>
	<clipPath
   id="SVGID_35_">
		<use
   xlink:href="#SVGID_34_"
   overflow="visible"
   id="use146" />
	</clipPath>
	
		<linearGradient
   id="SVGID_36_"
   gradientUnits="userSpaceOnUse"
   x1="0.00048828131"
   y1="425.19781"
   x2="1"
   y2="425.19781"
   gradientTransform="matrix(11.7586,0,0,-11.7586,25.2154,5093.2319)">
		<stop
   offset="0"
   style="stop-color:#161730"
   id="stop149" />
		<stop
   offset="1"
   style="stop-color:#242C5B"
   id="stop151" />
	</linearGradient>
	<rect
   x="25.219"
   y="90.249001"
   clip-path="url(#SVGID_35_)"
   fill="url(#SVGID_36_)"
   width="11.758"
   height="6.5279999"
   id="rect154"
   style="fill:url(#SVGID_36_)" />
</g>
<g
   id="g171"
   transform="translate(-20.065999,-88.386)">
	<defs
   id="defs159"><path
     id="SVGID_37_"
     d="m 32.221,88.743 v 3.902 c 0,0.052 -0.026,0.103 -0.051,0.128 -0.052,0.026 -0.103,0.051 -0.154,0.051 h -1.81 c -0.052,0 -0.103,-0.025 -0.154,-0.051 -0.025,-0.025 -0.051,-0.076 -0.051,-0.128 v -3.902 c 0,-0.127 -0.102,-0.23 -0.229,-0.23 -0.128,0 -0.23,0.103 -0.23,0.23 v 3.902 c 0,0.179 0.076,0.332 0.205,0.435 0.101,0.127 0.28,0.203 0.459,0.203 h 1.81 c 0.179,0 0.332,-0.076 0.46,-0.203 0.127,-0.103 0.178,-0.256 0.178,-0.435 v -3.902 c 0,-0.127 -0.077,-0.23 -0.205,-0.23 -0.126,0 -0.228,0.103 -0.228,0.23" /></defs>
	<clipPath
   id="SVGID_38_">
		<use
   xlink:href="#SVGID_37_"
   overflow="visible"
   id="use161" />
	</clipPath>
	
		<linearGradient
   id="SVGID_39_"
   gradientUnits="userSpaceOnUse"
   x1="0.00048828131"
   y1="425.19681"
   x2="1"
   y2="425.19681"
   gradientTransform="matrix(3.1119,0,0,-3.1119,29.5425,1414.088)">
		<stop
   offset="0"
   style="stop-color:#161730"
   id="stop164" />
		<stop
   offset="1"
   style="stop-color:#242C5B"
   id="stop166" />
	</linearGradient>
	<rect
   x="29.542"
   y="88.513"
   clip-path="url(#SVGID_38_)"
   fill="url(#SVGID_39_)"
   width="3.112"
   height="4.77"
   id="rect169"
   style="fill:url(#SVGID_39_)" />
</g>
<g
   id="g186"
   transform="translate(-20.065999,-88.386)">
	<defs
   id="defs174"><path
     id="SVGID_40_"
     d="m 32.654,92.645 c 0,0.179 -0.051,0.332 -0.178,0.435 -0.128,0.127 -0.281,0.203 -0.46,0.203 h -1.81 c -0.179,0 -0.358,-0.076 -0.459,-0.203 -0.129,-0.103 -0.205,-0.256 -0.205,-0.435 v -3.659 c -0.433,0.075 -0.867,0.178 -1.301,0.305 -0.918,0.306 -1.811,0.74 -2.576,1.301 v 5.968 c 0,0.128 -0.101,0.23 -0.229,0.23 -0.128,0 -0.204,-0.102 -0.204,-0.23 v -5.636 c -0.97,0.765 -1.786,1.734 -2.398,2.831 -0.637,1.147 -1.046,2.448 -1.148,3.826 H 40.51 C 40.332,95.157 39.26,93.015 37.602,91.459 37.424,91.255 37.219,91.077 36.99,90.924 v 5.636 c 0,0.128 -0.102,0.23 -0.204,0.23 -0.127,0 -0.229,-0.102 -0.229,-0.23 v -5.968 c -1.123,-0.816 -2.449,-1.378 -3.903,-1.606 z" /></defs>
	<clipPath
   id="SVGID_41_">
		<use
   xlink:href="#SVGID_40_"
   overflow="visible"
   id="use176" />
	</clipPath>
	
		<linearGradient
   id="SVGID_42_"
   gradientUnits="userSpaceOnUse"
   x1="0.00048828131"
   y1="425.19681"
   x2="1.0005"
   y2="425.19681"
   gradientTransform="matrix(18.8233,0,0,-18.8233,21.679,8096.8696)">
		<stop
   offset="0"
   style="stop-color:#F7A715"
   id="stop179" />
		<stop
   offset="1"
   style="stop-color:#FDC623"
   id="stop181" />
	</linearGradient>
	<rect
   x="21.686001"
   y="88.986"
   clip-path="url(#SVGID_41_)"
   fill="url(#SVGID_42_)"
   width="18.823999"
   height="8.5950003"
   id="rect184"
   style="fill:url(#SVGID_42_)" />
</g>
<g
   id="g201"
   transform="translate(-20.065999,-88.386)">
	<defs
   id="defs189"><path
     id="SVGID_43_"
     d="m 30.103,95.018 v -0.342 c 0.019,-0.172 0.117,-0.267 0.294,-0.283 h 0.005 c 0.178,0.014 0.279,0.109 0.302,0.283 v 0.342 c -0.023,0.178 -0.124,0.274 -0.302,0.288 -0.18,-0.014 -0.28,-0.11 -0.299,-0.288 m 0.294,-0.866 c -0.32,0.024 -0.5,0.193 -0.538,0.507 v 0.359 c 0.034,0.327 0.215,0.504 0.543,0.53 0.109,0 0.209,-0.03 0.302,-0.089 v 0.401 c -0.028,0.168 -0.128,0.256 -0.302,0.263 -0.126,-0.006 -0.218,-0.064 -0.275,-0.177 -0.039,-0.063 -0.092,-0.082 -0.161,-0.06 -0.066,0.037 -0.086,0.09 -0.06,0.16 0.102,0.205 0.267,0.312 0.496,0.321 0.322,-0.02 0.503,-0.188 0.544,-0.507 v -1.201 c -0.041,-0.317 -0.222,-0.487 -0.544,-0.507 z" /></defs>
	<clipPath
   id="SVGID_44_">
		<use
   xlink:href="#SVGID_43_"
   overflow="visible"
   id="use191" />
	</clipPath>
	
		<linearGradient
   id="SVGID_45_"
   gradientUnits="userSpaceOnUse"
   x1="0"
   y1="425.19681"
   x2="1.0005"
   y2="425.19681"
   gradientTransform="matrix(1.0863,0,0,-1.0863,29.8585,557.1304)">
		<stop
   offset="0"
   style="stop-color:#161730"
   id="stop194" />
		<stop
   offset="1"
   style="stop-color:#242C5B"
   id="stop196" />
	</linearGradient>
	<rect
   x="29.858999"
   y="94.152"
   clip-path="url(#SVGID_44_)"
   fill="url(#SVGID_45_)"
   width="1.087"
   height="2.2149999"
   id="rect199"
   style="fill:url(#SVGID_45_)" />
</g>
<g
   id="g216"
   transform="translate(-20.065999,-88.386)">
	<defs
   id="defs204"><path
     id="SVGID_46_"
     d="M 30.133,95.018 30.132,94.68 c 0.018,-0.158 0.105,-0.243 0.268,-0.257 0.164,0.012 0.254,0.097 0.275,0.253 v 0.34 c -0.022,0.163 -0.112,0.248 -0.27,0.261 -0.166,-0.013 -0.255,-0.098 -0.272,-0.259 m 0.261,-0.654 c -0.192,0.017 -0.3,0.121 -0.32,0.312 v 0.345 c 0.02,0.194 0.13,0.3 0.331,0.315 0.193,-0.015 0.303,-0.121 0.328,-0.315 v -0.002 -0.346 c -0.025,-0.19 -0.135,-0.294 -0.331,-0.309 z m -0.506,0.654 v -0.356 c 0.037,-0.3 0.204,-0.457 0.509,-0.481 h 0.004 c 0.308,0.021 0.476,0.178 0.515,0.478 v 1.197 c -0.039,0.306 -0.207,0.463 -0.513,0.481 -0.22,-0.008 -0.374,-0.108 -0.469,-0.301 -0.022,-0.056 -0.006,-0.094 0.041,-0.122 0.016,-0.005 0.03,-0.007 0.043,-0.007 0.034,0 0.06,0.017 0.082,0.053 0.063,0.121 0.164,0.186 0.303,0.192 0.189,-0.008 0.3,-0.104 0.33,-0.292 v -0.455 l -0.045,0.028 c -0.088,0.057 -0.183,0.085 -0.283,0.085 -0.316,-0.025 -0.484,-0.19 -0.517,-0.5 m 0.515,-0.896 h -0.008 c -0.335,0.026 -0.525,0.205 -0.565,0.537 v 0.362 c 0.035,0.341 0.226,0.529 0.572,0.556 0.096,0 0.187,-0.022 0.273,-0.067 v 0.346 c -0.025,0.152 -0.116,0.231 -0.272,0.237 -0.115,-0.005 -0.197,-0.057 -0.251,-0.162 -0.046,-0.075 -0.113,-0.1 -0.2,-0.07 -0.078,0.043 -0.104,0.112 -0.072,0.199 0.106,0.213 0.281,0.327 0.524,0.336 0.336,-0.02 0.528,-0.199 0.57,-0.536 v -1.205 c -0.042,-0.331 -0.234,-0.51 -0.571,-0.533 z" /></defs>
	<clipPath
   id="SVGID_47_">
		<use
   xlink:href="#SVGID_46_"
   overflow="visible"
   id="use206" />
	</clipPath>
	
		<linearGradient
   id="SVGID_48_"
   gradientUnits="userSpaceOnUse"
   x1="0.0009765625"
   y1="425.19681"
   x2="1.001"
   y2="425.19681"
   gradientTransform="matrix(1.1453,0,0,-1.1453,29.8296,582.2309)">
		<stop
   offset="0"
   style="stop-color:#161730"
   id="stop209" />
		<stop
   offset="1"
   style="stop-color:#242C5B"
   id="stop211" />
	</linearGradient>
	<rect
   x="29.83"
   y="94.122002"
   clip-path="url(#SVGID_47_)"
   fill="url(#SVGID_48_)"
   width="1.1440001"
   height="2.2739999"
   id="rect214"
   style="fill:url(#SVGID_48_)" />
</g>
<g
   id="g231"
   transform="translate(-20.065999,-88.386)">
	<defs
   id="defs219"><path
     id="SVGID_49_"
     d="m 31.585,95.881 v -0.322 c 0.023,-0.163 0.118,-0.249 0.287,-0.258 0.165,0.011 0.26,0.096 0.283,0.258 v 0.322 c -0.023,0.164 -0.118,0.25 -0.283,0.257 -0.169,-0.007 -0.264,-0.093 -0.287,-0.257 m 0.061,-1.05 v -0.22 c 0.012,-0.136 0.087,-0.212 0.226,-0.225 0.134,0.013 0.209,0.089 0.223,0.225 v 0.22 C 32.084,94.97 32.01,95.046 31.874,95.06 31.736,95.046 31.66,94.97 31.646,94.831 m -0.231,-0.22 v 0.22 c 0,0.137 0.051,0.251 0.153,0.341 -0.132,0.097 -0.2,0.225 -0.206,0.387 v 0.322 c 0.034,0.301 0.204,0.461 0.51,0.483 0.304,-0.022 0.473,-0.182 0.508,-0.483 v -0.322 c -0.006,-0.16 -0.074,-0.288 -0.201,-0.384 0.098,-0.093 0.147,-0.207 0.149,-0.344 v -0.22 c -0.026,-0.278 -0.178,-0.43 -0.456,-0.456 -0.28,0.026 -0.432,0.178 -0.457,0.456" /></defs>
	<clipPath
   id="SVGID_50_">
		<use
   xlink:href="#SVGID_49_"
   overflow="visible"
   id="use221" />
	</clipPath>
	
		<linearGradient
   id="SVGID_51_"
   gradientUnits="userSpaceOnUse"
   x1="-0.00048828131"
   y1="425.1958"
   x2="0.99949998"
   y2="425.1958"
   gradientTransform="matrix(1.018,0,0,-1.018,31.3622,528.1223)">
		<stop
   offset="0"
   style="stop-color:#161730"
   id="stop224" />
		<stop
   offset="1"
   style="stop-color:#242C5B"
   id="stop226" />
	</linearGradient>
	<rect
   x="31.362"
   y="94.154999"
   clip-path="url(#SVGID_50_)"
   fill="url(#SVGID_51_)"
   width="1.018"
   height="2.2090001"
   id="rect229"
   style="fill:url(#SVGID_51_)" />
</g>
<g
   id="g246"
   transform="translate(-20.065999,-88.386)">
	<defs
   id="defs234"><path
     id="SVGID_52_"
     d="m 31.615,95.881 -10e-4,-0.319 c 0.021,-0.148 0.106,-0.223 0.256,-0.231 0.151,0.009 0.235,0.085 0.256,0.228 v 0.32 c -0.022,0.148 -0.105,0.223 -0.253,0.229 -0.153,-0.006 -0.238,-0.082 -0.258,-0.227 m -0.059,-0.322 v 0.326 c 0.025,0.178 0.133,0.275 0.317,0.283 0.179,-0.008 0.287,-0.105 0.311,-0.283 v -0.002 -0.329 c -0.025,-0.175 -0.13,-0.271 -0.314,-0.283 -0.184,0.01 -0.289,0.106 -0.314,0.288 m 0.12,-0.728 v -0.218 c 0.01,-0.122 0.073,-0.185 0.196,-0.197 0.119,0.012 0.181,0.076 0.193,0.195 v 0.219 c -0.01,0.123 -0.07,0.187 -0.191,0.2 -0.123,-0.013 -0.186,-0.077 -0.198,-0.199 m 0.196,-0.475 h -0.004 c -0.151,0.015 -0.238,0.103 -0.252,0.252 v 0.002 0.224 c 0.015,0.152 0.104,0.239 0.255,0.255 l 0.003,0.001 0.003,-0.001 c 0.15,-0.016 0.235,-0.104 0.247,-0.258 v -0.223 c -0.016,-0.149 -0.102,-0.237 -0.25,-0.252 z m -0.48,1.525 v -0.322 c 0.004,-0.153 0.068,-0.271 0.193,-0.362 l 0.029,-0.022 -0.028,-0.024 c -0.095,-0.087 -0.142,-0.191 -0.142,-0.32 v -0.217 c 0.024,-0.264 0.164,-0.405 0.425,-0.43 0.264,0.025 0.405,0.166 0.429,0.427 v 0.22 c -0.002,0.129 -0.047,0.235 -0.14,0.323 l -0.025,0.024 0.028,0.02 c 0.121,0.092 0.183,0.21 0.19,0.361 v 0.319 c -0.033,0.287 -0.19,0.436 -0.477,0.456 -0.293,-0.02 -0.45,-0.169 -0.482,-0.453 m -0.006,-1.27 v 0.22 c 0,0.134 0.046,0.247 0.136,0.34 -0.12,0.099 -0.184,0.228 -0.189,0.388 v 0.325 c 0.035,0.316 0.216,0.487 0.541,0.51 0.319,-0.023 0.499,-0.194 0.536,-0.513 v -0.324 c -0.007,-0.156 -0.07,-0.286 -0.187,-0.385 0.088,-0.093 0.133,-0.207 0.135,-0.341 v -0.223 c -0.028,-0.292 -0.191,-0.455 -0.489,-0.483 -0.295,0.028 -0.458,0.191 -0.483,0.486" /></defs>
	<clipPath
   id="SVGID_53_">
		<use
   xlink:href="#SVGID_52_"
   overflow="visible"
   id="use236" />
	</clipPath>
	
		<linearGradient
   id="SVGID_54_"
   gradientUnits="userSpaceOnUse"
   x1="0"
   y1="425.1958"
   x2="1"
   y2="425.1958"
   gradientTransform="matrix(1.0771,0,0,-1.0771,31.3328,553.2375)">
		<stop
   offset="0"
   style="stop-color:#161730"
   id="stop239" />
		<stop
   offset="1"
   style="stop-color:#242C5B"
   id="stop241" />
	</linearGradient>
	<rect
   x="31.333"
   y="94.125"
   clip-path="url(#SVGID_53_)"
   fill="url(#SVGID_54_)"
   width="1.077"
   height="2.2690001"
   id="rect244"
   style="fill:url(#SVGID_54_)" />
</g>
<g
   id="g261"
   transform="translate(-20.065999,-88.386)">
	<defs
   id="defs249"><path
     id="SVGID_55_"
     d="m 33.133,95.353 c -0.15,0.021 -0.23,0.143 -0.241,0.366 0.015,0.223 0.095,0.344 0.241,0.366 h 1.071 C 34.35,96.069 34.43,95.947 34.445,95.719 34.43,95.496 34.35,95.374 34.204,95.353 Z m 0,-0.919 c -0.15,0.018 -0.23,0.099 -0.241,0.245 0.015,0.147 0.095,0.227 0.241,0.241 h 1.071 C 34.35,94.909 34.43,94.829 34.445,94.679 34.43,94.533 34.35,94.452 34.204,94.434 Z" /></defs>
	<clipPath
   id="SVGID_56_">
		<use
   xlink:href="#SVGID_55_"
   overflow="visible"
   id="use251" />
	</clipPath>
	
		<linearGradient
   id="SVGID_57_"
   gradientUnits="userSpaceOnUse"
   x1="0"
   y1="425.19781"
   x2="1.001"
   y2="425.19781"
   gradientTransform="matrix(1.5518,0,0,-1.5518,32.8925,755.0665)">
		<stop
   offset="0"
   style="stop-color:#161730"
   id="stop254" />
		<stop
   offset="1"
   style="stop-color:#242C5B"
   id="stop256" />
	</linearGradient>
	<rect
   x="32.891998"
   y="94.433998"
   clip-path="url(#SVGID_56_)"
   fill="url(#SVGID_57_)"
   width="1.553"
   height="1.651"
   id="rect259"
   style="fill:url(#SVGID_57_)" />
</g>
<g
   id="g276"
   transform="translate(-20.065999,-88.386)">
	<defs
   id="defs264"><path
     id="SVGID_58_"
     d="m 27.967,95.353 c -0.151,0.021 -0.231,0.143 -0.241,0.366 0.014,0.223 0.094,0.344 0.241,0.366 h 1.071 c 0.145,-0.016 0.226,-0.138 0.24,-0.366 -0.014,-0.223 -0.095,-0.345 -0.24,-0.366 z m 0,-0.919 c -0.151,0.018 -0.231,0.099 -0.241,0.245 0.014,0.147 0.094,0.227 0.241,0.241 h 1.071 c 0.145,-0.011 0.226,-0.091 0.24,-0.241 -0.014,-0.146 -0.095,-0.227 -0.24,-0.245 z" /></defs>
	<clipPath
   id="SVGID_59_">
		<use
   xlink:href="#SVGID_58_"
   overflow="visible"
   id="use266" />
	</clipPath>
	
		<linearGradient
   id="SVGID_60_"
   gradientUnits="userSpaceOnUse"
   x1="0.00048828131"
   y1="425.19781"
   x2="1.0005"
   y2="425.19781"
   gradientTransform="matrix(1.5518,0,0,-1.5518,27.7255,755.0665)">
		<stop
   offset="0"
   style="stop-color:#161730"
   id="stop269" />
		<stop
   offset="1"
   style="stop-color:#242C5B"
   id="stop271" />
	</linearGradient>
	<rect
   x="27.726"
   y="94.433998"
   clip-path="url(#SVGID_59_)"
   fill="url(#SVGID_60_)"
   width="1.552"
   height="1.651"
   id="rect274"
   style="fill:url(#SVGID_60_)" />
</g>







































































































































































































































































</svg>
