<?xml version="1.0" encoding="UTF-8" standalone="no"?>
<!-- Generator: Adobe Illustrator 13.0.0, SVG Export Plug-In . SVG Version: 6.00 Build 14948)  -->

<svg
   version="1.1"
   id="Layer_1"
   x="0px"
   y="0px"
   width="17.091019"
   height="24.66687"
   viewBox="0 0 17.091018 24.666871"
   enable-background="new 0 0 187.087 425.197"
   xml:space="preserve"
   sodipodi:docname="sfondo_cell.svg"
   xmlns:inkscape="http://www.inkscape.org/namespaces/inkscape"
   xmlns:sodipodi="http://sodipodi.sourceforge.net/DTD/sodipodi-0.dtd"
   xmlns:xlink="http://www.w3.org/1999/xlink"
   xmlns="http://www.w3.org/2000/svg"
   xmlns:svg="http://www.w3.org/2000/svg"><defs
   id="defs4221" /><sodipodi:namedview
   id="namedview4219"
   pagecolor="#ffffff"
   bordercolor="#000000"
   borderopacity="0.25"
   inkscape:showpageshadow="2"
   inkscape:pageopacity="0.0"
   inkscape:pagecheckerboard="0"
   inkscape:deskcolor="#d1d1d1"
   showgrid="false" />
























































































































































































































































<g
   id="g3646"
   transform="translate(-145.02425,-83.630995)">
	<defs
   id="defs3634"><path
     id="SVGID_732_"
     d="m 160.055,107.826 -0.013,-0.022 c -0.313,-0.084 -0.6,-0.273 -0.778,-0.581 l -3.724,-6.451 2.253,-1.3 3.724,6.449 c 0.18,0.31 0.199,0.652 0.128,0.987 -0.105,0.326 -0.295,0.612 -0.603,0.79 -0.204,0.117 -0.43,0.172 -0.651,0.172 -0.115,0 -0.228,-0.015 -0.336,-0.044 m -2.301,-8.831 -2.607,1.505 c -0.109,0.063 -0.147,0.202 -0.083,0.313 l 3.825,6.626 c 0.229,0.397 0.622,0.672 1.04,0.783 l 0.015,0.022 c 0.418,0.112 0.883,0.05 1.303,-0.192 0.396,-0.229 0.683,-0.602 0.817,-1.032 0.1,-0.44 0.059,-0.919 -0.17,-1.316 l -3.825,-6.627 c -0.043,-0.073 -0.119,-0.114 -0.198,-0.114 -0.04,0 -0.08,0.01 -0.117,0.032" /></defs>
	<clipPath
   id="SVGID_733_">
		<use
   xlink:href="#SVGID_732_"
   overflow="visible"
   id="use3636" />
	</clipPath>
	
		<linearGradient
   id="SVGID_734_"
   gradientUnits="userSpaceOnUse"
   x1="0"
   y1="425.29541"
   x2="1"
   y2="425.29541"
   gradientTransform="matrix(3.0048,-1.7348,-1.7348,-3.0048,894.9755,1382.3779)">
		<stop
   offset="0"
   style="stop-color:#161730"
   id="stop3639" />
		<stop
   offset="1"
   style="stop-color:#242C5B"
   id="stop3641" />
	</linearGradient>
	<polygon
   clip-path="url(#SVGID_733_)"
   fill="url(#SVGID_734_)"
   points="150.932,101.311 160.372,95.861 166.23,106.007 156.79,111.458 "
   id="polygon3644"
   style="fill:url(#SVGID_734_)" />
</g>
<g
   id="g3661"
   transform="translate(-145.02425,-83.630995)">
	<defs
   id="defs3649"><path
     id="SVGID_735_"
     d="m 152.864,93.687 c -0.089,0.052 -0.126,0.191 -0.063,0.302 1.174,2.032 2.343,3.802 3.529,5.856 0.051,0.088 0.19,0.126 0.279,0.075 0.109,-0.064 0.146,-0.203 0.096,-0.292 -1.173,-2.033 -2.432,-3.956 -3.529,-5.856 -0.043,-0.074 -0.119,-0.116 -0.198,-0.116 -0.038,0 -0.077,0.01 -0.114,0.031" /></defs>
	<clipPath
   id="SVGID_736_">
		<use
   xlink:href="#SVGID_735_"
   overflow="visible"
   id="use3651" />
	</clipPath>
	
		<linearGradient
   id="SVGID_737_"
   gradientUnits="userSpaceOnUse"
   x1="0"
   y1="425.17239"
   x2="1"
   y2="425.17239"
   gradientTransform="matrix(0.4865,-0.2809,-0.2809,-0.4865,273.9351,303.796)">
		<stop
   offset="0"
   style="stop-color:#161730"
   id="stop3654" />
		<stop
   offset="1"
   style="stop-color:#242C5B"
   id="stop3656" />
	</linearGradient>
	<polygon
   clip-path="url(#SVGID_736_)"
   fill="url(#SVGID_737_)"
   points="150.004,95.234 155.752,91.916 159.491,98.392 153.743,101.711 "
   id="polygon3659"
   style="fill:url(#SVGID_737_)" />
</g>
<g
   id="g3676"
   transform="translate(-145.02425,-83.630995)">
	<defs
   id="defs3664"><path
     id="SVGID_738_"
     d="m 159.969,105.638 c -0.17,0.01 -0.262,0.209 -0.186,0.342 l 0.409,0.707 c 0.038,0.066 0.119,0.107 0.2,0.09 0.172,-0.01 0.252,-0.175 0.176,-0.308 l -0.408,-0.706 c -0.037,-0.065 -0.128,-0.126 -0.187,-0.126 -0.001,0 -0.003,0.001 -0.004,0.001 m -0.867,-1.502 c -0.156,0.032 -0.262,0.209 -0.186,0.342 l 0.217,0.376 c 0.038,0.065 0.134,0.128 0.214,0.112 0.157,-0.033 0.239,-0.197 0.163,-0.329 l -0.217,-0.376 c -0.038,-0.064 -0.129,-0.126 -0.186,-0.126 -0.002,0 -0.003,0 -0.005,10e-4 m -1.722,-2.983 c -0.171,0.01 -0.274,0.188 -0.185,0.344 l 1.07,1.855 c 0.039,0.066 0.134,0.128 0.213,0.112 0.172,-0.011 0.24,-0.198 0.163,-0.33 l -1.07,-1.855 c -0.049,-0.086 -0.127,-0.126 -0.185,-0.126 -0.001,0 -0.003,0 -0.006,0" /></defs>
	<clipPath
   id="SVGID_739_">
		<use
   xlink:href="#SVGID_738_"
   overflow="visible"
   id="use3666" />
	</clipPath>
	
		<linearGradient
   id="SVGID_740_"
   gradientUnits="userSpaceOnUse"
   x1="0"
   y1="425.1929"
   x2="1"
   y2="425.1929"
   gradientTransform="matrix(0.3764,-0.2173,-0.2173,-0.3764,251.081,264.1118)">
		<stop
   offset="0"
   style="stop-color:#161730"
   id="stop3669" />
		<stop
   offset="1"
   style="stop-color:#242C5B"
   id="stop3671" />
	</linearGradient>
	<polygon
   clip-path="url(#SVGID_739_)"
   fill="url(#SVGID_740_)"
   points="154.662,102.563 159.76,99.62 163.088,105.383 157.99,108.327 "
   id="polygon3674"
   style="fill:url(#SVGID_740_)" />
</g>
<g
   id="g3691"
   transform="translate(-145.02425,-83.630995)">
	<defs
   id="defs3679"><path
     id="SVGID_741_"
     d="m 153.883,89.45 0.878,0.946 c 0.207,0.212 0.502,-0.094 0.319,-0.311 l -0.872,-0.921 c -0.05,-0.051 -0.105,-0.073 -0.158,-0.073 -0.165,0 -0.302,0.212 -0.167,0.359 m -1.184,-1.239 0.305,0.295 c 0.207,0.212 0.501,-0.093 0.299,-0.282 L 153.017,87.9 c -0.049,-0.051 -0.104,-0.073 -0.155,-0.073 -0.166,0 -0.303,0.217 -0.163,0.384 m -2.357,-2.535 1.477,1.59 c 0.208,0.212 0.497,-0.118 0.319,-0.311 l -1.496,-1.56 c -0.05,-0.052 -0.104,-0.073 -0.156,-0.073 -0.165,0 -0.297,0.211 -0.144,0.354" /></defs>
	<clipPath
   id="SVGID_742_">
		<use
   xlink:href="#SVGID_741_"
   overflow="visible"
   id="use3681" />
	</clipPath>
	
		<linearGradient
   id="SVGID_743_"
   gradientUnits="userSpaceOnUse"
   x1="0"
   y1="425.1763"
   x2="1"
   y2="425.1763"
   gradientTransform="matrix(3.5616,-0.8428,-0.8428,-3.5616,509.2906,1602.6923)">
		<stop
   offset="0"
   style="stop-color:#161730"
   id="stop3684" />
		<stop
   offset="1"
   style="stop-color:#242C5B"
   id="stop3686" />
	</linearGradient>
	<polygon
   clip-path="url(#SVGID_742_)"
   fill="url(#SVGID_743_)"
   points="149.005,85.602 154.994,84.185 156.447,90.328 150.458,91.745 "
   id="polygon3689"
   style="fill:url(#SVGID_743_)" />
</g>
<g
   id="g3706"
   transform="translate(-145.02425,-83.630995)">
	<defs
   id="defs3694"><path
     id="SVGID_744_"
     d="m 160.192,106.687 -0.409,-0.707 c -0.076,-0.133 0.016,-0.332 0.186,-0.342 0.058,-0.004 0.153,0.058 0.191,0.125 l 0.408,0.706 c 0.076,0.133 -0.004,0.298 -0.176,0.308 -0.013,0.003 -0.024,0.004 -0.036,0.004 -0.068,0 -0.132,-0.038 -0.164,-0.094 m -1.059,-1.833 -0.217,-0.376 c -0.076,-0.133 0.029,-0.31 0.186,-0.342 0.058,-0.004 0.152,0.059 0.191,0.125 l 0.217,0.376 c 0.076,0.132 -0.006,0.296 -0.163,0.329 -0.009,0.002 -0.018,0.003 -0.026,0.003 -0.074,0 -0.154,-0.057 -0.188,-0.115 m -0.867,-1.502 -1.07,-1.855 c -0.09,-0.156 0.014,-0.334 0.185,-0.344 0.057,-0.004 0.14,0.037 0.191,0.126 l 1.07,1.855 c 0.077,0.132 0.009,0.319 -0.163,0.33 -0.009,0.002 -0.017,0.003 -0.025,0.003 -0.075,0 -0.154,-0.056 -0.188,-0.115 m -2.726,-2.58 3.724,6.451 c 0.179,0.308 0.465,0.497 0.778,0.581 l 0.013,0.022 c 0.313,0.084 0.678,0.051 0.987,-0.128 0.308,-0.178 0.497,-0.464 0.603,-0.79 0.071,-0.335 0.052,-0.677 -0.128,-0.987 l -3.724,-6.449 z" /></defs>
	<clipPath
   id="SVGID_745_">
		<use
   xlink:href="#SVGID_744_"
   overflow="visible"
   id="use3696" />
	</clipPath>
	
		<linearGradient
   id="SVGID_746_"
   gradientUnits="userSpaceOnUse"
   x1="0"
   y1="425.31201"
   x2="1"
   y2="425.31201"
   gradientTransform="matrix(2.2529,-1.3007,-1.3007,-2.2529,710.7973,1062.5032)">
		<stop
   offset="0"
   style="stop-color:#F7A715"
   id="stop3699" />
		<stop
   offset="1"
   style="stop-color:#FDC623"
   id="stop3701" />
	</linearGradient>
	<polygon
   clip-path="url(#SVGID_745_)"
   fill="url(#SVGID_746_)"
   points="151.887,101.581 160.172,96.797 165.37,105.8 157.084,110.584 "
   id="polygon3704"
   style="fill:url(#SVGID_746_)" />
</g>
<g
   id="g3721"
   transform="translate(-145.02425,-83.630995)">
	<defs
   id="defs3709"><path
     id="SVGID_747_"
     d="m 146.005,88.249 c -0.185,-0.475 -0.366,-0.952 -0.553,-1.429 l 4.767,-2.753 c 2.688,2.94 5.368,5.878 8.053,8.819 0.33,0.361 0.661,0.721 0.988,1.084 l -9.033,5.215 c -1.406,-3.644 -2.817,-7.291 -4.222,-10.936 m 4.159,-4.593 -5.045,2.912 c -0.011,0.007 -0.019,0.011 -0.024,0.019 -0.007,0.005 -0.014,0.008 -0.019,0.016 -0.047,0.047 -0.061,0.104 -0.046,0.16 -0.002,0.006 -0.004,0.012 0.001,0.02 1.437,3.725 2.875,7.444 4.311,11.169 0.202,0.52 0.404,1.039 0.604,1.558 0.042,0.114 0.162,0.187 0.28,0.119 l 9.433,-5.446 c 0.11,-0.064 0.12,-0.212 0.038,-0.302 -2.713,-2.975 -5.432,-5.951 -8.143,-8.925 -0.386,-0.422 -0.773,-0.845 -1.161,-1.27 -0.033,-0.037 -0.084,-0.055 -0.134,-0.055 -0.033,0 -0.066,0.009 -0.095,0.025" /></defs>
	<clipPath
   id="SVGID_748_">
		<use
   xlink:href="#SVGID_747_"
   overflow="visible"
   id="use3711" />
	</clipPath>
	
		<linearGradient
   id="SVGID_749_"
   gradientUnits="userSpaceOnUse"
   x1="0"
   y1="425.09811"
   x2="1"
   y2="425.09811"
   gradientTransform="matrix(9.7577,-5.6336,-5.6336,-9.7577,2541.98,4242.6484)">
		<stop
   offset="0"
   style="stop-color:#161730"
   id="stop3714" />
		<stop
   offset="1"
   style="stop-color:#242C5B"
   id="stop3716" />
	</linearGradient>
	<polygon
   clip-path="url(#SVGID_748_)"
   fill="url(#SVGID_749_)"
   points="138.06,87.647 156.088,77.238 166.735,95.68 148.707,106.089 "
   id="polygon3719"
   style="fill:url(#SVGID_749_)" />
</g>

































</svg>
