<?xml version="1.0" encoding="UTF-8" standalone="no"?>
<!-- Generator: Adobe Illustrator 13.0.0, SVG Export Plug-In . SVG Version: 6.00 Build 14948)  -->

<svg
   version="1.1"
   id="Layer_1"
   x="0px"
   y="0px"
   width="22.615936"
   height="21.11261"
   viewBox="0 0 22.615936 21.11261"
   enable-background="new 0 0 187.087 425.197"
   xml:space="preserve"
   sodipodi:docname="sfondo_cell.svg"
   xmlns:inkscape="http://www.inkscape.org/namespaces/inkscape"
   xmlns:sodipodi="http://sodipodi.sourceforge.net/DTD/sodipodi-0.dtd"
   xmlns:xlink="http://www.w3.org/1999/xlink"
   xmlns="http://www.w3.org/2000/svg"
   xmlns:svg="http://www.w3.org/2000/svg"><defs
   id="defs4221" /><sodipodi:namedview
   id="namedview4219"
   pagecolor="#ffffff"
   bordercolor="#000000"
   borderopacity="0.25"
   inkscape:showpageshadow="2"
   inkscape:pageopacity="0.0"
   inkscape:pagecheckerboard="0"
   inkscape:deskcolor="#d1d1d1"
   showgrid="false" />

































































































































































































<g
   id="g2821"
   transform="translate(-20.083001,-273.35998)">
	<defs
   id="defs2809"><path
     id="SVGID_567_"
     d="m 23.602,279.609 3.494,-0.561 c 0.103,0 0.179,-0.076 0.205,-0.179 l 0.535,-3.52 c 0.026,-0.077 -0.025,-0.179 -0.076,-0.204 l -1.989,-1.327 c 0.407,-0.025 0.79,0.051 1.172,0.153 0.562,0.179 1.097,0.51 1.556,0.943 0.511,0.51 0.842,1.123 0.995,1.786 0.154,0.663 0.128,1.377 -0.077,2.04 -0.025,0.103 0,0.179 0.052,0.23 l 7.6,7.626 c 0.078,0.075 0.179,0.075 0.256,0.051 0.663,-0.204 1.377,-0.229 2.04,-0.076 0.638,0.153 1.275,0.484 1.786,0.994 0.434,0.459 0.765,0.97 0.918,1.53 0.128,0.384 0.178,0.79 0.178,1.175 l -1.326,-1.965 c -0.051,-0.077 -0.153,-0.104 -0.229,-0.077 l -3.495,0.536 c -0.102,0.024 -0.178,0.102 -0.204,0.204 l -0.536,3.493 c -0.025,0.104 0.026,0.18 0.077,0.23 l 1.963,1.327 c -0.382,0 -0.79,-0.052 -1.147,-0.18 -0.561,-0.179 -1.096,-0.483 -1.555,-0.919 -0.51,-0.509 -0.843,-1.146 -0.996,-1.783 -0.153,-0.689 -0.127,-1.404 0.077,-2.067 0.025,-0.076 0,-0.153 -0.05,-0.229 l -7.627,-7.603 c -0.051,-0.075 -0.153,-0.075 -0.23,-0.05 -0.663,0.203 -1.377,0.229 -2.04,0.076 -0.663,-0.153 -1.276,-0.484 -1.786,-1.021 -0.433,-0.433 -0.765,-0.969 -0.944,-1.53 -0.101,-0.383 -0.153,-0.765 -0.153,-1.174 l 1.327,1.989 c 0.039,0.058 0.106,0.087 0.169,0.087 0.021,0.005 0.041,0.002 0.06,-0.005 m 1.479,-6.198 c -0.075,0.026 -0.127,0.077 -0.178,0.128 -0.05,0.128 0,0.255 0.103,0.307 l 0.101,0.05 2.27,1.53 -0.51,3.215 -3.214,0.51 -1.53,-2.27 -0.051,-0.103 c -0.026,-0.05 -0.076,-0.103 -0.153,-0.128 -0.127,0 -0.255,0.078 -0.255,0.205 -0.128,0.663 -0.077,1.351 0.128,2.015 0.178,0.612 0.535,1.198 1.045,1.708 0.561,0.562 1.25,0.944 1.99,1.124 0.713,0.177 1.454,0.153 2.168,-0.051 l 7.422,7.421 c -0.204,0.715 -0.23,1.454 -0.05,2.169 0.178,0.738 0.56,1.427 1.121,1.989 0.485,0.509 1.097,0.842 1.709,1.045 0.663,0.204 1.352,0.256 2.015,0.128 0.077,0 0.128,-0.051 0.178,-0.103 0.052,-0.127 0,-0.255 -0.101,-0.307 l -0.128,-0.076 -2.245,-1.504 0.51,-3.215 3.214,-0.509 1.53,2.244 0.052,0.127 c 0.025,0.051 0.076,0.103 0.153,0.103 0.128,0.026 0.229,-0.052 0.254,-0.179 0.128,-0.663 0.077,-1.352 -0.126,-2.015 -0.18,-0.612 -0.536,-1.225 -1.046,-1.71 -0.562,-0.587 -1.25,-0.943 -1.99,-1.121 -0.714,-0.18 -1.454,-0.153 -2.168,0.05 l -7.423,-7.421 c 0.205,-0.714 0.23,-1.454 0.052,-2.168 -0.179,-0.741 -0.561,-1.429 -1.123,-2.016 -0.484,-0.483 -1.096,-0.843 -1.709,-1.021 -0.442,-0.136 -0.895,-0.204 -1.346,-0.204 -0.224,0.002 -0.448,0.018 -0.669,0.053" /></defs>
	<clipPath
   id="SVGID_568_">
		<use
   xlink:href="#SVGID_567_"
   overflow="visible"
   id="use2811" />
	</clipPath>
	
		<linearGradient
   id="SVGID_569_"
   gradientUnits="userSpaceOnUse"
   x1="0"
   y1="425.19479"
   x2="1"
   y2="425.19479"
   gradientTransform="matrix(21.105,0,0,-21.105,21.5904,9257.6816)">
		<stop
   offset="0"
   style="stop-color:#161730"
   id="stop2814" />
		<stop
   offset="1"
   style="stop-color:#242C5B"
   id="stop2816" />
	</linearGradient>
	<rect
   x="21.535999"
   y="273.35999"
   clip-path="url(#SVGID_568_)"
   fill="url(#SVGID_569_)"
   width="21.221001"
   height="21.171"
   id="rect2819"
   style="fill:url(#SVGID_569_)" />
</g>
<g
   id="g2836"
   transform="translate(-20.083001,-273.35998)">
	<defs
   id="defs2824"><path
     id="SVGID_570_"
     d="m 36.1,287.005 0.281,0.28 c 0.204,0.205 0.51,-0.102 0.306,-0.306 l -0.28,-0.279 c -0.048,-0.048 -0.101,-0.068 -0.152,-0.068 -0.167,0 -0.311,0.218 -0.155,0.373 m -1.224,-1.223 0.306,0.306 c 0.204,0.203 0.51,-0.102 0.306,-0.306 l -0.306,-0.306 c -0.047,-0.048 -0.1,-0.068 -0.151,-0.068 -0.167,0 -0.312,0.217 -0.155,0.374 m -2.448,-2.449 1.53,1.531 c 0.203,0.204 0.51,-0.102 0.306,-0.306 l -1.53,-1.531 c -0.047,-0.047 -0.1,-0.067 -0.151,-0.067 -0.168,-10e-4 -0.313,0.215 -0.155,0.373 m -1.225,-1.224 0.306,0.306 c 0.204,0.204 0.51,-0.102 0.306,-0.306 l -0.306,-0.306 c -0.038,-0.038 -0.082,-0.056 -0.125,-0.056 -0.162,10e-4 -0.321,0.221 -0.181,0.362 m -2.423,-2.423 1.53,1.529 c 0.179,0.179 0.485,-0.128 0.281,-0.306 l -1.505,-1.53 c -0.047,-0.048 -0.1,-0.067 -0.151,-0.067 -0.168,0 -0.312,0.217 -0.155,0.374" /></defs>
	<clipPath
   id="SVGID_571_">
		<use
   xlink:href="#SVGID_570_"
   overflow="visible"
   id="use2826" />
	</clipPath>
	
		<linearGradient
   id="SVGID_572_"
   gradientUnits="userSpaceOnUse"
   x1="0"
   y1="425.189"
   x2="1"
   y2="425.189"
   gradientTransform="matrix(8.0413,0,0,-8.0413,28.7111,3702.4644)">
		<stop
   offset="0"
   style="stop-color:#161730"
   id="stop2829" />
		<stop
   offset="1"
   style="stop-color:#242C5B"
   id="stop2831" />
	</linearGradient>
	<rect
   x="28.622999"
   y="279.31201"
   clip-path="url(#SVGID_571_)"
   fill="url(#SVGID_572_)"
   width="8.2679996"
   height="8.1789999"
   id="rect2834"
   style="fill:url(#SVGID_572_)" />
</g>
<g
   id="g2851"
   transform="translate(-20.083001,-273.35998)">
	<defs
   id="defs2839"><path
     id="SVGID_573_"
     d="m 20.848,285.755 0.816,-2.447 2.525,-0.511 1.709,1.939 -0.817,2.447 -2.524,0.511 z m 1.989,-3.136 -1.53,0.306 -0.97,2.934 2.041,2.321 3.035,-0.612 0.995,-2.934 -2.066,-2.32 z" /></defs>
	<clipPath
   id="SVGID_574_">
		<use
   xlink:href="#SVGID_573_"
   overflow="visible"
   id="use2841" />
	</clipPath>
	
		<linearGradient
   id="SVGID_575_"
   gradientUnits="userSpaceOnUse"
   x1="0.00048828131"
   y1="425.19681"
   x2="1.0005"
   y2="425.19681"
   gradientTransform="matrix(6.0707,0,0,-6.0707,20.3361,2866.4963)">
		<stop
   offset="0"
   style="stop-color:#161730"
   id="stop2844" />
		<stop
   offset="1"
   style="stop-color:#242C5B"
   id="stop2846" />
	</linearGradient>
	<rect
   x="20.337"
   y="282.31299"
   clip-path="url(#SVGID_574_)"
   fill="url(#SVGID_575_)"
   width="6.0710001"
   height="5.8660002"
   id="rect2849"
   style="fill:url(#SVGID_575_)" />
</g>
<g
   id="g2866"
   transform="translate(-20.083001,-273.35998)">
	<defs
   id="defs2854"><path
     id="SVGID_576_"
     d="m 20.593,286.521 0.076,-0.254 1.709,1.912 2.525,-0.51 -0.076,0.255 -2.526,0.511 z m -0.459,-0.025 -0.051,0.128 2.065,2.32 3.01,-0.637 0.434,-1.225 -3.035,0.612 -2.067,-2.321 z" /></defs>
	<clipPath
   id="SVGID_577_">
		<use
   xlink:href="#SVGID_576_"
   overflow="visible"
   id="use2856" />
	</clipPath>
	
		<linearGradient
   id="SVGID_578_"
   gradientUnits="userSpaceOnUse"
   x1="0"
   y1="425.19681"
   x2="1"
   y2="425.19681"
   gradientTransform="matrix(5.5091,0,0,-5.5091,20.0817,2629.6208)">
		<stop
   offset="0"
   style="stop-color:#161730"
   id="stop2859" />
		<stop
   offset="1"
   style="stop-color:#242C5B"
   id="stop2861" />
	</linearGradient>
	<rect
   x="20.083"
   y="285.37399"
   clip-path="url(#SVGID_577_)"
   fill="url(#SVGID_578_)"
   width="5.5089998"
   height="3.5699999"
   id="rect2864"
   style="fill:url(#SVGID_578_)" />
</g>
<g
   id="g2881"
   transform="translate(-20.083001,-273.35998)">
	<defs
   id="defs2869"><polygon
     id="SVGID_579_"
     points="21.996,288.613 22.43,288.766 22.684,288 22.251,287.873 " /></defs>
	<clipPath
   id="SVGID_580_">
		<use
   xlink:href="#SVGID_579_"
   overflow="visible"
   id="use2871" />
	</clipPath>
	
		<linearGradient
   id="SVGID_581_"
   gradientUnits="userSpaceOnUse"
   x1="0.0009765625"
   y1="425.19479"
   x2="1"
   y2="425.19479"
   gradientTransform="matrix(0.6886,0,0,-0.6886,21.9955,581.103)">
		<stop
   offset="0"
   style="stop-color:#161730"
   id="stop2874" />
		<stop
   offset="1"
   style="stop-color:#242C5B"
   id="stop2876" />
	</linearGradient>
	<rect
   x="21.996"
   y="287.87299"
   clip-path="url(#SVGID_580_)"
   fill="url(#SVGID_581_)"
   width="0.68800002"
   height="0.89399999"
   id="rect2879"
   style="fill:url(#SVGID_581_)" />
</g>
<g
   id="g2896"
   transform="translate(-20.083001,-273.35998)">
	<defs
   id="defs2884"><path
     id="SVGID_582_"
     d="m 23.143,285.909 c -0.204,-0.076 -0.382,-0.229 -0.485,-0.407 -0.101,-0.153 -0.127,-0.332 -0.076,-0.511 0.051,-0.179 0.204,-0.306 0.382,-0.382 0.179,-0.077 0.409,-0.077 0.612,-0.025 0.231,0.076 0.409,0.229 0.511,0.407 0.076,0.153 0.128,0.332 0.051,0.511 -0.051,0.179 -0.178,0.307 -0.357,0.382 -0.104,0.045 -0.225,0.071 -0.353,0.071 -0.093,0 -0.189,-0.014 -0.285,-0.046 M 22.786,284.2 c -0.306,0.103 -0.535,0.332 -0.638,0.638 -0.076,0.307 -0.05,0.639 0.128,0.894 0.154,0.28 0.408,0.483 0.74,0.586 0.331,0.128 0.663,0.104 0.944,-0.026 0.28,-0.102 0.51,-0.331 0.612,-0.636 0.102,-0.307 0.05,-0.638 -0.102,-0.893 -0.153,-0.257 -0.408,-0.485 -0.741,-0.588 -0.149,-0.057 -0.298,-0.084 -0.442,-0.084 -0.177,-0.001 -0.346,0.039 -0.501,0.109" /></defs>
	<clipPath
   id="SVGID_583_">
		<use
   xlink:href="#SVGID_582_"
   overflow="visible"
   id="use2886" />
	</clipPath>
	
		<linearGradient
   id="SVGID_584_"
   gradientUnits="userSpaceOnUse"
   x1="0"
   y1="425.189"
   x2="1"
   y2="425.189"
   gradientTransform="matrix(2.5167,0,0,-2.5167,22.109,1355.3557)">
		<stop
   offset="0"
   style="stop-color:#161730"
   id="stop2889" />
		<stop
   offset="1"
   style="stop-color:#242C5B"
   id="stop2891" />
	</linearGradient>
	<rect
   x="22.072001"
   y="284.09"
   clip-path="url(#SVGID_583_)"
   fill="url(#SVGID_584_)"
   width="2.602"
   height="2.3540001"
   id="rect2894"
   style="fill:url(#SVGID_584_)" />
</g>
<g
   id="g2911"
   transform="translate(-20.083001,-273.35998)">
	<defs
   id="defs2899"><path
     id="SVGID_585_"
     d="m 21.486,285.068 -0.128,0.434 c -0.102,0.229 0.255,0.407 0.382,0.153 l 0.153,-0.434 c 0.067,-0.15 -0.073,-0.289 -0.214,-0.289 -0.075,0 -0.149,0.039 -0.193,0.136 m 2.55,-1.94 -1.913,0.383 c -0.102,0.026 -0.153,0.076 -0.153,0.153 l -0.077,0.18 c -0.101,0.229 0.281,0.433 0.408,0.151 l 0.026,-0.076 1.786,-0.382 c 0.258,-0.048 0.214,-0.418 -0.013,-0.418 -0.02,10e-4 -0.041,0.004 -0.064,0.009" /></defs>
	<clipPath
   id="SVGID_586_">
		<use
   xlink:href="#SVGID_585_"
   overflow="visible"
   id="use2901" />
	</clipPath>
	
		<linearGradient
   id="SVGID_587_"
   gradientUnits="userSpaceOnUse"
   x1="0"
   y1="425.17529"
   x2="1"
   y2="425.17529"
   gradientTransform="matrix(2.9492,0,0,-2.9492,21.3401,1538.4198)">
		<stop
   offset="0"
   style="stop-color:#161730"
   id="stop2904" />
		<stop
   offset="1"
   style="stop-color:#242C5B"
   id="stop2906" />
	</linearGradient>
	<rect
   x="21.256001"
   y="283.12"
   clip-path="url(#SVGID_586_)"
   fill="url(#SVGID_587_)"
   width="3.115"
   height="2.789"
   id="rect2909"
   style="fill:url(#SVGID_587_)" />
</g>
<g
   id="g2926"
   transform="translate(-20.083001,-273.35998)">
	<defs
   id="defs2914"><path
     id="SVGID_588_"
     d="m 27.505,291.393 -0.816,-2.449 1.709,-1.938 1.275,0.255 1.249,0.281 0.816,2.423 -1.708,1.938 z m -1.327,-2.55 0.996,2.933 3.034,0.612 2.041,-2.321 -0.97,-2.935 -2.907,-0.585 -0.127,-0.026 z" /></defs>
	<clipPath
   id="SVGID_589_">
		<use
   xlink:href="#SVGID_588_"
   overflow="visible"
   id="use2916" />
	</clipPath>
	
		<linearGradient
   id="SVGID_590_"
   gradientUnits="userSpaceOnUse"
   x1="-0.0009765625"
   y1="425.19681"
   x2="0.99949998"
   y2="425.19681"
   gradientTransform="matrix(6.0707,0,0,-6.0707,26.1799,2870.707)">
		<stop
   offset="0"
   style="stop-color:#161730"
   id="stop2919" />
		<stop
   offset="1"
   style="stop-color:#242C5B"
   id="stop2921" />
	</linearGradient>
	<rect
   x="26.177999"
   y="286.521"
   clip-path="url(#SVGID_589_)"
   fill="url(#SVGID_590_)"
   width="6.0710001"
   height="5.8670001"
   id="rect2924"
   style="fill:url(#SVGID_590_)" />
</g>
<g
   id="g2941"
   transform="translate(-20.083001,-273.35998)">
	<defs
   id="defs2929"><path
     id="SVGID_591_"
     d="m 31.917,290.475 0.077,0.255 -1.709,1.913 -2.525,-0.51 -0.076,-0.257 2.524,0.512 z m -1.887,1.428 -3.035,-0.612 0.433,1.225 3.01,0.638 2.066,-2.321 -0.307,-0.867 -0.101,-0.383 z" /></defs>
	<clipPath
   id="SVGID_592_">
		<use
   xlink:href="#SVGID_591_"
   overflow="visible"
   id="use2931" />
	</clipPath>
	
		<linearGradient
   id="SVGID_593_"
   gradientUnits="userSpaceOnUse"
   x1="0.00048828131"
   y1="425.19681"
   x2="1.0005"
   y2="425.19681"
   gradientTransform="matrix(5.5095,0,0,-5.5095,26.9941,2633.9802)">
		<stop
   offset="0"
   style="stop-color:#161730"
   id="stop2934" />
		<stop
   offset="1"
   style="stop-color:#242C5B"
   id="stop2936" />
	</linearGradient>
	<rect
   x="26.995001"
   y="289.582"
   clip-path="url(#SVGID_592_)"
   fill="url(#SVGID_593_)"
   width="5.5089998"
   height="3.5710001"
   id="rect2939"
   style="fill:url(#SVGID_593_)" />
</g>
<g
   id="g2956"
   transform="translate(-20.083001,-273.35998)">
	<defs
   id="defs2944"><polygon
     id="SVGID_594_"
     points="29.902,292.209 30.157,292.974 30.591,292.821 30.335,292.082 " /></defs>
	<clipPath
   id="SVGID_595_">
		<use
   xlink:href="#SVGID_594_"
   overflow="visible"
   id="use2946" />
	</clipPath>
	
		<linearGradient
   id="SVGID_596_"
   gradientUnits="userSpaceOnUse"
   x1="0.00048828131"
   y1="425.19681"
   x2="1"
   y2="425.19681"
   gradientTransform="matrix(0.6891,0,0,-0.6891,29.902,585.5184)">
		<stop
   offset="0"
   style="stop-color:#161730"
   id="stop2949" />
		<stop
   offset="1"
   style="stop-color:#242C5B"
   id="stop2951" />
	</linearGradient>
	<rect
   x="29.902"
   y="292.082"
   clip-path="url(#SVGID_595_)"
   fill="url(#SVGID_596_)"
   width="0.68900001"
   height="0.89300001"
   id="rect2954"
   style="fill:url(#SVGID_596_)" />
</g>
<g
   id="g2971"
   transform="translate(-20.083001,-273.35998)">
	<defs
   id="defs2959"><path
     id="SVGID_597_"
     d="m 28.805,290.093 c -0.178,-0.078 -0.306,-0.206 -0.357,-0.384 -0.076,-0.152 -0.025,-0.356 0.051,-0.511 0.103,-0.178 0.281,-0.331 0.511,-0.382 0.204,-0.076 0.433,-0.076 0.612,0 0.179,0.077 0.331,0.204 0.382,0.382 0.051,0.18 0.026,0.358 -0.076,0.536 -0.102,0.152 -0.28,0.306 -0.485,0.383 -0.095,0.032 -0.191,0.046 -0.283,0.046 -0.129,10e-4 -0.251,-0.026 -0.355,-0.07 m 0.052,-1.71 c -0.332,0.103 -0.587,0.331 -0.74,0.587 -0.153,0.255 -0.204,0.587 -0.103,0.893 0.103,0.305 0.332,0.536 0.613,0.638 0.281,0.127 0.612,0.153 0.944,0.025 0.331,-0.103 0.586,-0.306 0.739,-0.586 0.179,-0.255 0.204,-0.587 0.102,-0.895 -0.077,-0.279 -0.331,-0.509 -0.611,-0.636 -0.149,-0.068 -0.311,-0.1 -0.481,-0.1 -0.151,10e-4 -0.307,0.025 -0.463,0.074" /></defs>
	<clipPath
   id="SVGID_598_">
		<use
   xlink:href="#SVGID_597_"
   overflow="visible"
   id="use2961" />
	</clipPath>
	
		<linearGradient
   id="SVGID_599_"
   gradientUnits="userSpaceOnUse"
   x1="0"
   y1="425.18799"
   x2="1"
   y2="425.18799"
   gradientTransform="matrix(2.5105,0,0,-2.5105,27.9616,1356.9232)">
		<stop
   offset="0"
   style="stop-color:#161730"
   id="stop2964" />
		<stop
   offset="1"
   style="stop-color:#242C5B"
   id="stop2966" />
	</linearGradient>
	<rect
   x="27.913"
   y="288.31"
   clip-path="url(#SVGID_598_)"
   fill="url(#SVGID_599_)"
   width="2.6010001"
   height="2.3440001"
   id="rect2969"
   style="fill:url(#SVGID_599_)" />
</g>
<g
   id="g2986"
   transform="translate(-20.083001,-273.35998)">
	<defs
   id="defs2974"><path
     id="SVGID_600_"
     d="m 30.693,289.429 0.127,0.407 c 0.127,0.281 0.511,0.104 0.409,-0.127 l -0.128,-0.407 c -0.046,-0.111 -0.126,-0.155 -0.204,-0.155 -0.137,0 -0.269,0.136 -0.204,0.282 m -2.219,-1.683 1.786,0.382 0.025,0.076 0.127,-0.05 -0.127,0.05 c 0.127,0.282 0.51,0.104 0.408,-0.153 l -0.051,-0.178 c -0.026,-0.076 -0.076,-0.127 -0.179,-0.152 l -1.912,-0.384 c -0.017,-0.003 -0.032,-0.004 -0.047,-0.004 -0.242,-0.001 -0.294,0.365 -0.03,0.413" /></defs>
	<clipPath
   id="SVGID_601_">
		<use
   xlink:href="#SVGID_600_"
   overflow="visible"
   id="use2976" />
	</clipPath>
	
		<linearGradient
   id="SVGID_602_"
   gradientUnits="userSpaceOnUse"
   x1="0"
   y1="425.17331"
   x2="1"
   y2="425.17331"
   gradientTransform="matrix(2.9477,0,0,-2.9477,28.2979,1542.0042)">
		<stop
   offset="0"
   style="stop-color:#161730"
   id="stop2979" />
		<stop
   offset="1"
   style="stop-color:#242C5B"
   id="stop2981" />
	</linearGradient>
	<rect
   x="28.209999"
   y="287.332"
   clip-path="url(#SVGID_601_)"
   fill="url(#SVGID_602_)"
   width="3.1210001"
   height="2.786"
   id="rect2984"
   style="fill:url(#SVGID_602_)" />
</g>
<g
   id="g3001"
   transform="translate(-20.083001,-273.35998)">
	<defs
   id="defs2989"><path
     id="SVGID_603_"
     d="m 21.358,285.501 0.128,-0.434 c 0.127,-0.281 0.51,-0.077 0.407,0.153 l -0.153,0.434 c -0.044,0.088 -0.116,0.124 -0.187,0.124 -0.133,10e-4 -0.261,-0.127 -0.195,-0.277 m 1.658,0.816 c -0.332,-0.103 -0.586,-0.306 -0.74,-0.586 -0.178,-0.255 -0.204,-0.587 -0.128,-0.894 0.103,-0.306 0.332,-0.535 0.638,-0.638 0.281,-0.127 0.612,-0.153 0.943,-0.025 0.333,0.103 0.588,0.331 0.741,0.588 0.152,0.255 0.204,0.586 0.102,0.893 -0.102,0.305 -0.332,0.534 -0.612,0.636 -0.154,0.071 -0.324,0.11 -0.5,0.11 -0.145,0 -0.295,-0.026 -0.444,-0.084 m -1.123,-2.473 0.077,-0.18 c 0,-0.077 0.051,-0.127 0.153,-0.153 l 1.913,-0.383 c 0.281,-0.075 0.358,0.357 0.077,0.409 l -1.786,0.382 -0.026,0.076 c -0.044,0.098 -0.119,0.137 -0.193,0.137 -0.141,0 -0.281,-0.138 -0.215,-0.288 m -0.229,-0.536 -0.816,2.447 1.709,1.939 2.524,-0.511 0.817,-2.447 -1.709,-1.939 z" /></defs>
	<clipPath
   id="SVGID_604_">
		<use
   xlink:href="#SVGID_603_"
   overflow="visible"
   id="use2991" />
	</clipPath>
	
		<linearGradient
   id="SVGID_605_"
   gradientUnits="userSpaceOnUse"
   x1="0.00048828131"
   y1="425.1987"
   x2="1.0005"
   y2="425.1987"
   gradientTransform="matrix(5.0504,0,0,-5.0504,20.8482,2432.6479)">
		<stop
   offset="0"
   style="stop-color:#F7A715"
   id="stop2994" />
		<stop
   offset="1"
   style="stop-color:#FDC623"
   id="stop2996" />
	</linearGradient>
	<rect
   x="20.848"
   y="282.797"
   clip-path="url(#SVGID_604_)"
   fill="url(#SVGID_605_)"
   width="5.0500002"
   height="4.8969998"
   id="rect2999"
   style="fill:url(#SVGID_605_)" />
</g>

















































































</svg>
