<?xml version="1.0" encoding="UTF-8" standalone="no"?>
<!-- Generator: Adobe Illustrator 13.0.0, SVG Export Plug-In . SVG Version: 6.00 Build 14948)  -->

<svg
   version="1.1"
   id="Layer_1"
   x="0px"
   y="0px"
   width="18.823999"
   height="22.037003"
   viewBox="0 0 18.823999 22.037003"
   enable-background="new 0 0 187.087 425.197"
   xml:space="preserve"
   sodipodi:docname="sfondo_cell.svg"
   xmlns:inkscape="http://www.inkscape.org/namespaces/inkscape"
   xmlns:sodipodi="http://sodipodi.sourceforge.net/DTD/sodipodi-0.dtd"
   xmlns:xlink="http://www.w3.org/1999/xlink"
   xmlns="http://www.w3.org/2000/svg"
   xmlns:svg="http://www.w3.org/2000/svg"><defs
   id="defs4221" /><sodipodi:namedview
   id="namedview4219"
   pagecolor="#ffffff"
   bordercolor="#000000"
   borderopacity="0.25"
   inkscape:showpageshadow="2"
   inkscape:pageopacity="0.0"
   inkscape:pagecheckerboard="0"
   inkscape:deskcolor="#d1d1d1"
   showgrid="false" />













































































































<g
   id="g1561"
   transform="translate(-22.113002,-225.15899)">
	<defs
   id="defs1549"><path
     id="SVGID_315_"
     d="m 22.7,246.608 c -0.103,-0.076 -0.153,-0.178 -0.153,-0.306 v -1.352 c 0,-0.127 0.05,-0.255 0.153,-0.332 0.076,-0.076 0.178,-0.128 0.306,-0.128 h 17.038 c 0.102,0 0.229,0.052 0.307,0.128 0.075,0.077 0.127,0.205 0.127,0.332 v 1.352 c 0,0.128 -0.052,0.229 -0.127,0.306 v 0.024 c -0.078,0.078 -0.205,0.129 -0.307,0.129 H 23.006 c -0.128,0 -0.23,-0.051 -0.306,-0.153 m 0.306,-2.576 c -0.23,0 -0.459,0.102 -0.637,0.255 v 0.026 c -0.154,0.152 -0.256,0.383 -0.256,0.638 v 1.352 c 0,0.256 0.102,0.484 0.256,0.638 0.178,0.153 0.381,0.256 0.637,0.256 h 17.038 c 0.229,0 0.46,-0.077 0.612,-0.256 h 0.026 c 0.152,-0.153 0.255,-0.382 0.255,-0.638 v -1.352 c 0,-0.255 -0.103,-0.485 -0.255,-0.638 -0.178,-0.18 -0.409,-0.281 -0.638,-0.281 z" /></defs>
	<clipPath
   id="SVGID_316_">
		<use
   xlink:href="#SVGID_315_"
   overflow="visible"
   id="use1551" />
	</clipPath>
	
		<linearGradient
   id="SVGID_317_"
   gradientUnits="userSpaceOnUse"
   x1="-0.00048828131"
   y1="425.19681"
   x2="0.99949998"
   y2="425.19681"
   gradientTransform="matrix(18.8233,0,0,-18.8233,22.1165,8249.2129)">
		<stop
   offset="0"
   style="stop-color:#161730"
   id="stop1554" />
		<stop
   offset="1"
   style="stop-color:#242C5B"
   id="stop1556" />
	</linearGradient>
	<rect
   x="22.113001"
   y="244.032"
   clip-path="url(#SVGID_316_)"
   fill="url(#SVGID_317_)"
   width="18.823999"
   height="3.164"
   id="rect1559"
   style="fill:url(#SVGID_317_)" />
</g>
<g
   id="g1576"
   transform="translate(-22.113002,-225.15899)">
	<defs
   id="defs1564"><path
     id="SVGID_318_"
     d="m 29.688,226.049 c 0.026,-0.024 0.026,-0.051 0.026,-0.075 0,-0.103 0.026,-0.203 0.102,-0.255 0.077,-0.076 0.153,-0.103 0.255,-0.103 h 2.908 c 0.101,0 0.178,0.026 0.254,0.103 0.052,0.076 0.103,0.152 0.103,0.255 0,0.024 0,0.051 0.025,0.075 l 5.892,17.982 H 23.796 Z m 0.383,-0.89 c -0.23,0 -0.434,0.102 -0.561,0.229 -0.154,0.151 -0.23,0.331 -0.255,0.534 l -5.994,18.264 v 0.076 c 0,0.128 0.102,0.229 0.204,0.229 h 16.094 c 0.026,0 0.052,0 0.077,-0.025 0.127,-0.025 0.178,-0.152 0.153,-0.279 l -5.994,-18.264 c -0.025,-0.179 -0.102,-0.383 -0.23,-0.51 l -0.026,-0.024 c -0.153,-0.128 -0.357,-0.229 -0.56,-0.229 h -2.908 z" /></defs>
	<clipPath
   id="SVGID_319_">
		<use
   xlink:href="#SVGID_318_"
   overflow="visible"
   id="use1566" />
	</clipPath>
	
		<linearGradient
   id="SVGID_320_"
   gradientUnits="userSpaceOnUse"
   x1="0.00048828131"
   y1="425.19681"
   x2="1.0015"
   y2="425.19681"
   gradientTransform="matrix(16.534,0,0,-16.534,23.2667,7265.0347)">
		<stop
   offset="0"
   style="stop-color:#161730"
   id="stop1569" />
		<stop
   offset="1"
   style="stop-color:#242C5B"
   id="stop1571" />
	</linearGradient>
	<rect
   x="23.261"
   y="225.159"
   clip-path="url(#SVGID_319_)"
   fill="url(#SVGID_320_)"
   width="16.552999"
   height="19.332001"
   id="rect1574"
   style="fill:url(#SVGID_320_)" />
</g>
<g
   id="g1591"
   transform="translate(-22.113002,-225.15899)">
	<defs
   id="defs1579"><path
     id="SVGID_321_"
     d="m 38.463,241.023 -5.306,3.035 c -0.102,0.075 -0.128,0.204 -0.077,0.306 0.052,0.127 0.205,0.153 0.306,0.102 l 5.281,-3.061 c 0.127,-0.076 0.153,-0.204 0.101,-0.306 -0.051,-0.068 -0.124,-0.113 -0.198,-0.113 -0.036,0 -0.073,0.011 -0.107,0.037 m -0.893,-2.731 -9.998,5.766 c -0.103,0.075 -0.153,0.204 -0.077,0.306 0.051,0.127 0.178,0.153 0.306,0.102 l 9.973,-5.79 c 0.127,-0.051 0.153,-0.178 0.102,-0.305 -0.052,-0.068 -0.125,-0.103 -0.199,-0.103 -0.037,0 -0.073,0.008 -0.107,0.024 m -0.868,-2.576 -13.084,7.551 c -0.102,0.052 -0.128,0.205 -0.077,0.306 0.077,0.102 0.205,0.127 0.306,0.077 l 13.085,-7.55 c 0.102,-0.077 0.153,-0.204 0.076,-0.307 -0.034,-0.067 -0.113,-0.112 -0.192,-0.112 -0.04,0 -0.08,0.011 -0.114,0.035 m -0.841,-2.6 -10.993,6.353 c -0.103,0.05 -0.128,0.177 -0.077,0.305 0.077,0.101 0.204,0.128 0.306,0.076 l 10.993,-6.351 c 0.102,-0.051 0.127,-0.204 0.077,-0.307 -0.051,-0.068 -0.125,-0.102 -0.198,-0.102 -0.037,0 -0.074,0.009 -0.108,0.026 m -0.842,-2.602 -8.902,5.127 c -0.102,0.075 -0.127,0.204 -0.076,0.306 0.076,0.128 0.204,0.153 0.306,0.102 l 8.876,-5.126 c 0.102,-0.075 0.153,-0.203 0.102,-0.307 -0.056,-0.074 -0.139,-0.122 -0.22,-0.122 -0.03,0 -0.059,0.006 -0.086,0.02 m -0.868,-2.576 -6.784,3.902 c -0.101,0.077 -0.128,0.203 -0.076,0.307 0.076,0.127 0.204,0.152 0.306,0.102 l 6.784,-3.929 c 0.103,-0.05 0.154,-0.203 0.077,-0.305 -0.035,-0.068 -0.114,-0.114 -0.193,-0.114 -0.04,0 -0.079,0.011 -0.114,0.037 m -0.866,-2.576 -4.668,2.678 c -0.101,0.077 -0.127,0.204 -0.076,0.307 0.076,0.102 0.203,0.152 0.306,0.076 l 4.642,-2.679 c 0.127,-0.05 0.152,-0.204 0.102,-0.306 -0.051,-0.067 -0.125,-0.102 -0.199,-0.102 -0.037,0 -0.073,0.009 -0.107,0.026" /></defs>
	<clipPath
   id="SVGID_322_">
		<use
   xlink:href="#SVGID_321_"
   overflow="visible"
   id="use1581" />
	</clipPath>
	
		<linearGradient
   id="SVGID_323_"
   gradientUnits="userSpaceOnUse"
   x1="-0.0009765625"
   y1="425.1958"
   x2="0.99900001"
   y2="425.1958"
   gradientTransform="matrix(15.2772,0,0,-15.2772,23.5154,6730.7339)">
		<stop
   offset="0"
   style="stop-color:#161730"
   id="stop1584" />
		<stop
   offset="1"
   style="stop-color:#242C5B"
   id="stop1586" />
	</linearGradient>
	<rect
   x="23.49"
   y="225.336"
   clip-path="url(#SVGID_322_)"
   fill="url(#SVGID_323_)"
   width="15.33"
   height="19.181"
   id="rect1589"
   style="fill:url(#SVGID_323_)" />
</g>
<g
   id="g1606"
   transform="translate(-22.113002,-225.15899)">
	<defs
   id="defs1594"><path
     id="SVGID_324_"
     d="m 23.746,245.409 c -0.077,0 -0.153,0.052 -0.18,0.128 -0.076,0.127 0.027,0.307 0.18,0.307 h 2.168 c 0.076,0 0.153,-0.052 0.178,-0.129 0.076,-0.152 -0.025,-0.306 -0.178,-0.306 z m 3.468,0 c -0.101,0 -0.178,0.052 -0.204,0.128 -0.077,0.127 0.051,0.307 0.204,0.307 h 0.434 c 0.077,0 0.153,-0.052 0.178,-0.129 0.077,-0.152 -0.025,-0.306 -0.178,-0.306 z m 1.709,0 c -0.076,0 -0.153,0.052 -0.179,0.128 -0.075,0.127 0.026,0.307 0.179,0.307 h 2.168 c 0.077,0 0.179,-0.052 0.204,-0.129 0.051,-0.152 -0.051,-0.306 -0.204,-0.306 z m 3.469,0 c -0.077,0 -0.178,0.052 -0.204,0.128 -0.077,0.127 0.051,0.307 0.204,0.307 h 0.434 c 0.076,0 0.153,-0.052 0.178,-0.129 0.076,-0.152 -0.025,-0.306 -0.178,-0.306 z m 1.734,0 c -0.101,0 -0.178,0.052 -0.204,0.128 -0.076,0.127 0.026,0.307 0.204,0.307 h 2.142 c 0.078,0 0.18,-0.052 0.205,-0.129 0.077,-0.152 -0.051,-0.306 -0.205,-0.306 z m 3.444,0 c -0.076,0 -0.179,0.052 -0.204,0.128 -0.051,0.127 0.051,0.307 0.204,0.307 h 0.433 c 0.076,0 0.153,-0.052 0.205,-0.129 0.051,-0.152 -0.052,-0.306 -0.205,-0.306 z" /></defs>
	<clipPath
   id="SVGID_325_">
		<use
   xlink:href="#SVGID_324_"
   overflow="visible"
   id="use1596" />
	</clipPath>
	
		<linearGradient
   id="SVGID_326_"
   gradientUnits="userSpaceOnUse"
   x1="0"
   y1="425.19681"
   x2="1"
   y2="425.19681"
   gradientTransform="matrix(14.6803,0,0,-14.6803,23.5428,6487.6504)">
		<stop
   offset="0"
   style="stop-color:#161730"
   id="stop1599" />
		<stop
   offset="1"
   style="stop-color:#242C5B"
   id="stop1601" />
	</linearGradient>
	<rect
   x="23.49"
   y="245.409"
   clip-path="url(#SVGID_325_)"
   fill="url(#SVGID_326_)"
   width="14.769"
   height="0.435"
   id="rect1604"
   style="fill:url(#SVGID_326_)" />
</g>
<g
   id="g1621"
   transform="translate(-22.113002,-225.15899)">
	<defs
   id="defs1609"><path
     id="SVGID_327_"
     d="m 23.566,245.537 c 0.027,-0.076 0.103,-0.128 0.18,-0.128 h 2.168 c 0.153,0 0.254,0.153 0.178,0.306 -0.025,0.077 -0.102,0.129 -0.178,0.129 h -2.168 c -0.153,-0.001 -0.256,-0.18 -0.18,-0.307 m 3.444,0 c 0.026,-0.076 0.103,-0.128 0.204,-0.128 h 0.434 c 0.153,0 0.255,0.153 0.178,0.306 -0.025,0.077 -0.101,0.129 -0.178,0.129 h -0.434 c -0.153,-0.001 -0.281,-0.18 -0.204,-0.307 m 1.734,0 c 0.026,-0.076 0.103,-0.128 0.179,-0.128 h 2.168 c 0.153,0 0.255,0.153 0.204,0.306 -0.025,0.077 -0.127,0.129 -0.204,0.129 h -2.168 c -0.153,-0.001 -0.254,-0.18 -0.179,-0.307 m 3.444,0 c 0.026,-0.076 0.127,-0.128 0.204,-0.128 h 0.434 c 0.153,0 0.254,0.153 0.178,0.306 -0.025,0.077 -0.102,0.129 -0.178,0.129 h -0.434 c -0.153,-0.001 -0.281,-0.18 -0.204,-0.307 m 1.734,0 c 0.026,-0.076 0.103,-0.128 0.204,-0.128 h 2.142 c 0.154,0 0.282,0.153 0.205,0.306 -0.025,0.077 -0.127,0.129 -0.205,0.129 h -2.142 c -0.178,-0.001 -0.28,-0.18 -0.204,-0.307 m 3.444,0 c 0.025,-0.076 0.128,-0.128 0.204,-0.128 h 0.433 c 0.153,0 0.256,0.153 0.205,0.306 -0.052,0.077 -0.129,0.129 -0.205,0.129 H 37.57 c -0.153,-0.001 -0.255,-0.18 -0.204,-0.307 m 2.193,-1.046 H 23.465 23.006 c -0.128,0 -0.23,0.052 -0.306,0.128 -0.103,0.077 -0.153,0.205 -0.153,0.332 v 1.352 c 0,0.128 0.05,0.229 0.153,0.306 0.076,0.103 0.178,0.153 0.306,0.153 h 17.038 c 0.102,0 0.229,-0.051 0.307,-0.129 v -0.024 c 0.075,-0.076 0.127,-0.178 0.127,-0.306 v -1.352 c 0,-0.127 -0.052,-0.255 -0.127,-0.332 -0.078,-0.076 -0.205,-0.128 -0.307,-0.128 z" /></defs>
	<clipPath
   id="SVGID_328_">
		<use
   xlink:href="#SVGID_327_"
   overflow="visible"
   id="use1611" />
	</clipPath>
	
		<linearGradient
   id="SVGID_329_"
   gradientUnits="userSpaceOnUse"
   x1="0"
   y1="425.19681"
   x2="1"
   y2="425.19681"
   gradientTransform="matrix(17.9313,0,0,-17.9313,22.542,7869.9551)">
		<stop
   offset="0"
   style="stop-color:#F7A715"
   id="stop1614" />
		<stop
   offset="1"
   style="stop-color:#FDC623"
   id="stop1616" />
	</linearGradient>
	<rect
   x="22.547001"
   y="244.491"
   clip-path="url(#SVGID_328_)"
   fill="url(#SVGID_329_)"
   width="17.931"
   height="2.2709999"
   id="rect1619"
   style="fill:url(#SVGID_329_)" />
</g>













































































































































































</svg>
