<?xml version="1.0" encoding="UTF-8" standalone="no"?>
<!-- Generator: Adobe Illustrator 13.0.0, SVG Export Plug-In . SVG Version: 6.00 Build 14948)  -->

<svg
   version="1.1"
   id="Layer_1"
   x="0px"
   y="0px"
   width="21.526993"
   height="16.528015"
   viewBox="0 0 21.526992 16.528015"
   enable-background="new 0 0 187.087 425.197"
   xml:space="preserve"
   sodipodi:docname="sfondo_cell.svg"
   xmlns:inkscape="http://www.inkscape.org/namespaces/inkscape"
   xmlns:sodipodi="http://sodipodi.sourceforge.net/DTD/sodipodi-0.dtd"
   xmlns:xlink="http://www.w3.org/1999/xlink"
   xmlns="http://www.w3.org/2000/svg"
   xmlns:svg="http://www.w3.org/2000/svg"><defs
   id="defs4221" /><sodipodi:namedview
   id="namedview4219"
   pagecolor="#ffffff"
   bordercolor="#000000"
   borderopacity="0.25"
   inkscape:showpageshadow="2"
   inkscape:pageopacity="0.0"
   inkscape:pagecheckerboard="0"
   inkscape:deskcolor="#d1d1d1"
   showgrid="false" />






























































































































































<g
   id="g2296"
   transform="translate(-143.70701,-322.32598)">
	<defs
   id="defs2284"><path
     id="SVGID_462_"
     d="m 146.767,334.722 c -0.025,0 -0.052,0 -0.076,0.025 -0.026,-0.025 -0.051,-0.025 -0.076,-0.025 h -1.812 c -0.077,0 -0.152,0.051 -0.178,0.101 -0.052,0.128 0.025,0.282 0.178,0.282 h 1.812 c 0.025,0 0.05,-0.025 0.076,-0.025 0.024,0 0.051,0.025 0.076,0.025 h 0.358 c 0.075,0 0.152,-0.051 0.178,-0.102 0.05,-0.129 -0.025,-0.281 -0.178,-0.281 z m 1.454,0 c -0.025,0 -0.051,0 -0.076,0.025 -0.025,-0.025 -0.025,-0.025 -0.076,-0.025 h -0.358 c -0.077,0 -0.127,0.051 -0.152,0.101 -0.076,0.128 0.025,0.282 0.152,0.282 h 0.358 c 0.024,0 0.051,-0.025 0.076,-0.025 0.025,0 0.051,0.025 0.076,0.025 h 1.402 c 0.051,0 0.129,-0.051 0.154,-0.102 0.05,-0.129 -0.025,-0.281 -0.154,-0.281 z m 3.775,0 c -0.051,0 -0.127,0.051 -0.153,0.101 -0.051,0.128 0.026,0.282 0.153,0.282 h 1.836 c 0.077,0 0.153,-0.051 0.179,-0.102 0.051,-0.129 -0.025,-0.281 -0.179,-0.281 z m -5.229,-3.571 h -0.076 -0.076 -1.812 c -0.077,0 -0.152,0.052 -0.178,0.102 -0.052,0.128 0.025,0.255 0.178,0.255 h 1.812 0.076 0.076 0.358 c 0.075,0 0.152,-0.051 0.178,-0.102 0.05,-0.127 -0.025,-0.255 -0.178,-0.255 z m 1.454,0 h -0.076 -0.076 -0.358 c -0.077,0 -0.127,0.052 -0.152,0.102 -0.076,0.128 0.025,0.255 0.152,0.255 h 0.358 0.076 0.076 1.402 c 0.051,0 0.129,-0.051 0.154,-0.102 0.05,-0.127 -0.025,-0.255 -0.154,-0.255 z m 5.764,0 h -0.076 -0.077 -1.836 c -0.051,0 -0.127,0.052 -0.153,0.102 -0.051,0.128 0.026,0.255 0.153,0.255 h 1.836 0.077 0.076 0.356 c 0.076,0 0.153,-0.051 0.18,-0.102 0.051,-0.127 -0.052,-0.255 -0.18,-0.255 z m 1.454,0 h -0.077 -0.076 -0.357 c -0.077,0 -0.152,0.052 -0.152,0.102 -0.077,0.128 0.025,0.255 0.152,0.255 h 0.357 0.076 0.077 1.377 c 0.076,0 0.152,-0.051 0.179,-0.102 0.051,-0.127 -0.026,-0.255 -0.179,-0.255 z" /></defs>
	<clipPath
   id="SVGID_463_">
		<use
   xlink:href="#SVGID_462_"
   overflow="visible"
   id="use2286" />
	</clipPath>
	
		<linearGradient
   id="SVGID_464_"
   gradientUnits="userSpaceOnUse"
   x1="0"
   y1="425.19681"
   x2="1"
   y2="425.19681"
   gradientTransform="matrix(12.4017,0,0,-12.4017,144.6054,5606.2847)">
		<stop
   offset="0"
   style="stop-color:#161730"
   id="stop2289" />
		<stop
   offset="1"
   style="stop-color:#242C5B"
   id="stop2291" />
	</linearGradient>
	<rect
   x="144.573"
   y="331.151"
   clip-path="url(#SVGID_463_)"
   fill="url(#SVGID_464_)"
   width="12.473"
   height="3.954"
   id="rect2294"
   style="fill:url(#SVGID_464_)" />
</g>
<g
   id="g2311"
   transform="translate(-143.70701,-322.32598)">
	<defs
   id="defs2299"><path
     id="SVGID_465_"
     d="m 144.089,327.351 c 0.536,-0.281 0.969,-0.714 1.275,-1.174 0.306,-0.51 0.51,-1.098 0.51,-1.709 0,-0.383 -0.077,-0.739 -0.204,-1.098 -0.102,-0.229 -0.229,-0.458 -0.356,-0.688 h 1.733 l 3.571,6.224 v 9.564 h -6.529 z m 0.843,-5.025 c -0.104,0 -0.181,0.076 -0.181,0.178 0,0.053 0.027,0.104 0.052,0.129 0.23,0.28 0.408,0.561 0.511,0.867 0.128,0.307 0.178,0.638 0.178,0.969 0,0.562 -0.153,1.071 -0.434,1.506 -0.307,0.459 -0.714,0.841 -1.225,1.121 -0.076,0.025 -0.101,0.103 -0.101,0.152 v 11.401 c 0,0.103 0.075,0.18 0.178,0.18 h 6.913 c 0.076,0 0.178,-0.077 0.178,-0.18 v -9.793 c 0,-0.052 -0.025,-0.077 -0.051,-0.103 l -2.245,-3.928 -1.402,-2.397 c -0.025,-0.077 -0.077,-0.103 -0.152,-0.103 h -2.219 z" /></defs>
	<clipPath
   id="SVGID_466_">
		<use
   xlink:href="#SVGID_465_"
   overflow="visible"
   id="use2301" />
	</clipPath>
	
		<linearGradient
   id="SVGID_467_"
   gradientUnits="userSpaceOnUse"
   x1="0.00048828131"
   y1="425.19681"
   x2="1.0005"
   y2="425.19681"
   gradientTransform="matrix(7.2696,0,0,-7.2696,143.7316,3421.6038)">
		<stop
   offset="0"
   style="stop-color:#161730"
   id="stop2304" />
		<stop
   offset="1"
   style="stop-color:#242C5B"
   id="stop2306" />
	</linearGradient>
	<rect
   x="143.73199"
   y="322.32599"
   clip-path="url(#SVGID_466_)"
   fill="url(#SVGID_467_)"
   width="7.2690001"
   height="16.503"
   id="rect2309"
   style="fill:url(#SVGID_467_)" />
</g>
<g
   id="g2326"
   transform="translate(-143.70701,-322.32598)">
	<defs
   id="defs2314"><path
     id="SVGID_468_"
     d="m 151.001,328.907 3.571,-6.224 h 1.733 c -0.127,0.229 -0.255,0.459 -0.356,0.688 -0.127,0.358 -0.204,0.715 -0.204,1.098 0,0.611 0.204,1.199 0.509,1.709 0.308,0.46 0.741,0.893 1.277,1.174 v 4.514 c -0.256,0.077 -0.485,0.179 -0.715,0.281 -0.28,0.152 -0.535,0.306 -0.766,0.459 -0.688,0.484 -1.224,1.096 -1.633,1.837 -0.356,0.638 -0.586,1.376 -0.662,2.167 -0.153,0 -0.332,0.051 -0.435,0.178 -0.127,0.104 -0.179,0.282 -0.179,0.46 v 0.944 c 0,0.102 0,0.204 0.052,0.28 H 151 v -9.565 z m 3.469,-6.581 c -0.077,0 -0.128,0.051 -0.179,0.103 l -3.646,6.325 c 0,0.025 -0.026,0.051 -0.026,0.103 v 9.793 c 0,0.103 0.103,0.18 0.205,0.18 h 2.958 v -0.357 h -0.025 c -0.051,0 -0.128,-0.025 -0.178,-0.076 -0.052,-0.052 -0.078,-0.128 -0.078,-0.204 v -0.944 c 0,-0.076 0.026,-0.152 0.078,-0.204 0.05,-0.05 0.127,-0.077 0.203,-0.077 h 0.152 c 0.103,0 0.179,-0.075 0.179,-0.179 v -0.024 c 0.052,-0.766 0.28,-1.505 0.639,-2.143 0.356,-0.688 0.867,-1.274 1.503,-1.709 0.231,-0.153 0.46,-0.306 0.715,-0.434 0.255,-0.127 0.536,-0.229 0.791,-0.306 0.077,0 0.127,-0.075 0.127,-0.153 v -4.771 c 0,-0.076 -0.05,-0.127 -0.102,-0.152 -0.51,-0.28 -0.918,-0.662 -1.224,-1.121 -0.28,-0.435 -0.434,-0.944 -0.434,-1.506 0,-0.331 0.051,-0.662 0.178,-0.969 0.104,-0.307 0.281,-0.611 0.511,-0.867 0.076,-0.076 0.051,-0.204 -0.025,-0.256 -0.025,-0.025 -0.077,-0.051 -0.102,-0.051 h -2.22 z" /></defs>
	<clipPath
   id="SVGID_469_">
		<use
   xlink:href="#SVGID_468_"
   overflow="visible"
   id="use2316" />
	</clipPath>
	
		<linearGradient
   id="SVGID_470_"
   gradientUnits="userSpaceOnUse"
   x1="-0.00048828131"
   y1="425.19681"
   x2="0.99949998"
   y2="425.19681"
   gradientTransform="matrix(7.2693,0,0,-7.2693,150.62,3421.4592)">
		<stop
   offset="0"
   style="stop-color:#161730"
   id="stop2319" />
		<stop
   offset="1"
   style="stop-color:#242C5B"
   id="stop2321" />
	</linearGradient>
	<rect
   x="150.618"
   y="322.32599"
   clip-path="url(#SVGID_469_)"
   fill="url(#SVGID_470_)"
   width="7.2690001"
   height="16.503"
   id="rect2324"
   style="fill:url(#SVGID_470_)" />
</g>
<g
   id="g2341"
   transform="translate(-143.70701,-322.32598)">
	<defs
   id="defs2329"><path
     id="SVGID_471_"
     d="m 147.455,322.683 h 6.709 l -3.341,5.79 z m -0.305,-0.357 c -0.104,0 -0.179,0.076 -0.179,0.178 0,0.053 0,0.077 0.025,0.104 l 3.647,6.325 c 0.051,0.102 0.179,0.128 0.255,0.076 0.025,-0.025 0.051,-0.052 0.076,-0.076 l 2.27,-3.929 1.378,-2.396 c 0.051,-0.104 0.026,-0.205 -0.077,-0.256 -0.024,-0.025 -0.051,-0.025 -0.076,-0.025 h -7.319 z" /></defs>
	<clipPath
   id="SVGID_472_">
		<use
   xlink:href="#SVGID_471_"
   overflow="visible"
   id="use2331" />
	</clipPath>
	
		<linearGradient
   id="SVGID_473_"
   gradientUnits="userSpaceOnUse"
   x1="-0.00048828131"
   y1="425.19379"
   x2="0.99949998"
   y2="425.19379"
   gradientTransform="matrix(7.6771,0,0,-7.6771,146.9727,3589.9385)">
		<stop
   offset="0"
   style="stop-color:#161730"
   id="stop2334" />
		<stop
   offset="1"
   style="stop-color:#242C5B"
   id="stop2336" />
	</linearGradient>
	<rect
   x="146.972"
   y="322.32599"
   clip-path="url(#SVGID_472_)"
   fill="url(#SVGID_473_)"
   width="7.7020001"
   height="6.7340002"
   id="rect2339"
   style="fill:url(#SVGID_473_)" />
</g>
<g
   id="g2356"
   transform="translate(-143.70701,-322.32598)">
	<defs
   id="defs2344"><path
     id="SVGID_474_"
     d="m 144.089,334.338 h 10.381 c -0.103,0.153 -0.179,0.307 -0.256,0.459 -0.076,0.231 -0.178,0.46 -0.255,0.689 h -9.87 z m -0.179,-0.381 h -0.203 v 1.912 h 10.558 l 0.026,-0.153 c 0.076,-0.254 0.179,-0.51 0.281,-0.765 0.102,-0.229 0.229,-0.459 0.383,-0.688 l 0.203,-0.307 H 143.91 Z m 0.179,-3.188 h 13.442 v 1.096 l -0.103,0.025 h -13.34 v -1.121 z m -0.179,-0.383 h -0.203 v 1.888 h 13.747 0.077 l 0.382,-0.128 v -1.76 z" /></defs>
	<clipPath
   id="SVGID_475_">
		<use
   xlink:href="#SVGID_474_"
   overflow="visible"
   id="use2346" />
	</clipPath>
	
		<linearGradient
   id="SVGID_476_"
   gradientUnits="userSpaceOnUse"
   x1="0"
   y1="425.19681"
   x2="1"
   y2="425.19681"
   gradientTransform="matrix(14.2072,0,0,-14.2072,143.7022,6373.9683)">
		<stop
   offset="0"
   style="stop-color:#161730"
   id="stop2349" />
		<stop
   offset="1"
   style="stop-color:#242C5B"
   id="stop2351" />
	</linearGradient>
	<rect
   x="143.707"
   y="330.38599"
   clip-path="url(#SVGID_475_)"
   fill="url(#SVGID_476_)"
   width="14.206"
   height="5.4819999"
   id="rect2354"
   style="fill:url(#SVGID_476_)" />
</g>
<g
   id="g2371"
   transform="translate(-143.70701,-322.32598)">
	<defs
   id="defs2359"><path
     id="SVGID_477_"
     d="m 153.578,338.395 c -0.052,-0.052 -0.078,-0.128 -0.078,-0.204 v -0.944 c 0,-0.076 0.026,-0.152 0.078,-0.204 h 0.024 c 0.025,-0.05 0.103,-0.077 0.179,-0.077 h 10.814 c 0.076,0 0.127,0.027 0.179,0.077 0.051,0.052 0.075,0.128 0.075,0.204 v 0.944 c 0,0.076 -0.024,0.152 -0.075,0.204 -0.052,0.051 -0.127,0.076 -0.179,0.076 h -10.814 c -0.076,0 -0.153,-0.025 -0.203,-0.076 m 0.203,-1.812 c -0.179,0 -0.332,0.076 -0.46,0.179 v 0.024 c -0.127,0.104 -0.203,0.282 -0.203,0.46 v 0.944 c 0,0.179 0.076,0.356 0.203,0.458 0.103,0.128 0.281,0.206 0.46,0.206 h 10.814 c 0.153,0 0.331,-0.078 0.434,-0.18 l 0.025,-0.026 c 0.103,-0.102 0.18,-0.279 0.18,-0.458 v -0.944 c 0,-0.178 -0.077,-0.356 -0.18,-0.46 -0.128,-0.127 -0.28,-0.203 -0.459,-0.203 z" /></defs>
	<clipPath
   id="SVGID_478_">
		<use
   xlink:href="#SVGID_477_"
   overflow="visible"
   id="use2361" />
	</clipPath>
	
		<linearGradient
   id="SVGID_479_"
   gradientUnits="userSpaceOnUse"
   x1="0"
   y1="425.19781"
   x2="1"
   y2="425.19781"
   gradientTransform="matrix(12.1157,0,0,-12.1157,153.1216,5489.2959)">
		<stop
   offset="0"
   style="stop-color:#161730"
   id="stop2364" />
		<stop
   offset="1"
   style="stop-color:#242C5B"
   id="stop2366" />
	</linearGradient>
	<rect
   x="153.118"
   y="336.58301"
   clip-path="url(#SVGID_478_)"
   fill="url(#SVGID_479_)"
   width="12.116"
   height="2.2709999"
   id="rect2369"
   style="fill:url(#SVGID_479_)" />
</g>
<g
   id="g2386"
   transform="translate(-143.70701,-322.32598)">
	<defs
   id="defs2374"><path
     id="SVGID_480_"
     d="m 154.929,337.527 c -0.077,0 -0.152,0.051 -0.178,0.103 -0.052,0.127 0.025,0.281 0.178,0.281 h 1.812 c 0.076,0 0.152,-0.051 0.179,-0.102 0.05,-0.129 -0.052,-0.282 -0.179,-0.282 z m 2.908,0 c -0.077,0 -0.128,0.051 -0.153,0.103 -0.075,0.127 0.025,0.281 0.153,0.281 h 0.382 c 0.051,0 0.128,-0.051 0.154,-0.102 0.05,-0.129 -0.026,-0.282 -0.154,-0.282 z m 1.454,0 c -0.051,0 -0.129,0.051 -0.154,0.103 -0.051,0.127 0.025,0.281 0.154,0.281 h 1.836 c 0.076,0 0.153,-0.051 0.153,-0.102 0.076,-0.129 -0.025,-0.282 -0.153,-0.282 z m 2.933,0 c -0.075,0 -0.153,0.051 -0.153,0.103 -0.076,0.127 0.024,0.281 0.153,0.281 h 0.356 c 0.077,0 0.153,-0.051 0.179,-0.102 0.051,-0.129 -0.051,-0.282 -0.179,-0.282 z" /></defs>
	<clipPath
   id="SVGID_481_">
		<use
   xlink:href="#SVGID_480_"
   overflow="visible"
   id="use2376" />
	</clipPath>
	
		<linearGradient
   id="SVGID_482_"
   gradientUnits="userSpaceOnUse"
   x1="0"
   y1="425.19681"
   x2="1"
   y2="425.19681"
   gradientTransform="matrix(8.0378,0,0,-8.0378,154.7353,3755.3721)">
		<stop
   offset="0"
   style="stop-color:#161730"
   id="stop2379" />
		<stop
   offset="1"
   style="stop-color:#242C5B"
   id="stop2381" />
	</linearGradient>
	<rect
   x="154.69901"
   y="337.52701"
   clip-path="url(#SVGID_481_)"
   fill="url(#SVGID_482_)"
   width="8.1099997"
   height="0.384"
   id="rect2384"
   style="fill:url(#SVGID_482_)" />
</g>
<g
   id="g2401"
   transform="translate(-143.70701,-322.32598)">
	<defs
   id="defs2389"><path
     id="SVGID_483_"
     d="m 154.751,334.62 c 0.356,-0.688 0.892,-1.25 1.503,-1.709 0.436,-0.281 0.895,-0.536 1.404,-0.688 0.459,-0.153 0.995,-0.23 1.53,-0.23 1.352,0 2.575,0.536 3.469,1.378 0.868,0.842 1.454,1.965 1.556,3.214 h -10.075 c 0.076,-0.716 0.28,-1.379 0.613,-1.965 m 2.78,-2.755 c -0.536,0.179 -1.046,0.434 -1.505,0.74 -0.664,0.484 -1.225,1.096 -1.608,1.837 -0.382,0.688 -0.612,1.479 -0.662,2.32 v 0.024 c 0,0.104 0.076,0.179 0.178,0.179 h 10.51 c 0.101,0 0.178,-0.101 0.178,-0.203 -0.077,-1.428 -0.715,-2.729 -1.685,-3.647 -0.994,-0.943 -2.294,-1.505 -3.748,-1.505 -0.587,0 -1.149,0.077 -1.658,0.255" /></defs>
	<clipPath
   id="SVGID_484_">
		<use
   xlink:href="#SVGID_483_"
   overflow="visible"
   id="use2391" />
	</clipPath>
	
		<linearGradient
   id="SVGID_485_"
   gradientUnits="userSpaceOnUse"
   x1="0.00048828131"
   y1="425.19681"
   x2="1.0005"
   y2="425.19681"
   gradientTransform="matrix(10.8647,0,0,-10.8647,153.7559,4953.9414)">
		<stop
   offset="0"
   style="stop-color:#161730"
   id="stop2394" />
		<stop
   offset="1"
   style="stop-color:#242C5B"
   id="stop2396" />
	</linearGradient>
	<rect
   x="153.756"
   y="331.60999"
   clip-path="url(#SVGID_484_)"
   fill="url(#SVGID_485_)"
   width="10.865"
   height="5.355"
   id="rect2399"
   style="fill:url(#SVGID_485_)" />
</g>
<g
   id="g2416"
   transform="translate(-143.70701,-322.32598)">
	<defs
   id="defs2404"><path
     id="SVGID_486_"
     d="m 155.924,332.808 v 3.292 c 0,0.101 0.076,0.204 0.178,0.204 0.103,0 0.18,-0.104 0.18,-0.204 v -3.292 c 0,-0.102 -0.077,-0.203 -0.18,-0.203 -0.102,0 -0.178,0.102 -0.178,0.203 m 6.146,0 v 3.292 c 0,0.101 0.078,0.204 0.179,0.204 0.103,0 0.204,-0.104 0.204,-0.204 v -3.292 c 0,-0.102 -0.102,-0.203 -0.204,-0.203 -0.101,0 -0.179,0.102 -0.179,0.203" /></defs>
	<clipPath
   id="SVGID_487_">
		<use
   xlink:href="#SVGID_486_"
   overflow="visible"
   id="use2406" />
	</clipPath>
	
		<linearGradient
   id="SVGID_488_"
   gradientUnits="userSpaceOnUse"
   x1="0"
   y1="425.19681"
   x2="1"
   y2="425.19681"
   gradientTransform="matrix(6.5293,0,0,-6.5293,155.9219,3110.7017)">
		<stop
   offset="0"
   style="stop-color:#161730"
   id="stop2409" />
		<stop
   offset="1"
   style="stop-color:#242C5B"
   id="stop2411" />
	</linearGradient>
	<rect
   x="155.924"
   y="332.60501"
   clip-path="url(#SVGID_487_)"
   fill="url(#SVGID_488_)"
   width="6.5289998"
   height="3.6989999"
   id="rect2414"
   style="fill:url(#SVGID_488_)" />
</g>
<g
   id="g2431"
   transform="translate(-143.70701,-322.32598)">
	<defs
   id="defs2419"><path
     id="SVGID_489_"
     d="m 159.724,331.865 v 4.004 c 0,0.026 -0.024,0.026 -0.024,0.026 0,0.026 0,0.026 -0.026,0.026 h -0.995 c 0,0 -0.024,0 -0.024,-0.026 v -0.026 -4.004 c 0,-0.102 -0.103,-0.178 -0.204,-0.178 -0.103,0 -0.18,0.076 -0.18,0.178 v 4.004 c 0,0.128 0.053,0.231 0.129,0.306 0.076,0.077 0.178,0.13 0.279,0.13 h 0.995 c 0.103,0 0.229,-0.053 0.28,-0.13 h 0.025 c 0.076,-0.074 0.103,-0.178 0.103,-0.306 v -4.004 c 0,-0.102 -0.076,-0.178 -0.179,-0.178 -0.103,0 -0.179,0.076 -0.179,0.178" /></defs>
	<clipPath
   id="SVGID_490_">
		<use
   xlink:href="#SVGID_489_"
   overflow="visible"
   id="use2421" />
	</clipPath>
	
		<linearGradient
   id="SVGID_491_"
   gradientUnits="userSpaceOnUse"
   x1="0.00048828131"
   y1="425.19681"
   x2="1.0005"
   y2="425.19681"
   gradientTransform="matrix(1.8111,0,0,-1.8111,158.2688,1104.0554)">
		<stop
   offset="0"
   style="stop-color:#161730"
   id="stop2424" />
		<stop
   offset="1"
   style="stop-color:#242C5B"
   id="stop2426" />
	</linearGradient>
	<rect
   x="158.27"
   y="331.68701"
   clip-path="url(#SVGID_490_)"
   fill="url(#SVGID_491_)"
   width="1.812"
   height="4.6170001"
   id="rect2429"
   style="fill:url(#SVGID_491_)" />
</g>
<g
   id="g2446"
   transform="translate(-143.70701,-322.32598)">
	<defs
   id="defs2434"><path
     id="SVGID_492_"
     d="m 154.751,337.629 c 0.025,-0.052 0.101,-0.103 0.178,-0.103 h 1.812 c 0.127,0 0.229,0.153 0.179,0.282 -0.026,0.051 -0.103,0.102 -0.179,0.102 h -1.812 c -0.153,10e-4 -0.23,-0.154 -0.178,-0.281 m 2.933,0 c 0.025,-0.052 0.076,-0.103 0.153,-0.103 h 0.382 c 0.128,0 0.204,0.153 0.154,0.282 -0.026,0.051 -0.104,0.102 -0.154,0.102 h -0.382 c -0.128,10e-4 -0.229,-0.154 -0.153,-0.281 m 1.453,0 c 0.025,-0.052 0.104,-0.103 0.154,-0.103 h 1.836 c 0.128,0 0.229,0.153 0.153,0.282 0,0.051 -0.077,0.102 -0.153,0.102 h -1.836 c -0.129,10e-4 -0.205,-0.154 -0.154,-0.281 m 2.933,0 c 0,-0.052 0.078,-0.103 0.153,-0.103 h 0.356 c 0.128,0 0.229,0.153 0.179,0.282 -0.025,0.051 -0.102,0.102 -0.179,0.102 h -0.356 c -0.128,10e-4 -0.229,-0.154 -0.153,-0.281 m 2.373,-0.664 h -10.51 -0.152 c -0.076,0 -0.153,0.027 -0.179,0.077 h -0.024 c -0.052,0.052 -0.078,0.128 -0.078,0.204 v 0.944 c 0,0.076 0.026,0.152 0.078,0.204 0.05,0.051 0.127,0.076 0.203,0.076 h 10.814 c 0.052,0 0.127,-0.025 0.179,-0.076 0.051,-0.052 0.075,-0.128 0.075,-0.204 v -0.944 c 0,-0.076 -0.024,-0.152 -0.075,-0.204 -0.052,-0.05 -0.103,-0.077 -0.179,-0.077 z" /></defs>
	<clipPath
   id="SVGID_493_">
		<use
   xlink:href="#SVGID_492_"
   overflow="visible"
   id="use2436" />
	</clipPath>
	
		<linearGradient
   id="SVGID_494_"
   gradientUnits="userSpaceOnUse"
   x1="0"
   y1="425.19681"
   x2="1"
   y2="425.19681"
   gradientTransform="matrix(11.3504,0,0,-11.3504,153.5022,5163.8696)">
		<stop
   offset="0"
   style="stop-color:#F7A715"
   id="stop2439" />
		<stop
   offset="1"
   style="stop-color:#FDC623"
   id="stop2441" />
	</linearGradient>
	<rect
   x="153.5"
   y="336.965"
   clip-path="url(#SVGID_493_)"
   fill="url(#SVGID_494_)"
   width="11.35"
   height="1.506"
   id="rect2444"
   style="fill:url(#SVGID_494_)" />
</g>
<g
   id="g2461"
   transform="translate(-143.70701,-322.32598)">
	<defs
   id="defs2449"><path
     id="SVGID_495_"
     d="m 151.843,331.252 c 0.026,-0.05 0.103,-0.102 0.153,-0.102 h 1.836 0.077 0.076 0.356 c 0.128,0 0.23,0.128 0.18,0.255 -0.026,0.051 -0.104,0.102 -0.18,0.102 h -0.356 -0.076 -0.077 -1.836 c -0.127,0 -0.204,-0.127 -0.153,-0.255 m 2.933,0 c 0,-0.05 0.075,-0.102 0.152,-0.102 h 0.357 0.076 0.077 1.377 c 0.152,0 0.229,0.128 0.179,0.255 -0.026,0.051 -0.103,0.102 -0.179,0.102 h -1.377 -0.077 -0.076 -0.357 c -0.126,0 -0.229,-0.127 -0.152,-0.255 m -3.775,-0.483 v 1.121 h 6.428 c 0.025,0 0.076,-0.025 0.103,-0.025 v -1.096 z" /></defs>
	<clipPath
   id="SVGID_496_">
		<use
   xlink:href="#SVGID_495_"
   overflow="visible"
   id="use2451" />
	</clipPath>
	
		<linearGradient
   id="SVGID_497_"
   gradientUnits="userSpaceOnUse"
   x1="0"
   y1="425.19781"
   x2="1"
   y2="425.19781"
   gradientTransform="matrix(6.5297,0,0,-6.5297,151.0023,3107.7251)">
		<stop
   offset="0"
   style="stop-color:#F7A715"
   id="stop2454" />
		<stop
   offset="1"
   style="stop-color:#FDC623"
   id="stop2456" />
	</linearGradient>
	<rect
   x="151.00101"
   y="330.76901"
   clip-path="url(#SVGID_496_)"
   fill="url(#SVGID_497_)"
   width="6.5300002"
   height="1.1210001"
   id="rect2459"
   style="fill:url(#SVGID_497_)" />
</g>
<g
   id="g2476"
   transform="translate(-143.70701,-322.32598)">
	<defs
   id="defs2464"><path
     id="SVGID_498_"
     d="m 144.625,331.252 c 0.025,-0.05 0.101,-0.102 0.178,-0.102 h 1.812 0.076 0.076 0.358 c 0.152,0 0.228,0.128 0.178,0.255 -0.025,0.051 -0.103,0.102 -0.178,0.102 h -0.358 -0.076 -0.076 -1.812 c -0.153,0 -0.23,-0.127 -0.178,-0.255 m 2.933,0 c 0.025,-0.05 0.075,-0.102 0.152,-0.102 h 0.358 0.076 0.076 1.402 c 0.129,0 0.204,0.128 0.154,0.255 -0.025,0.051 -0.104,0.102 -0.154,0.102 h -1.402 -0.076 -0.076 -0.358 c -0.127,0 -0.229,-0.127 -0.152,-0.255 m -3.469,0.638 h 6.529 v -1.121 h -6.529 z" /></defs>
	<clipPath
   id="SVGID_499_">
		<use
   xlink:href="#SVGID_498_"
   overflow="visible"
   id="use2466" />
	</clipPath>
	
		<linearGradient
   id="SVGID_500_"
   gradientUnits="userSpaceOnUse"
   x1="-0.0009765625"
   y1="425.1958"
   x2="0.99949998"
   y2="425.1958"
   gradientTransform="matrix(6.5287,0,0,-6.5287,144.0899,3107.2915)">
		<stop
   offset="0"
   style="stop-color:#F7A715"
   id="stop2469" />
		<stop
   offset="1"
   style="stop-color:#FDC623"
   id="stop2471" />
	</linearGradient>
	<rect
   x="144.089"
   y="330.76901"
   clip-path="url(#SVGID_499_)"
   fill="url(#SVGID_500_)"
   width="6.5289998"
   height="1.1210001"
   id="rect2474"
   style="fill:url(#SVGID_500_)" />
</g>
<g
   id="g2491"
   transform="translate(-143.70701,-322.32598)">
	<defs
   id="defs2479"><path
     id="SVGID_501_"
     d="m 151.843,334.823 c 0.026,-0.05 0.103,-0.101 0.153,-0.101 h 1.836 c 0.153,0 0.229,0.152 0.179,0.281 -0.025,0.051 -0.102,0.102 -0.179,0.102 h -1.836 c -0.127,0 -0.204,-0.154 -0.153,-0.282 m -0.842,-0.485 v 1.148 h 2.958 c 0.077,-0.229 0.179,-0.458 0.255,-0.689 0.077,-0.127 0.128,-0.254 0.204,-0.355 0,-0.051 0.026,-0.077 0.052,-0.104 z" /></defs>
	<clipPath
   id="SVGID_502_">
		<use
   xlink:href="#SVGID_501_"
   overflow="visible"
   id="use2481" />
	</clipPath>
	
		<linearGradient
   id="SVGID_503_"
   gradientUnits="userSpaceOnUse"
   x1="0.0009765625"
   y1="425.19681"
   x2="1.001"
   y2="425.19681"
   gradientTransform="matrix(3.4689,0,0,-3.4689,151,1809.8928)">
		<stop
   offset="0"
   style="stop-color:#F7A715"
   id="stop2484" />
		<stop
   offset="1"
   style="stop-color:#FDC623"
   id="stop2486" />
	</linearGradient>
	<rect
   x="151.00101"
   y="334.33801"
   clip-path="url(#SVGID_502_)"
   fill="url(#SVGID_503_)"
   width="3.4690001"
   height="1.148"
   id="rect2489"
   style="fill:url(#SVGID_503_)" />
</g>
<g
   id="g2506"
   transform="translate(-143.70701,-322.32598)">
	<defs
   id="defs2494"><path
     id="SVGID_504_"
     d="m 146.767,334.722 h 0.358 c 0.152,0 0.228,0.152 0.178,0.281 -0.025,0.051 -0.103,0.102 -0.178,0.102 h -0.358 l -0.076,-0.025 -0.076,0.025 h -1.812 c -0.152,0 -0.229,-0.154 -0.178,-0.282 0.025,-0.05 0.101,-0.101 0.178,-0.101 h 1.812 l 0.076,0.025 z m 1.454,0 h 1.402 c 0.129,0 0.204,0.152 0.154,0.281 -0.025,0.051 -0.104,0.102 -0.154,0.102 h -1.402 l -0.076,-0.025 -0.076,0.025 h -0.358 c -0.127,0 -0.229,-0.154 -0.152,-0.282 0.025,-0.05 0.075,-0.101 0.152,-0.101 h 0.358 l 0.076,0.025 z m -4.132,0.765 h 6.529 v -1.148 h -6.529 z" /></defs>
	<clipPath
   id="SVGID_505_">
		<use
   xlink:href="#SVGID_504_"
   overflow="visible"
   id="use2496" />
	</clipPath>
	
		<linearGradient
   id="SVGID_506_"
   gradientUnits="userSpaceOnUse"
   x1="-0.0009765625"
   y1="425.1958"
   x2="0.99949998"
   y2="425.1958"
   gradientTransform="matrix(6.5287,0,0,-6.5287,144.0899,3110.8774)">
		<stop
   offset="0"
   style="stop-color:#F7A715"
   id="stop2499" />
		<stop
   offset="1"
   style="stop-color:#FDC623"
   id="stop2501" />
	</linearGradient>
	<rect
   x="144.089"
   y="334.33801"
   clip-path="url(#SVGID_505_)"
   fill="url(#SVGID_506_)"
   width="6.5289998"
   height="1.148"
   id="rect2504"
   style="fill:url(#SVGID_506_)" />
</g>


















































































































</svg>
