<?xml version="1.0" encoding="UTF-8" standalone="no"?>
<!-- Generator: Adobe Illustrator 13.0.0, SVG Export Plug-In . SVG Version: 6.00 Build 14948)  -->

<svg
   version="1.1"
   id="Layer_1"
   x="0px"
   y="0px"
   width="11.119537"
   height="25.934998"
   viewBox="0 0 11.119537 25.934998"
   enable-background="new 0 0 187.087 425.197"
   xml:space="preserve"
   sodipodi:docname="sfondo_cell.svg"
   xmlns:inkscape="http://www.inkscape.org/namespaces/inkscape"
   xmlns:sodipodi="http://sodipodi.sourceforge.net/DTD/sodipodi-0.dtd"
   xmlns:xlink="http://www.w3.org/1999/xlink"
   xmlns="http://www.w3.org/2000/svg"
   xmlns:svg="http://www.w3.org/2000/svg"><defs
   id="defs4221" /><sodipodi:namedview
   id="namedview4219"
   pagecolor="#ffffff"
   bordercolor="#000000"
   borderopacity="0.25"
   inkscape:showpageshadow="2"
   inkscape:pageopacity="0.0"
   inkscape:pagecheckerboard="0"
   inkscape:deskcolor="#d1d1d1"
   showgrid="false" />


















































































































































































































































<g
   id="g3556"
   transform="translate(-148.458,-269.67001)">
	<defs
   id="defs3544"><path
     id="SVGID_714_"
     d="m 153.098,294.815 v -0.025 c -0.229,-0.229 -0.382,-0.537 -0.382,-0.894 v -7.447 h 2.602 v 7.447 c 0,0.356 -0.153,0.664 -0.383,0.919 -0.256,0.229 -0.562,0.382 -0.919,0.382 -0.357,0 -0.688,-0.154 -0.918,-0.382 m -0.587,-8.799 c -0.127,0 -0.229,0.101 -0.229,0.229 v 7.651 c 0,0.459 0.204,0.894 0.509,1.199 v 0.025 c 0.307,0.305 0.741,0.485 1.225,0.485 0.459,0 0.894,-0.181 1.225,-0.485 0.306,-0.331 0.511,-0.766 0.511,-1.225 v -7.651 c 0,-0.128 -0.102,-0.229 -0.229,-0.229 h -3.012 z" /></defs>
	<clipPath
   id="SVGID_715_">
		<use
   xlink:href="#SVGID_714_"
   overflow="visible"
   id="use3546" />
	</clipPath>
	
		<linearGradient
   id="SVGID_716_"
   gradientUnits="userSpaceOnUse"
   x1="0.0009765625"
   y1="425.19681"
   x2="1.0005"
   y2="425.19681"
   gradientTransform="matrix(3.4696,0,0,-3.4696,152.2813,1766.0687)">
		<stop
   offset="0"
   style="stop-color:#161730"
   id="stop3549" />
		<stop
   offset="1"
   style="stop-color:#242C5B"
   id="stop3551" />
	</linearGradient>
	<rect
   x="152.282"
   y="286.01599"
   clip-path="url(#SVGID_715_)"
   fill="url(#SVGID_716_)"
   width="3.4690001"
   height="9.5900002"
   id="rect3554"
   style="fill:url(#SVGID_716_)" />
</g>
<g
   id="g3571"
   transform="translate(-148.458,-269.67001)">
	<defs
   id="defs3559"><path
     id="SVGID_717_"
     d="m 153.735,279.204 c 0,2.349 0.129,4.464 0.129,6.837 0,0.103 0.102,0.204 0.204,0.204 0.127,0 0.229,-0.102 0.229,-0.204 0,-2.347 -0.128,-4.642 -0.128,-6.837 0,-0.126 -0.101,-0.229 -0.229,-0.229 -0.103,0 -0.205,0.103 -0.205,0.229" /></defs>
	<clipPath
   id="SVGID_718_">
		<use
   xlink:href="#SVGID_717_"
   overflow="visible"
   id="use3561" />
	</clipPath>
	
		<linearGradient
   id="SVGID_719_"
   gradientUnits="userSpaceOnUse"
   x1="0.00048828131"
   y1="425.19681"
   x2="1"
   y2="425.19681"
   gradientTransform="matrix(0.5618,0,0,-0.5618,153.735,521.4695)">
		<stop
   offset="0"
   style="stop-color:#161730"
   id="stop3564" />
		<stop
   offset="1"
   style="stop-color:#242C5B"
   id="stop3566" />
	</linearGradient>
	<rect
   x="153.735"
   y="278.97501"
   clip-path="url(#SVGID_718_)"
   fill="url(#SVGID_719_)"
   width="0.56199998"
   height="7.27"
   id="rect3569"
   style="fill:url(#SVGID_719_)" />
</g>
<g
   id="g3586"
   transform="translate(-148.458,-269.67001)">
	<defs
   id="defs3574"><path
     id="SVGID_720_"
     d="m 154.016,270.329 2.475,4.312 2.5,4.31 h -9.946 z m -0.179,-0.536 -5.355,9.232 c -0.024,0.052 -0.024,0.077 -0.024,0.127 0,0.128 0.075,0.23 0.203,0.23 h 10.712 c 0.025,0 0.077,-0.025 0.102,-0.025 0.104,-0.077 0.128,-0.205 0.076,-0.308 -1.758,-3.06 -3.697,-6.172 -5.354,-9.257 -0.026,-0.052 -0.052,-0.078 -0.076,-0.104 -0.028,-0.013 -0.058,-0.02 -0.086,-0.02 -0.081,0.002 -0.16,0.05 -0.198,0.125" /></defs>
	<clipPath
   id="SVGID_721_">
		<use
   xlink:href="#SVGID_720_"
   overflow="visible"
   id="use3576" />
	</clipPath>
	
		<linearGradient
   id="SVGID_722_"
   gradientUnits="userSpaceOnUse"
   x1="0"
   y1="425.19681"
   x2="1"
   y2="425.19681"
   gradientTransform="matrix(11.1203,0,0,-11.1203,148.4551,5002.8398)">
		<stop
   offset="0"
   style="stop-color:#161730"
   id="stop3579" />
		<stop
   offset="1"
   style="stop-color:#242C5B"
   id="stop3581" />
	</linearGradient>
	<rect
   x="148.457"
   y="269.67001"
   clip-path="url(#SVGID_721_)"
   fill="url(#SVGID_722_)"
   width="11.145"
   height="9.7130003"
   id="rect3584"
   style="fill:url(#SVGID_722_)" />
</g>
<g
   id="g3601"
   transform="translate(-148.458,-269.67001)">
	<defs
   id="defs3589"><path
     id="SVGID_723_"
     d="m 153.787,293.081 v 0.815 c 0,0.076 0.05,0.153 0.128,0.179 0.153,0.077 0.305,-0.025 0.305,-0.179 v -0.815 c 0,-0.078 -0.051,-0.18 -0.101,-0.205 -0.032,-0.015 -0.064,-0.021 -0.096,-0.021 -0.123,-0.001 -0.236,0.103 -0.236,0.226 m 0,-1.736 v 0.435 c 0,0.076 0.05,0.178 0.128,0.203 0.153,0.051 0.305,-0.05 0.305,-0.203 v -0.435 c 0,-0.075 -0.051,-0.179 -0.101,-0.203 -0.028,-0.01 -0.056,-0.014 -0.083,-0.014 -0.128,0 -0.249,0.092 -0.249,0.217 m 0,-3.442 v 2.142 c 0,0.076 0.05,0.18 0.128,0.204 0.153,0.077 0.305,-0.051 0.305,-0.204 v -2.142 c 0,-0.104 -0.051,-0.179 -0.101,-0.204 -0.035,-0.018 -0.072,-0.026 -0.107,-0.026 -0.119,-10e-4 -0.225,0.092 -0.225,0.23" /></defs>
	<clipPath
   id="SVGID_724_">
		<use
   xlink:href="#SVGID_723_"
   overflow="visible"
   id="use3591" />
	</clipPath>
	
		<linearGradient
   id="SVGID_725_"
   gradientUnits="userSpaceOnUse"
   x1="0"
   y1="425.13821"
   x2="1"
   y2="425.13821"
   gradientTransform="matrix(0.4346,0,0,-0.4346,153.786,475.6748)">
		<stop
   offset="0"
   style="stop-color:#161730"
   id="stop3594" />
		<stop
   offset="1"
   style="stop-color:#242C5B"
   id="stop3596" />
	</linearGradient>
	<rect
   x="153.787"
   y="287.672"
   clip-path="url(#SVGID_724_)"
   fill="url(#SVGID_725_)"
   width="0.433"
   height="6.4790001"
   id="rect3599"
   style="fill:url(#SVGID_725_)" />
</g>
<g
   id="g3616"
   transform="translate(-148.458,-269.67001)">
	<defs
   id="defs3604"><path
     id="SVGID_726_"
     d="m 156.644,276.808 0.638,1.122 c 0.152,0.254 0.511,0.024 0.382,-0.229 l -0.637,-1.098 c -0.049,-0.079 -0.115,-0.112 -0.183,-0.112 -0.146,0 -0.289,0.159 -0.2,0.317 m -0.868,-1.48 0.229,0.357 c 0.153,0.255 0.509,0.025 0.357,-0.204 l -0.204,-0.382 c -0.047,-0.079 -0.114,-0.112 -0.181,-0.112 -0.145,0 -0.289,0.164 -0.201,0.341 m -1.708,-3.009 1.069,1.887 c 0.153,0.255 0.512,0 0.384,-0.229 l -1.097,-1.862 c -0.048,-0.079 -0.115,-0.111 -0.181,-0.112 -0.144,-0.002 -0.28,0.158 -0.175,0.316" /></defs>
	<clipPath
   id="SVGID_727_">
		<use
   xlink:href="#SVGID_726_"
   overflow="visible"
   id="use3606" />
	</clipPath>
	
		<linearGradient
   id="SVGID_728_"
   gradientUnits="userSpaceOnUse"
   x1="0"
   y1="425.17719"
   x2="1"
   y2="425.17719"
   gradientTransform="matrix(3.66,0,0,-3.66,154.0305,1831.2229)">
		<stop
   offset="0"
   style="stop-color:#161730"
   id="stop3609" />
		<stop
   offset="1"
   style="stop-color:#242C5B"
   id="stop3611" />
	</linearGradient>
	<rect
   x="153.963"
   y="272.00101"
   clip-path="url(#SVGID_727_)"
   fill="url(#SVGID_728_)"
   width="3.829"
   height="6.1830001"
   id="rect3614"
   style="fill:url(#SVGID_728_)" />
</g>
<g
   id="g3631"
   transform="translate(-148.458,-269.67001)">
	<defs
   id="defs3619"><path
     id="SVGID_729_"
     d="m 153.915,294.075 c -0.078,-0.025 -0.128,-0.103 -0.128,-0.179 v -0.815 c 0,-0.153 0.179,-0.28 0.332,-0.205 0.05,0.025 0.101,0.127 0.101,0.205 v 0.815 c 0,0.118 -0.089,0.205 -0.198,0.205 -0.035,0 -0.071,-0.008 -0.107,-0.026 m 0,-2.092 c -0.078,-0.025 -0.128,-0.127 -0.128,-0.203 v -0.435 c 0,-0.153 0.179,-0.255 0.332,-0.203 0.05,0.024 0.101,0.128 0.101,0.203 v 0.435 c 0,0.126 -0.103,0.217 -0.224,0.217 -0.027,0 -0.054,-0.005 -0.081,-0.014 m 0,-1.734 c -0.078,-0.024 -0.128,-0.128 -0.128,-0.204 v -2.142 c 0,-0.179 0.179,-0.281 0.332,-0.204 0.05,0.025 0.101,0.101 0.101,0.204 v 2.142 c 0,0.121 -0.096,0.228 -0.212,0.228 -0.03,-0.001 -0.061,-0.008 -0.093,-0.024 m -1.199,-3.8 v 7.447 c 0,0.356 0.153,0.664 0.382,0.894 v 0.025 c 0.23,0.229 0.562,0.382 0.918,0.382 0.357,0 0.663,-0.153 0.919,-0.382 0.229,-0.255 0.383,-0.563 0.383,-0.919 v -7.447 z" /></defs>
	<clipPath
   id="SVGID_730_">
		<use
   xlink:href="#SVGID_729_"
   overflow="visible"
   id="use3621" />
	</clipPath>
	
		<linearGradient
   id="SVGID_731_"
   gradientUnits="userSpaceOnUse"
   x1="0"
   y1="425.19681"
   x2="1"
   y2="425.19681"
   gradientTransform="matrix(2.6015,0,0,-2.6015,152.7153,1396.9622)">
		<stop
   offset="0"
   style="stop-color:#F7A715"
   id="stop3624" />
		<stop
   offset="1"
   style="stop-color:#FDC623"
   id="stop3626" />
	</linearGradient>
	<rect
   x="152.716"
   y="286.44901"
   clip-path="url(#SVGID_730_)"
   fill="url(#SVGID_731_)"
   width="2.602"
   height="8.7480001"
   id="rect3629"
   style="fill:url(#SVGID_731_)" />
</g>







































</svg>
