<?xml version="1.0" encoding="UTF-8" standalone="no"?>
<!-- Generator: Adobe Illustrator 13.0.0, SVG Export Plug-In . SVG Version: 6.00 Build 14948)  -->

<svg
   version="1.1"
   id="Layer_1"
   x="0px"
   y="0px"
   width="18.924999"
   height="22.036987"
   viewBox="0 0 18.924999 22.036988"
   enable-background="new 0 0 187.087 425.197"
   xml:space="preserve"
   sodipodi:docname="sfondo_cell.svg"
   xmlns:inkscape="http://www.inkscape.org/namespaces/inkscape"
   xmlns:sodipodi="http://sodipodi.sourceforge.net/DTD/sodipodi-0.dtd"
   xmlns:xlink="http://www.w3.org/1999/xlink"
   xmlns="http://www.w3.org/2000/svg"
   xmlns:svg="http://www.w3.org/2000/svg"><defs
   id="defs4221" /><sodipodi:namedview
   id="namedview4219"
   pagecolor="#ffffff"
   bordercolor="#000000"
   borderopacity="0.25"
   inkscape:showpageshadow="2"
   inkscape:pageopacity="0.0"
   inkscape:pagecheckerboard="0"
   inkscape:deskcolor="#d1d1d1"
   showgrid="false" />
























































































































































































<g
   id="g2686"
   transform="translate(-62.855001,-272.901)">
	<defs
   id="defs2674"><path
     id="SVGID_540_"
     d="m 64.257,289.481 c -0.076,0 -0.153,0.076 -0.178,0.127 -0.076,0.153 0.025,0.306 0.178,0.306 h 2.168 c 0.077,0 0.153,-0.051 0.179,-0.102 0.076,-0.153 -0.026,-0.331 -0.179,-0.331 z m 3.469,0 c -0.102,0 -0.178,0.076 -0.204,0.127 -0.077,0.153 0.052,0.306 0.204,0.306 h 0.434 c 0.076,0 0.153,-0.051 0.178,-0.102 0.076,-0.153 -0.025,-0.331 -0.178,-0.331 z m 1.709,0 c -0.076,0 -0.153,0.076 -0.178,0.127 -0.077,0.153 0.025,0.306 0.178,0.306 h 1.275 c 0.077,0 0.179,-0.051 0.205,-0.102 0.076,-0.153 -0.051,-0.331 -0.205,-0.331 z m 4.489,0 c -0.102,0 -0.178,0.076 -0.203,0.127 -0.078,0.153 0.025,0.306 0.203,0.306 h 2.142 c 0.078,0 0.179,-0.051 0.205,-0.102 0.076,-0.153 -0.051,-0.331 -0.205,-0.331 z m 3.444,0 c -0.077,0 -0.179,0.076 -0.205,0.127 -0.05,0.153 0.052,0.306 0.205,0.306 h 0.433 c 0.077,0 0.153,-0.051 0.204,-0.102 0.051,-0.153 -0.051,-0.331 -0.204,-0.331 z m 1.734,0 c -0.077,0 -0.179,0.076 -0.204,0.127 -0.077,0.153 0.051,0.306 0.204,0.306 h 1.249 c 0.103,0 0.179,-0.051 0.205,-0.102 0.076,-0.153 -0.026,-0.331 -0.205,-0.331 z M 64.257,284.71 c -0.076,0 -0.153,0.052 -0.178,0.102 -0.076,0.152 0.025,0.332 0.178,0.332 h 2.168 c 0.077,0 0.153,-0.076 0.179,-0.127 0.076,-0.153 -0.026,-0.307 -0.179,-0.307 z m 3.469,0 c -0.102,0 -0.178,0.052 -0.204,0.102 -0.077,0.152 0.052,0.332 0.204,0.332 h 0.434 c 0.076,0 0.153,-0.076 0.178,-0.127 0.076,-0.153 -0.025,-0.307 -0.178,-0.307 z m 1.709,0 c -0.076,0 -0.153,0.052 -0.178,0.102 -0.077,0.152 0.025,0.332 0.178,0.332 h 1.275 c 0.077,0 0.179,-0.076 0.205,-0.127 0.076,-0.153 -0.051,-0.307 -0.205,-0.307 z m 4.489,0 c -0.102,0 -0.178,0.052 -0.203,0.102 -0.078,0.152 0.025,0.332 0.203,0.332 h 2.142 c 0.078,0 0.179,-0.076 0.205,-0.127 0.076,-0.153 -0.051,-0.307 -0.205,-0.307 z m 3.444,0 c -0.077,0 -0.179,0.052 -0.205,0.102 -0.05,0.152 0.052,0.332 0.205,0.332 h 0.433 c 0.077,0 0.153,-0.076 0.204,-0.127 0.051,-0.153 -0.051,-0.307 -0.204,-0.307 z m 1.734,0 c -0.077,0 -0.179,0.052 -0.204,0.102 -0.077,0.152 0.051,0.332 0.204,0.332 h 1.249 c 0.103,0 0.179,-0.076 0.205,-0.127 0.076,-0.153 -0.026,-0.307 -0.205,-0.307 z" /></defs>
	<clipPath
   id="SVGID_541_">
		<use
   xlink:href="#SVGID_540_"
   overflow="visible"
   id="use2676" />
	</clipPath>
	
		<linearGradient
   id="SVGID_542_"
   gradientUnits="userSpaceOnUse"
   x1="0"
   y1="425.19781"
   x2="1"
   y2="425.19781"
   gradientTransform="matrix(16.5288,0,0,-16.5288,64.0595,7315.3081)">
		<stop
   offset="0"
   style="stop-color:#161730"
   id="stop2679" />
		<stop
   offset="1"
   style="stop-color:#242C5B"
   id="stop2681" />
	</linearGradient>
	<rect
   x="64.002998"
   y="284.70999"
   clip-path="url(#SVGID_541_)"
   fill="url(#SVGID_542_)"
   width="16.629"
   height="5.2030001"
   id="rect2684"
   style="fill:url(#SVGID_542_)" />
</g>
<g
   id="g2701"
   transform="translate(-62.855001,-272.901)">
	<defs
   id="defs2689"><path
     id="SVGID_543_"
     d="m 63.288,279.583 c 0.715,-0.382 1.301,-0.942 1.709,-1.58 0.434,-0.688 0.663,-1.454 0.663,-2.271 0,-0.51 -0.076,-0.994 -0.255,-1.453 -0.127,-0.332 -0.306,-0.638 -0.51,-0.944 h 2.398 l 4.794,8.316 v 12.854 h -8.799 z m 1.174,-6.682 c -0.128,0 -0.23,0.102 -0.23,0.229 0,0.052 0.025,0.103 0.077,0.153 0.28,0.331 0.535,0.74 0.688,1.148 0.153,0.406 0.23,0.841 0.23,1.3 0,0.74 -0.205,1.429 -0.587,2.015 -0.408,0.639 -0.969,1.149 -1.658,1.531 -0.076,0.025 -0.127,0.102 -0.127,0.178 v 15.253 c 0,0.128 0.101,0.229 0.229,0.229 h 9.234 c 0.101,0 0.203,-0.102 0.203,-0.229 v -13.109 c 0,-0.053 0,-0.077 -0.025,-0.128 l -3.035,-5.255 -1.862,-3.214 C 67.574,272.951 67.496,272.9 67.42,272.9 h -2.958 z" /></defs>
	<clipPath
   id="SVGID_544_">
		<use
   xlink:href="#SVGID_543_"
   overflow="visible"
   id="use2691" />
	</clipPath>
	
		<linearGradient
   id="SVGID_545_"
   gradientUnits="userSpaceOnUse"
   x1="-0.00048828131"
   y1="425.19681"
   x2="0.99949998"
   y2="425.19681"
   gradientTransform="matrix(9.6667,0,0,-9.6667,62.8556,4394.1523)">
		<stop
   offset="0"
   style="stop-color:#161730"
   id="stop2694" />
		<stop
   offset="1"
   style="stop-color:#242C5B"
   id="stop2696" />
	</linearGradient>
	<rect
   x="62.855"
   y="272.901"
   clip-path="url(#SVGID_544_)"
   fill="url(#SVGID_545_)"
   width="9.6660004"
   height="22.037001"
   id="rect2699"
   style="fill:url(#SVGID_545_)" />
</g>
<g
   id="g2716"
   transform="translate(-62.855001,-272.901)">
	<defs
   id="defs2704"><path
     id="SVGID_546_"
     d="m 72.521,281.651 4.821,-8.316 h 2.398 c -0.204,0.307 -0.383,0.612 -0.51,0.944 -0.179,0.459 -0.281,0.943 -0.281,1.453 0,0.816 0.255,1.582 0.663,2.271 0.434,0.638 1.02,1.198 1.709,1.58 v 14.922 h -8.8 z m 4.694,-8.75 c -0.102,0 -0.179,0.051 -0.205,0.128 l -4.871,8.468 c -0.026,0.025 -0.052,0.05 -0.052,0.103 v 13.109 c 0,0.128 0.103,0.229 0.231,0.229 h 9.233 c 0.127,0 0.203,-0.102 0.203,-0.229 v -15.253 c 0,-0.076 -0.05,-0.152 -0.127,-0.204 -0.688,-0.355 -1.25,-0.866 -1.632,-1.505 -0.383,-0.586 -0.612,-1.274 -0.612,-2.015 0,-0.459 0.101,-0.894 0.254,-1.3 0.153,-0.434 0.383,-0.817 0.689,-1.175 0.077,-0.102 0.077,-0.229 -0.025,-0.306 -0.026,-0.026 -0.077,-0.051 -0.128,-0.051 h -2.958 z" /></defs>
	<clipPath
   id="SVGID_547_">
		<use
   xlink:href="#SVGID_546_"
   overflow="visible"
   id="use2706" />
	</clipPath>
	
		<linearGradient
   id="SVGID_548_"
   gradientUnits="userSpaceOnUse"
   x1="0"
   y1="425.19681"
   x2="1"
   y2="425.19681"
   gradientTransform="matrix(9.6668,0,0,-9.6668,72.0891,4394.2207)">
		<stop
   offset="0"
   style="stop-color:#161730"
   id="stop2709" />
		<stop
   offset="1"
   style="stop-color:#242C5B"
   id="stop2711" />
	</linearGradient>
	<rect
   x="72.086998"
   y="272.901"
   clip-path="url(#SVGID_547_)"
   fill="url(#SVGID_548_)"
   width="9.6669998"
   height="22.037001"
   id="rect2714"
   style="fill:url(#SVGID_548_)" />
</g>
<g
   id="g2731"
   transform="translate(-62.855001,-272.901)">
	<defs
   id="defs2719"><path
     id="SVGID_549_"
     d="m 67.802,273.334 h 9.03 l -4.514,7.831 z m -0.382,-0.433 c -0.127,0 -0.23,0.102 -0.23,0.229 0,0.025 0.027,0.077 0.052,0.103 l 4.897,8.469 c 0.051,0.102 0.179,0.153 0.28,0.076 0.052,-0.026 0.077,-0.052 0.077,-0.076 l 3.035,-5.255 1.862,-3.214 c 0.051,-0.103 0.025,-0.23 -0.077,-0.308 -0.025,-0.024 -0.076,-0.024 -0.101,-0.024 z" /></defs>
	<clipPath
   id="SVGID_550_">
		<use
   xlink:href="#SVGID_549_"
   overflow="visible"
   id="use2721" />
	</clipPath>
	
		<linearGradient
   id="SVGID_551_"
   gradientUnits="userSpaceOnUse"
   x1="0.00048828131"
   y1="425.19479"
   x2="1.0005"
   y2="425.19479"
   gradientTransform="matrix(10.2278,0,0,-10.2278,67.1891,4626.1787)">
		<stop
   offset="0"
   style="stop-color:#161730"
   id="stop2724" />
		<stop
   offset="1"
   style="stop-color:#242C5B"
   id="stop2726" />
	</linearGradient>
	<rect
   x="67.190002"
   y="272.901"
   clip-path="url(#SVGID_550_)"
   fill="url(#SVGID_551_)"
   width="10.254"
   height="8.9540005"
   id="rect2729"
   style="fill:url(#SVGID_551_)" />
</g>
<g
   id="g2746"
   transform="translate(-62.855001,-272.901)">
	<defs
   id="defs2734"><path
     id="SVGID_552_"
     d="M 63.314,288.918 H 81.321 V 290.5 H 63.314 Z m -0.23,-0.459 h -0.229 v 2.475 H 81.78 v -2.475 z m 0.23,-4.335 h 18.007 v 1.582 H 63.314 Z m -0.23,-0.433 h -0.229 v 2.473 H 81.78 v -2.473 z" /></defs>
	<clipPath
   id="SVGID_553_">
		<use
   xlink:href="#SVGID_552_"
   overflow="visible"
   id="use2736" />
	</clipPath>
	
		<linearGradient
   id="SVGID_554_"
   gradientUnits="userSpaceOnUse"
   x1="0"
   y1="425.1958"
   x2="1"
   y2="425.1958"
   gradientTransform="matrix(18.9252,0,0,-18.9252,62.8526,8334.25)">
		<stop
   offset="0"
   style="stop-color:#161730"
   id="stop2739" />
		<stop
   offset="1"
   style="stop-color:#242C5B"
   id="stop2741" />
	</linearGradient>
	<rect
   x="62.855"
   y="283.69101"
   clip-path="url(#SVGID_553_)"
   fill="url(#SVGID_554_)"
   width="18.924999"
   height="7.243"
   id="rect2744"
   style="fill:url(#SVGID_554_)" />
</g>
<g
   id="g2761"
   transform="translate(-62.855001,-272.901)">
	<defs
   id="defs2749"><path
     id="SVGID_555_"
     d="m 64.079,284.812 c 0.025,-0.05 0.102,-0.102 0.178,-0.102 h 2.168 c 0.153,0 0.255,0.153 0.179,0.307 -0.026,0.051 -0.102,0.127 -0.179,0.127 h -2.168 c -0.153,0 -0.254,-0.18 -0.178,-0.332 m 3.443,0 c 0.026,-0.05 0.102,-0.102 0.204,-0.102 h 0.434 c 0.153,0 0.254,0.153 0.178,0.307 -0.025,0.051 -0.102,0.127 -0.178,0.127 h -0.434 c -0.152,0 -0.281,-0.18 -0.204,-0.332 m 1.735,0 c 0.025,-0.05 0.102,-0.102 0.178,-0.102 h 1.275 c 0.154,0 0.281,0.153 0.205,0.307 -0.026,0.051 -0.128,0.127 -0.205,0.127 h -1.275 c -0.153,0 -0.255,-0.18 -0.178,-0.332 m -5.943,0.894 h 8.773 v -1.582 h -8.773 z" /></defs>
	<clipPath
   id="SVGID_556_">
		<use
   xlink:href="#SVGID_555_"
   overflow="visible"
   id="use2751" />
	</clipPath>
	
		<linearGradient
   id="SVGID_557_"
   gradientUnits="userSpaceOnUse"
   x1="0"
   y1="425.19681"
   x2="0.99949998"
   y2="425.19681"
   gradientTransform="matrix(8.7738,0,0,-8.7738,63.3197,4015.4988)">
		<stop
   offset="0"
   style="stop-color:#F7A715"
   id="stop2754" />
		<stop
   offset="1"
   style="stop-color:#FDC623"
   id="stop2756" />
	</linearGradient>
	<rect
   x="63.313999"
   y="284.12399"
   clip-path="url(#SVGID_556_)"
   fill="url(#SVGID_557_)"
   width="8.7729998"
   height="1.582"
   id="rect2759"
   style="fill:url(#SVGID_557_)" />
</g>
<g
   id="g2776"
   transform="translate(-62.855001,-272.901)">
	<defs
   id="defs2764"><path
     id="SVGID_558_"
     d="m 64.079,289.608 c 0.025,-0.051 0.102,-0.127 0.178,-0.127 h 2.168 c 0.153,0 0.255,0.178 0.179,0.331 -0.026,0.051 -0.102,0.102 -0.179,0.102 h -2.168 c -0.153,0 -0.254,-0.153 -0.178,-0.306 m 3.443,0 c 0.026,-0.051 0.102,-0.127 0.204,-0.127 h 0.434 c 0.153,0 0.254,0.178 0.178,0.331 -0.025,0.051 -0.102,0.102 -0.178,0.102 h -0.434 c -0.152,0 -0.281,-0.153 -0.204,-0.306 m 1.735,0 c 0.025,-0.051 0.102,-0.127 0.178,-0.127 h 1.275 c 0.154,0 0.281,0.178 0.205,0.331 -0.026,0.051 -0.128,0.102 -0.205,0.102 h -1.275 c -0.153,0 -0.255,-0.153 -0.178,-0.306 m -5.943,0.892 h 8.773 v -1.582 h -8.773 z" /></defs>
	<clipPath
   id="SVGID_559_">
		<use
   xlink:href="#SVGID_558_"
   overflow="visible"
   id="use2766" />
	</clipPath>
	
		<linearGradient
   id="SVGID_560_"
   gradientUnits="userSpaceOnUse"
   x1="0"
   y1="425.19681"
   x2="0.99949998"
   y2="425.19681"
   gradientTransform="matrix(8.7738,0,0,-8.7738,63.3197,4020.2878)">
		<stop
   offset="0"
   style="stop-color:#F7A715"
   id="stop2769" />
		<stop
   offset="1"
   style="stop-color:#FDC623"
   id="stop2771" />
	</linearGradient>
	<rect
   x="63.313999"
   y="288.918"
   clip-path="url(#SVGID_559_)"
   fill="url(#SVGID_560_)"
   width="8.7729998"
   height="1.582"
   id="rect2774"
   style="fill:url(#SVGID_560_)" />
</g>
<g
   id="g2791"
   transform="translate(-62.855001,-272.901)">
	<defs
   id="defs2779"><path
     id="SVGID_561_"
     d="m 73.721,289.608 c 0.025,-0.051 0.101,-0.127 0.203,-0.127 h 2.142 c 0.154,0 0.281,0.178 0.205,0.331 -0.026,0.051 -0.127,0.102 -0.205,0.102 h -2.142 c -0.178,0 -0.281,-0.153 -0.203,-0.306 m 3.442,0 c 0.026,-0.051 0.128,-0.127 0.205,-0.127 h 0.433 c 0.153,0 0.255,0.178 0.204,0.331 -0.051,0.051 -0.127,0.102 -0.204,0.102 h -0.433 c -0.153,0 -0.255,-0.153 -0.205,-0.306 m 1.735,0 c 0.025,-0.051 0.127,-0.127 0.204,-0.127 h 1.249 c 0.179,0 0.281,0.178 0.205,0.331 -0.026,0.051 -0.102,0.102 -0.205,0.102 h -1.249 c -0.153,0 -0.281,-0.153 -0.204,-0.306 m -6.377,0.892 h 8.8 v -1.582 h -8.8 z" /></defs>
	<clipPath
   id="SVGID_562_">
		<use
   xlink:href="#SVGID_561_"
   overflow="visible"
   id="use2781" />
	</clipPath>
	
		<linearGradient
   id="SVGID_563_"
   gradientUnits="userSpaceOnUse"
   x1="0"
   y1="425.19681"
   x2="1"
   y2="425.19681"
   gradientTransform="matrix(8.7996,0,0,-8.7996,72.5261,4031.2927)">
		<stop
   offset="0"
   style="stop-color:#F7A715"
   id="stop2784" />
		<stop
   offset="1"
   style="stop-color:#FDC623"
   id="stop2786" />
	</linearGradient>
	<rect
   x="72.521004"
   y="288.918"
   clip-path="url(#SVGID_562_)"
   fill="url(#SVGID_563_)"
   width="8.8000002"
   height="1.582"
   id="rect2789"
   style="fill:url(#SVGID_563_)" />
</g>
<g
   id="g2806"
   transform="translate(-62.855001,-272.901)">
	<defs
   id="defs2794"><path
     id="SVGID_564_"
     d="m 73.721,284.812 c 0.025,-0.05 0.101,-0.102 0.203,-0.102 h 2.142 c 0.154,0 0.281,0.153 0.205,0.307 -0.026,0.051 -0.127,0.127 -0.205,0.127 h -2.142 c -0.178,0 -0.281,-0.18 -0.203,-0.332 m 3.442,0 c 0.026,-0.05 0.128,-0.102 0.205,-0.102 h 0.433 c 0.153,0 0.255,0.153 0.204,0.307 -0.051,0.051 -0.127,0.127 -0.204,0.127 h -0.433 c -0.153,0 -0.255,-0.18 -0.205,-0.332 m 1.735,0 c 0.025,-0.05 0.127,-0.102 0.204,-0.102 h 1.249 c 0.179,0 0.281,0.153 0.205,0.307 -0.026,0.051 -0.102,0.127 -0.205,0.127 h -1.249 c -0.153,0 -0.281,-0.18 -0.204,-0.332 m -6.377,0.894 h 8.8 v -1.582 h -8.8 z" /></defs>
	<clipPath
   id="SVGID_565_">
		<use
   xlink:href="#SVGID_564_"
   overflow="visible"
   id="use2796" />
	</clipPath>
	
		<linearGradient
   id="SVGID_566_"
   gradientUnits="userSpaceOnUse"
   x1="0"
   y1="425.19681"
   x2="1"
   y2="425.19681"
   gradientTransform="matrix(8.7996,0,0,-8.7996,72.5261,4026.4958)">
		<stop
   offset="0"
   style="stop-color:#F7A715"
   id="stop2799" />
		<stop
   offset="1"
   style="stop-color:#FDC623"
   id="stop2801" />
	</linearGradient>
	<rect
   x="72.521004"
   y="284.12399"
   clip-path="url(#SVGID_565_)"
   fill="url(#SVGID_566_)"
   width="8.8000002"
   height="1.582"
   id="rect2804"
   style="fill:url(#SVGID_566_)" />
</g>






























































































</svg>
