<?xml version="1.0" encoding="UTF-8" standalone="no"?>
<!-- Generator: Adobe Illustrator 13.0.0, SVG Export Plug-In . SVG Version: 6.00 Build 14948)  -->

<svg
   version="1.1"
   id="Layer_1"
   x="0px"
   y="0px"
   width="20.582001"
   height="20.584"
   viewBox="0 0 20.582 20.584"
   enable-background="new 0 0 187.087 425.197"
   xml:space="preserve"
   sodipodi:docname="sfondo_cell.svg"
   xmlns:inkscape="http://www.inkscape.org/namespaces/inkscape"
   xmlns:sodipodi="http://sodipodi.sourceforge.net/DTD/sodipodi-0.dtd"
   xmlns:xlink="http://www.w3.org/1999/xlink"
   xmlns="http://www.w3.org/2000/svg"
   xmlns:svg="http://www.w3.org/2000/svg"><defs
   id="defs4221" /><sodipodi:namedview
   id="namedview4219"
   pagecolor="#ffffff"
   bordercolor="#000000"
   borderopacity="0.25"
   inkscape:showpageshadow="2"
   inkscape:pageopacity="0.0"
   inkscape:pagecheckerboard="0"
   inkscape:deskcolor="#d1d1d1"
   showgrid="false" />
























<g
   id="g291"
   transform="translate(-102.65,-132.035)">
	<defs
   id="defs279"><path
     id="SVGID_61_"
     d="m 108.592,135.249 c 0.383,-0.23 0.766,-0.434 1.174,-0.612 0.408,-0.154 0.842,-0.306 1.275,-0.408 0.102,-0.026 0.178,-0.103 0.178,-0.204 v -1.531 h 3.47 v 1.531 c 0,0.101 0.075,0.178 0.179,0.204 0.434,0.102 0.867,0.254 1.249,0.408 0.434,0.178 0.816,0.382 1.199,0.612 0.103,0.051 0.203,0.051 0.28,-0.026 l 1.098,-1.097 2.448,2.474 -1.097,1.071 c -0.078,0.077 -0.078,0.205 -0.026,0.306 0.229,0.358 0.434,0.765 0.613,1.174 0.178,0.408 0.305,0.816 0.407,1.275 0.026,0.102 0.128,0.153 0.229,0.153 h 1.53 v 3.47 h -1.53 c -0.127,0 -0.203,0.101 -0.229,0.203 -0.103,0.434 -0.229,0.843 -0.407,1.25 -0.18,0.408 -0.384,0.817 -0.613,1.199 -0.052,0.076 -0.052,0.204 0.026,0.281 l 1.097,1.071 -2.448,2.448 -1.098,-1.071 c -0.077,-0.077 -0.204,-0.102 -0.28,-0.025 -0.383,0.229 -0.766,0.433 -1.199,0.612 -0.408,0.153 -0.815,0.306 -1.249,0.407 -0.104,0.026 -0.179,0.103 -0.179,0.205 v 1.53 h -3.47 v -1.53 c 0,-0.102 -0.076,-0.205 -0.178,-0.205 -0.434,-0.101 -0.867,-0.254 -1.275,-0.407 -0.408,-0.179 -0.815,-0.383 -1.199,-0.612 -0.075,-0.077 -0.203,-0.052 -0.256,0.025 l -1.096,1.071 -2.449,-2.448 1.071,-1.071 c 0.077,-0.077 0.104,-0.205 0.026,-0.307 -0.229,-0.356 -0.434,-0.765 -0.587,-1.173 -0.179,-0.407 -0.306,-0.842 -0.408,-1.275 -0.025,-0.102 -0.128,-0.178 -0.229,-0.178 h -1.529 v -3.47 h 1.529 c 0.102,0 0.204,-0.076 0.229,-0.178 0.103,-0.434 0.229,-0.842 0.408,-1.25 0.153,-0.434 0.357,-0.816 0.612,-1.199 0.052,-0.102 0.025,-0.204 -0.052,-0.281 l -1.071,-1.071 2.449,-2.474 1.096,1.097 c 0.042,0.042 0.101,0.061 0.156,0.061 0.047,0 0.092,-0.012 0.126,-0.035 m 2.398,-3.214 c -0.128,0 -0.23,0.101 -0.23,0.229 v 1.581 c -0.408,0.103 -0.791,0.23 -1.172,0.384 -0.384,0.152 -0.741,0.331 -1.097,0.56 l -1.123,-1.122 c -0.076,-0.102 -0.23,-0.102 -0.308,0 l -2.779,2.755 c -0.076,0.102 -0.076,0.23 0,0.331 l 1.123,1.123 c -0.204,0.356 -0.383,0.713 -0.562,1.097 -0.152,0.382 -0.281,0.765 -0.383,1.172 h -1.581 c -0.128,0 -0.229,0.103 -0.229,0.23 v 3.902 c 0,0.128 0.101,0.23 0.229,0.23 h 1.581 c 0.102,0.408 0.23,0.791 0.383,1.173 0.179,0.384 0.357,0.74 0.562,1.097 l -1.123,1.123 c -0.076,0.076 -0.076,0.229 0,0.306 l 2.779,2.78 c 0.077,0.102 0.231,0.102 0.308,0 l 1.123,-1.122 c 0.355,0.203 0.713,0.407 1.097,0.56 0.381,0.153 0.764,0.282 1.172,0.384 v 1.581 c 0,0.127 0.103,0.23 0.23,0.23 h 3.927 c 0.103,0 0.205,-0.103 0.205,-0.23 v -1.581 c 0.407,-0.102 0.791,-0.231 1.173,-0.384 0.383,-0.153 0.765,-0.357 1.097,-0.56 l 1.122,1.122 c 0.103,0.102 0.229,0.102 0.332,0 l 2.754,-2.78 c 0.103,-0.077 0.103,-0.23 0,-0.306 l -1.097,-1.123 c 0.205,-0.357 0.383,-0.713 0.536,-1.097 0.153,-0.382 0.281,-0.765 0.408,-1.173 h 1.556 c 0.128,0 0.229,-0.102 0.229,-0.23 v -3.902 c 0,-0.127 -0.102,-0.23 -0.229,-0.23 h -1.556 c -0.103,-0.407 -0.255,-0.79 -0.408,-1.172 -0.153,-0.384 -0.331,-0.741 -0.536,-1.097 l 1.097,-1.123 c 0.103,-0.101 0.103,-0.229 0,-0.331 l -2.754,-2.755 c -0.103,-0.102 -0.229,-0.102 -0.332,0 l -1.122,1.122 c -0.332,-0.229 -0.714,-0.408 -1.097,-0.56 -0.382,-0.154 -0.766,-0.281 -1.173,-0.384 v -1.581 c 0,-0.128 -0.103,-0.229 -0.205,-0.229 z" /></defs>
	<clipPath
   id="SVGID_62_">
		<use
   xlink:href="#SVGID_61_"
   overflow="visible"
   id="use281" />
	</clipPath>
	
		<linearGradient
   id="SVGID_63_"
   gradientUnits="userSpaceOnUse"
   x1="0"
   y1="425.1958"
   x2="1"
   y2="425.1958"
   gradientTransform="matrix(20.5833,0,0,-20.5833,102.6487,8894.2793)">
		<stop
   offset="0"
   style="stop-color:#161730"
   id="stop284" />
		<stop
   offset="1"
   style="stop-color:#242C5B"
   id="stop286" />
	</linearGradient>
	<rect
   x="102.65"
   y="132.035"
   clip-path="url(#SVGID_62_)"
   fill="url(#SVGID_63_)"
   width="20.582001"
   height="20.584"
   id="rect289"
   style="fill:url(#SVGID_63_)" />
</g>
<g
   id="g306"
   transform="translate(-102.65,-132.035)">
	<defs
   id="defs294"><path
     id="SVGID_64_"
     d="m 109.026,146.242 c -0.995,-0.995 -1.634,-2.398 -1.634,-3.928 0,-1.53 0.639,-2.907 1.634,-3.903 0.995,-1.02 2.396,-1.632 3.928,-1.632 1.53,0 2.907,0.612 3.927,1.632 0.996,0.996 1.608,2.373 1.608,3.903 0,1.53 -0.612,2.933 -1.608,3.928 -1.02,1.02 -2.396,1.633 -3.927,1.633 -1.531,0 -2.933,-0.613 -3.928,-1.633 m -0.306,-8.162 c -1.097,1.096 -1.76,2.576 -1.76,4.234 0,1.658 0.663,3.163 1.76,4.259 1.071,1.071 2.576,1.761 4.234,1.761 1.657,0 3.162,-0.69 4.234,-1.761 1.096,-1.096 1.76,-2.601 1.76,-4.259 0,-1.658 -0.664,-3.138 -1.76,-4.234 -1.072,-1.071 -2.577,-1.761 -4.234,-1.761 -1.658,0 -3.163,0.69 -4.234,1.761" /></defs>
	<clipPath
   id="SVGID_65_">
		<use
   xlink:href="#SVGID_64_"
   overflow="visible"
   id="use296" />
	</clipPath>
	
		<linearGradient
   id="SVGID_66_"
   gradientUnits="userSpaceOnUse"
   x1="-0.0009765625"
   y1="425.1958"
   x2="0.99900001"
   y2="425.1958"
   gradientTransform="matrix(11.9879,0,0,-11.9879,106.9633,5239.5361)">
		<stop
   offset="0"
   style="stop-color:#161730"
   id="stop299" />
		<stop
   offset="1"
   style="stop-color:#242C5B"
   id="stop301" />
	</linearGradient>
	<rect
   x="106.96"
   y="136.319"
   clip-path="url(#SVGID_65_)"
   fill="url(#SVGID_66_)"
   width="11.988"
   height="12.015"
   id="rect304"
   style="fill:url(#SVGID_66_)" />
</g>
<g
   id="g321"
   transform="translate(-102.65,-132.035)">
	<defs
   id="defs309"><path
     id="SVGID_67_"
     d="m 115.708,148.64 -0.026,0.025 c -0.865,0.382 -1.783,0.561 -2.728,0.561 -0.459,0 -0.894,-0.051 -1.353,-0.127 -0.255,-0.052 -0.356,0.357 -0.076,0.433 0.484,0.077 0.943,0.127 1.429,0.127 1.045,0 1.963,-0.203 2.933,-0.612 0.228,-0.09 0.131,-0.424 -0.091,-0.424 -0.027,0 -0.057,0.005 -0.088,0.017 m -9.309,-3.011 c 0.688,1.327 1.733,2.424 3.061,3.138 0.075,0.051 0.229,0.026 0.28,-0.077 0.051,-0.102 0.025,-0.229 -0.077,-0.306 -1.249,-0.663 -2.244,-1.683 -2.882,-2.959 -0.053,-0.077 -0.124,-0.111 -0.192,-0.111 -0.135,0 -0.257,0.13 -0.19,0.315 m 13.237,-1.605 c -0.356,1.376 -1.097,2.574 -2.168,3.519 -0.229,0.229 0.128,0.485 0.281,0.306 1.147,-0.97 1.938,-2.27 2.321,-3.724 0.028,-0.174 -0.099,-0.265 -0.224,-0.265 -0.094,0 -0.188,0.053 -0.21,0.164 m -13.314,-4.848 c -0.485,1.047 -0.688,1.99 -0.714,3.138 0,0.408 0.025,0.816 0.102,1.198 0.051,0.306 0.485,0.205 0.433,-0.076 -0.075,-0.357 -0.101,-0.74 -0.101,-1.122 0,-1.046 0.229,-1.989 0.663,-2.959 0.082,-0.18 -0.057,-0.297 -0.194,-0.297 -0.077,0 -0.152,0.036 -0.189,0.118 m 12.065,-1.096 c 0.867,1.147 1.377,2.448 1.453,3.876 0,0.103 0.103,0.205 0.205,0.205 0.127,0 0.229,-0.102 0.229,-0.23 -0.076,-1.48 -0.612,-2.958 -1.531,-4.107 -0.049,-0.063 -0.11,-0.09 -0.169,-0.09 -0.155,0 -0.298,0.18 -0.187,0.346 m -7.015,-2.908 c -1.479,0.306 -2.78,1.097 -3.8,2.168 -0.026,0.026 -0.026,0.051 -0.051,0.051 -0.076,0.255 0.178,0.408 0.356,0.255 0.944,-1.021 2.219,-1.785 3.571,-2.065 0.233,-0.048 0.21,-0.418 -0.014,-0.418 -0.018,0 -0.039,0.003 -0.062,0.009 m 1.377,-0.051 c -0.076,0.128 0.052,0.307 0.205,0.307 1.428,0 2.728,0.407 3.927,1.224 0.256,0.152 0.46,-0.179 0.256,-0.358 -1.301,-0.866 -2.627,-1.275 -4.183,-1.301 -0.077,0 -0.179,0.051 -0.205,0.128" /></defs>
	<clipPath
   id="SVGID_68_">
		<use
   xlink:href="#SVGID_67_"
   overflow="visible"
   id="use311" />
	</clipPath>
	
		<linearGradient
   id="SVGID_69_"
   gradientUnits="userSpaceOnUse"
   x1="-0.0009765625"
   y1="425.19681"
   x2="0.99900001"
   y2="425.19681"
   gradientTransform="matrix(14.6661,0,0,-14.6661,105.6107,6378.314)">
		<stop
   offset="0"
   style="stop-color:#161730"
   id="stop314" />
		<stop
   offset="1"
   style="stop-color:#242C5B"
   id="stop316" />
	</linearGradient>
	<rect
   x="105.608"
   y="134.993"
   clip-path="url(#SVGID_68_)"
   fill="url(#SVGID_69_)"
   width="14.666"
   height="14.666"
   id="rect319"
   style="fill:url(#SVGID_69_)" />
</g>
<g
   id="g336"
   transform="translate(-102.65,-132.035)">
	<defs
   id="defs324"><path
     id="SVGID_70_"
     d="m 115.682,148.665 0.026,-0.025 c 0.281,-0.103 0.434,0.306 0.179,0.407 -0.97,0.409 -1.888,0.612 -2.933,0.612 -0.485,0 -0.944,-0.05 -1.429,-0.127 -0.28,-0.076 -0.179,-0.485 0.076,-0.433 0.459,0.076 0.894,0.127 1.353,0.127 0.944,0 1.862,-0.179 2.728,-0.561 m -6.222,0.102 c -1.327,-0.714 -2.373,-1.811 -3.061,-3.138 -0.103,-0.28 0.229,-0.433 0.382,-0.204 0.638,1.276 1.633,2.296 2.882,2.959 0.103,0.077 0.128,0.204 0.077,0.306 -0.034,0.069 -0.114,0.103 -0.187,0.103 -0.034,0 -0.068,-0.009 -0.093,-0.026 m 8.008,-1.224 c 1.071,-0.945 1.812,-2.143 2.168,-3.519 0.051,-0.256 0.485,-0.206 0.435,0.101 -0.384,1.454 -1.174,2.754 -2.321,3.724 -0.036,0.042 -0.083,0.06 -0.132,0.06 -0.158,0 -0.325,-0.191 -0.15,-0.366 m -11.758,-4.031 c -0.076,-0.382 -0.102,-0.79 -0.102,-1.198 0.025,-1.148 0.229,-2.091 0.714,-3.138 0.102,-0.229 0.511,-0.102 0.383,0.179 -0.434,0.97 -0.663,1.913 -0.663,2.959 0,0.382 0.025,0.765 0.101,1.122 0.03,0.161 -0.101,0.263 -0.227,0.263 -0.093,0 -0.185,-0.056 -0.206,-0.187 m 14.13,-1.556 c -0.076,-1.428 -0.586,-2.729 -1.453,-3.876 -0.152,-0.23 0.179,-0.485 0.356,-0.256 0.919,1.149 1.455,2.627 1.531,4.107 0,0.128 -0.103,0.23 -0.229,0.23 -0.103,0 -0.205,-0.102 -0.205,-0.205 m -11.12,4.617 c -1.097,-1.096 -1.76,-2.601 -1.76,-4.259 0,-1.658 0.663,-3.138 1.76,-4.234 1.071,-1.071 2.576,-1.761 4.234,-1.761 1.657,0 3.162,0.69 4.234,1.761 1.096,1.096 1.76,2.576 1.76,4.234 0,1.658 -0.664,3.163 -1.76,4.259 -1.072,1.071 -2.577,1.761 -4.234,1.761 -1.658,0 -3.163,-0.69 -4.234,-1.761 m -1.199,-9.182 c 0.024,0 0.024,-0.025 0.051,-0.051 1.02,-1.071 2.32,-1.862 3.8,-2.168 0.281,-0.077 0.332,0.357 0.077,0.409 -1.353,0.28 -2.627,1.044 -3.571,2.065 -0.049,0.042 -0.104,0.061 -0.156,0.061 -0.138,0 -0.256,-0.131 -0.201,-0.316 m 9.36,-0.739 c -1.199,-0.817 -2.499,-1.224 -3.927,-1.224 -0.153,0 -0.281,-0.179 -0.205,-0.307 0.026,-0.077 0.128,-0.128 0.205,-0.128 1.556,0.026 2.882,0.435 4.183,1.301 0.168,0.147 0.061,0.396 -0.126,0.396 -0.04,0 -0.084,-0.011 -0.13,-0.038 m -5.662,-4.158 v 1.531 c 0,0.101 -0.076,0.178 -0.178,0.204 -0.434,0.102 -0.867,0.254 -1.275,0.408 -0.408,0.178 -0.791,0.382 -1.174,0.612 -0.076,0.051 -0.204,0.051 -0.281,-0.026 l -1.096,-1.097 -2.449,2.474 1.071,1.071 c 0.077,0.077 0.104,0.179 0.052,0.281 -0.255,0.383 -0.459,0.765 -0.612,1.199 -0.179,0.408 -0.306,0.816 -0.408,1.25 -0.025,0.102 -0.128,0.178 -0.229,0.178 h -1.529 v 3.47 h 1.529 c 0.102,0 0.204,0.076 0.229,0.178 0.103,0.433 0.229,0.868 0.408,1.275 0.153,0.408 0.357,0.817 0.587,1.173 0.077,0.102 0.051,0.23 -0.026,0.307 l -1.071,1.071 2.449,2.448 1.096,-1.071 c 0.053,-0.077 0.181,-0.102 0.256,-0.025 0.384,0.229 0.791,0.433 1.199,0.612 0.408,0.153 0.842,0.306 1.275,0.407 0.102,0 0.178,0.103 0.178,0.205 v 1.53 h 3.47 v -1.53 c 0,-0.102 0.075,-0.179 0.179,-0.205 0.434,-0.101 0.841,-0.254 1.249,-0.407 0.434,-0.179 0.816,-0.383 1.199,-0.612 0.076,-0.077 0.203,-0.052 0.28,0.025 l 1.098,1.071 2.448,-2.448 -1.097,-1.071 c -0.078,-0.077 -0.078,-0.205 -0.026,-0.281 0.229,-0.382 0.434,-0.791 0.613,-1.199 0.178,-0.407 0.305,-0.816 0.407,-1.25 0.026,-0.102 0.103,-0.203 0.229,-0.203 h 1.53 v -3.47 h -1.53 c -0.102,0 -0.203,-0.051 -0.229,-0.153 -0.103,-0.459 -0.229,-0.867 -0.407,-1.275 -0.18,-0.409 -0.384,-0.816 -0.613,-1.174 -0.052,-0.101 -0.052,-0.229 0.026,-0.306 l 1.097,-1.071 -2.448,-2.474 -1.098,1.097 c -0.077,0.077 -0.178,0.077 -0.28,0.026 -0.383,-0.23 -0.766,-0.434 -1.199,-0.612 -0.382,-0.154 -0.815,-0.306 -1.249,-0.408 -0.104,-0.026 -0.179,-0.103 -0.179,-0.204 v -1.531 z" /></defs>
	<clipPath
   id="SVGID_71_">
		<use
   xlink:href="#SVGID_70_"
   overflow="visible"
   id="use326" />
	</clipPath>
	
		<linearGradient
   id="SVGID_72_"
   gradientUnits="userSpaceOnUse"
   x1="0"
   y1="425.19681"
   x2="1"
   y2="425.19681"
   gradientTransform="matrix(19.6906,0,0,-19.6906,103.1118,8514.6943)">
		<stop
   offset="0"
   style="stop-color:#F7A715"
   id="stop329" />
		<stop
   offset="1"
   style="stop-color:#FDC623"
   id="stop331" />
	</linearGradient>
	<rect
   x="103.109"
   y="132.494"
   clip-path="url(#SVGID_71_)"
   fill="url(#SVGID_72_)"
   width="19.688999"
   height="19.665001"
   id="rect334"
   style="fill:url(#SVGID_72_)" />
</g>



































































































































































































































































</svg>
