<?xml version="1.0" encoding="UTF-8" standalone="no"?>
<!-- Generator: Adobe Illustrator 13.0.0, SVG Export Plug-In . SVG Version: 6.00 Build 14948)  -->

<svg
   version="1.1"
   id="Layer_1"
   x="0px"
   y="0px"
   width="93.910995"
   height="11.862999"
   viewBox="0 0 93.910993 11.862999"
   enable-background="new 0 0 187.087 425.197"
   xml:space="preserve"
   sodipodi:docname="sfondo_cell.svg"
   xmlns:inkscape="http://www.inkscape.org/namespaces/inkscape"
   xmlns:sodipodi="http://sodipodi.sourceforge.net/DTD/sodipodi-0.dtd"
   xmlns:xlink="http://www.w3.org/1999/xlink"
   xmlns="http://www.w3.org/2000/svg"
   xmlns:svg="http://www.w3.org/2000/svg"><defs
   id="defs4221" /><sodipodi:namedview
   id="namedview4219"
   pagecolor="#ffffff"
   bordercolor="#000000"
   borderopacity="0.25"
   inkscape:showpageshadow="2"
   inkscape:pageopacity="0.0"
   inkscape:pagecheckerboard="0"
   inkscape:deskcolor="#d1d1d1"
   showgrid="false" />















































































































































































































































































<g
   id="g3991"
   transform="translate(-20.113001,-32.340999)">
	<defs
   id="defs3979"><path
     id="SVGID_801_"
     d="m 20.113,37.144 v 6.492 c 0.029,0.342 0.208,0.526 0.54,0.554 0.333,-0.028 0.518,-0.212 0.555,-0.554 v -5.164 c 0.553,-0.341 1.148,-0.581 1.785,-0.719 0.322,-0.083 0.471,-0.296 0.443,-0.637 -0.093,-0.313 -0.305,-0.466 -0.636,-0.457 -0.564,0.111 -1.094,0.295 -1.592,0.553 v -0.068 c -0.037,-0.333 -0.222,-0.512 -0.555,-0.541 -0.341,0.029 -0.521,0.208 -0.54,0.541" /></defs>
	<clipPath
   id="SVGID_802_">
		<use
   xlink:href="#SVGID_801_"
   overflow="visible"
   id="use3981" />
	</clipPath>
	
		<linearGradient
   id="SVGID_803_"
   gradientUnits="userSpaceOnUse"
   x1="-0.0009765625"
   y1="425.19681"
   x2="0.99900001"
   y2="425.19681"
   gradientTransform="matrix(3.3258,0,0,-3.3258,20.1145,1454.5219)">
		<stop
   offset="0"
   style="stop-color:#161730"
   id="stop3984" />
		<stop
   offset="1"
   style="stop-color:#242C5B"
   id="stop3986" />
	</linearGradient>
	<rect
   x="20.113001"
   y="36.603001"
   clip-path="url(#SVGID_802_)"
   fill="url(#SVGID_803_)"
   width="3.3510001"
   height="7.5869999"
   id="rect3989"
   style="fill:url(#SVGID_803_)" />
</g>
<g
   id="g4006"
   transform="translate(-20.113001,-32.340999)">
	<defs
   id="defs3994"><path
     id="SVGID_804_"
     d="m 25.679,37.268 v 6.396 c 0.028,0.332 0.212,0.512 0.553,0.54 0.323,-0.028 0.503,-0.208 0.54,-0.54 v -6.396 c -0.028,-0.332 -0.208,-0.516 -0.54,-0.554 -0.341,0.038 -0.525,0.222 -0.553,0.554 m -0.014,-2.879 c 0.036,0.341 0.226,0.526 0.567,0.554 0.332,-0.028 0.517,-0.213 0.554,-0.554 -0.037,-0.333 -0.222,-0.516 -0.554,-0.554 -0.341,0.038 -0.531,0.221 -0.567,0.554" /></defs>
	<clipPath
   id="SVGID_805_">
		<use
   xlink:href="#SVGID_804_"
   overflow="visible"
   id="use3996" />
	</clipPath>
	
		<linearGradient
   id="SVGID_806_"
   gradientUnits="userSpaceOnUse"
   x1="-0.00048828131"
   y1="425.1958"
   x2="1"
   y2="425.1958"
   gradientTransform="matrix(1.1207,0,0,-1.1207,25.6649,515.5429)">
		<stop
   offset="0"
   style="stop-color:#161730"
   id="stop3999" />
		<stop
   offset="1"
   style="stop-color:#242C5B"
   id="stop4001" />
	</linearGradient>
	<rect
   x="25.665001"
   y="33.834999"
   clip-path="url(#SVGID_805_)"
   fill="url(#SVGID_806_)"
   width="1.1210001"
   height="10.369"
   id="rect4004"
   style="fill:url(#SVGID_806_)" />
</g>
<g
   id="g4021"
   transform="translate(-20.113001,-32.340999)">
	<defs
   id="defs4009"><path
     id="SVGID_807_"
     d="m 34.677,41.462 v 0.015 -0.015 m -5.579,-6.506 c -0.01,0.065 -0.015,0.13 -0.015,0.194 0.25,1.486 1.057,2.608 2.423,3.364 1.108,0.646 1.74,1.587 1.897,2.824 v 0.083 0.041 -0.013 c -0.046,0.295 -0.138,0.567 -0.278,0.817 -0.303,0.461 -0.729,0.683 -1.272,0.664 -0.582,0.027 -1.03,-0.203 -1.344,-0.693 -0.165,-0.267 -0.276,-0.558 -0.331,-0.871 -0.112,-0.369 -0.356,-0.545 -0.735,-0.527 -0.387,0.102 -0.563,0.347 -0.525,0.734 0.304,1.652 1.291,2.529 2.962,2.631 1.688,-0.148 2.621,-1.062 2.797,-2.742 -0.103,-1.743 -0.923,-3.081 -2.464,-4.014 -0.997,-0.516 -1.611,-1.297 -1.842,-2.339 -0.01,0.009 -0.014,0.018 -0.014,0.027 0,-0.018 0.004,-0.036 0.014,-0.056 0.028,-0.257 0.111,-0.506 0.25,-0.747 0.294,-0.433 0.71,-0.645 1.245,-0.636 0.729,0.212 1.168,0.701 1.315,1.467 0.12,0.379 0.374,0.54 0.762,0.484 0.36,-0.11 0.521,-0.359 0.484,-0.747 -0.101,-0.415 -0.263,-0.812 -0.484,-1.19 -0.462,-0.812 -1.154,-1.242 -2.077,-1.287 -1.615,0.101 -2.538,0.945 -2.768,2.532" /></defs>
	<clipPath
   id="SVGID_808_">
		<use
   xlink:href="#SVGID_807_"
   overflow="visible"
   id="use4011" />
	</clipPath>
	
		<linearGradient
   id="SVGID_809_"
   gradientUnits="userSpaceOnUse"
   x1="0"
   y1="425.19681"
   x2="1"
   y2="425.19681"
   gradientTransform="matrix(5.7639,0,0,-5.7639,28.9133,2489.1072)">
		<stop
   offset="0"
   style="stop-color:#161730"
   id="stop4014" />
		<stop
   offset="1"
   style="stop-color:#242C5B"
   id="stop4016" />
	</linearGradient>
	<rect
   x="28.879999"
   y="32.424"
   clip-path="url(#SVGID_808_)"
   fill="url(#SVGID_809_)"
   width="5.7969999"
   height="11.78"
   id="rect4019"
   style="fill:url(#SVGID_809_)" />
</g>
<g
   id="g4036"
   transform="translate(-20.113001,-32.340999)">
	<defs
   id="defs4024"><path
     id="SVGID_810_"
     d="m 38.026,41.518 v -6.341 c 0.084,-0.857 0.563,-1.323 1.44,-1.397 0.867,0.074 1.347,0.54 1.439,1.397 v 6.341 c -0.101,0.859 -0.581,1.324 -1.439,1.398 -0.868,-0.074 -1.347,-0.539 -1.44,-1.398 m -1.287,-6.341 v 6.341 c 0.157,1.652 1.066,2.542 2.727,2.672 1.642,-0.139 2.551,-1.029 2.727,-2.672 v -6.341 c -0.176,-1.633 -1.085,-2.528 -2.727,-2.685 -1.652,0.148 -2.562,1.044 -2.727,2.685" /></defs>
	<clipPath
   id="SVGID_811_">
		<use
   xlink:href="#SVGID_810_"
   overflow="visible"
   id="use4026" />
	</clipPath>
	
		<linearGradient
   id="SVGID_812_"
   gradientUnits="userSpaceOnUse"
   x1="-0.00048828131"
   y1="425.19681"
   x2="1"
   y2="425.19681"
   gradientTransform="matrix(5.4539,0,0,-5.4539,36.7409,2357.3086)">
		<stop
   offset="0"
   style="stop-color:#161730"
   id="stop4029" />
		<stop
   offset="1"
   style="stop-color:#242C5B"
   id="stop4031" />
	</linearGradient>
	<rect
   x="36.738998"
   y="32.492001"
   clip-path="url(#SVGID_811_)"
   fill="url(#SVGID_812_)"
   width="5.454"
   height="11.698"
   id="rect4034"
   style="fill:url(#SVGID_812_)" />
</g>
<g
   id="g4051"
   transform="translate(-20.113001,-32.340999)">
	<defs
   id="defs4039"><path
     id="SVGID_813_"
     d="m 44.421,33.365 v 10.133 c 0.028,0.397 0.241,0.608 0.638,0.636 h 3.364 c 0.378,-0.037 0.59,-0.249 0.636,-0.636 -0.046,-0.388 -0.258,-0.605 -0.636,-0.652 h -2.728 v -9.481 c -0.037,-0.388 -0.25,-0.6 -0.636,-0.637 -0.397,0.037 -0.61,0.249 -0.638,0.637" /></defs>
	<clipPath
   id="SVGID_814_">
		<use
   xlink:href="#SVGID_813_"
   overflow="visible"
   id="use4041" />
	</clipPath>
	
		<linearGradient
   id="SVGID_815_"
   gradientUnits="userSpaceOnUse"
   x1="0"
   y1="425.19681"
   x2="1"
   y2="425.19681"
   gradientTransform="matrix(4.6377,0,0,-4.6377,44.4207,2010.3772)">
		<stop
   offset="0"
   style="stop-color:#161730"
   id="stop4044" />
		<stop
   offset="1"
   style="stop-color:#242C5B"
   id="stop4046" />
	</linearGradient>
	<rect
   x="44.421001"
   y="32.728001"
   clip-path="url(#SVGID_814_)"
   fill="url(#SVGID_815_)"
   width="4.638"
   height="11.406"
   id="rect4049"
   style="fill:url(#SVGID_815_)" />
</g>
<g
   id="g4066"
   transform="translate(-20.113001,-32.340999)">
	<defs
   id="defs4054"><path
     id="SVGID_816_"
     d="m 55.537,32.991 v 8.402 c -0.083,0.904 -0.571,1.403 -1.467,1.496 -0.904,-0.093 -1.394,-0.592 -1.468,-1.496 v -8.402 c -0.037,-0.388 -0.249,-0.604 -0.636,-0.65 -0.397,0.046 -0.609,0.262 -0.637,0.65 v 8.402 c 0.138,1.698 1.052,2.631 2.741,2.797 1.68,-0.166 2.598,-1.099 2.755,-2.797 v -8.402 c -0.037,-0.397 -0.255,-0.614 -0.651,-0.65 -0.397,0.046 -0.609,0.262 -0.637,0.65" /></defs>
	<clipPath
   id="SVGID_817_">
		<use
   xlink:href="#SVGID_816_"
   overflow="visible"
   id="use4056" />
	</clipPath>
	
		<linearGradient
   id="SVGID_818_"
   gradientUnits="userSpaceOnUse"
   x1="0"
   y1="425.19681"
   x2="1"
   y2="425.19681"
   gradientTransform="matrix(5.4957,0,0,-5.4957,51.3298,2375.042)">
		<stop
   offset="0"
   style="stop-color:#161730"
   id="stop4059" />
		<stop
   offset="1"
   style="stop-color:#242C5B"
   id="stop4061" />
	</linearGradient>
	<rect
   x="51.328999"
   y="32.341"
   clip-path="url(#SVGID_817_)"
   fill="url(#SVGID_818_)"
   width="5.4959998"
   height="11.849"
   id="rect4064"
   style="fill:url(#SVGID_818_)" />
</g>
<g
   id="g4081"
   transform="translate(-20.113001,-32.340999)">
	<defs
   id="defs4069"><path
     id="SVGID_819_"
     d="m 59.718,32.576 c -0.397,0.045 -0.61,0.262 -0.637,0.65 0.027,0.397 0.24,0.614 0.637,0.651 h 3.128 c -0.673,1.697 -1.352,3.391 -2.035,5.08 -0.562,1.421 -1.126,2.837 -1.688,4.249 -0.028,0.084 -0.042,0.152 -0.042,0.208 0,0.102 0.009,0.185 0.027,0.25 0.056,0.24 0.241,0.392 0.555,0.457 h 4.125 c 0.387,-0.037 0.6,-0.254 0.637,-0.651 -0.028,-0.397 -0.241,-0.614 -0.637,-0.651 h -3.129 c 1.08,-2.703 2.164,-5.412 3.254,-8.126 0.155,-0.387 0.313,-0.775 0.47,-1.163 0.018,-0.073 0.032,-0.156 0.042,-0.249 v -0.055 c -0.037,-0.388 -0.25,-0.605 -0.637,-0.65 z" /></defs>
	<clipPath
   id="SVGID_820_">
		<use
   xlink:href="#SVGID_819_"
   overflow="visible"
   id="use4071" />
	</clipPath>
	
		<linearGradient
   id="SVGID_821_"
   gradientUnits="userSpaceOnUse"
   x1="-0.00048828131"
   y1="425.19681"
   x2="1"
   y2="425.19681"
   gradientTransform="matrix(5.3432,0,0,-5.3432,59.0812,2310.2524)">
		<stop
   offset="0"
   style="stop-color:#161730"
   id="stop4074" />
		<stop
   offset="1"
   style="stop-color:#242C5B"
   id="stop4076" />
	</linearGradient>
	<rect
   x="59.081001"
   y="32.576"
   clip-path="url(#SVGID_820_)"
   fill="url(#SVGID_821_)"
   width="5.3439999"
   height="11.545"
   id="rect4079"
   style="fill:url(#SVGID_821_)" />
</g>
<g
   id="g4096"
   transform="translate(-20.113001,-32.340999)">
	<defs
   id="defs4084"><path
     id="SVGID_822_"
     d="m 66.653,33.296 v 10.27 c 0.028,0.397 0.24,0.61 0.636,0.638 0.388,-0.028 0.601,-0.241 0.638,-0.638 v -10.27 c -0.037,-0.388 -0.25,-0.601 -0.638,-0.638 -0.396,0.037 -0.608,0.25 -0.636,0.638" /></defs>
	<clipPath
   id="SVGID_823_">
		<use
   xlink:href="#SVGID_822_"
   overflow="visible"
   id="use4086" />
	</clipPath>
	
		<linearGradient
   id="SVGID_824_"
   gradientUnits="userSpaceOnUse"
   x1="0"
   y1="425.19681"
   x2="1.0005"
   y2="425.19681"
   gradientTransform="matrix(1.2733,0,0,-1.2733,66.6537,579.8243)">
		<stop
   offset="0"
   style="stop-color:#161730"
   id="stop4089" />
		<stop
   offset="1"
   style="stop-color:#242C5B"
   id="stop4091" />
	</linearGradient>
	<rect
   x="66.653"
   y="32.658001"
   clip-path="url(#SVGID_823_)"
   fill="url(#SVGID_824_)"
   width="1.274"
   height="11.546"
   id="rect4094"
   style="fill:url(#SVGID_824_)" />
</g>
<g
   id="g4111"
   transform="translate(-20.113001,-32.340999)">
	<defs
   id="defs4099"><path
     id="SVGID_825_"
     d="m 71.387,41.518 v -6.341 c 0.084,-0.857 0.564,-1.323 1.44,-1.397 0.867,0.074 1.347,0.54 1.439,1.397 v 6.341 c -0.101,0.859 -0.581,1.324 -1.439,1.398 -0.867,-0.074 -1.347,-0.539 -1.44,-1.398 M 70.1,35.177 v 6.341 c 0.157,1.652 1.066,2.542 2.727,2.672 1.643,-0.139 2.552,-1.029 2.727,-2.672 V 35.177 C 75.379,33.544 74.47,32.649 72.827,32.492 71.175,32.64 70.266,33.536 70.1,35.177" /></defs>
	<clipPath
   id="SVGID_826_">
		<use
   xlink:href="#SVGID_825_"
   overflow="visible"
   id="use4101" />
	</clipPath>
	
		<linearGradient
   id="SVGID_827_"
   gradientUnits="userSpaceOnUse"
   x1="0.00048828131"
   y1="425.19681"
   x2="1.0005"
   y2="425.19681"
   gradientTransform="matrix(5.4539,0,0,-5.4539,70.1003,2357.3086)">
		<stop
   offset="0"
   style="stop-color:#161730"
   id="stop4104" />
		<stop
   offset="1"
   style="stop-color:#242C5B"
   id="stop4106" />
	</linearGradient>
	<rect
   x="70.099998"
   y="32.492001"
   clip-path="url(#SVGID_826_)"
   fill="url(#SVGID_827_)"
   width="5.454"
   height="11.698"
   id="rect4109"
   style="fill:url(#SVGID_827_)" />
</g>
<g
   id="g4126"
   transform="translate(-20.113001,-32.340999)">
	<defs
   id="defs4114"><path
     id="SVGID_828_"
     d="m 82.406,33.296 v 7.433 c -0.987,-2.196 -1.975,-4.392 -2.962,-6.589 -0.139,-0.314 -0.277,-0.633 -0.415,-0.955 -0.084,-0.323 -0.292,-0.499 -0.624,-0.527 -0.397,0.037 -0.608,0.25 -0.637,0.638 v 10.27 c 0.029,0.397 0.24,0.61 0.637,0.638 0.378,-0.037 0.591,-0.25 0.637,-0.638 v -7.571 c 0.978,2.196 1.957,4.387 2.935,6.575 0.138,0.314 0.281,0.623 0.429,0.928 v 0.068 c 0.028,0.397 0.24,0.61 0.637,0.638 0.388,-0.028 0.599,-0.241 0.636,-0.638 v -10.27 c -0.037,-0.388 -0.248,-0.601 -0.636,-0.638 -0.397,0.037 -0.609,0.25 -0.637,0.638" /></defs>
	<clipPath
   id="SVGID_829_">
		<use
   xlink:href="#SVGID_828_"
   overflow="visible"
   id="use4116" />
	</clipPath>
	
		<linearGradient
   id="SVGID_830_"
   gradientUnits="userSpaceOnUse"
   x1="0"
   y1="425.19681"
   x2="1"
   y2="425.19681"
   gradientTransform="matrix(5.911,0,0,-5.911,77.7678,2551.7683)">
		<stop
   offset="0"
   style="stop-color:#161730"
   id="stop4119" />
		<stop
   offset="1"
   style="stop-color:#242C5B"
   id="stop4121" />
	</linearGradient>
	<rect
   x="77.767998"
   y="32.658001"
   clip-path="url(#SVGID_829_)"
   fill="url(#SVGID_830_)"
   width="5.9109998"
   height="11.546"
   id="rect4124"
   style="fill:url(#SVGID_830_)" />
</g>
<g
   id="g4141"
   transform="translate(-20.113001,-32.340999)">
	<defs
   id="defs4129"><path
     id="SVGID_831_"
     d="m 85.894,33.296 v 10.27 c 0.028,0.397 0.241,0.61 0.637,0.638 0.388,-0.028 0.6,-0.241 0.637,-0.638 v -10.27 c -0.037,-0.388 -0.249,-0.601 -0.637,-0.638 -0.396,0.037 -0.609,0.25 -0.637,0.638" /></defs>
	<clipPath
   id="SVGID_832_">
		<use
   xlink:href="#SVGID_831_"
   overflow="visible"
   id="use4131" />
	</clipPath>
	
		<linearGradient
   id="SVGID_833_"
   gradientUnits="userSpaceOnUse"
   x1="0"
   y1="425.19681"
   x2="1.0005"
   y2="425.19681"
   gradientTransform="matrix(1.2733,0,0,-1.2733,85.894,579.8243)">
		<stop
   offset="0"
   style="stop-color:#161730"
   id="stop4134" />
		<stop
   offset="1"
   style="stop-color:#242C5B"
   id="stop4136" />
	</linearGradient>
	<rect
   x="85.893997"
   y="32.658001"
   clip-path="url(#SVGID_832_)"
   fill="url(#SVGID_833_)"
   width="1.274"
   height="11.546"
   id="rect4139"
   style="fill:url(#SVGID_833_)" />
</g>
<g
   id="g4156"
   transform="translate(-20.113001,-32.340999)">
	<defs
   id="defs4144"><path
     id="SVGID_834_"
     d="m 94.603,38.528 c 0.055,-0.553 0.363,-0.858 0.926,-0.914 0.563,0.056 0.873,0.361 0.928,0.914 v 1.149 h -1.854 z m -1.095,0 v 3.641 c 0.111,1.236 0.784,1.91 2.021,2.021 1.227,-0.111 1.9,-0.785 2.021,-2.021 -0.026,-0.332 -0.208,-0.517 -0.54,-0.555 -0.341,0.038 -0.525,0.223 -0.553,0.555 -0.065,0.562 -0.374,0.872 -0.928,0.927 -0.563,-0.055 -0.871,-0.365 -0.926,-0.927 v -1.565 h 2.449 c 0.175,0 0.31,-0.082 0.402,-0.249 0.055,-0.093 0.087,-0.199 0.096,-0.318 v -1.509 c -0.12,-1.227 -0.794,-1.901 -2.021,-2.021 -1.237,0.12 -1.91,0.794 -2.021,2.021" /></defs>
	<clipPath
   id="SVGID_835_">
		<use
   xlink:href="#SVGID_834_"
   overflow="visible"
   id="use4146" />
	</clipPath>
	
		<linearGradient
   id="SVGID_836_"
   gradientUnits="userSpaceOnUse"
   x1="0.0009765625"
   y1="425.19681"
   x2="1.0005"
   y2="425.19681"
   gradientTransform="matrix(4.0424,0,0,-4.0424,93.5077,1759.1495)">
		<stop
   offset="0"
   style="stop-color:#161730"
   id="stop4149" />
		<stop
   offset="1"
   style="stop-color:#242C5B"
   id="stop4151" />
	</linearGradient>
	<rect
   x="93.508003"
   y="36.507"
   clip-path="url(#SVGID_835_)"
   fill="url(#SVGID_836_)"
   width="4.0419998"
   height="7.6830001"
   id="rect4154"
   style="fill:url(#SVGID_836_)" />
</g>
<g
   id="g4171"
   transform="translate(-20.113001,-32.340999)">
	<defs
   id="defs4159"><path
     id="SVGID_837_"
     d="M 100.9,42.086 V 38.57 c 0.047,-0.61 0.378,-0.946 0.997,-1.011 0.608,0.065 0.945,0.401 1.01,1.011 v 3.516 c -0.064,0.618 -0.401,0.955 -1.01,1.01 -0.609,-0.055 -0.941,-0.392 -0.997,-1.01 m 2.007,-7.808 v 2.436 c -0.322,-0.166 -0.66,-0.249 -1.01,-0.249 -1.292,0.12 -1.993,0.821 -2.104,2.105 v 3.516 c 0.12,1.282 0.821,1.984 2.104,2.104 0.378,0 0.733,-0.097 1.065,-0.291 0.11,0.185 0.272,0.277 0.485,0.277 0.332,-0.019 0.516,-0.198 0.553,-0.54 v -9.358 c -0.037,-0.333 -0.221,-0.512 -0.553,-0.54 -0.341,0.028 -0.521,0.207 -0.54,0.54" /></defs>
	<clipPath
   id="SVGID_838_">
		<use
   xlink:href="#SVGID_837_"
   overflow="visible"
   id="use4161" />
	</clipPath>
	
		<linearGradient
   id="SVGID_839_"
   gradientUnits="userSpaceOnUse"
   x1="0.00048828131"
   y1="425.19681"
   x2="1.0005"
   y2="425.19681"
   gradientTransform="matrix(4.2087,0,0,-4.2087,99.7943,1828.494)">
		<stop
   offset="0"
   style="stop-color:#161730"
   id="stop4164" />
		<stop
   offset="1"
   style="stop-color:#242C5B"
   id="stop4166" />
	</linearGradient>
	<rect
   x="99.792999"
   y="33.737999"
   clip-path="url(#SVGID_838_)"
   fill="url(#SVGID_839_)"
   width="4.2080002"
   height="10.452"
   id="rect4169"
   style="fill:url(#SVGID_839_)" />
</g>
<g
   id="g4186"
   transform="translate(-20.113001,-32.340999)">
	<defs
   id="defs4174"><path
     id="SVGID_840_"
     d="m 106.272,37.268 v 6.396 c 0.026,0.332 0.212,0.512 0.554,0.54 0.322,-0.028 0.502,-0.208 0.539,-0.54 v -6.396 c -0.027,-0.332 -0.208,-0.516 -0.539,-0.554 -0.342,0.038 -0.527,0.222 -0.554,0.554 m -0.014,-2.879 c 0.037,0.341 0.227,0.526 0.568,0.554 0.331,-0.028 0.516,-0.213 0.552,-0.554 -0.036,-0.333 -0.221,-0.516 -0.552,-0.554 -0.342,0.038 -0.531,0.221 -0.568,0.554" /></defs>
	<clipPath
   id="SVGID_841_">
		<use
   xlink:href="#SVGID_840_"
   overflow="visible"
   id="use4176" />
	</clipPath>
	
		<linearGradient
   id="SVGID_842_"
   gradientUnits="userSpaceOnUse"
   x1="-0.00048828131"
   y1="425.1958"
   x2="0.99900001"
   y2="425.1958"
   gradientTransform="matrix(1.1207,0,0,-1.1207,106.2577,515.5429)">
		<stop
   offset="0"
   style="stop-color:#161730"
   id="stop4179" />
		<stop
   offset="1"
   style="stop-color:#242C5B"
   id="stop4181" />
	</linearGradient>
	<rect
   x="106.258"
   y="33.834999"
   clip-path="url(#SVGID_841_)"
   fill="url(#SVGID_842_)"
   width="1.12"
   height="10.369"
   id="rect4184"
   style="fill:url(#SVGID_842_)" />
</g>
<g
   id="g4201"
   transform="translate(-20.113001,-32.340999)">
	<defs
   id="defs4189"><path
     id="SVGID_843_"
     d="m 109.594,34.457 v 9.207 c 0.027,0.332 0.207,0.507 0.539,0.526 0.332,-0.019 0.518,-0.194 0.554,-0.526 v -9.207 c -0.036,-0.322 -0.222,-0.502 -0.554,-0.539 -0.332,0.037 -0.512,0.217 -0.539,0.539" /></defs>
	<clipPath
   id="SVGID_844_">
		<use
   xlink:href="#SVGID_843_"
   overflow="visible"
   id="use4191" />
	</clipPath>
	
		<linearGradient
   id="SVGID_845_"
   gradientUnits="userSpaceOnUse"
   x1="0.00048828131"
   y1="425.19781"
   x2="1"
   y2="425.19781"
   gradientTransform="matrix(1.0932,0,0,-1.0932,109.5938,503.8731)">
		<stop
   offset="0"
   style="stop-color:#161730"
   id="stop4194" />
		<stop
   offset="1"
   style="stop-color:#242C5B"
   id="stop4196" />
	</linearGradient>
	<rect
   x="109.594"
   y="33.917999"
   clip-path="url(#SVGID_844_)"
   fill="url(#SVGID_845_)"
   width="1.0930001"
   height="10.272"
   id="rect4199"
   style="fill:url(#SVGID_845_)" />
</g>
<g
   id="g4216"
   transform="translate(-20.113001,-32.340999)">
	<defs
   id="defs4204"><path
     id="SVGID_846_"
     d="m 112.916,37.268 v 6.396 c 0.027,0.332 0.212,0.512 0.553,0.54 0.323,-0.028 0.503,-0.208 0.54,-0.54 v -6.396 c -0.027,-0.332 -0.208,-0.516 -0.54,-0.554 -0.341,0.038 -0.526,0.222 -0.553,0.554 m -0.015,-2.879 c 0.037,0.341 0.227,0.526 0.567,0.554 0.332,-0.028 0.519,-0.213 0.556,-0.554 -0.037,-0.333 -0.224,-0.516 -0.556,-0.554 -0.34,0.038 -0.53,0.221 -0.567,0.554" /></defs>
	<clipPath
   id="SVGID_847_">
		<use
   xlink:href="#SVGID_846_"
   overflow="visible"
   id="use4206" />
	</clipPath>
	
		<linearGradient
   id="SVGID_848_"
   gradientUnits="userSpaceOnUse"
   x1="0"
   y1="425.19681"
   x2="1.001"
   y2="425.19681"
   gradientTransform="matrix(1.1219,0,0,-1.1219,112.9016,516.0316)">
		<stop
   offset="0"
   style="stop-color:#161730"
   id="stop4209" />
		<stop
   offset="1"
   style="stop-color:#242C5B"
   id="stop4211" />
	</linearGradient>
	<rect
   x="112.901"
   y="33.834999"
   clip-path="url(#SVGID_847_)"
   fill="url(#SVGID_848_)"
   width="1.123"
   height="10.369"
   id="rect4214"
   style="fill:url(#SVGID_848_)" />
</g>
</svg>
