<?xml version="1.0" encoding="UTF-8" standalone="no"?>
<!-- Generator: Adobe Illustrator 13.0.0, SVG Export Plug-In . SVG Version: 6.00 Build 14948)  -->

<svg
   version="1.1"
   id="Layer_1"
   x="0px"
   y="0px"
   width="14.351166"
   height="23.909698"
   viewBox="0 0 14.351165 23.909699"
   enable-background="new 0 0 187.087 425.197"
   xml:space="preserve"
   sodipodi:docname="sfondo_cell.svg"
   xmlns:inkscape="http://www.inkscape.org/namespaces/inkscape"
   xmlns:sodipodi="http://sodipodi.sourceforge.net/DTD/sodipodi-0.dtd"
   xmlns:xlink="http://www.w3.org/1999/xlink"
   xmlns="http://www.w3.org/2000/svg"
   xmlns:svg="http://www.w3.org/2000/svg"><defs
   id="defs4221" /><sodipodi:namedview
   id="namedview4219"
   pagecolor="#ffffff"
   bordercolor="#000000"
   borderopacity="0.25"
   inkscape:showpageshadow="2"
   inkscape:pageopacity="0.0"
   inkscape:pagecheckerboard="0"
   inkscape:deskcolor="#d1d1d1"
   showgrid="false" />





















































































<g
   id="g1201"
   transform="translate(-63.859827,-131.237)">
	<defs
   id="defs1189"><path
     id="SVGID_243_"
     d="m 71.605,132.43 c 1.021,-0.408 1.99,-0.51 2.958,-0.357 0.868,0.128 1.735,0.459 2.704,0.995 l -0.127,0.025 c -1.786,0.051 -3.24,0.077 -4.591,2.143 z m -0.357,-0.331 c -0.102,0.05 -0.153,0.178 -0.127,0.28 l 1.172,3.418 c 0.026,0.102 0.153,0.178 0.281,0.127 0.052,-0.025 0.077,-0.05 0.102,-0.102 1.327,-2.219 2.73,-2.27 4.464,-2.32 0.28,0 0.586,0 0.867,-0.026 0.102,0 0.204,-0.102 0.204,-0.23 -0.026,-0.076 -0.051,-0.128 -0.102,-0.178 -1.25,-0.765 -2.372,-1.249 -3.469,-1.428 -0.302,-0.049 -0.602,-0.073 -0.903,-0.073 -0.815,0 -1.632,0.178 -2.489,0.532" /></defs>
	<clipPath
   id="SVGID_244_">
		<use
   xlink:href="#SVGID_243_"
   overflow="visible"
   id="use1191" />
	</clipPath>
	
		<linearGradient
   id="SVGID_245_"
   gradientUnits="userSpaceOnUse"
   x1="0"
   y1="425.19379"
   x2="1"
   y2="425.19379"
   gradientTransform="matrix(7.0967,0,0,-7.0967,71.1139,3151.272)">
		<stop
   offset="0"
   style="stop-color:#161730"
   id="stop1194" />
		<stop
   offset="1"
   style="stop-color:#242C5B"
   id="stop1196" />
	</linearGradient>
	<rect
   x="71.095001"
   y="131.567"
   clip-path="url(#SVGID_244_)"
   fill="url(#SVGID_245_)"
   width="7.1160002"
   height="4.408"
   id="rect1199"
   style="fill:url(#SVGID_245_)" />
</g>
<g
   id="g1216"
   transform="translate(-63.859827,-131.237)">
	<defs
   id="defs1204"><path
     id="SVGID_246_"
     d="m 66.836,133.833 4.285,-1.454 1.198,3.52 -4.285,1.454 z m 4.361,-1.938 -4.693,1.607 c -0.128,0.025 -0.178,0.153 -0.153,0.28 l 1.351,3.928 c 0.026,0.102 0.153,0.178 0.281,0.127 l 4.693,-1.58 c 0.102,-0.052 0.178,-0.179 0.128,-0.282 l -1.327,-3.928 c -0.043,-0.105 -0.137,-0.159 -0.227,-0.159 -0.018,0 -0.036,0.003 -0.053,0.007" /></defs>
	<clipPath
   id="SVGID_247_">
		<use
   xlink:href="#SVGID_246_"
   overflow="visible"
   id="use1206" />
	</clipPath>
	
		<linearGradient
   id="SVGID_248_"
   gradientUnits="userSpaceOnUse"
   x1="0"
   y1="425.19479"
   x2="1"
   y2="425.19479"
   gradientTransform="matrix(6.4754,0,0,-6.4754,66.3436,2888.1809)">
		<stop
   offset="0"
   style="stop-color:#161730"
   id="stop1209" />
		<stop
   offset="1"
   style="stop-color:#242C5B"
   id="stop1211" />
	</linearGradient>
	<rect
   x="66.325996"
   y="131.888"
   clip-path="url(#SVGID_247_)"
   fill="url(#SVGID_248_)"
   width="6.5279999"
   height="6"
   id="rect1214"
   style="fill:url(#SVGID_248_)" />
</g>
<g
   id="g1231"
   transform="translate(-63.859827,-131.237)">
	<defs
   id="defs1219"><path
     id="SVGID_249_"
     d="m 64.336,134.573 c 0.433,-0.128 0.841,-0.179 1.198,-0.205 0.408,-0.025 0.765,0.026 1.071,0.102 l 0.842,2.551 c -0.178,0.255 -0.433,0.485 -0.765,0.714 -0.306,0.205 -0.663,0.409 -1.071,0.562 z m 1.173,-0.638 c -0.46,0.026 -0.944,0.127 -1.505,0.306 -0.102,0.051 -0.179,0.153 -0.128,0.28 l 1.403,4.107 c 0.026,0.128 0.154,0.178 0.255,0.153 h 0.026 c 0.535,-0.203 0.994,-0.433 1.378,-0.688 0.407,-0.281 0.713,-0.612 0.943,-0.944 0.026,-0.051 0.051,-0.101 0.026,-0.179 l -0.944,-2.729 c -0.025,-0.076 -0.077,-0.127 -0.127,-0.153 -0.319,-0.106 -0.672,-0.159 -1.075,-0.159 -0.082,0 -0.166,0.002 -0.252,0.006" /></defs>
	<clipPath
   id="SVGID_250_">
		<use
   xlink:href="#SVGID_249_"
   overflow="visible"
   id="use1221" />
	</clipPath>
	
		<linearGradient
   id="SVGID_251_"
   gradientUnits="userSpaceOnUse"
   x1="0"
   y1="425.19479"
   x2="1"
   y2="425.19479"
   gradientTransform="matrix(4.057,0,0,-4.057,63.8585,1861.3976)">
		<stop
   offset="0"
   style="stop-color:#161730"
   id="stop1224" />
		<stop
   offset="1"
   style="stop-color:#242C5B"
   id="stop1226" />
	</linearGradient>
	<rect
   x="63.825001"
   y="133.929"
   clip-path="url(#SVGID_250_)"
   fill="url(#SVGID_251_)"
   width="4.1069999"
   height="4.8769999"
   id="rect1229"
   style="fill:url(#SVGID_251_)" />
</g>
<g
   id="g1246"
   transform="translate(-63.859827,-131.237)">
	<defs
   id="defs1234"><path
     id="SVGID_252_"
     d="m 69.335,137.378 1.964,-0.663 5.891,17.268 -1.989,0.688 z m 2.04,-1.148 -2.397,0.818 c -0.102,0.025 -0.153,0.152 -0.128,0.253 l 6.019,17.702 c 0.052,0.102 0.153,0.179 0.281,0.127 l 2.372,-0.816 c 0.127,-0.025 0.179,-0.153 0.153,-0.255 l -6.019,-17.701 c -0.04,-0.079 -0.127,-0.144 -0.212,-0.144 -0.023,0 -0.046,0.005 -0.069,0.016" /></defs>
	<clipPath
   id="SVGID_253_">
		<use
   xlink:href="#SVGID_252_"
   overflow="visible"
   id="use1236" />
	</clipPath>
	
		<linearGradient
   id="SVGID_254_"
   gradientUnits="userSpaceOnUse"
   x1="0"
   y1="425.19479"
   x2="1"
   y2="425.19479"
   gradientTransform="matrix(8.8377,0,0,-8.8377,68.8441,3903.4617)">
		<stop
   offset="0"
   style="stop-color:#161730"
   id="stop1239" />
		<stop
   offset="1"
   style="stop-color:#242C5B"
   id="stop1241" />
	</linearGradient>
	<rect
   x="68.824997"
   y="136.214"
   clip-path="url(#SVGID_253_)"
   fill="url(#SVGID_254_)"
   width="8.8760004"
   height="18.968"
   id="rect1244"
   style="fill:url(#SVGID_254_)" />
</g>
<g
   id="g1261"
   transform="translate(-63.859827,-131.237)">
	<defs
   id="defs1249"><path
     id="SVGID_255_"
     d="m 67.702,132.354 1.836,-0.638 0.23,0.663 -1.861,0.638 z m 1.913,-1.097 -2.27,0.765 c -0.102,0.025 -0.179,0.153 -0.128,0.255 l 0.358,1.072 c 0.051,0.127 0.178,0.178 0.28,0.153 l 2.271,-0.765 c 0.102,-0.052 0.152,-0.179 0.127,-0.281 l -0.357,-1.072 c -0.038,-0.094 -0.118,-0.147 -0.198,-0.147 -0.028,0 -0.056,0.007 -0.083,0.02" /></defs>
	<clipPath
   id="SVGID_256_">
		<use
   xlink:href="#SVGID_255_"
   overflow="visible"
   id="use1251" />
	</clipPath>
	
		<linearGradient
   id="SVGID_257_"
   gradientUnits="userSpaceOnUse"
   x1="0"
   y1="425.19479"
   x2="1"
   y2="425.19479"
   gradientTransform="matrix(3.0582,0,0,-3.0582,67.2017,1432.7101)">
		<stop
   offset="0"
   style="stop-color:#161730"
   id="stop1254" />
		<stop
   offset="1"
   style="stop-color:#242C5B"
   id="stop1256" />
	</linearGradient>
	<rect
   x="67.166"
   y="131.237"
   clip-path="url(#SVGID_256_)"
   fill="url(#SVGID_257_)"
   width="3.112"
   height="2.29"
   id="rect1259"
   style="fill:url(#SVGID_257_)" />
</g>
<g
   id="g1276"
   transform="translate(-63.859827,-131.237)">
	<defs
   id="defs1264"><path
     id="SVGID_258_"
     d="m 70.609,133.093 -2.065,0.715 c -0.128,0.025 -0.178,0.153 -0.153,0.254 0.051,0.128 0.178,0.179 0.281,0.153 l 1.861,-0.637 0.51,1.454 c 0.026,0.102 0.154,0.153 0.256,0.127 0.127,-0.05 0.178,-0.153 0.153,-0.28 l -0.562,-1.658 c -0.039,-0.08 -0.126,-0.144 -0.211,-0.144 -0.023,0 -0.047,0.005 -0.07,0.016" /></defs>
	<clipPath
   id="SVGID_259_">
		<use
   xlink:href="#SVGID_258_"
   overflow="visible"
   id="use1266" />
	</clipPath>
	
		<linearGradient
   id="SVGID_260_"
   gradientUnits="userSpaceOnUse"
   x1="0"
   y1="425.1929"
   x2="1"
   y2="425.1929"
   gradientTransform="matrix(3.0733,0,0,-3.0733,68.3844,1440.8875)">
		<stop
   offset="0"
   style="stop-color:#161730"
   id="stop1269" />
		<stop
   offset="1"
   style="stop-color:#242C5B"
   id="stop1271" />
	</linearGradient>
	<rect
   x="68.365997"
   y="133.077"
   clip-path="url(#SVGID_259_)"
   fill="url(#SVGID_260_)"
   width="3.1110001"
   height="2.108"
   id="rect1274"
   style="fill:url(#SVGID_260_)" />
</g>
<g
   id="g1291"
   transform="translate(-63.859827,-131.237)">
	<defs
   id="defs1279"><path
     id="SVGID_261_"
     d="m 74.742,150.667 0.689,2.041 c 0.128,0.28 0.51,0.101 0.408,-0.153 l -0.689,-2.041 c -0.037,-0.101 -0.113,-0.142 -0.19,-0.142 -0.139,0 -0.283,0.132 -0.218,0.295 m -0.561,-1.657 0.153,0.433 c 0.102,0.28 0.51,0.077 0.408,-0.154 l -0.153,-0.407 c -0.037,-0.103 -0.112,-0.144 -0.188,-0.144 -0.132,0 -0.269,0.125 -0.22,0.272 m -1.096,-3.266 0.688,2.041 c 0.127,0.307 0.509,0.102 0.408,-0.128 l -0.689,-2.041 c -0.046,-0.11 -0.126,-0.154 -0.204,-0.154 -0.137,0 -0.268,0.136 -0.203,0.282 m -0.562,-1.631 0.128,0.407 c 0.127,0.306 0.51,0.102 0.407,-0.128 l -0.127,-0.408 c -0.046,-0.111 -0.126,-0.154 -0.204,-0.154 -0.137,0 -0.269,0.136 -0.204,0.283 m -1.122,-3.266 0.714,2.041 c 0.102,0.28 0.484,0.101 0.408,-0.127 l -0.714,-2.067 c -0.035,-0.097 -0.104,-0.136 -0.176,-0.136 -0.136,0 -0.282,0.139 -0.232,0.289 m -0.511,-1.556 0.103,0.332 c 0.102,0.28 0.509,0.102 0.408,-0.153 l -0.102,-0.306 c -0.046,-0.111 -0.126,-0.155 -0.204,-0.155 -0.138,0 -0.27,0.136 -0.205,0.282" /></defs>
	<clipPath
   id="SVGID_262_">
		<use
   xlink:href="#SVGID_261_"
   overflow="visible"
   id="use1281" />
	</clipPath>
	
		<linearGradient
   id="SVGID_263_"
   gradientUnits="userSpaceOnUse"
   x1="0"
   y1="425.18311"
   x2="1"
   y2="425.18311"
   gradientTransform="matrix(4.9825,0,0,-4.9825,70.8719,2264.4763)">
		<stop
   offset="0"
   style="stop-color:#161730"
   id="stop1284" />
		<stop
   offset="1"
   style="stop-color:#242C5B"
   id="stop1286" />
	</linearGradient>
	<rect
   x="70.824997"
   y="139.009"
   clip-path="url(#SVGID_262_)"
   fill="url(#SVGID_263_)"
   width="5.1160002"
   height="13.979"
   id="rect1289"
   style="fill:url(#SVGID_263_)" />
</g>
<g
   id="g1306"
   transform="translate(-63.859827,-131.237)">
	<defs
   id="defs1294"><path
     id="SVGID_264_"
     d="m 71.605,132.43 0.944,2.806 c 1.351,-2.066 2.805,-2.092 4.591,-2.143 l 0.127,-0.025 c -0.969,-0.536 -1.836,-0.867 -2.704,-0.995 -0.282,-0.044 -0.565,-0.067 -0.849,-0.067 -0.689,0 -1.386,0.135 -2.109,0.424" /></defs>
	<clipPath
   id="SVGID_265_">
		<use
   xlink:href="#SVGID_264_"
   overflow="visible"
   id="use1296" />
	</clipPath>
	
		<linearGradient
   id="SVGID_266_"
   gradientUnits="userSpaceOnUse"
   x1="-0.00048828131"
   y1="425.1958"
   x2="0.99949998"
   y2="425.1958"
   gradientTransform="matrix(5.662,0,0,-5.662,71.6064,2541.0801)">
		<stop
   offset="0"
   style="stop-color:#F7A715"
   id="stop1299" />
		<stop
   offset="1"
   style="stop-color:#FDC623"
   id="stop1301" />
	</linearGradient>
	<rect
   x="71.605003"
   y="132.006"
   clip-path="url(#SVGID_265_)"
   fill="url(#SVGID_266_)"
   width="5.6620002"
   height="3.23"
   id="rect1304"
   style="fill:url(#SVGID_266_)" />
</g>
<g
   id="g1321"
   transform="translate(-63.859827,-131.237)">
	<defs
   id="defs1309"><path
     id="SVGID_267_"
     d="m 65.534,134.368 c -0.357,0.026 -0.765,0.077 -1.198,0.205 l 1.275,3.724 c 0.408,-0.153 0.765,-0.357 1.071,-0.562 0.332,-0.229 0.587,-0.459 0.765,-0.714 l -0.842,-2.551 c -0.251,-0.063 -0.538,-0.108 -0.859,-0.108 -0.069,0 -0.139,0.002 -0.212,0.006" /></defs>
	<clipPath
   id="SVGID_268_">
		<use
   xlink:href="#SVGID_267_"
   overflow="visible"
   id="use1311" />
	</clipPath>
	
		<linearGradient
   id="SVGID_269_"
   gradientUnits="userSpaceOnUse"
   x1="-0.00048828131"
   y1="425.19681"
   x2="0.99900001"
   y2="425.19681"
   gradientTransform="matrix(3.1118,0,0,-3.1118,64.3363,1459.4454)">
		<stop
   offset="0"
   style="stop-color:#F7A715"
   id="stop1314" />
		<stop
   offset="1"
   style="stop-color:#FDC623"
   id="stop1316" />
	</linearGradient>
	<rect
   x="64.335999"
   y="134.362"
   clip-path="url(#SVGID_268_)"
   fill="url(#SVGID_269_)"
   width="3.1110001"
   height="3.9349999"
   id="rect1319"
   style="fill:url(#SVGID_269_)" />
</g>

































































































































































































</svg>
