<?xml version="1.0" encoding="UTF-8" standalone="no"?>
<!-- Generator: Adobe Illustrator 13.0.0, SVG Export Plug-In . SVG Version: 6.00 Build 14948)  -->

<svg
   version="1.1"
   id="Layer_1"
   x="0px"
   y="0px"
   width="22.190353"
   height="16.528"
   viewBox="0 0 22.190353 16.528"
   enable-background="new 0 0 187.087 425.197"
   xml:space="preserve"
   sodipodi:docname="sfondo_cell.svg"
   xmlns:inkscape="http://www.inkscape.org/namespaces/inkscape"
   xmlns:sodipodi="http://sodipodi.sourceforge.net/DTD/sodipodi-0.dtd"
   xmlns:xlink="http://www.w3.org/1999/xlink"
   xmlns="http://www.w3.org/2000/svg"
   xmlns:svg="http://www.w3.org/2000/svg"><defs
   id="defs4221" /><sodipodi:namedview
   id="namedview4219"
   pagecolor="#ffffff"
   bordercolor="#000000"
   borderopacity="0.25"
   inkscape:showpageshadow="2"
   inkscape:pageopacity="0.0"
   inkscape:pagecheckerboard="0"
   inkscape:deskcolor="#d1d1d1"
   showgrid="false" />


































































































































<g
   id="g1876"
   transform="translate(-102.54564,-227.912)">
	<defs
   id="defs1864"><path
     id="SVGID_378_"
     d="m 108.846,228.32 h 5.866 v 2.831 h -5.866 z m -0.178,-0.408 c -0.129,0 -0.204,0.104 -0.204,0.205 v 3.239 c 0,0.102 0.075,0.204 0.204,0.204 h 6.248 c 0.102,0 0.204,-0.103 0.204,-0.204 v -3.239 c 0,-0.102 -0.103,-0.205 -0.204,-0.205 z" /></defs>
	<clipPath
   id="SVGID_379_">
		<use
   xlink:href="#SVGID_378_"
   overflow="visible"
   id="use1866" />
	</clipPath>
	
		<linearGradient
   id="SVGID_380_"
   gradientUnits="userSpaceOnUse"
   x1="0.00048828131"
   y1="425.19681"
   x2="1.0005"
   y2="425.19681"
   gradientTransform="matrix(6.6568,0,0,-6.6568,108.4643,3060.2009)">
		<stop
   offset="0"
   style="stop-color:#161730"
   id="stop1869" />
		<stop
   offset="1"
   style="stop-color:#242C5B"
   id="stop1871" />
	</linearGradient>
	<rect
   x="108.464"
   y="227.912"
   clip-path="url(#SVGID_379_)"
   fill="url(#SVGID_380_)"
   width="6.6560001"
   height="3.648"
   id="rect1874"
   style="fill:url(#SVGID_380_)" />
</g>
<g
   id="g1891"
   transform="translate(-102.54564,-227.912)">
	<defs
   id="defs1879"><path
     id="SVGID_381_"
     d="m 115.12,228.32 h 5.866 v 2.831 h -5.866 z m -0.204,-0.408 c -0.102,0 -0.204,0.104 -0.204,0.205 v 3.239 c 0,0.102 0.103,0.204 0.204,0.204 h 6.249 c 0.128,0 0.205,-0.103 0.205,-0.204 v -3.239 c 0,-0.102 -0.077,-0.205 -0.205,-0.205 z" /></defs>
	<clipPath
   id="SVGID_382_">
		<use
   xlink:href="#SVGID_381_"
   overflow="visible"
   id="use1881" />
	</clipPath>
	
		<linearGradient
   id="SVGID_383_"
   gradientUnits="userSpaceOnUse"
   x1="0.00048828131"
   y1="425.19681"
   x2="1.0005"
   y2="425.19681"
   gradientTransform="matrix(6.6572,0,0,-6.6572,114.7126,3060.3452)">
		<stop
   offset="0"
   style="stop-color:#161730"
   id="stop1884" />
		<stop
   offset="1"
   style="stop-color:#242C5B"
   id="stop1886" />
	</linearGradient>
	<rect
   x="114.712"
   y="227.912"
   clip-path="url(#SVGID_382_)"
   fill="url(#SVGID_383_)"
   width="6.658"
   height="3.648"
   id="rect1889"
   style="fill:url(#SVGID_383_)" />
</g>
<g
   id="g1906"
   transform="translate(-102.54564,-227.912)">
	<defs
   id="defs1894"><path
     id="SVGID_384_"
     d="m 105.964,231.56 h 5.84 v 2.805 h -5.84 z m -0.205,-0.408 c -0.103,0 -0.203,0.076 -0.203,0.204 v 3.214 c 0,0.102 0.101,0.204 0.203,0.204 h 6.25 c 0.126,0 0.203,-0.103 0.203,-0.204 v -3.214 c 0,-0.128 -0.077,-0.204 -0.203,-0.204 z" /></defs>
	<clipPath
   id="SVGID_385_">
		<use
   xlink:href="#SVGID_384_"
   overflow="visible"
   id="use1896" />
	</clipPath>
	
		<linearGradient
   id="SVGID_386_"
   gradientUnits="userSpaceOnUse"
   x1="0"
   y1="425.19681"
   x2="1"
   y2="425.19681"
   gradientTransform="matrix(6.6568,0,0,-6.6568,105.5575,3063.4287)">
		<stop
   offset="0"
   style="stop-color:#161730"
   id="stop1899" />
		<stop
   offset="1"
   style="stop-color:#242C5B"
   id="stop1901" />
	</linearGradient>
	<rect
   x="105.556"
   y="231.15199"
   clip-path="url(#SVGID_385_)"
   fill="url(#SVGID_386_)"
   width="6.6560001"
   height="3.622"
   id="rect1904"
   style="fill:url(#SVGID_386_)" />
</g>
<g
   id="g1921"
   transform="translate(-102.54564,-227.912)">
	<defs
   id="defs1909"><path
     id="SVGID_387_"
     d="m 112.212,231.56 h 5.867 v 2.805 h -5.867 z m -0.203,-0.408 c -0.103,0 -0.205,0.076 -0.205,0.204 v 3.214 c 0,0.102 0.103,0.204 0.205,0.204 h 6.274 c 0.102,0 0.205,-0.103 0.205,-0.204 v -3.214 c 0,-0.128 -0.104,-0.204 -0.205,-0.204 z" /></defs>
	<clipPath
   id="SVGID_388_">
		<use
   xlink:href="#SVGID_387_"
   overflow="visible"
   id="use1911" />
	</clipPath>
	
		<linearGradient
   id="SVGID_389_"
   gradientUnits="userSpaceOnUse"
   x1="0"
   y1="425.19681"
   x2="1"
   y2="425.19681"
   gradientTransform="matrix(6.6829,0,0,-6.6829,111.8066,3074.5005)">
		<stop
   offset="0"
   style="stop-color:#161730"
   id="stop1914" />
		<stop
   offset="1"
   style="stop-color:#242C5B"
   id="stop1916" />
	</linearGradient>
	<rect
   x="111.804"
   y="231.15199"
   clip-path="url(#SVGID_388_)"
   fill="url(#SVGID_389_)"
   width="6.6849999"
   height="3.622"
   id="rect1919"
   style="fill:url(#SVGID_389_)" />
</g>
<g
   id="g1936"
   transform="translate(-102.54564,-227.912)">
	<defs
   id="defs1924"><path
     id="SVGID_390_"
     d="m 118.488,231.56 h 5.84 v 2.805 h -5.84 z m -0.205,-0.408 c -0.128,0 -0.204,0.076 -0.204,0.204 v 3.214 c 0,0.102 0.076,0.204 0.204,0.204 h 6.249 c 0.128,0 0.204,-0.103 0.204,-0.204 v -3.214 c 0,-0.128 -0.076,-0.204 -0.204,-0.204 z" /></defs>
	<clipPath
   id="SVGID_391_">
		<use
   xlink:href="#SVGID_390_"
   overflow="visible"
   id="use1926" />
	</clipPath>
	
		<linearGradient
   id="SVGID_392_"
   gradientUnits="userSpaceOnUse"
   x1="0.00048828131"
   y1="425.19681"
   x2="1.0005"
   y2="425.19681"
   gradientTransform="matrix(6.6568,0,0,-6.6568,118.0775,3063.4275)">
		<stop
   offset="0"
   style="stop-color:#161730"
   id="stop1929" />
		<stop
   offset="1"
   style="stop-color:#242C5B"
   id="stop1931" />
	</linearGradient>
	<rect
   x="118.079"
   y="231.15199"
   clip-path="url(#SVGID_391_)"
   fill="url(#SVGID_392_)"
   width="6.6570001"
   height="3.622"
   id="rect1934"
   style="fill:url(#SVGID_392_)" />
</g>
<g
   id="g1951"
   transform="translate(-102.54564,-227.912)">
	<defs
   id="defs1939"><path
     id="SVGID_393_"
     d="m 108.743,234.774 h 5.867 v 2.805 h -5.867 z m -0.204,-0.408 c -0.103,0 -0.178,0.103 -0.178,0.204 v 3.214 c 0,0.127 0.075,0.203 0.178,0.203 h 6.275 c 0.102,0 0.203,-0.076 0.203,-0.203 v -3.214 c 0,-0.102 -0.102,-0.204 -0.203,-0.204 z" /></defs>
	<clipPath
   id="SVGID_394_">
		<use
   xlink:href="#SVGID_393_"
   overflow="visible"
   id="use1941" />
	</clipPath>
	
		<linearGradient
   id="SVGID_395_"
   gradientUnits="userSpaceOnUse"
   x1="0.00048828131"
   y1="425.19681"
   x2="1"
   y2="425.19681"
   gradientTransform="matrix(6.6575,0,0,-6.6575,108.3588,3066.9197)">
		<stop
   offset="0"
   style="stop-color:#161730"
   id="stop1944" />
		<stop
   offset="1"
   style="stop-color:#242C5B"
   id="stop1946" />
	</linearGradient>
	<rect
   x="108.361"
   y="234.366"
   clip-path="url(#SVGID_394_)"
   fill="url(#SVGID_395_)"
   width="6.6560001"
   height="3.6210001"
   id="rect1949"
   style="fill:url(#SVGID_395_)" />
</g>
<g
   id="g1966"
   transform="translate(-102.54564,-227.912)">
	<defs
   id="defs1954"><path
     id="SVGID_396_"
     d="m 115.018,234.774 h 5.842 v 2.805 h -5.842 z m -0.204,-0.408 c -0.128,0 -0.203,0.103 -0.203,0.204 v 3.214 c 0,0.127 0.075,0.203 0.203,0.203 h 6.249 c 0.127,0 0.203,-0.076 0.203,-0.203 v -3.214 c 0,-0.102 -0.076,-0.204 -0.203,-0.204 z" /></defs>
	<clipPath
   id="SVGID_397_">
		<use
   xlink:href="#SVGID_396_"
   overflow="visible"
   id="use1956" />
	</clipPath>
	
		<linearGradient
   id="SVGID_398_"
   gradientUnits="userSpaceOnUse"
   x1="0.00048828131"
   y1="425.19681"
   x2="1.0005"
   y2="425.19681"
   gradientTransform="matrix(6.6568,0,0,-6.6568,114.6088,3066.6384)">
		<stop
   offset="0"
   style="stop-color:#161730"
   id="stop1959" />
		<stop
   offset="1"
   style="stop-color:#242C5B"
   id="stop1961" />
	</linearGradient>
	<rect
   x="114.611"
   y="234.366"
   clip-path="url(#SVGID_397_)"
   fill="url(#SVGID_398_)"
   width="6.6550002"
   height="3.6210001"
   id="rect1964"
   style="fill:url(#SVGID_398_)" />
</g>
<g
   id="g1981"
   transform="translate(-102.54564,-227.912)">
	<defs
   id="defs1969"><path
     id="SVGID_399_"
     d="m 106.193,237.987 h 5.841 v 2.831 h -5.841 z m -0.204,-0.408 c -0.102,0 -0.205,0.104 -0.205,0.205 v 3.239 c 0,0.102 0.104,0.203 0.205,0.203 h 6.249 c 0.127,0 0.203,-0.102 0.203,-0.203 v -3.239 c 0,-0.102 -0.076,-0.205 -0.203,-0.205 z" /></defs>
	<clipPath
   id="SVGID_400_">
		<use
   xlink:href="#SVGID_399_"
   overflow="visible"
   id="use1971" />
	</clipPath>
	
		<linearGradient
   id="SVGID_401_"
   gradientUnits="userSpaceOnUse"
   x1="0"
   y1="425.19681"
   x2="1"
   y2="425.19681"
   gradientTransform="matrix(6.6568,0,0,-6.6568,105.7846,3069.865)">
		<stop
   offset="0"
   style="stop-color:#161730"
   id="stop1974" />
		<stop
   offset="1"
   style="stop-color:#242C5B"
   id="stop1976" />
	</linearGradient>
	<rect
   x="105.784"
   y="237.57899"
   clip-path="url(#SVGID_400_)"
   fill="url(#SVGID_401_)"
   width="6.6570001"
   height="3.6470001"
   id="rect1979"
   style="fill:url(#SVGID_401_)" />
</g>
<g
   id="g1996"
   transform="translate(-102.54564,-227.912)">
	<defs
   id="defs1984"><path
     id="SVGID_402_"
     d="m 112.441,237.987 h 5.866 v 2.831 h -5.866 z m -0.203,-0.408 c -0.104,0 -0.204,0.104 -0.204,0.205 v 3.239 c 0,0.102 0.101,0.203 0.204,0.203 h 6.273 c 0.104,0 0.204,-0.102 0.204,-0.203 v -3.239 c 0,-0.102 -0.101,-0.205 -0.204,-0.205 z" /></defs>
	<clipPath
   id="SVGID_403_">
		<use
   xlink:href="#SVGID_402_"
   overflow="visible"
   id="use1986" />
	</clipPath>
	
		<linearGradient
   id="SVGID_404_"
   gradientUnits="userSpaceOnUse"
   x1="0.00048828131"
   y1="425.19681"
   x2="1.0005"
   y2="425.19681"
   gradientTransform="matrix(6.6829,0,0,-6.6829,112.0332,3080.938)">
		<stop
   offset="0"
   style="stop-color:#161730"
   id="stop1989" />
		<stop
   offset="1"
   style="stop-color:#242C5B"
   id="stop1991" />
	</linearGradient>
	<rect
   x="112.034"
   y="237.57899"
   clip-path="url(#SVGID_403_)"
   fill="url(#SVGID_404_)"
   width="6.6820002"
   height="3.6470001"
   id="rect1994"
   style="fill:url(#SVGID_404_)" />
</g>
<g
   id="g2011"
   transform="translate(-102.54564,-227.912)">
	<defs
   id="defs1999"><path
     id="SVGID_405_"
     d="m 102.928,241.226 h 5.868 v 2.806 h -5.868 z m -0.204,-0.407 c -0.102,0 -0.178,0.076 -0.178,0.204 v 3.214 c 0,0.101 0.076,0.203 0.178,0.203 h 6.275 c 0.102,0 0.203,-0.103 0.203,-0.203 v -3.214 c 0,-0.128 -0.102,-0.204 -0.203,-0.204 z" /></defs>
	<clipPath
   id="SVGID_406_">
		<use
   xlink:href="#SVGID_405_"
   overflow="visible"
   id="use2001" />
	</clipPath>
	
		<linearGradient
   id="SVGID_407_"
   gradientUnits="userSpaceOnUse"
   x1="-0.00048828131"
   y1="425.19681"
   x2="0.99949998"
   y2="425.19681"
   gradientTransform="matrix(6.6568,0,0,-6.6568,102.5457,3073.0801)">
		<stop
   offset="0"
   style="stop-color:#161730"
   id="stop2004" />
		<stop
   offset="1"
   style="stop-color:#242C5B"
   id="stop2006" />
	</linearGradient>
	<rect
   x="102.546"
   y="240.819"
   clip-path="url(#SVGID_406_)"
   fill="url(#SVGID_407_)"
   width="6.6560001"
   height="3.6210001"
   id="rect2009"
   style="fill:url(#SVGID_407_)" />
</g>
<g
   id="g2026"
   transform="translate(-102.54564,-227.912)">
	<defs
   id="defs2014"><path
     id="SVGID_408_"
     d="m 109.202,241.226 h 5.841 v 2.806 h -5.841 z m -0.203,-0.407 c -0.102,0 -0.203,0.076 -0.203,0.204 v 3.214 c 0,0.101 0.102,0.203 0.203,0.203 h 6.249 c 0.128,0 0.204,-0.103 0.204,-0.203 v -3.214 c 0,-0.128 -0.076,-0.204 -0.204,-0.204 z" /></defs>
	<clipPath
   id="SVGID_409_">
		<use
   xlink:href="#SVGID_408_"
   overflow="visible"
   id="use2016" />
	</clipPath>
	
		<linearGradient
   id="SVGID_410_"
   gradientUnits="userSpaceOnUse"
   x1="0"
   y1="425.19681"
   x2="1"
   y2="425.19681"
   gradientTransform="matrix(6.6568,0,0,-6.6568,108.7963,3073.0916)">
		<stop
   offset="0"
   style="stop-color:#161730"
   id="stop2019" />
		<stop
   offset="1"
   style="stop-color:#242C5B"
   id="stop2021" />
	</linearGradient>
	<rect
   x="108.796"
   y="240.819"
   clip-path="url(#SVGID_409_)"
   fill="url(#SVGID_410_)"
   width="6.6560001"
   height="3.6210001"
   id="rect2024"
   style="fill:url(#SVGID_410_)" />
</g>
<g
   id="g2041"
   transform="translate(-102.54564,-227.912)">
	<defs
   id="defs2029"><path
     id="SVGID_411_"
     d="m 115.452,241.226 h 5.866 v 2.806 h -5.866 z m -0.204,-0.407 c -0.104,0 -0.205,0.076 -0.205,0.204 v 3.214 c 0,0.101 0.102,0.203 0.205,0.203 h 6.275 c 0.101,0 0.202,-0.103 0.202,-0.203 v -3.214 c 0,-0.128 -0.102,-0.204 -0.202,-0.204 z" /></defs>
	<clipPath
   id="SVGID_412_">
		<use
   xlink:href="#SVGID_411_"
   overflow="visible"
   id="use2031" />
	</clipPath>
	
		<linearGradient
   id="SVGID_413_"
   gradientUnits="userSpaceOnUse"
   x1="-0.00048828131"
   y1="425.19681"
   x2="0.99949998"
   y2="425.19681"
   gradientTransform="matrix(6.6822,0,0,-6.6822,115.0442,3083.8679)">
		<stop
   offset="0"
   style="stop-color:#161730"
   id="stop2034" />
		<stop
   offset="1"
   style="stop-color:#242C5B"
   id="stop2036" />
	</linearGradient>
	<rect
   x="115.043"
   y="240.819"
   clip-path="url(#SVGID_412_)"
   fill="url(#SVGID_413_)"
   width="6.6830001"
   height="3.6210001"
   id="rect2039"
   style="fill:url(#SVGID_413_)" />
</g>
<g
   id="g2056"
   transform="translate(-102.54564,-227.912)">
	<defs
   id="defs2044"><path
     id="SVGID_414_"
     d="m 122.594,233.473 c -0.077,0 -0.152,0.051 -0.179,0.101 -0.051,0.129 0.051,0.282 0.179,0.282 h 1.938 c 0.076,0 0.152,-0.051 0.178,-0.103 0.051,-0.128 -0.05,-0.28 -0.178,-0.28 z m -1.531,-1.402 c -0.077,0 -0.153,0.025 -0.18,0.101 -0.076,0.128 0.026,0.281 0.18,0.281 h 0.383 c 0.077,0 0.152,-0.051 0.178,-0.128 0.052,-0.128 -0.051,-0.254 -0.178,-0.254 z m 1.531,0 c -0.077,0 -0.152,0.025 -0.179,0.101 -0.051,0.128 0.051,0.281 0.179,0.281 h 1.938 c 0.076,0 0.152,-0.051 0.178,-0.128 0.051,-0.128 -0.05,-0.254 -0.178,-0.254 z" /></defs>
	<clipPath
   id="SVGID_415_">
		<use
   xlink:href="#SVGID_414_"
   overflow="visible"
   id="use2046" />
	</clipPath>
	
		<linearGradient
   id="SVGID_416_"
   gradientUnits="userSpaceOnUse"
   x1="0"
   y1="425.19681"
   x2="1"
   y2="425.19681"
   gradientTransform="matrix(3.8654,0,0,-3.8654,120.8593,1876.5111)">
		<stop
   offset="0"
   style="stop-color:#161730"
   id="stop2049" />
		<stop
   offset="1"
   style="stop-color:#242C5B"
   id="stop2051" />
	</linearGradient>
	<rect
   x="120.808"
   y="232.071"
   clip-path="url(#SVGID_415_)"
   fill="url(#SVGID_416_)"
   width="3.9530001"
   height="1.785"
   id="rect2054"
   style="fill:url(#SVGID_416_)" />
</g>
<g
   id="g2071"
   transform="translate(-102.54564,-227.912)">
	<defs
   id="defs2059"><path
     id="SVGID_417_"
     d="m 119.048,236.687 c -0.077,0 -0.153,0.051 -0.179,0.127 -0.05,0.127 0.052,0.255 0.179,0.255 h 1.938 c 0.077,0 0.153,-0.025 0.179,-0.103 0.052,-0.127 -0.051,-0.279 -0.179,-0.279 z m -1.53,-1.403 c -0.075,0 -0.152,0.051 -0.179,0.103 -0.076,0.127 0.026,0.28 0.179,0.28 h 0.383 c 0.076,0 0.152,-0.051 0.179,-0.103 0.051,-0.127 -0.051,-0.28 -0.179,-0.28 z m 1.53,0 c -0.077,0 -0.153,0.051 -0.179,0.103 -0.05,0.127 0.052,0.28 0.179,0.28 h 1.938 c 0.077,0 0.153,-0.051 0.179,-0.103 0.052,-0.127 -0.051,-0.28 -0.179,-0.28 z" /></defs>
	<clipPath
   id="SVGID_418_">
		<use
   xlink:href="#SVGID_417_"
   overflow="visible"
   id="use2061" />
	</clipPath>
	
		<linearGradient
   id="SVGID_419_"
   gradientUnits="userSpaceOnUse"
   x1="0"
   y1="425.19681"
   x2="1"
   y2="425.19681"
   gradientTransform="matrix(3.8654,0,0,-3.8654,117.3139,1879.7417)">
		<stop
   offset="0"
   style="stop-color:#161730"
   id="stop2064" />
		<stop
   offset="1"
   style="stop-color:#242C5B"
   id="stop2066" />
	</linearGradient>
	<rect
   x="117.263"
   y="235.284"
   clip-path="url(#SVGID_418_)"
   fill="url(#SVGID_419_)"
   width="3.954"
   height="1.785"
   id="rect2069"
   style="fill:url(#SVGID_419_)" />
</g>
<g
   id="g2086"
   transform="translate(-102.54564,-227.912)">
	<defs
   id="defs2074"><path
     id="SVGID_420_"
     d="m 108.616,236.687 c -0.077,0 -0.152,0.051 -0.18,0.127 -0.05,0.127 0.027,0.255 0.18,0.255 h 1.938 c 0.052,0 0.128,-0.025 0.154,-0.103 0.076,-0.127 -0.026,-0.279 -0.154,-0.279 z m 0,-1.403 c -0.077,0 -0.152,0.051 -0.18,0.103 -0.05,0.127 0.027,0.28 0.18,0.28 h 1.938 c 0.052,0 0.128,-0.051 0.154,-0.103 0.076,-0.127 -0.026,-0.28 -0.154,-0.28 z m 3.087,0 c -0.077,0 -0.153,0.051 -0.18,0.103 -0.052,0.127 0.052,0.28 0.18,0.28 h 0.382 c 0.077,0 0.153,-0.051 0.178,-0.103 0.053,-0.127 -0.024,-0.28 -0.178,-0.28 z" /></defs>
	<clipPath
   id="SVGID_421_">
		<use
   xlink:href="#SVGID_420_"
   overflow="visible"
   id="use2076" />
	</clipPath>
	
		<linearGradient
   id="SVGID_422_"
   gradientUnits="userSpaceOnUse"
   x1="0"
   y1="425.19681"
   x2="1"
   y2="425.19681"
   gradientTransform="matrix(3.8573,0,0,-3.8573,108.4213,1876.2704)">
		<stop
   offset="0"
   style="stop-color:#161730"
   id="stop2079" />
		<stop
   offset="1"
   style="stop-color:#242C5B"
   id="stop2081" />
	</linearGradient>
	<rect
   x="108.387"
   y="235.284"
   clip-path="url(#SVGID_421_)"
   fill="url(#SVGID_422_)"
   width="3.9289999"
   height="1.785"
   id="rect2084"
   style="fill:url(#SVGID_422_)" />
</g>
<g
   id="g2101"
   transform="translate(-102.54564,-227.912)">
	<defs
   id="defs2089"><path
     id="SVGID_423_"
     d="m 105.938,233.473 c -0.076,0 -0.13,0.051 -0.154,0.101 -0.076,0.129 0.024,0.282 0.154,0.282 h 1.938 c 0.076,0 0.153,-0.051 0.178,-0.103 0.052,-0.128 -0.05,-0.28 -0.178,-0.28 z m 0,-1.402 c -0.076,0 -0.13,0.025 -0.154,0.101 -0.076,0.128 0.024,0.281 0.154,0.281 h 1.938 c 0.076,0 0.153,-0.051 0.178,-0.128 0.052,-0.128 -0.05,-0.254 -0.178,-0.254 z m 3.086,0 c -0.051,0 -0.127,0.025 -0.153,0.101 -0.075,0.128 0.026,0.281 0.153,0.281 h 0.407 c 0.052,0 0.127,-0.051 0.153,-0.128 0.077,-0.128 -0.026,-0.254 -0.153,-0.254 z" /></defs>
	<clipPath
   id="SVGID_424_">
		<use
   xlink:href="#SVGID_423_"
   overflow="visible"
   id="use2091" />
	</clipPath>
	
		<linearGradient
   id="SVGID_425_"
   gradientUnits="userSpaceOnUse"
   x1="0"
   y1="425.19681"
   x2="1"
   y2="425.19681"
   gradientTransform="matrix(3.8536,0,0,-3.8536,105.7574,1871.5107)">
		<stop
   offset="0"
   style="stop-color:#161730"
   id="stop2094" />
		<stop
   offset="1"
   style="stop-color:#242C5B"
   id="stop2096" />
	</linearGradient>
	<rect
   x="105.708"
   y="232.071"
   clip-path="url(#SVGID_424_)"
   fill="url(#SVGID_425_)"
   width="3.954"
   height="1.785"
   id="rect2099"
   style="fill:url(#SVGID_425_)" />
</g>
<g
   id="g2116"
   transform="translate(-102.54564,-227.912)">
	<defs
   id="defs2104"><path
     id="SVGID_426_"
     d="m 112.238,233.473 c -0.052,0 -0.128,0.051 -0.153,0.101 -0.076,0.129 0.025,0.282 0.153,0.282 h 1.938 c 0.075,0 0.152,-0.051 0.179,-0.103 0.05,-0.128 -0.026,-0.28 -0.179,-0.28 z m 0,-1.402 c -0.052,0 -0.128,0.025 -0.153,0.101 -0.076,0.128 0.025,0.281 0.153,0.281 h 1.938 c 0.075,0 0.152,-0.051 0.179,-0.128 0.05,-0.128 -0.026,-0.254 -0.179,-0.254 z m 3.086,0 c -0.051,0 -0.128,0.025 -0.153,0.101 -0.077,0.128 0.025,0.281 0.153,0.281 h 0.409 c 0.05,0 0.128,-0.051 0.151,-0.128 0.076,-0.128 -0.023,-0.254 -0.151,-0.254 z" /></defs>
	<clipPath
   id="SVGID_427_">
		<use
   xlink:href="#SVGID_426_"
   overflow="visible"
   id="use2106" />
	</clipPath>
	
		<linearGradient
   id="SVGID_428_"
   gradientUnits="userSpaceOnUse"
   x1="0"
   y1="425.1958"
   x2="1"
   y2="425.1958"
   gradientTransform="matrix(3.8531,0,0,-3.8531,112.0596,1871.2844)">
		<stop
   offset="0"
   style="stop-color:#161730"
   id="stop2109" />
		<stop
   offset="1"
   style="stop-color:#242C5B"
   id="stop2111" />
	</linearGradient>
	<rect
   x="112.009"
   y="232.071"
   clip-path="url(#SVGID_427_)"
   fill="url(#SVGID_428_)"
   width="3.9519999"
   height="1.785"
   id="rect2114"
   style="fill:url(#SVGID_428_)" />
</g>
<g
   id="g2131"
   transform="translate(-102.54564,-227.912)">
	<defs
   id="defs2119"><path
     id="SVGID_429_"
     d="m 108.796,230.258 c -0.078,0 -0.154,0.026 -0.18,0.103 -0.077,0.128 0.025,0.281 0.18,0.281 h 1.912 c 0.076,0 0.153,-0.052 0.178,-0.103 0.077,-0.152 -0.024,-0.281 -0.178,-0.281 z m 0,-1.428 c -0.078,0 -0.154,0.052 -0.18,0.128 -0.077,0.128 0.025,0.255 0.18,0.255 h 1.912 c 0.076,0 0.153,-0.024 0.178,-0.102 0.077,-0.127 -0.024,-0.281 -0.178,-0.281 z m 3.085,0 c -0.077,0 -0.153,0.052 -0.178,0.128 -0.077,0.128 0.024,0.255 0.178,0.255 h 0.382 c 0.077,0 0.153,-0.024 0.179,-0.102 0.053,-0.127 -0.052,-0.281 -0.179,-0.281 z" /></defs>
	<clipPath
   id="SVGID_430_">
		<use
   xlink:href="#SVGID_429_"
   overflow="visible"
   id="use2121" />
	</clipPath>
	
		<linearGradient
   id="SVGID_431_"
   gradientUnits="userSpaceOnUse"
   x1="0"
   y1="425.19681"
   x2="1"
   y2="425.19681"
   gradientTransform="matrix(3.8655,0,0,-3.8655,108.5895,1873.3451)">
		<stop
   offset="0"
   style="stop-color:#161730"
   id="stop2124" />
		<stop
   offset="1"
   style="stop-color:#242C5B"
   id="stop2126" />
	</linearGradient>
	<rect
   x="108.539"
   y="228.83"
   clip-path="url(#SVGID_430_)"
   fill="url(#SVGID_431_)"
   width="3.9549999"
   height="1.813"
   id="rect2129"
   style="fill:url(#SVGID_431_)" />
</g>
<g
   id="g2146"
   transform="translate(-102.54564,-227.912)">
	<defs
   id="defs2134"><path
     id="SVGID_432_"
     d="m 119.201,230.258 c -0.077,0 -0.153,0.026 -0.179,0.103 -0.052,0.128 0.052,0.281 0.179,0.281 h 1.938 c 0.077,0 0.153,-0.052 0.153,-0.103 0.077,-0.152 -0.026,-0.281 -0.153,-0.281 z m -1.556,-1.428 c -0.05,0 -0.127,0.052 -0.152,0.128 -0.076,0.128 0.025,0.255 0.152,0.255 h 0.408 c 0.05,0 0.128,-0.024 0.154,-0.102 0.076,-0.127 -0.026,-0.281 -0.154,-0.281 z m 1.556,0 c -0.077,0 -0.153,0.052 -0.179,0.128 -0.052,0.128 0.052,0.255 0.179,0.255 h 1.938 c 0.077,0 0.153,-0.024 0.153,-0.102 0.077,-0.127 -0.026,-0.281 -0.153,-0.281 z" /></defs>
	<clipPath
   id="SVGID_433_">
		<use
   xlink:href="#SVGID_432_"
   overflow="visible"
   id="use2136" />
	</clipPath>
	
		<linearGradient
   id="SVGID_434_"
   gradientUnits="userSpaceOnUse"
   x1="0"
   y1="425.19681"
   x2="1"
   y2="425.19681"
   gradientTransform="matrix(3.8533,0,0,-3.8533,117.4656,1868.1288)">
		<stop
   offset="0"
   style="stop-color:#161730"
   id="stop2139" />
		<stop
   offset="1"
   style="stop-color:#242C5B"
   id="stop2141" />
	</linearGradient>
	<rect
   x="117.416"
   y="228.83"
   clip-path="url(#SVGID_433_)"
   fill="url(#SVGID_434_)"
   width="3.954"
   height="1.813"
   id="rect2144"
   style="fill:url(#SVGID_434_)" />
</g>
<g
   id="g2161"
   transform="translate(-102.54564,-227.912)">
	<defs
   id="defs2149"><path
     id="SVGID_435_"
     d="m 116.574,239.927 c -0.076,0 -0.153,0.024 -0.178,0.101 -0.052,0.127 0.051,0.281 0.178,0.281 h 1.938 c 0.077,0 0.154,-0.052 0.18,-0.128 0.051,-0.127 -0.052,-0.254 -0.18,-0.254 z m -1.531,-1.429 c -0.076,0 -0.152,0.051 -0.178,0.103 -0.076,0.152 0.025,0.279 0.178,0.279 h 0.383 c 0.076,0 0.154,-0.024 0.18,-0.102 0.05,-0.128 -0.052,-0.28 -0.18,-0.28 z m 1.531,0 c -0.076,0 -0.153,0.051 -0.178,0.103 -0.052,0.152 0.051,0.279 0.178,0.279 h 1.938 c 0.077,0 0.154,-0.024 0.18,-0.102 0.051,-0.128 -0.052,-0.28 -0.18,-0.28 z" /></defs>
	<clipPath
   id="SVGID_436_">
		<use
   xlink:href="#SVGID_435_"
   overflow="visible"
   id="use2151" />
	</clipPath>
	
		<linearGradient
   id="SVGID_437_"
   gradientUnits="userSpaceOnUse"
   x1="0"
   y1="425.19681"
   x2="1"
   y2="425.19681"
   gradientTransform="matrix(3.8655,0,0,-3.8655,114.8387,1882.99)">
		<stop
   offset="0"
   style="stop-color:#161730"
   id="stop2154" />
		<stop
   offset="1"
   style="stop-color:#242C5B"
   id="stop2156" />
	</linearGradient>
	<rect
   x="114.789"
   y="238.498"
   clip-path="url(#SVGID_436_)"
   fill="url(#SVGID_437_)"
   width="3.9530001"
   height="1.812"
   id="rect2159"
   style="fill:url(#SVGID_437_)" />
</g>
<g
   id="g2176"
   transform="translate(-102.54564,-227.912)">
	<defs
   id="defs2164"><path
     id="SVGID_438_"
     d="m 105.989,239.927 c -0.076,0 -0.153,0.024 -0.181,0.101 -0.05,0.127 0.027,0.281 0.181,0.281 h 1.938 c 0.05,0 0.127,-0.052 0.153,-0.128 0.076,-0.127 -0.026,-0.254 -0.153,-0.254 z m 0,-1.429 c -0.076,0 -0.153,0.051 -0.181,0.103 -0.05,0.152 0.027,0.279 0.181,0.279 h 1.938 c 0.05,0 0.127,-0.024 0.153,-0.102 0.076,-0.128 -0.026,-0.28 -0.153,-0.28 z m 3.086,0 c -0.076,0 -0.152,0.051 -0.178,0.103 -0.052,0.152 0.051,0.279 0.178,0.279 h 0.382 c 0.077,0 0.154,-0.024 0.179,-0.102 0.053,-0.128 -0.024,-0.28 -0.179,-0.28 z" /></defs>
	<clipPath
   id="SVGID_439_">
		<use
   xlink:href="#SVGID_438_"
   overflow="visible"
   id="use2166" />
	</clipPath>
	
		<linearGradient
   id="SVGID_440_"
   gradientUnits="userSpaceOnUse"
   x1="0"
   y1="425.19681"
   x2="1"
   y2="425.19681"
   gradientTransform="matrix(3.8578,0,0,-3.8578,105.7931,1879.7128)">
		<stop
   offset="0"
   style="stop-color:#161730"
   id="stop2169" />
		<stop
   offset="1"
   style="stop-color:#242C5B"
   id="stop2171" />
	</linearGradient>
	<rect
   x="105.759"
   y="238.498"
   clip-path="url(#SVGID_439_)"
   fill="url(#SVGID_440_)"
   width="3.9300001"
   height="1.812"
   id="rect2174"
   style="fill:url(#SVGID_440_)" />
</g>
<g
   id="g2191"
   transform="translate(-102.54564,-227.912)">
	<defs
   id="defs2179"><path
     id="SVGID_441_"
     d="m 119.584,243.14 c -0.077,0 -0.153,0.051 -0.178,0.101 -0.053,0.128 0.05,0.281 0.178,0.281 h 1.939 c 0.075,0 0.152,-0.05 0.178,-0.103 0.051,-0.127 -0.052,-0.279 -0.178,-0.279 z m -1.531,-1.403 c -0.076,0 -0.152,0.026 -0.178,0.102 -0.077,0.128 0.025,0.281 0.178,0.281 h 0.383 c 0.076,0 0.129,-0.051 0.153,-0.128 0.077,-0.128 -0.024,-0.255 -0.153,-0.255 z m 1.531,0 c -0.077,0 -0.153,0.026 -0.178,0.102 -0.053,0.128 0.05,0.281 0.178,0.281 h 1.939 c 0.075,0 0.152,-0.051 0.178,-0.128 0.051,-0.128 -0.052,-0.255 -0.178,-0.255 z" /></defs>
	<clipPath
   id="SVGID_442_">
		<use
   xlink:href="#SVGID_441_"
   overflow="visible"
   id="use2181" />
	</clipPath>
	
		<linearGradient
   id="SVGID_443_"
   gradientUnits="userSpaceOnUse"
   x1="0"
   y1="425.19681"
   x2="1"
   y2="425.19681"
   gradientTransform="matrix(3.8655,0,0,-3.8655,117.8477,1886.21)">
		<stop
   offset="0"
   style="stop-color:#161730"
   id="stop2184" />
		<stop
   offset="1"
   style="stop-color:#242C5B"
   id="stop2186" />
	</linearGradient>
	<rect
   x="117.798"
   y="241.737"
   clip-path="url(#SVGID_442_)"
   fill="url(#SVGID_443_)"
   width="3.954"
   height="1.785"
   id="rect2189"
   style="fill:url(#SVGID_443_)" />
</g>
<g
   id="g2206"
   transform="translate(-102.54564,-227.912)">
	<defs
   id="defs2194"><path
     id="SVGID_444_"
     d="m 113.334,243.14 c -0.076,0 -0.153,0.051 -0.178,0.101 -0.076,0.128 0.024,0.281 0.178,0.281 h 1.914 c 0.076,0 0.154,-0.05 0.178,-0.103 0.076,-0.127 -0.023,-0.279 -0.178,-0.279 z m -1.555,-1.403 c -0.076,0 -0.153,0.026 -0.179,0.102 -0.051,0.128 0.051,0.281 0.179,0.281 h 0.383 c 0.076,0 0.153,-0.051 0.178,-0.128 0.076,-0.128 -0.024,-0.255 -0.178,-0.255 z m 1.555,0 c -0.076,0 -0.153,0.026 -0.178,0.102 -0.076,0.128 0.024,0.281 0.178,0.281 h 1.914 c 0.076,0 0.154,-0.051 0.178,-0.128 0.076,-0.128 -0.023,-0.255 -0.178,-0.255 z" /></defs>
	<clipPath
   id="SVGID_445_">
		<use
   xlink:href="#SVGID_444_"
   overflow="visible"
   id="use2196" />
	</clipPath>
	
		<linearGradient
   id="SVGID_446_"
   gradientUnits="userSpaceOnUse"
   x1="0"
   y1="425.19681"
   x2="1"
   y2="425.19681"
   gradientTransform="matrix(3.8649,0,0,-3.8649,111.5887,1885.9703)">
		<stop
   offset="0"
   style="stop-color:#161730"
   id="stop2199" />
		<stop
   offset="1"
   style="stop-color:#242C5B"
   id="stop2201" />
	</linearGradient>
	<rect
   x="111.55"
   y="241.737"
   clip-path="url(#SVGID_445_)"
   fill="url(#SVGID_446_)"
   width="3.9519999"
   height="1.785"
   id="rect2204"
   style="fill:url(#SVGID_446_)" />
</g>
<g
   id="g2221"
   transform="translate(-102.54564,-227.912)">
	<defs
   id="defs2209"><path
     id="SVGID_447_"
     d="m 102.724,243.14 c -0.051,0 -0.128,0.051 -0.152,0.101 -0.076,0.128 0.024,0.281 0.152,0.281 h 1.939 c 0.075,0 0.152,-0.05 0.178,-0.103 0.051,-0.127 -0.025,-0.279 -0.178,-0.279 z m 0,-1.403 c -0.051,0 -0.128,0.026 -0.152,0.102 -0.076,0.128 0.024,0.281 0.152,0.281 h 1.939 c 0.075,0 0.152,-0.051 0.178,-0.128 0.051,-0.128 -0.025,-0.255 -0.178,-0.255 z m 3.085,0 c -0.05,0 -0.127,0.026 -0.152,0.102 -0.075,0.128 0.025,0.281 0.152,0.281 h 0.41 c 0.05,0 0.127,-0.051 0.152,-0.128 0.077,-0.128 -0.025,-0.255 -0.152,-0.255 z" /></defs>
	<clipPath
   id="SVGID_448_">
		<use
   xlink:href="#SVGID_447_"
   overflow="visible"
   id="use2211" />
	</clipPath>
	
		<linearGradient
   id="SVGID_449_"
   gradientUnits="userSpaceOnUse"
   x1="0"
   y1="425.19681"
   x2="1"
   y2="425.19681"
   gradientTransform="matrix(3.8528,0,0,-3.8528,102.5446,1880.8185)">
		<stop
   offset="0"
   style="stop-color:#161730"
   id="stop2214" />
		<stop
   offset="1"
   style="stop-color:#242C5B"
   id="stop2216" />
	</linearGradient>
	<rect
   x="102.495"
   y="241.737"
   clip-path="url(#SVGID_448_)"
   fill="url(#SVGID_449_)"
   width="3.9530001"
   height="1.785"
   id="rect2219"
   style="fill:url(#SVGID_449_)" />
</g>
<g
   id="g2236"
   transform="translate(-102.54564,-227.912)">
	<defs
   id="defs2224"><path
     id="SVGID_450_"
     d="m 108.897,238.6 c 0.025,-0.052 0.102,-0.103 0.178,-0.103 h 0.382 c 0.154,0 0.231,0.152 0.179,0.28 -0.024,0.077 -0.102,0.102 -0.179,0.102 h -0.382 c -0.127,0 -0.229,-0.127 -0.178,-0.279 m -2.704,-0.613 v 0.511 h 1.734 c 0.127,0 0.229,0.152 0.153,0.28 -0.026,0.077 -0.104,0.102 -0.153,0.102 h -1.734 v 1.048 h 1.734 c 0.127,0 0.229,0.127 0.153,0.254 -0.026,0.076 -0.104,0.128 -0.153,0.128 h -1.734 v 0.51 h 2.806 3.035 v -2.832 h -5.841 z" /></defs>
	<clipPath
   id="SVGID_451_">
		<use
   xlink:href="#SVGID_450_"
   overflow="visible"
   id="use2226" />
	</clipPath>
	
		<linearGradient
   id="SVGID_452_"
   gradientUnits="userSpaceOnUse"
   x1="0.00048828131"
   y1="425.19681"
   x2="1.0005"
   y2="425.19681"
   gradientTransform="matrix(5.8407,0,0,-5.8407,106.1929,2722.8645)">
		<stop
   offset="0"
   style="stop-color:#F7A715"
   id="stop2229" />
		<stop
   offset="1"
   style="stop-color:#FDC623"
   id="stop2231" />
	</linearGradient>
	<rect
   x="106.193"
   y="237.987"
   clip-path="url(#SVGID_451_)"
   fill="url(#SVGID_452_)"
   width="5.8410001"
   height="2.832"
   id="rect2234"
   style="fill:url(#SVGID_452_)" />
</g>
<g
   id="g2251"
   transform="translate(-102.54564,-227.912)">
	<defs
   id="defs2239"><path
     id="SVGID_453_"
     d="m 111.703,228.958 c 0.024,-0.076 0.101,-0.128 0.178,-0.128 h 0.382 c 0.127,0 0.231,0.154 0.179,0.281 -0.025,0.077 -0.102,0.102 -0.179,0.102 h -0.382 c -0.153,-0.001 -0.255,-0.128 -0.178,-0.255 m -2.857,-0.638 v 0.51 h 1.862 c 0.153,0 0.255,0.154 0.178,0.281 -0.024,0.077 -0.102,0.102 -0.178,0.102 h -1.862 v 1.046 h 1.862 c 0.153,0 0.255,0.129 0.178,0.281 -0.024,0.051 -0.102,0.103 -0.178,0.103 h -1.862 v 0.51 h 3.163 2.703 v -2.832 h -5.866 z" /></defs>
	<clipPath
   id="SVGID_454_">
		<use
   xlink:href="#SVGID_453_"
   overflow="visible"
   id="use2241" />
	</clipPath>
	
		<linearGradient
   id="SVGID_455_"
   gradientUnits="userSpaceOnUse"
   x1="0.00048828131"
   y1="425.19681"
   x2="1.0005"
   y2="425.19681"
   gradientTransform="matrix(5.8668,0,0,-5.8668,108.8439,2724.2659)">
		<stop
   offset="0"
   style="stop-color:#F7A715"
   id="stop2244" />
		<stop
   offset="1"
   style="stop-color:#FDC623"
   id="stop2246" />
	</linearGradient>
	<rect
   x="108.846"
   y="228.32001"
   clip-path="url(#SVGID_454_)"
   fill="url(#SVGID_455_)"
   width="5.8660002"
   height="2.832"
   id="rect2249"
   style="fill:url(#SVGID_455_)" />
</g>
<g
   id="g2266"
   transform="translate(-102.54564,-227.912)">
	<defs
   id="defs2254"><path
     id="SVGID_456_"
     d="m 117.875,241.838 c 0.025,-0.075 0.102,-0.102 0.178,-0.102 h 0.383 c 0.129,0 0.23,0.127 0.153,0.255 -0.024,0.077 -0.077,0.128 -0.153,0.128 h -0.383 c -0.153,0.001 -0.255,-0.153 -0.178,-0.281 m 0.637,-0.612 h -3.06 v 2.806 h 5.866 v -0.51 h -1.734 c -0.128,0 -0.23,-0.153 -0.178,-0.281 0.024,-0.05 0.101,-0.101 0.178,-0.101 h 1.734 v -1.021 h -1.734 c -0.128,0 -0.23,-0.153 -0.178,-0.281 0.024,-0.075 0.101,-0.102 0.178,-0.102 h 1.734 v -0.511 h -2.806 z" /></defs>
	<clipPath
   id="SVGID_457_">
		<use
   xlink:href="#SVGID_456_"
   overflow="visible"
   id="use2256" />
	</clipPath>
	
		<linearGradient
   id="SVGID_458_"
   gradientUnits="userSpaceOnUse"
   x1="0.00048828131"
   y1="425.19681"
   x2="1.0005"
   y2="425.19681"
   gradientTransform="matrix(5.8664,0,0,-5.8664,115.451,2737.0198)">
		<stop
   offset="0"
   style="stop-color:#F7A715"
   id="stop2259" />
		<stop
   offset="1"
   style="stop-color:#FDC623"
   id="stop2261" />
	</linearGradient>
	<rect
   x="115.452"
   y="241.226"
   clip-path="url(#SVGID_457_)"
   fill="url(#SVGID_458_)"
   width="5.8660002"
   height="2.806"
   id="rect2264"
   style="fill:url(#SVGID_458_)" />
</g>
<g
   id="g2281"
   transform="translate(-102.54564,-227.912)">
	<defs
   id="defs2269"><path
     id="SVGID_459_"
     d="m 120.884,232.171 c 0.026,-0.075 0.103,-0.101 0.18,-0.101 h 0.383 c 0.127,0 0.229,0.126 0.178,0.254 -0.025,0.077 -0.101,0.128 -0.178,0.128 h -0.383 c -0.154,0.001 -0.256,-0.153 -0.18,-0.281 m 0.281,-0.611 h -2.677 v 2.806 h 2.575 3.265 v -0.51 h -1.734 c -0.128,0 -0.229,-0.153 -0.179,-0.282 0.026,-0.05 0.102,-0.101 0.179,-0.101 h 1.734 v -1.021 h -1.734 c -0.128,0 -0.229,-0.153 -0.179,-0.281 0.026,-0.075 0.102,-0.101 0.179,-0.101 h 1.734 v -0.511 h -3.163 z" /></defs>
	<clipPath
   id="SVGID_460_">
		<use
   xlink:href="#SVGID_459_"
   overflow="visible"
   id="use2271" />
	</clipPath>
	
		<linearGradient
   id="SVGID_461_"
   gradientUnits="userSpaceOnUse"
   x1="0.0009765625"
   y1="425.19681"
   x2="1.001"
   y2="425.19681"
   gradientTransform="matrix(5.8407,0,0,-5.8407,118.4859,2716.4192)">
		<stop
   offset="0"
   style="stop-color:#F7A715"
   id="stop2274" />
		<stop
   offset="1"
   style="stop-color:#FDC623"
   id="stop2276" />
	</linearGradient>
	<rect
   x="118.488"
   y="231.56"
   clip-path="url(#SVGID_460_)"
   fill="url(#SVGID_461_)"
   width="5.8400002"
   height="2.806"
   id="rect2279"
   style="fill:url(#SVGID_461_)" />
</g>

































































































































</svg>
