<?xml version="1.0" encoding="UTF-8" standalone="no"?>
<!-- Generator: Adobe Illustrator 13.0.0, SVG Export Plug-In . SVG Version: 6.00 Build 14948)  -->

<svg
   version="1.1"
   id="Layer_1"
   x="0px"
   y="0px"
   width="22.032745"
   height="17.422028"
   viewBox="0 0 22.032745 17.422028"
   enable-background="new 0 0 187.087 425.197"
   xml:space="preserve"
   sodipodi:docname="sfondo_cell.svg"
   xmlns:inkscape="http://www.inkscape.org/namespaces/inkscape"
   xmlns:sodipodi="http://sodipodi.sourceforge.net/DTD/sodipodi-0.dtd"
   xmlns:xlink="http://www.w3.org/1999/xlink"
   xmlns="http://www.w3.org/2000/svg"
   xmlns:svg="http://www.w3.org/2000/svg"><defs
   id="defs4221" /><sodipodi:namedview
   id="namedview4219"
   pagecolor="#ffffff"
   bordercolor="#000000"
   borderopacity="0.25"
   inkscape:showpageshadow="2"
   inkscape:pageopacity="0.0"
   inkscape:pagecheckerboard="0"
   inkscape:deskcolor="#d1d1d1"
   showgrid="false" />


















































































































<g
   id="g1636"
   transform="translate(-60.913256,-227.47697)">
	<defs
   id="defs1624"><path
     id="SVGID_330_"
     d="m 80.141,234.698 c 0.459,-0.689 0.739,-1.684 1.019,-2.78 0.332,-1.225 0.689,-2.552 1.353,-3.547 V 244.44 H 68.28 l 1.861,-2.091 c 1.098,-0.357 1.531,-1.148 1.99,-1.989 l 0.026,-0.027 c 0.179,-0.33 0.382,-0.688 0.637,-1.019 2.117,0.841 3.138,0 3.647,-1.199 0.46,-1.071 0.46,-2.448 0.46,-3.137 v -0.053 c 0.73,0.443 1.316,0.637 1.797,0.637 0.63,0 1.081,-0.33 1.443,-0.864 m 2.422,-7.142 c -0.994,1.122 -1.428,2.754 -1.836,4.26 -0.281,1.045 -0.536,2.014 -0.943,2.626 -0.536,0.791 -1.353,0.969 -2.959,-0.076 -0.103,-0.076 -0.231,-0.051 -0.307,0.026 -0.077,0.101 -0.077,0.279 -0.077,0.586 0,0.663 0,1.988 -0.407,2.983 -0.434,0.994 -1.327,1.658 -3.189,0.894 -0.102,-0.052 -0.204,-0.025 -0.28,0.051 -0.332,0.383 -0.56,0.79 -0.817,1.224 -0.433,0.766 -0.842,1.506 -1.81,1.813 -0.026,0 -0.076,0.024 -0.103,0.05 l -2.218,2.525 c -0.026,0.051 -0.051,0.102 -0.051,0.152 0,0.127 0.101,0.229 0.229,0.229 h 14.921 c 0.128,0 0.23,-0.103 0.23,-0.229 v -16.986 c 0,-0.052 -0.025,-0.127 -0.077,-0.153 -0.035,-0.035 -0.087,-0.054 -0.14,-0.054 -0.062,-0.001 -0.125,0.023 -0.166,0.079" /></defs>
	<clipPath
   id="SVGID_331_">
		<use
   xlink:href="#SVGID_330_"
   overflow="visible"
   id="use1626" />
	</clipPath>
	
		<linearGradient
   id="SVGID_332_"
   gradientUnits="userSpaceOnUse"
   x1="0"
   y1="425.1958"
   x2="1"
   y2="425.1958"
   gradientTransform="matrix(15.3801,0,0,-15.3801,67.5646,6775.7441)">
		<stop
   offset="0"
   style="stop-color:#161730"
   id="stop1629" />
		<stop
   offset="1"
   style="stop-color:#242C5B"
   id="stop1631" />
	</linearGradient>
	<rect
   x="67.566002"
   y="227.476"
   clip-path="url(#SVGID_331_)"
   fill="url(#SVGID_332_)"
   width="15.38"
   height="17.423"
   id="rect1634"
   style="fill:url(#SVGID_332_)" />
</g>
<g
   id="g1651"
   transform="translate(-60.913256,-227.47697)">
	<defs
   id="defs1639"><path
     id="SVGID_333_"
     d="m 74.401,231.84 -0.178,1.965 c -0.025,0.128 0.076,0.229 0.204,0.255 0.102,0 0.229,-0.103 0.229,-0.204 l 0.205,-1.99 c 0,-0.128 -0.077,-0.229 -0.205,-0.229 -0.014,-0.004 -0.027,-0.005 -0.04,-0.005 -0.108,0 -0.191,0.095 -0.215,0.208" /></defs>
	<clipPath
   id="SVGID_334_">
		<use
   xlink:href="#SVGID_333_"
   overflow="visible"
   id="use1641" />
	</clipPath>
	
		<linearGradient
   id="SVGID_335_"
   gradientUnits="userSpaceOnUse"
   x1="0"
   y1="425.19479"
   x2="1"
   y2="425.19479"
   gradientTransform="matrix(0.6418,0,0,-0.6418,74.2193,505.7222)">
		<stop
   offset="0"
   style="stop-color:#161730"
   id="stop1644" />
		<stop
   offset="1"
   style="stop-color:#242C5B"
   id="stop1646" />
	</linearGradient>
	<rect
   x="74.197998"
   y="231.632"
   clip-path="url(#SVGID_334_)"
   fill="url(#SVGID_335_)"
   width="0.66299999"
   height="2.428"
   id="rect1649"
   style="fill:url(#SVGID_335_)" />
</g>
<g
   id="g1666"
   transform="translate(-60.913256,-227.47697)">
	<defs
   id="defs1654"><path
     id="SVGID_336_"
     d="m 75.702,232.912 -0.586,1.021 c -0.051,0.101 -0.025,0.254 0.076,0.306 0.127,0.076 0.255,0.025 0.305,-0.078 l 0.588,-1.019 c 0.077,-0.103 0.025,-0.23 -0.076,-0.307 -0.034,-0.018 -0.071,-0.025 -0.108,-0.025 -0.074,0 -0.148,0.034 -0.199,0.102" /></defs>
	<clipPath
   id="SVGID_337_">
		<use
   xlink:href="#SVGID_336_"
   overflow="visible"
   id="use1656" />
	</clipPath>
	
		<linearGradient
   id="SVGID_338_"
   gradientUnits="userSpaceOnUse"
   x1="0"
   y1="425.17719"
   x2="1"
   y2="425.17719"
   gradientTransform="matrix(1.0313,0,0,-1.0313,75.0906,672.0411)">
		<stop
   offset="0"
   style="stop-color:#161730"
   id="stop1659" />
		<stop
   offset="1"
   style="stop-color:#242C5B"
   id="stop1661" />
	</linearGradient>
	<rect
   x="75.065002"
   y="232.81"
   clip-path="url(#SVGID_337_)"
   fill="url(#SVGID_338_)"
   width="1.097"
   height="1.505"
   id="rect1664"
   style="fill:url(#SVGID_338_)" />
</g>
<g
   id="g1681"
   transform="translate(-60.913256,-227.47697)">
	<defs
   id="defs1669"><path
     id="SVGID_339_"
     d="m 72.412,237.222 -2.04,0.229 c -0.128,0 -0.204,0.127 -0.204,0.23 0.026,0.127 0.126,0.229 0.254,0.203 l 2.041,-0.229 c 0.127,0 0.204,-0.127 0.204,-0.255 -0.023,-0.092 -0.107,-0.183 -0.216,-0.183 -0.012,10e-4 -0.026,0.002 -0.039,0.005" /></defs>
	<clipPath
   id="SVGID_340_">
		<use
   xlink:href="#SVGID_339_"
   overflow="visible"
   id="use1671" />
	</clipPath>
	
		<linearGradient
   id="SVGID_341_"
   gradientUnits="userSpaceOnUse"
   x1="0.00048828131"
   y1="425.1929"
   x2="1.0005"
   y2="425.1929"
   gradientTransform="matrix(2.499,0,0,-2.499,70.1666,1300.1069)">
		<stop
   offset="0"
   style="stop-color:#161730"
   id="stop1674" />
		<stop
   offset="1"
   style="stop-color:#242C5B"
   id="stop1676" />
	</linearGradient>
	<rect
   x="70.167999"
   y="237.218"
   clip-path="url(#SVGID_340_)"
   fill="url(#SVGID_341_)"
   width="2.4990001"
   height="0.69199997"
   id="rect1679"
   style="fill:url(#SVGID_341_)" />
</g>
<g
   id="g1696"
   transform="translate(-60.913256,-227.47697)">
	<defs
   id="defs1684"><path
     id="SVGID_342_"
     d="m 61.445,242.629 7.677,-8.824 0.74,0.637 -7.678,8.825 z m 7.498,-9.283 -7.983,9.155 c -0.077,0.076 -0.052,0.229 0.025,0.307 l 1.071,0.943 c 0.103,0.077 0.229,0.052 0.306,-0.025 l 7.984,-9.156 c 0.076,-0.077 0.051,-0.23 -0.025,-0.306 l -1.071,-0.918 c -0.051,-0.038 -0.109,-0.059 -0.163,-0.059 -0.055,0.001 -0.106,0.021 -0.144,0.059 m 1.531,-1.097 0.279,-0.306 0.766,0.663 -0.28,0.306 z m 0.101,-0.741 -0.561,0.612 c -0.076,0.104 -0.076,0.23 0.026,0.307 l 1.071,0.943 c 0.077,0.077 0.23,0.051 0.307,-0.024 l 0.534,-0.613 h 0.026 c 0.077,-0.103 0.077,-0.23 -0.026,-0.306 l -1.071,-0.943 c -0.032,-0.032 -0.073,-0.047 -0.117,-0.047 -0.061,0 -0.129,0.027 -0.189,0.071" /></defs>
	<clipPath
   id="SVGID_343_">
		<use
   xlink:href="#SVGID_342_"
   overflow="visible"
   id="use1686" />
	</clipPath>
	
		<linearGradient
   id="SVGID_344_"
   gradientUnits="userSpaceOnUse"
   x1="0"
   y1="425.19479"
   x2="1"
   y2="425.19479"
   gradientTransform="matrix(11.1194,0,0,-11.1194,60.9104,4965.5732)">
		<stop
   offset="0"
   style="stop-color:#161730"
   id="stop1689" />
		<stop
   offset="1"
   style="stop-color:#242C5B"
   id="stop1691" />
	</linearGradient>
	<rect
   x="60.882999"
   y="231.437"
   clip-path="url(#SVGID_343_)"
   fill="url(#SVGID_344_)"
   width="11.172"
   height="12.392"
   id="rect1694"
   style="fill:url(#SVGID_344_)" />
</g>
<g
   id="g1711"
   transform="translate(-60.913256,-227.47697)">
	<defs
   id="defs1699"><path
     id="SVGID_345_"
     d="m 69.07,233.192 0.792,-0.918 1.402,1.225 -0.79,0.918 z m 0.612,-1.352 -1.071,1.225 c -0.076,0.102 -0.076,0.229 0.026,0.306 l 1.735,1.505 c 0.076,0.076 0.203,0.076 0.306,-0.024 l 1.07,-1.226 c 0.077,-0.077 0.051,-0.229 -0.025,-0.306 l -1.735,-1.504 c -0.035,-0.036 -0.087,-0.055 -0.14,-0.055 -0.062,0 -0.125,0.025 -0.166,0.079" /></defs>
	<clipPath
   id="SVGID_346_">
		<use
   xlink:href="#SVGID_345_"
   overflow="visible"
   id="use1701" />
	</clipPath>
	
		<linearGradient
   id="SVGID_347_"
   gradientUnits="userSpaceOnUse"
   x1="0"
   y1="425.1929"
   x2="1"
   y2="425.1929"
   gradientTransform="matrix(3.2377,0,0,-3.2377,68.556,1610.0173)">
		<stop
   offset="0"
   style="stop-color:#161730"
   id="stop1704" />
		<stop
   offset="1"
   style="stop-color:#242C5B"
   id="stop1706" />
	</linearGradient>
	<rect
   x="68.535004"
   y="231.761"
   clip-path="url(#SVGID_346_)"
   fill="url(#SVGID_347_)"
   width="3.29"
   height="3.1900001"
   id="rect1709"
   style="fill:url(#SVGID_347_)" />
</g>
<g
   id="g1726"
   transform="translate(-60.913256,-227.47697)">
	<defs
   id="defs1714"><path
     id="SVGID_348_"
     d="m 67.234,230.566 c 0.153,0.076 0.306,0.178 0.459,0.254 0.612,0.383 1.199,0.791 1.761,1.276 l -0.41,0.483 c -0.56,-0.841 -1.172,-1.454 -1.81,-2.013 m -1.784,-1.123 c -0.052,0.077 -0.026,0.205 0.05,0.255 0.178,0.153 0.382,0.306 0.586,0.459 0.969,0.791 1.939,1.581 2.73,2.908 0.076,0.102 0.203,0.127 0.306,0.051 0.026,0 0.051,-0.026 0.051,-0.051 l 0.739,-0.841 c 0.102,-0.104 0.076,-0.23 0,-0.307 -0.637,-0.562 -1.301,-1.046 -2.015,-1.455 -0.688,-0.434 -1.428,-0.79 -2.168,-1.122 -0.034,-0.014 -0.068,-0.02 -0.1,-0.02 -0.088,0.001 -0.161,0.048 -0.179,0.123" /></defs>
	<clipPath
   id="SVGID_349_">
		<use
   xlink:href="#SVGID_348_"
   overflow="visible"
   id="use1716" />
	</clipPath>
	
		<linearGradient
   id="SVGID_350_"
   gradientUnits="userSpaceOnUse"
   x1="0"
   y1="425.1929"
   x2="1"
   y2="425.1929"
   gradientTransform="matrix(4.5565,0,0,-4.5565,65.4233,2168.6577)">
		<stop
   offset="0"
   style="stop-color:#161730"
   id="stop1719" />
		<stop
   offset="1"
   style="stop-color:#242C5B"
   id="stop1721" />
	</linearGradient>
	<rect
   x="65.398003"
   y="229.321"
   clip-path="url(#SVGID_349_)"
   fill="url(#SVGID_350_)"
   width="4.6160002"
   height="3.8710001"
   id="rect1724"
   style="fill:url(#SVGID_350_)" />
</g>
<g
   id="g1741"
   transform="translate(-60.913256,-227.47697)">
	<defs
   id="defs1729"><path
     id="SVGID_351_"
     d="m 71.086,234.366 0.433,-0.485 c 0.561,0.485 1.046,1.021 1.505,1.607 0.102,0.128 0.205,0.255 0.306,0.382 -0.638,-0.536 -1.325,-1.072 -2.244,-1.504 m 0.255,-0.918 -0.766,0.867 c 0,0 -0.025,0.024 -0.025,0.051 -0.051,0.103 0,0.229 0.102,0.28 1.403,0.611 2.322,1.454 3.215,2.32 h 0.025 c 0.153,0.153 0.331,0.332 0.535,0.512 0.076,0.076 0.178,0.076 0.255,0.025 0.102,-0.052 0.154,-0.179 0.076,-0.281 -0.433,-0.715 -0.891,-1.377 -1.403,-2.015 -0.51,-0.638 -1.071,-1.25 -1.734,-1.786 -0.035,-0.034 -0.082,-0.054 -0.129,-0.054 -0.054,0.001 -0.11,0.026 -0.151,0.081" /></defs>
	<clipPath
   id="SVGID_352_">
		<use
   xlink:href="#SVGID_351_"
   overflow="visible"
   id="use1731" />
	</clipPath>
	
		<linearGradient
   id="SVGID_353_"
   gradientUnits="userSpaceOnUse"
   x1="0"
   y1="425.19479"
   x2="1"
   y2="425.19479"
   gradientTransform="matrix(4.2654,0,0,-4.2654,70.5286,2049.0728)">
		<stop
   offset="0"
   style="stop-color:#161730"
   id="stop1734" />
		<stop
   offset="1"
   style="stop-color:#242C5B"
   id="stop1736" />
	</linearGradient>
	<rect
   x="70.499001"
   y="233.368"
   clip-path="url(#SVGID_352_)"
   fill="url(#SVGID_353_)"
   width="4.3369999"
   height="4.1869998"
   id="rect1739"
   style="fill:url(#SVGID_353_)" />
</g>
<g
   id="g1756"
   transform="translate(-60.913256,-227.47697)">
	<defs
   id="defs1744"><path
     id="SVGID_354_"
     d="m 69.785,232.989 c -0.076,0.101 -0.051,0.229 0.025,0.306 l 0.562,0.485 c 0.102,0.076 0.228,0.076 0.306,0 0.075,-0.103 0.075,-0.231 -0.026,-0.307 l -0.561,-0.511 c -0.032,-0.031 -0.078,-0.046 -0.126,-0.046 -0.066,0.001 -0.136,0.028 -0.18,0.073" /></defs>
	<clipPath
   id="SVGID_355_">
		<use
   xlink:href="#SVGID_354_"
   overflow="visible"
   id="use1746" />
	</clipPath>
	
		<linearGradient
   id="SVGID_356_"
   gradientUnits="userSpaceOnUse"
   x1="0"
   y1="425.18701"
   x2="1"
   y2="425.18701"
   gradientTransform="matrix(0.9934,0,0,-0.9934,69.7381,655.7549)">
		<stop
   offset="0"
   style="stop-color:#161730"
   id="stop1749" />
		<stop
   offset="1"
   style="stop-color:#242C5B"
   id="stop1751" />
	</linearGradient>
	<rect
   x="69.709"
   y="232.91701"
   clip-path="url(#SVGID_355_)"
   fill="url(#SVGID_356_)"
   width="1.044"
   height="0.93900001"
   id="rect1754"
   style="fill:url(#SVGID_356_)" />
</g>
<g
   id="g1771"
   transform="translate(-60.913256,-227.47697)">
	<defs
   id="defs1759"><path
     id="SVGID_357_"
     d="m 62.797,241.482 -1.302,1.505 c -0.05,0.025 -0.076,0.127 -0.026,0.204 0.052,0.153 0.231,0.204 0.357,0.076 l 1.302,-1.504 c 0.025,-0.026 0.05,-0.128 0.025,-0.205 -0.031,-0.094 -0.11,-0.148 -0.195,-0.148 -0.055,0 -0.112,0.022 -0.161,0.072 m 1.121,-1.301 -0.28,0.332 c -0.025,0.051 -0.051,0.152 -0.025,0.203 0.05,0.153 0.229,0.204 0.356,0.076 l 0.281,-0.332 c 0.137,-0.136 0.004,-0.347 -0.168,-0.347 -0.053,0.001 -0.11,0.019 -0.164,0.068 m 2.27,-2.602 -1.402,1.633 c -0.204,0.179 0.101,0.484 0.306,0.281 l 1.428,-1.633 c 0.136,-0.136 0.004,-0.348 -0.169,-0.348 -0.053,0 -0.109,0.02 -0.163,0.067" /></defs>
	<clipPath
   id="SVGID_358_">
		<use
   xlink:href="#SVGID_357_"
   overflow="visible"
   id="use1761" />
	</clipPath>
	
		<linearGradient
   id="SVGID_359_"
   gradientUnits="userSpaceOnUse"
   x1="0"
   y1="425.19089"
   x2="1"
   y2="425.19089"
   gradientTransform="matrix(5.1349,0,0,-5.1349,61.4405,2423.7573)">
		<stop
   offset="0"
   style="stop-color:#161730"
   id="stop1764" />
		<stop
   offset="1"
   style="stop-color:#242C5B"
   id="stop1766" />
	</linearGradient>
	<rect
   x="61.418999"
   y="237.51199"
   clip-path="url(#SVGID_358_)"
   fill="url(#SVGID_359_)"
   width="5.237"
   height="5.8829999"
   id="rect1769"
   style="fill:url(#SVGID_359_)" />
</g>
<g
   id="g1786"
   transform="translate(-60.913256,-227.47697)">
	<defs
   id="defs1774"><path
     id="SVGID_360_"
     d="m 78.687,237.452 c 0,-0.179 0.05,-0.332 0.178,-0.434 0.102,-0.103 0.255,-0.179 0.433,-0.179 0.154,0 0.307,0.076 0.434,0.179 0.103,0.102 0.179,0.255 0.179,0.434 0,0.179 -0.076,0.332 -0.179,0.434 h -0.025 c -0.102,0.102 -0.255,0.18 -0.409,0.18 -0.178,0 -0.331,-0.078 -0.433,-0.18 H 78.84 c -0.103,-0.128 -0.153,-0.256 -0.153,-0.434 m -0.154,-0.74 c -0.178,0.179 -0.306,0.459 -0.306,0.739 0,0.28 0.128,0.535 0.306,0.739 v 0.025 c 0.204,0.18 0.46,0.308 0.765,0.308 0.282,0 0.537,-0.128 0.74,-0.308 v -0.025 c 0.204,-0.178 0.306,-0.433 0.306,-0.739 0,-0.28 -0.102,-0.561 -0.306,-0.739 -0.177,-0.205 -0.458,-0.306 -0.74,-0.306 -0.305,0.001 -0.561,0.101 -0.765,0.306" /></defs>
	<clipPath
   id="SVGID_361_">
		<use
   xlink:href="#SVGID_360_"
   overflow="visible"
   id="use1776" />
	</clipPath>
	
		<linearGradient
   id="SVGID_362_"
   gradientUnits="userSpaceOnUse"
   x1="0.00048828131"
   y1="425.19681"
   x2="1.0005"
   y2="425.19681"
   gradientTransform="matrix(2.1171,0,0,-2.1171,78.2263,1137.6699)">
		<stop
   offset="0"
   style="stop-color:#161730"
   id="stop1779" />
		<stop
   offset="1"
   style="stop-color:#242C5B"
   id="stop1781" />
	</linearGradient>
	<rect
   x="78.226997"
   y="236.407"
   clip-path="url(#SVGID_361_)"
   fill="url(#SVGID_362_)"
   width="2.1170001"
   height="2.1170001"
   id="rect1784"
   style="fill:url(#SVGID_362_)" />
</g>
<g
   id="g1801"
   transform="translate(-60.913256,-227.47697)">
	<defs
   id="defs1789"><path
     id="SVGID_363_"
     d="m 81.313,234.29 c -0.051,-0.051 -0.076,-0.129 -0.076,-0.204 0,-0.077 0.025,-0.128 0.076,-0.179 0.052,-0.051 0.102,-0.077 0.179,-0.077 0.077,0 0.153,0.026 0.205,0.077 0.05,0.051 0.076,0.127 0.076,0.179 0,0.075 -0.026,0.153 -0.076,0.204 -0.052,0.05 -0.128,0.076 -0.205,0.076 -0.077,0 -0.127,-0.027 -0.179,-0.076 m -0.331,-0.716 c -0.128,0.154 -0.204,0.333 -0.204,0.512 0,0.204 0.076,0.383 0.204,0.51 0.127,0.152 0.306,0.229 0.51,0.229 0.205,0 0.383,-0.077 0.51,-0.229 0.128,-0.127 0.204,-0.306 0.204,-0.51 0,-0.179 -0.05,-0.357 -0.178,-0.484 l -0.026,-0.027 c -0.127,-0.126 -0.305,-0.203 -0.51,-0.203 -0.179,-0.001 -0.357,0.076 -0.51,0.202" /></defs>
	<clipPath
   id="SVGID_364_">
		<use
   xlink:href="#SVGID_363_"
   overflow="visible"
   id="use1791" />
	</clipPath>
	
		<linearGradient
   id="SVGID_365_"
   gradientUnits="userSpaceOnUse"
   x1="0"
   y1="425.19681"
   x2="1"
   y2="425.19681"
   gradientTransform="matrix(1.4279,0,0,-1.4279,80.7781,841.2376)">
		<stop
   offset="0"
   style="stop-color:#161730"
   id="stop1794" />
		<stop
   offset="1"
   style="stop-color:#242C5B"
   id="stop1796" />
	</linearGradient>
	<rect
   x="80.778"
   y="233.371"
   clip-path="url(#SVGID_364_)"
   fill="url(#SVGID_365_)"
   width="1.428"
   height="1.454"
   id="rect1799"
   style="fill:url(#SVGID_365_)" />
</g>
<g
   id="g1816"
   transform="translate(-60.913256,-227.47697)">
	<defs
   id="defs1804"><path
     id="SVGID_366_"
     d="m 73.254,241.864 c -0.102,-0.127 -0.178,-0.254 -0.178,-0.433 0,-0.18 0.076,-0.332 0.178,-0.434 h 0.025 c 0.103,-0.103 0.256,-0.179 0.409,-0.179 0.179,0 0.332,0.076 0.433,0.179 h 0.025 c 0.102,0.127 0.153,0.254 0.153,0.434 0,0.179 -0.051,0.332 -0.178,0.433 -0.101,0.103 -0.254,0.179 -0.433,0.179 -0.153,-0.001 -0.306,-0.077 -0.434,-0.179 m -0.306,-1.198 v 0.025 c -0.205,0.179 -0.307,0.46 -0.307,0.74 0,0.279 0.102,0.561 0.307,0.738 0.204,0.205 0.459,0.332 0.74,0.332 0.305,0 0.56,-0.127 0.764,-0.306 v -0.026 c 0.179,-0.178 0.306,-0.459 0.306,-0.738 0,-0.28 -0.127,-0.562 -0.306,-0.74 -0.204,-0.204 -0.459,-0.331 -0.764,-0.331 -0.281,0 -0.536,0.127 -0.74,0.306" /></defs>
	<clipPath
   id="SVGID_367_">
		<use
   xlink:href="#SVGID_366_"
   overflow="visible"
   id="use1806" />
	</clipPath>
	
		<linearGradient
   id="SVGID_368_"
   gradientUnits="userSpaceOnUse"
   x1="0.00048828131"
   y1="425.19681"
   x2="1.0005"
   y2="425.19681"
   gradientTransform="matrix(2.1168,0,0,-2.1168,72.6401,1141.4885)">
		<stop
   offset="0"
   style="stop-color:#161730"
   id="stop1809" />
		<stop
   offset="1"
   style="stop-color:#242C5B"
   id="stop1811" />
	</linearGradient>
	<rect
   x="72.640999"
   y="240.36"
   clip-path="url(#SVGID_367_)"
   fill="url(#SVGID_368_)"
   width="2.1170001"
   height="2.142"
   id="rect1814"
   style="fill:url(#SVGID_368_)" />
</g>
<g
   id="g1831"
   transform="translate(-60.913256,-227.47697)">
	<defs
   id="defs1819"><path
     id="SVGID_369_"
     d="m 76.697,240.92 -0.026,-0.025 c -0.102,-0.103 -0.153,-0.255 -0.153,-0.408 0,-0.178 0.076,-0.332 0.179,-0.433 0.103,-0.103 0.255,-0.181 0.434,-0.181 0.152,0 0.305,0.078 0.433,0.181 0.101,0.101 0.179,0.255 0.179,0.433 0,0.179 -0.078,0.332 -0.179,0.434 -0.128,0.103 -0.281,0.179 -0.433,0.179 -0.179,-0.001 -0.331,-0.077 -0.434,-0.18 m -0.332,-1.198 c -0.178,0.205 -0.306,0.459 -0.306,0.765 0,0.281 0.128,0.536 0.306,0.739 0.204,0.205 0.46,0.307 0.766,0.307 0.28,0 0.534,-0.102 0.74,-0.307 0.203,-0.179 0.306,-0.458 0.306,-0.739 0,-0.28 -0.103,-0.56 -0.306,-0.739 v -0.025 c -0.179,-0.18 -0.46,-0.307 -0.74,-0.307 -0.306,0 -0.562,0.126 -0.766,0.306" /></defs>
	<clipPath
   id="SVGID_370_">
		<use
   xlink:href="#SVGID_369_"
   overflow="visible"
   id="use1821" />
	</clipPath>
	
		<linearGradient
   id="SVGID_371_"
   gradientUnits="userSpaceOnUse"
   x1="0"
   y1="425.19681"
   x2="1.0005"
   y2="425.19681"
   gradientTransform="matrix(2.1171,0,0,-2.1171,76.0588,1140.6768)">
		<stop
   offset="0"
   style="stop-color:#161730"
   id="stop1824" />
		<stop
   offset="1"
   style="stop-color:#242C5B"
   id="stop1826" />
	</linearGradient>
	<rect
   x="76.058998"
   y="239.416"
   clip-path="url(#SVGID_370_)"
   fill="url(#SVGID_371_)"
   width="2.118"
   height="2.1170001"
   id="rect1829"
   style="fill:url(#SVGID_371_)" />
</g>
<g
   id="g1846"
   transform="translate(-60.913256,-227.47697)">
	<defs
   id="defs1834"><path
     id="SVGID_372_"
     d="m 79.248,243.038 c -0.205,-0.204 -0.332,-0.484 -0.332,-0.791 0,-0.305 0.127,-0.587 0.332,-0.79 0.204,-0.205 0.484,-0.332 0.79,-0.332 0.306,0 0.587,0.127 0.791,0.332 0.204,0.203 0.331,0.485 0.331,0.79 0,0.307 -0.127,0.587 -0.331,0.791 -0.204,0.203 -0.485,0.331 -0.791,0.331 -0.306,0 -0.586,-0.128 -0.79,-0.331 m -0.332,-1.913 c -0.28,0.28 -0.459,0.688 -0.459,1.122 0,0.435 0.179,0.816 0.459,1.098 0.28,0.279 0.689,0.459 1.122,0.459 0.434,0 0.816,-0.18 1.097,-0.459 0.28,-0.281 0.459,-0.663 0.459,-1.098 0,-0.434 -0.153,-0.815 -0.434,-1.096 l -0.025,-0.026 c -0.281,-0.28 -0.663,-0.459 -1.097,-0.459 -0.433,0 -0.842,0.178 -1.122,0.459" /></defs>
	<clipPath
   id="SVGID_373_">
		<use
   xlink:href="#SVGID_372_"
   overflow="visible"
   id="use1836" />
	</clipPath>
	
		<linearGradient
   id="SVGID_374_"
   gradientUnits="userSpaceOnUse"
   x1="0.0009765625"
   y1="425.19681"
   x2="1.0005"
   y2="425.19681"
   gradientTransform="matrix(3.1375,0,0,-3.1375,78.4563,1576.2938)">
		<stop
   offset="0"
   style="stop-color:#161730"
   id="stop1839" />
		<stop
   offset="1"
   style="stop-color:#242C5B"
   id="stop1841" />
	</linearGradient>
	<rect
   x="78.457001"
   y="240.666"
   clip-path="url(#SVGID_373_)"
   fill="url(#SVGID_374_)"
   width="3.1370001"
   height="3.138"
   id="rect1844"
   style="fill:url(#SVGID_374_)" />
</g>
<g
   id="g1861"
   transform="translate(-60.913256,-227.47697)">
	<defs
   id="defs1849"><path
     id="SVGID_375_"
     d="m 78.916,243.344 c -0.28,-0.281 -0.459,-0.663 -0.459,-1.098 0,-0.434 0.179,-0.842 0.459,-1.122 0.28,-0.28 0.689,-0.459 1.122,-0.459 0.434,0 0.816,0.179 1.097,0.459 l 0.025,0.026 c 0.281,0.28 0.434,0.662 0.434,1.096 0,0.435 -0.179,0.816 -0.459,1.098 -0.281,0.279 -0.663,0.459 -1.097,0.459 -0.433,0 -0.842,-0.179 -1.122,-0.459 m -5.968,-1.175 c -0.205,-0.178 -0.307,-0.459 -0.307,-0.738 0,-0.28 0.102,-0.562 0.307,-0.74 v -0.025 c 0.204,-0.179 0.459,-0.306 0.74,-0.306 0.305,0 0.56,0.127 0.764,0.331 0.179,0.179 0.306,0.46 0.306,0.74 0,0.279 -0.127,0.561 -0.306,0.738 v 0.026 c -0.204,0.179 -0.459,0.306 -0.764,0.306 -0.281,0 -0.536,-0.126 -0.74,-0.332 m 3.417,-0.943 c -0.178,-0.203 -0.306,-0.458 -0.306,-0.739 0,-0.306 0.128,-0.56 0.306,-0.765 0.204,-0.18 0.46,-0.307 0.766,-0.307 0.28,0 0.561,0.127 0.74,0.307 v 0.025 c 0.203,0.18 0.306,0.459 0.306,0.739 0,0.281 -0.103,0.561 -0.306,0.739 -0.206,0.205 -0.46,0.307 -0.74,0.307 -0.306,10e-4 -0.562,-0.101 -0.766,-0.306 m 2.168,-3.01 v -0.025 c -0.178,-0.204 -0.306,-0.459 -0.306,-0.739 0,-0.28 0.128,-0.561 0.306,-0.739 0.204,-0.205 0.46,-0.306 0.765,-0.306 0.282,0 0.563,0.101 0.74,0.306 0.204,0.179 0.306,0.459 0.306,0.739 0,0.307 -0.102,0.562 -0.306,0.739 v 0.025 c -0.203,0.18 -0.458,0.308 -0.74,0.308 -0.305,0 -0.561,-0.128 -0.765,-0.308 m 2.449,-3.621 c -0.128,-0.127 -0.204,-0.306 -0.204,-0.51 0,-0.179 0.076,-0.357 0.204,-0.512 0.153,-0.126 0.331,-0.203 0.51,-0.203 0.205,0 0.383,0.077 0.51,0.203 l 0.026,0.027 c 0.128,0.127 0.178,0.306 0.178,0.484 0,0.204 -0.076,0.383 -0.204,0.51 -0.127,0.152 -0.305,0.229 -0.51,0.229 -0.204,0.002 -0.383,-0.075 -0.51,-0.228 m 0.178,-2.678 c -0.28,1.097 -0.56,2.091 -1.019,2.78 -0.639,0.943 -1.557,1.249 -3.24,0.228 v 0.053 c 0,0.688 0,2.065 -0.46,3.137 -0.509,1.199 -1.53,2.04 -3.647,1.199 -0.255,0.331 -0.458,0.688 -0.637,1.019 l -0.026,0.027 c -0.459,0.841 -0.892,1.632 -1.99,1.989 l -1.861,2.091 h 14.233 v -16.069 c -0.664,0.995 -1.021,2.322 -1.353,3.546" /></defs>
	<clipPath
   id="SVGID_376_">
		<use
   xlink:href="#SVGID_375_"
   overflow="visible"
   id="use1851" />
	</clipPath>
	
		<linearGradient
   id="SVGID_377_"
   gradientUnits="userSpaceOnUse"
   x1="0"
   y1="425.19681"
   x2="1"
   y2="425.19681"
   gradientTransform="matrix(14.2326,0,0,-14.2326,68.2827,6288.0415)">
		<stop
   offset="0"
   style="stop-color:#F7A715"
   id="stop1854" />
		<stop
   offset="1"
   style="stop-color:#FDC623"
   id="stop1856" />
	</linearGradient>
	<rect
   x="68.279999"
   y="228.371"
   clip-path="url(#SVGID_376_)"
   fill="url(#SVGID_377_)"
   width="14.233"
   height="16.069"
   id="rect1859"
   style="fill:url(#SVGID_377_)" />
</g>





























































































































































</svg>
