<?xml version="1.0" encoding="UTF-8" standalone="no"?>
<!-- Generator: Adobe Illustrator 13.0.0, SVG Export Plug-In . SVG Version: 6.00 Build 14948)  -->

<svg
   version="1.1"
   id="Layer_1"
   x="0px"
   y="0px"
   width="15.864998"
   height="22.037003"
   viewBox="0 0 15.864997 22.037003"
   enable-background="new 0 0 187.087 425.197"
   xml:space="preserve"
   sodipodi:docname="sfondo_cell.svg"
   xmlns:inkscape="http://www.inkscape.org/namespaces/inkscape"
   xmlns:sodipodi="http://sodipodi.sourceforge.net/DTD/sodipodi-0.dtd"
   xmlns:xlink="http://www.w3.org/1999/xlink"
   xmlns="http://www.w3.org/2000/svg"
   xmlns:svg="http://www.w3.org/2000/svg"><defs
   id="defs4221" /><sodipodi:namedview
   id="namedview4219"
   pagecolor="#ffffff"
   bordercolor="#000000"
   borderopacity="0.25"
   inkscape:showpageshadow="2"
   inkscape:pageopacity="0.0"
   inkscape:pagecheckerboard="0"
   inkscape:deskcolor="#d1d1d1"
   showgrid="false" />


























































<g
   id="g796"
   transform="translate(-23.683999,-131.936)">
	<defs
   id="defs784"><path
     id="SVGID_162_"
     d="m 35.314,134.002 c -0.128,0 -0.229,0.102 -0.229,0.229 0,0.102 0.101,0.205 0.229,0.205 h 3.8 v 1.632 l -4.744,1.989 c -0.102,0.052 -0.178,0.102 -0.203,0.179 -0.052,0.076 -0.077,0.178 -0.102,0.254 v 1.812 c 0,0.127 0.102,0.23 0.229,0.23 0.102,0 0.205,-0.103 0.205,-0.23 v -1.786 c 0,-0.026 0.025,-0.026 0.025,-0.051 l 0.026,-0.025 4.871,-2.015 c 0.077,-0.051 0.128,-0.128 0.128,-0.205 v -1.989 c 0,-0.127 -0.103,-0.229 -0.205,-0.229 z" /></defs>
	<clipPath
   id="SVGID_163_">
		<use
   xlink:href="#SVGID_162_"
   overflow="visible"
   id="use786" />
	</clipPath>
	
		<linearGradient
   id="SVGID_164_"
   gradientUnits="userSpaceOnUse"
   x1="-0.00048828131"
   y1="425.19681"
   x2="0.99949998"
   y2="425.19681"
   gradientTransform="matrix(5.4843,0,0,-5.4843,34.065,2469.1553)">
		<stop
   offset="0"
   style="stop-color:#161730"
   id="stop789" />
		<stop
   offset="1"
   style="stop-color:#242C5B"
   id="stop791" />
	</linearGradient>
	<rect
   x="34.064999"
   y="134.002"
   clip-path="url(#SVGID_163_)"
   fill="url(#SVGID_164_)"
   width="5.4840002"
   height="6.5300002"
   id="rect794"
   style="fill:url(#SVGID_164_)" />
</g>
<g
   id="g811"
   transform="translate(-23.683999,-131.936)">
	<defs
   id="defs799"><path
     id="SVGID_165_"
     d="m 24.653,135.456 v -0.026 c -0.331,-0.307 -0.535,-0.766 -0.535,-1.25 0,-0.51 0.204,-0.943 0.535,-1.275 0.333,-0.331 0.791,-0.536 1.276,-0.536 h 7.345 c 0.511,0 0.969,0.205 1.276,0.536 0.33,0.332 0.535,0.765 0.535,1.275 0,0.484 -0.205,0.943 -0.535,1.276 -0.332,0.332 -0.765,0.535 -1.276,0.535 h -7.345 c -0.485,0 -0.943,-0.203 -1.276,-0.535 m 1.276,-3.52 c -0.613,0 -1.174,0.254 -1.582,0.663 -0.409,0.408 -0.663,0.969 -0.663,1.581 0,0.612 0.254,1.148 0.663,1.555 v 0.027 c 0.408,0.407 0.969,0.663 1.582,0.663 h 7.345 c 0.613,0 1.173,-0.256 1.581,-0.663 0.408,-0.408 0.664,-0.97 0.664,-1.582 0,-0.612 -0.256,-1.173 -0.664,-1.581 -0.383,-0.409 -0.943,-0.663 -1.581,-0.663 z" /></defs>
	<clipPath
   id="SVGID_166_">
		<use
   xlink:href="#SVGID_165_"
   overflow="visible"
   id="use801" />
	</clipPath>
	
		<linearGradient
   id="SVGID_167_"
   gradientUnits="userSpaceOnUse"
   x1="0"
   y1="425.19681"
   x2="1"
   y2="425.19681"
   gradientTransform="matrix(11.8354,0,0,-11.8354,23.6869,5166.5459)">
		<stop
   offset="0"
   style="stop-color:#161730"
   id="stop804" />
		<stop
   offset="1"
   style="stop-color:#242C5B"
   id="stop806" />
	</linearGradient>
	<rect
   x="23.684"
   y="131.936"
   clip-path="url(#SVGID_166_)"
   fill="url(#SVGID_167_)"
   width="11.835"
   height="4.4889998"
   id="rect809"
   style="fill:url(#SVGID_167_)" />
</g>
<g
   id="g826"
   transform="translate(-23.683999,-131.936)">
	<defs
   id="defs814"><path
     id="SVGID_168_"
     d="m 24.016,133.951 c -0.078,0 -0.179,0.076 -0.206,0.128 -0.075,0.152 0.052,0.306 0.206,0.306 h 2.142 c 0.102,0 0.179,-0.052 0.204,-0.103 0.076,-0.153 -0.025,-0.331 -0.204,-0.331 z m 3.443,0 c -0.076,0 -0.153,0.076 -0.179,0.128 -0.077,0.152 0.026,0.306 0.179,0.306 h 0.434 c 0.076,0 0.178,-0.052 0.203,-0.103 0.077,-0.153 -0.05,-0.331 -0.203,-0.331 z m 1.734,0 c -0.076,0 -0.178,0.076 -0.204,0.128 -0.05,0.152 0.051,0.306 0.204,0.306 h 2.168 c 0.076,0 0.153,-0.052 0.179,-0.103 0.076,-0.153 -0.026,-0.331 -0.179,-0.331 z m 3.444,0 c -0.077,0 -0.154,0.076 -0.179,0.128 -0.077,0.152 0.025,0.306 0.179,0.306 h 0.331 c 0.076,0 0.178,-0.052 0.204,-0.103 0.051,-0.153 -0.051,-0.331 -0.204,-0.331 z" /></defs>
	<clipPath
   id="SVGID_169_">
		<use
   xlink:href="#SVGID_168_"
   overflow="visible"
   id="use816" />
	</clipPath>
	
		<linearGradient
   id="SVGID_170_"
   gradientUnits="userSpaceOnUse"
   x1="0"
   y1="425.19681"
   x2="1"
   y2="425.19681"
   gradientTransform="matrix(9.3971,0,0,-9.3971,23.7865,4129.7734)">
		<stop
   offset="0"
   style="stop-color:#161730"
   id="stop819" />
		<stop
   offset="1"
   style="stop-color:#242C5B"
   id="stop821" />
	</linearGradient>
	<rect
   x="23.735001"
   y="133.951"
   clip-path="url(#SVGID_169_)"
   fill="url(#SVGID_170_)"
   width="9.4879999"
   height="0.43399999"
   id="rect824"
   style="fill:url(#SVGID_170_)" />
</g>
<g
   id="g841"
   transform="translate(-23.683999,-131.936)">
	<defs
   id="defs829"><path
     id="SVGID_171_"
     d="m 33.274,153.105 c -0.281,-0.28 -0.433,-0.662 -0.433,-1.071 v -11.502 h 2.983 v 11.502 c 0,0.409 -0.178,0.791 -0.433,1.071 h -0.026 c -0.254,0.256 -0.637,0.434 -1.045,0.434 -0.408,0 -0.791,-0.178 -1.046,-0.434 m -0.663,-13.007 c -0.128,0 -0.205,0.102 -0.205,0.204 v 11.732 c 0,0.536 0.205,1.021 0.562,1.378 0.357,0.332 0.817,0.561 1.352,0.561 0.535,0 0.994,-0.229 1.351,-0.561 h 0.027 c 0.331,-0.357 0.56,-0.842 0.56,-1.378 v -11.732 c 0,-0.102 -0.102,-0.204 -0.229,-0.204 z" /></defs>
	<clipPath
   id="SVGID_172_">
		<use
   xlink:href="#SVGID_171_"
   overflow="visible"
   id="use831" />
	</clipPath>
	
		<linearGradient
   id="SVGID_173_"
   gradientUnits="userSpaceOnUse"
   x1="-0.00048828131"
   y1="425.19681"
   x2="0.99949998"
   y2="425.19681"
   gradientTransform="matrix(3.8518,0,0,-3.8518,32.4062,1784.8021)">
		<stop
   offset="0"
   style="stop-color:#161730"
   id="stop834" />
		<stop
   offset="1"
   style="stop-color:#242C5B"
   id="stop836" />
	</linearGradient>
	<rect
   x="32.405998"
   y="140.09801"
   clip-path="url(#SVGID_172_)"
   fill="url(#SVGID_173_)"
   width="3.852"
   height="13.875"
   id="rect839"
   style="fill:url(#SVGID_173_)" />
</g>
<g
   id="g856"
   transform="translate(-23.683999,-131.936)">
	<defs
   id="defs844"><path
     id="SVGID_174_"
     d="m 24.219,146.373 v 2.04 c 0,0.102 0.103,0.204 0.204,0.204 0.127,0 0.23,-0.102 0.23,-0.204 v -2.04 c 0,-0.103 -0.103,-0.205 -0.23,-0.205 -0.101,0 -0.204,0.102 -0.204,0.205 m 0,-8.417 v 7.371 c 0,0.127 0.103,0.204 0.204,0.204 0.127,0 0.23,-0.077 0.23,-0.204 v -7.371 c 0,-0.128 -0.103,-0.231 -0.23,-0.231 -0.101,0 -0.204,0.103 -0.204,0.231" /></defs>
	<clipPath
   id="SVGID_175_">
		<use
   xlink:href="#SVGID_174_"
   overflow="visible"
   id="use846" />
	</clipPath>
	
		<linearGradient
   id="SVGID_176_"
   gradientUnits="userSpaceOnUse"
   x1="0"
   y1="425.19681"
   x2="1"
   y2="425.19681"
   gradientTransform="matrix(0.4336,0,0,-0.4336,24.2193,327.5152)">
		<stop
   offset="0"
   style="stop-color:#161730"
   id="stop849" />
		<stop
   offset="1"
   style="stop-color:#242C5B"
   id="stop851" />
	</linearGradient>
	<rect
   x="24.219"
   y="137.72501"
   clip-path="url(#SVGID_175_)"
   fill="url(#SVGID_176_)"
   width="0.43399999"
   height="10.892"
   id="rect854"
   style="fill:url(#SVGID_176_)" />
</g>
<g
   id="g871"
   transform="translate(-23.683999,-131.936)">
	<defs
   id="defs859"><path
     id="SVGID_177_"
     d="m 27.842,145.531 v 1.479 c 0,0.128 0.076,0.229 0.204,0.229 0.127,0 0.228,-0.101 0.228,-0.229 v -1.479 c 0,-0.128 -0.101,-0.204 -0.228,-0.204 -0.128,0 -0.204,0.076 -0.204,0.204 m 0,-6.198 v 5.432 c 0,0.103 0.076,0.204 0.204,0.204 0.127,0 0.228,-0.101 0.228,-0.204 v -5.432 c 0,-0.128 -0.101,-0.205 -0.228,-0.205 -0.128,0 -0.204,0.077 -0.204,0.205" /></defs>
	<clipPath
   id="SVGID_178_">
		<use
   xlink:href="#SVGID_177_"
   overflow="visible"
   id="use861" />
	</clipPath>
	
		<linearGradient
   id="SVGID_179_"
   gradientUnits="userSpaceOnUse"
   x1="0"
   y1="425.1987"
   x2="1"
   y2="425.1987"
   gradientTransform="matrix(0.4332,0,0,-0.4332,27.8411,327.3815)">
		<stop
   offset="0"
   style="stop-color:#161730"
   id="stop864" />
		<stop
   offset="1"
   style="stop-color:#242C5B"
   id="stop866" />
	</linearGradient>
	<rect
   x="27.841999"
   y="139.12801"
   clip-path="url(#SVGID_178_)"
   fill="url(#SVGID_179_)"
   width="0.43200001"
   height="8.1110001"
   id="rect869"
   style="fill:url(#SVGID_179_)" />
</g>
<g
   id="g886"
   transform="translate(-23.683999,-131.936)">
	<defs
   id="defs874"><path
     id="SVGID_180_"
     d="m 34.652,149.076 v 2.142 c 0,0.103 0.05,0.178 0.128,0.204 0.152,0.077 0.305,-0.026 0.305,-0.204 v -2.142 c 0,-0.076 -0.052,-0.179 -0.128,-0.204 -0.026,-0.016 -0.055,-0.023 -0.083,-0.023 -0.11,0 -0.222,0.106 -0.222,0.227 m 0,-1.734 v 0.433 c 0,0.077 0.05,0.178 0.128,0.204 0.152,0.051 0.305,-0.051 0.305,-0.204 v -0.433 c 0,-0.077 -0.052,-0.179 -0.128,-0.204 -0.023,-0.01 -0.047,-0.014 -0.071,-0.014 -0.114,0 -0.234,0.092 -0.234,0.218 m 0,-3.444 v 2.142 c 0,0.077 0.05,0.179 0.128,0.205 0.152,0.076 0.305,-0.052 0.305,-0.205 v -2.142 c 0,-0.102 -0.052,-0.179 -0.128,-0.204 -0.029,-0.017 -0.061,-0.026 -0.093,-0.026 -0.106,0 -0.212,0.092 -0.212,0.23" /></defs>
	<clipPath
   id="SVGID_181_">
		<use
   xlink:href="#SVGID_180_"
   overflow="visible"
   id="use876" />
	</clipPath>
	
		<linearGradient
   id="SVGID_182_"
   gradientUnits="userSpaceOnUse"
   x1="0"
   y1="425.13821"
   x2="0.99900001"
   y2="425.13821"
   gradientTransform="matrix(0.4336,0,0,-0.4336,34.6511,331.9196)">
		<stop
   offset="0"
   style="stop-color:#161730"
   id="stop879" />
		<stop
   offset="1"
   style="stop-color:#242C5B"
   id="stop881" />
	</linearGradient>
	<rect
   x="34.652"
   y="143.668"
   clip-path="url(#SVGID_181_)"
   fill="url(#SVGID_182_)"
   width="0.433"
   height="7.8309999"
   id="rect884"
   style="fill:url(#SVGID_182_)" />
</g>
<g
   id="g901"
   transform="translate(-23.683999,-131.936)">
	<defs
   id="defs889"><path
     id="SVGID_183_"
     d="m 27.28,134.079 c 0.026,-0.052 0.103,-0.128 0.179,-0.128 h 0.434 c 0.153,0 0.28,0.178 0.203,0.331 -0.025,0.051 -0.127,0.103 -0.203,0.103 h -0.434 c -0.153,0 -0.256,-0.154 -0.179,-0.306 m 1.709,0 c 0.026,-0.052 0.128,-0.128 0.204,-0.128 h 2.168 c 0.153,0 0.255,0.178 0.179,0.331 -0.026,0.051 -0.103,0.103 -0.179,0.103 h -2.168 c -0.153,0 -0.254,-0.154 -0.204,-0.306 m 3.469,0 c 0.025,-0.052 0.102,-0.128 0.179,-0.128 h 0.331 c 0.153,0 0.255,0.178 0.204,0.331 -0.026,0.051 -0.128,0.103 -0.204,0.103 h -0.331 c -0.154,0 -0.256,-0.154 -0.179,-0.306 m -6.529,-1.71 c -0.485,0 -0.943,0.205 -1.276,0.536 -0.281,0.281 -0.459,0.637 -0.51,1.046 h 2.015 c 0.179,0 0.28,0.178 0.204,0.331 -0.025,0.051 -0.102,0.103 -0.204,0.103 h -2.015 c 0.051,0.407 0.229,0.79 0.51,1.045 v 0.026 c 0.333,0.332 0.791,0.535 1.276,0.535 h 7.345 c 0.511,0 0.944,-0.203 1.276,-0.535 0.33,-0.333 0.535,-0.766 0.535,-1.225 v -0.051 c 0,-0.51 -0.205,-0.943 -0.535,-1.275 -0.307,-0.331 -0.765,-0.536 -1.276,-0.536 z" /></defs>
	<clipPath
   id="SVGID_184_">
		<use
   xlink:href="#SVGID_183_"
   overflow="visible"
   id="use891" />
	</clipPath>
	
		<linearGradient
   id="SVGID_185_"
   gradientUnits="userSpaceOnUse"
   x1="0.0009765625"
   y1="425.19681"
   x2="1.001"
   y2="425.19681"
   gradientTransform="matrix(10.9419,0,0,-10.9419,24.1395,4786.627)">
		<stop
   offset="0"
   style="stop-color:#F7A715"
   id="stop894" />
		<stop
   offset="1"
   style="stop-color:#FDC623"
   id="stop896" />
	</linearGradient>
	<rect
   x="24.143"
   y="132.369"
   clip-path="url(#SVGID_184_)"
   fill="url(#SVGID_185_)"
   width="10.942"
   height="3.622"
   id="rect899"
   style="fill:url(#SVGID_185_)" />
</g>





























































































































































































































</svg>
