<?xml version="1.0" encoding="UTF-8" standalone="no"?>
<!-- Generator: Adobe Illustrator 13.0.0, SVG Export Plug-In . SVG Version: 6.00 Build 14948)  -->

<svg
   version="1.1"
   id="Layer_1"
   x="0px"
   y="0px"
   width="20.909363"
   height="19.339996"
   viewBox="0 0 20.909362 19.339997"
   enable-background="new 0 0 187.087 425.197"
   xml:space="preserve"
   sodipodi:docname="sfondo_cell.svg"
   xmlns:inkscape="http://www.inkscape.org/namespaces/inkscape"
   xmlns:sodipodi="http://sodipodi.sourceforge.net/DTD/sodipodi-0.dtd"
   xmlns:xlink="http://www.w3.org/1999/xlink"
   xmlns="http://www.w3.org/2000/svg"
   xmlns:svg="http://www.w3.org/2000/svg"><defs
   id="defs4221" /><sodipodi:namedview
   id="namedview4219"
   pagecolor="#ffffff"
   bordercolor="#000000"
   borderopacity="0.25"
   inkscape:showpageshadow="2"
   inkscape:pageopacity="0.0"
   inkscape:pagecheckerboard="0"
   inkscape:deskcolor="#d1d1d1"
   showgrid="false" />






























































































































































































































<g
   id="g3256"
   transform="translate(-62.195002,-320.77999)">
	<defs
   id="defs3244"><path
     id="SVGID_654_"
     d="m 80.609,324.409 c -0.254,-0.102 -0.51,-0.256 -0.714,-0.434 -0.204,-0.18 -0.382,-0.409 -0.51,-0.663 -0.28,-0.612 -0.28,-1.353 0.281,-2.067 l 2.958,2.653 c -0.445,0.427 -0.939,0.605 -1.414,0.605 -0.206,0 -0.408,-0.033 -0.601,-0.094 m -1.121,-3.572 v 0.025 c -0.765,0.867 -0.817,1.837 -0.435,2.602 0.128,0.307 0.332,0.586 0.587,0.791 0.255,0.229 0.536,0.407 0.868,0.51 0.791,0.28 1.76,0.128 2.55,-0.766 0.077,-0.076 0.051,-0.204 -0.026,-0.255 l -3.264,-2.907 c -0.038,-0.039 -0.089,-0.058 -0.14,-0.058 -0.051,10e-4 -0.102,0.019 -0.14,0.058" /></defs>
	<clipPath
   id="SVGID_655_">
		<use
   xlink:href="#SVGID_654_"
   overflow="visible"
   id="use3246" />
	</clipPath>
	
		<linearGradient
   id="SVGID_656_"
   gradientUnits="userSpaceOnUse"
   x1="0"
   y1="425.1792"
   x2="1"
   y2="425.1792"
   gradientTransform="matrix(4.2833,0,0,-4.2833,78.8231,2144.0864)">
		<stop
   offset="0"
   style="stop-color:#161730"
   id="stop3249" />
		<stop
   offset="1"
   style="stop-color:#242C5B"
   id="stop3251" />
	</linearGradient>
	<rect
   x="78.670998"
   y="320.78"
   clip-path="url(#SVGID_655_)"
   fill="url(#SVGID_656_)"
   width="4.4640002"
   height="4.2659998"
   id="rect3254"
   style="fill:url(#SVGID_656_)" />
</g>
<g
   id="g3271"
   transform="translate(-62.195002,-320.77999)">
	<defs
   id="defs3259"><path
     id="SVGID_657_"
     d="m 73.468,331.218 c -0.077,-0.076 -0.153,-0.203 -0.179,-0.306 0,-0.103 0.026,-0.179 0.076,-0.256 l 5.943,-6.708 c 0.129,0.128 0.23,0.23 0.332,0.307 l 0.026,0.025 c 0.102,0.076 0.204,0.178 0.331,0.255 l -2.831,3.163 -3.137,3.545 c -0.051,0.077 -0.153,0.103 -0.255,0.103 -0.103,0 -0.204,-0.052 -0.306,-0.128 m 5.713,-7.677 -6.096,6.862 c -0.153,0.152 -0.178,0.355 -0.153,0.561 0.026,0.204 0.128,0.408 0.281,0.535 0.178,0.153 0.383,0.229 0.561,0.229 0.204,0 0.408,-0.076 0.535,-0.229 l 6.097,-6.836 0.025,-0.024 c 0.051,-0.103 0.026,-0.204 -0.051,-0.281 -0.179,-0.127 -0.332,-0.255 -0.459,-0.357 l -0.026,-0.024 c -0.152,-0.128 -0.28,-0.281 -0.433,-0.435 h -0.025 c -0.039,-0.038 -0.09,-0.057 -0.138,-0.057 -0.048,-0.001 -0.093,0.017 -0.118,0.056" /></defs>
	<clipPath
   id="SVGID_658_">
		<use
   xlink:href="#SVGID_657_"
   overflow="visible"
   id="use3261" />
	</clipPath>
	
		<linearGradient
   id="SVGID_659_"
   gradientUnits="userSpaceOnUse"
   x1="0"
   y1="425.19681"
   x2="1"
   y2="425.19681"
   gradientTransform="matrix(7.5341,0,0,-7.5341,72.9234,3531.0869)">
		<stop
   offset="0"
   style="stop-color:#161730"
   id="stop3264" />
		<stop
   offset="1"
   style="stop-color:#242C5B"
   id="stop3266" />
	</linearGradient>
	<rect
   x="72.906998"
   y="323.48401"
   clip-path="url(#SVGID_658_)"
   fill="url(#SVGID_659_)"
   width="7.5749998"
   height="8.2440004"
   id="rect3269"
   style="fill:url(#SVGID_659_)" />
</g>
<g
   id="g3286"
   transform="translate(-62.195002,-320.77999)">
	<defs
   id="defs3274"><path
     id="SVGID_660_"
     d="m 72.984,332.493 c -0.588,-0.534 -1.123,-1.045 -2.118,-1.299 v -0.409 l 2.041,-2.296 1.046,0.918 -0.868,0.996 c -0.127,0.152 -0.178,0.355 -0.153,0.561 0.026,0.179 0.102,0.383 0.281,0.511 v 0.024 c 0.178,0.153 0.383,0.229 0.561,0.229 0.204,0 0.408,-0.076 0.535,-0.229 l 0.893,-0.995 1.046,0.944 -1.887,2.116 c -0.638,-0.203 -1.046,-0.611 -1.377,-1.071 m -0.231,-4.411 -2.218,2.499 c -0.026,0.025 -0.051,0.076 -0.051,0.127 v 0.333 0.306 c 0,0.102 0.051,0.178 0.153,0.202 0.969,0.205 1.504,0.69 2.091,1.226 0.434,0.409 0.893,0.842 1.581,1.225 0.078,0.025 0.179,0 0.231,-0.051 l 2.117,-2.373 c 0.076,-0.101 0.076,-0.203 0,-0.28 l -1.353,-1.197 c -0.077,-0.053 -0.204,-0.053 -0.28,0.024 l -0.995,1.122 c -0.051,0.077 -0.153,0.103 -0.23,0.103 -0.102,0 -0.229,-0.052 -0.331,-0.128 -0.103,-0.102 -0.153,-0.203 -0.179,-0.306 0,-0.103 0.026,-0.179 0.076,-0.256 l 0.996,-1.122 c 0.076,-0.076 0.076,-0.203 0,-0.28 l -1.352,-1.173 c -0.038,-0.039 -0.089,-0.058 -0.137,-0.058 -0.048,0 -0.093,0.017 -0.119,0.057" /></defs>
	<clipPath
   id="SVGID_661_">
		<use
   xlink:href="#SVGID_660_"
   overflow="visible"
   id="use3276" />
	</clipPath>
	
		<linearGradient
   id="SVGID_662_"
   gradientUnits="userSpaceOnUse"
   x1="0"
   y1="425.1958"
   x2="1"
   y2="425.1958"
   gradientTransform="matrix(6.2303,0,0,-6.2303,70.484,2980.1409)">
		<stop
   offset="0"
   style="stop-color:#161730"
   id="stop3279" />
		<stop
   offset="1"
   style="stop-color:#242C5B"
   id="stop3281" />
	</linearGradient>
	<rect
   x="70.484001"
   y="328.02399"
   clip-path="url(#SVGID_661_)"
   fill="url(#SVGID_662_)"
   width="6.2490001"
   height="6"
   id="rect3284"
   style="fill:url(#SVGID_662_)" />
</g>
<g
   id="g3301"
   transform="translate(-62.195002,-320.77999)">
	<defs
   id="defs3289"><path
     id="SVGID_663_"
     d="m 75.739,328.413 c -0.409,0.434 -0.792,0.867 -1.174,1.3 -0.153,0.153 0.102,0.435 0.281,0.257 0.381,-0.435 0.765,-0.894 1.146,-1.302 0.137,-0.136 0.022,-0.315 -0.119,-0.315 -0.045,-0.001 -0.092,0.017 -0.134,0.06 m 0.969,-1.096 -0.23,0.279 c -0.18,0.152 0.076,0.408 0.255,0.229 l 0.255,-0.28 c 0.116,-0.115 -0.002,-0.291 -0.144,-0.291 -0.045,0 -0.093,0.019 -0.136,0.063 m 1.963,-2.22 c -0.408,0.459 -0.816,0.918 -1.223,1.377 -0.154,0.179 0.101,0.434 0.254,0.256 h 0.026 c 0.407,-0.459 0.816,-0.919 1.224,-1.377 0.118,-0.118 -0.008,-0.313 -0.153,-0.313 -0.043,0 -0.088,0.016 -0.128,0.057" /></defs>
	<clipPath
   id="SVGID_664_">
		<use
   xlink:href="#SVGID_663_"
   overflow="visible"
   id="use3291" />
	</clipPath>
	
		<linearGradient
   id="SVGID_665_"
   gradientUnits="userSpaceOnUse"
   x1="0"
   y1="425.18311"
   x2="1"
   y2="425.18311"
   gradientTransform="matrix(4.4807,0,0,-4.4807,74.5178,2232.7073)">
		<stop
   offset="0"
   style="stop-color:#161730"
   id="stop3294" />
		<stop
   offset="1"
   style="stop-color:#242C5B"
   id="stop3296" />
	</linearGradient>
	<rect
   x="74.412003"
   y="325.04001"
   clip-path="url(#SVGID_664_)"
   fill="url(#SVGID_665_)"
   width="4.658"
   height="5.1069999"
   id="rect3299"
   style="fill:url(#SVGID_665_)" />
</g>
<g
   id="g3316"
   transform="translate(-62.195002,-320.77999)">
	<defs
   id="defs3304"><path
     id="SVGID_666_"
     d="m 63.239,339.074 c -0.407,-0.408 -0.662,-0.969 -0.662,-1.581 0.383,-1.964 1.096,-3.494 2.245,-4.514 1.147,-1.021 2.677,-1.531 4.692,-1.531 1.021,0 1.761,0.204 2.373,0.587 0.586,0.408 1.02,0.944 1.402,1.633 0.026,0.052 0.076,0.075 0.128,0.075 0.408,0.078 0.791,0.205 1.123,0.409 0.356,0.203 0.662,0.459 0.917,0.765 0.051,0.052 0.103,0.077 0.179,0.077 l 0.612,-0.052 c 0.281,-0.025 0.689,-0.153 1.096,-0.306 0.485,-0.153 0.995,-0.307 1.404,-0.357 0.458,-0.025 0.816,0.128 0.867,0.766 0,0.103 0.076,0.179 0.178,0.179 h 0.204 c 0.638,0 1.199,0.255 1.608,0.663 0.407,0.407 0.663,0.97 0.663,1.58 0,0.639 -0.256,1.199 -0.663,1.607 -0.409,0.409 -0.97,0.664 -1.608,0.664 h -15.15 c -0.612,0 -1.199,-0.255 -1.608,-0.664 m 1.327,-6.376 c -1.199,1.072 -1.989,2.678 -2.371,4.718 v 0.051 c 0,0.74 0.306,1.404 0.79,1.889 0.459,0.484 1.122,0.765 1.862,0.765 h 15.15 c 0.74,0 1.378,-0.28 1.862,-0.765 0.486,-0.484 0.792,-1.148 0.792,-1.889 0,-0.714 -0.306,-1.376 -0.766,-1.835 l -0.026,-0.025 c -0.459,-0.485 -1.122,-0.766 -1.862,-0.766 h -0.025 c -0.128,-0.765 -0.613,-0.97 -1.249,-0.944 -0.46,0.052 -0.995,0.229 -1.48,0.383 -0.408,0.128 -0.765,0.255 -1.046,0.281 l -0.51,0.051 c -0.281,-0.307 -0.587,-0.587 -0.944,-0.79 -0.356,-0.205 -0.765,-0.358 -1.173,-0.435 -0.383,-0.688 -0.842,-1.249 -1.479,-1.658 -0.663,-0.434 -1.48,-0.662 -2.577,-0.662 -2.09,-0.001 -3.749,0.559 -4.948,1.631" /></defs>
	<clipPath
   id="SVGID_667_">
		<use
   xlink:href="#SVGID_666_"
   overflow="visible"
   id="use3306" />
	</clipPath>
	
		<linearGradient
   id="SVGID_668_"
   gradientUnits="userSpaceOnUse"
   x1="0"
   y1="425.19681"
   x2="1"
   y2="425.19681"
   gradientTransform="matrix(20.4563,0,0,-20.4563,62.197,9033.541)">
		<stop
   offset="0"
   style="stop-color:#161730"
   id="stop3309" />
		<stop
   offset="1"
   style="stop-color:#242C5B"
   id="stop3311" />
	</linearGradient>
	<rect
   x="62.195"
   y="331.06601"
   clip-path="url(#SVGID_667_)"
   fill="url(#SVGID_668_)"
   width="20.455999"
   height="9.0539999"
   id="rect3314"
   style="fill:url(#SVGID_668_)" />
</g>
<g
   id="g3331"
   transform="translate(-62.195002,-320.77999)">
	<defs
   id="defs3319"><path
     id="SVGID_669_"
     d="m 66.556,334.968 c -0.179,-0.18 -0.281,-0.435 -0.281,-0.689 0,-0.28 0.102,-0.536 0.281,-0.715 0.178,-0.178 0.433,-0.28 0.715,-0.28 0.279,0 0.509,0.103 0.687,0.28 0.179,0.179 0.307,0.435 0.307,0.715 0,0.255 -0.128,0.51 -0.307,0.689 -0.178,0.179 -0.408,0.279 -0.687,0.279 -0.282,10e-4 -0.537,-0.1 -0.715,-0.279 m -0.255,-1.657 c -0.255,0.228 -0.408,0.585 -0.408,0.968 0,0.383 0.153,0.715 0.408,0.969 0.255,0.23 0.586,0.409 0.97,0.409 0.381,0 0.713,-0.179 0.968,-0.409 0.256,-0.254 0.408,-0.586 0.408,-0.969 0,-0.383 -0.152,-0.74 -0.408,-0.968 -0.255,-0.256 -0.587,-0.409 -0.968,-0.409 -0.384,0 -0.715,0.153 -0.97,0.409" /></defs>
	<clipPath
   id="SVGID_670_">
		<use
   xlink:href="#SVGID_669_"
   overflow="visible"
   id="use3321" />
	</clipPath>
	
		<linearGradient
   id="SVGID_671_"
   gradientUnits="userSpaceOnUse"
   x1="0.00048828131"
   y1="425.19681"
   x2="1.0005"
   y2="425.19681"
   gradientTransform="matrix(2.7543,0,0,-2.7543,65.8923,1505.4174)">
		<stop
   offset="0"
   style="stop-color:#161730"
   id="stop3324" />
		<stop
   offset="1"
   style="stop-color:#242C5B"
   id="stop3326" />
	</linearGradient>
	<rect
   x="65.892998"
   y="332.90201"
   clip-path="url(#SVGID_670_)"
   fill="url(#SVGID_671_)"
   width="2.7539999"
   height="2.7550001"
   id="rect3329"
   style="fill:url(#SVGID_671_)" />
</g>
<g
   id="g3346"
   transform="translate(-62.195002,-320.77999)">
	<defs
   id="defs3334"><path
     id="SVGID_672_"
     d="m 71.275,335.835 c -0.103,-0.103 -0.179,-0.257 -0.179,-0.435 0,-0.153 0.076,-0.306 0.179,-0.433 0.101,-0.103 0.254,-0.18 0.433,-0.18 0.153,0 0.306,0.077 0.433,0.18 0.103,0.127 0.179,0.279 0.179,0.433 0,0.178 -0.076,0.332 -0.179,0.435 -0.127,0.102 -0.28,0.179 -0.433,0.179 -0.179,0 -0.332,-0.077 -0.433,-0.179 m -0.281,-1.146 v 0.023 c -0.178,0.18 -0.281,0.408 -0.281,0.688 0,0.282 0.103,0.536 0.281,0.715 0.178,0.178 0.434,0.28 0.714,0.28 0.28,0 0.51,-0.103 0.688,-0.28 0.205,-0.179 0.307,-0.433 0.307,-0.715 0,-0.28 -0.102,-0.509 -0.307,-0.688 -0.178,-0.179 -0.408,-0.306 -0.688,-0.306 -0.28,0 -0.51,0.101 -0.714,0.283" /></defs>
	<clipPath
   id="SVGID_673_">
		<use
   xlink:href="#SVGID_672_"
   overflow="visible"
   id="use3336" />
	</clipPath>
	
		<linearGradient
   id="SVGID_674_"
   gradientUnits="userSpaceOnUse"
   x1="-0.00048828131"
   y1="425.19681"
   x2="1"
   y2="425.19681"
   gradientTransform="matrix(1.9896,0,0,-1.9896,70.7132,1181.3878)">
		<stop
   offset="0"
   style="stop-color:#161730"
   id="stop3339" />
		<stop
   offset="1"
   style="stop-color:#242C5B"
   id="stop3341" />
	</linearGradient>
	<rect
   x="70.712997"
   y="334.40701"
   clip-path="url(#SVGID_673_)"
   fill="url(#SVGID_674_)"
   width="1.99"
   height="1.989"
   id="rect3344"
   style="fill:url(#SVGID_674_)" />
</g>
<g
   id="g3361"
   transform="translate(-62.195002,-320.77999)">
	<defs
   id="defs3349"><path
     id="SVGID_675_"
     d="m 79.003,337.647 c -0.179,-0.181 -0.306,-0.409 -0.306,-0.69 0,-0.279 0.127,-0.51 0.306,-0.688 0.178,-0.179 0.408,-0.307 0.688,-0.307 0.281,0 0.51,0.128 0.689,0.307 h 0.026 c 0.178,0.178 0.28,0.408 0.28,0.688 0,0.281 -0.128,0.51 -0.306,0.69 -0.179,0.178 -0.408,0.305 -0.689,0.305 -0.28,0 -0.51,-0.127 -0.688,-0.305 m -0.28,-1.659 c -0.256,0.255 -0.409,0.587 -0.409,0.969 0,0.383 0.153,0.715 0.409,0.971 0.255,0.254 0.585,0.406 0.968,0.406 0.383,0 0.715,-0.152 0.97,-0.406 0.254,-0.256 0.407,-0.588 0.407,-0.971 0,-0.382 -0.153,-0.714 -0.382,-0.969 h -0.025 c -0.255,-0.255 -0.587,-0.409 -0.97,-0.409 -0.383,0 -0.713,0.154 -0.968,0.409" /></defs>
	<clipPath
   id="SVGID_676_">
		<use
   xlink:href="#SVGID_675_"
   overflow="visible"
   id="use3351" />
	</clipPath>
	
		<linearGradient
   id="SVGID_677_"
   gradientUnits="userSpaceOnUse"
   x1="0"
   y1="425.19781"
   x2="1"
   y2="425.19781"
   gradientTransform="matrix(2.7547,0,0,-2.7547,78.3139,1508.2262)">
		<stop
   offset="0"
   style="stop-color:#161730"
   id="stop3354" />
		<stop
   offset="1"
   style="stop-color:#242C5B"
   id="stop3356" />
	</linearGradient>
	<rect
   x="78.314003"
   y="335.57901"
   clip-path="url(#SVGID_676_)"
   fill="url(#SVGID_677_)"
   width="2.7539999"
   height="2.7550001"
   id="rect3359"
   style="fill:url(#SVGID_677_)" />
</g>
<g
   id="g3376"
   transform="translate(-62.195002,-320.77999)">
	<defs
   id="defs3364"><path
     id="SVGID_678_"
     d="m 74.743,338.411 c -0.102,-0.128 -0.178,-0.28 -0.178,-0.433 0,-0.18 0.076,-0.331 0.178,-0.435 0.128,-0.128 0.281,-0.179 0.434,-0.179 0.178,0 0.331,0.051 0.434,0.179 h 0.025 c 0.103,0.104 0.153,0.255 0.153,0.435 0,0.152 -0.05,0.305 -0.178,0.433 -0.103,0.103 -0.256,0.179 -0.434,0.179 -0.153,-10e-4 -0.306,-0.077 -0.434,-0.179 m -0.255,-1.148 c -0.179,0.179 -0.306,0.435 -0.306,0.715 0,0.255 0.127,0.51 0.306,0.688 0.179,0.18 0.434,0.307 0.689,0.307 0.28,0 0.51,-0.127 0.715,-0.28 v -0.026 c 0.178,-0.178 0.28,-0.433 0.28,-0.688 0,-0.28 -0.102,-0.512 -0.28,-0.689 v -0.025 c -0.179,-0.179 -0.435,-0.28 -0.715,-0.28 -0.255,-0.002 -0.51,0.099 -0.689,0.278" /></defs>
	<clipPath
   id="SVGID_679_">
		<use
   xlink:href="#SVGID_678_"
   overflow="visible"
   id="use3366" />
	</clipPath>
	
		<linearGradient
   id="SVGID_680_"
   gradientUnits="userSpaceOnUse"
   x1="0.00048828131"
   y1="425.19781"
   x2="1.0005"
   y2="425.19781"
   gradientTransform="matrix(1.9895,0,0,-1.9895,74.1815,1183.8916)">
		<stop
   offset="0"
   style="stop-color:#161730"
   id="stop3369" />
		<stop
   offset="1"
   style="stop-color:#242C5B"
   id="stop3371" />
	</linearGradient>
	<rect
   x="74.181999"
   y="336.983"
   clip-path="url(#SVGID_679_)"
   fill="url(#SVGID_680_)"
   width="1.99"
   height="1.989"
   id="rect3374"
   style="fill:url(#SVGID_680_)" />
</g>
<g
   id="g3391"
   transform="translate(-62.195002,-320.77999)">
	<defs
   id="defs3379"><path
     id="SVGID_681_"
     d="m 67.346,338.156 c -0.102,-0.128 -0.178,-0.281 -0.178,-0.434 0,-0.179 0.076,-0.331 0.178,-0.434 0.128,-0.102 0.281,-0.179 0.434,-0.179 0.178,0 0.332,0.077 0.434,0.179 h 0.025 c 0.103,0.127 0.153,0.255 0.153,0.434 0,0.152 -0.077,0.306 -0.178,0.434 -0.102,0.102 -0.256,0.178 -0.434,0.178 -0.153,-10e-4 -0.306,-0.077 -0.434,-0.178 m -0.255,-1.148 c -0.178,0.179 -0.306,0.434 -0.306,0.714 0,0.28 0.128,0.511 0.306,0.688 0.18,0.179 0.408,0.308 0.689,0.308 0.281,0 0.535,-0.129 0.715,-0.308 0.178,-0.178 0.28,-0.408 0.28,-0.688 0,-0.28 -0.102,-0.511 -0.28,-0.688 v -0.025 c -0.18,-0.179 -0.434,-0.279 -0.715,-0.279 -0.281,-0.001 -0.509,0.1 -0.689,0.278" /></defs>
	<clipPath
   id="SVGID_682_">
		<use
   xlink:href="#SVGID_681_"
   overflow="visible"
   id="use3381" />
	</clipPath>
	
		<linearGradient
   id="SVGID_683_"
   gradientUnits="userSpaceOnUse"
   x1="-0.0009765625"
   y1="425.1958"
   x2="0.99949998"
   y2="425.1958"
   gradientTransform="matrix(1.9893,0,0,-1.9893,66.7858,1183.5769)">
		<stop
   offset="0"
   style="stop-color:#161730"
   id="stop3384" />
		<stop
   offset="1"
   style="stop-color:#242C5B"
   id="stop3386" />
	</linearGradient>
	<rect
   x="66.785004"
   y="336.729"
   clip-path="url(#SVGID_682_)"
   fill="url(#SVGID_683_)"
   width="1.99"
   height="1.989"
   id="rect3389"
   style="fill:url(#SVGID_683_)" />
</g>
<g
   id="g3406"
   transform="translate(-62.195002,-320.77999)">
	<defs
   id="defs3394"><path
     id="SVGID_684_"
     d="m 74.488,338.666 c -0.179,-0.178 -0.306,-0.433 -0.306,-0.688 0,-0.28 0.127,-0.536 0.306,-0.715 0.179,-0.179 0.434,-0.28 0.689,-0.28 0.28,0 0.536,0.102 0.715,0.28 v 0.025 c 0.178,0.178 0.28,0.409 0.28,0.689 0,0.255 -0.102,0.51 -0.28,0.688 v 0.026 c -0.205,0.153 -0.435,0.28 -0.715,0.28 -0.255,10e-4 -0.51,-0.126 -0.689,-0.305 m -7.397,-0.255 c -0.178,-0.178 -0.306,-0.408 -0.306,-0.688 0,-0.28 0.128,-0.535 0.306,-0.714 0.18,-0.179 0.408,-0.279 0.689,-0.279 0.281,0 0.535,0.101 0.715,0.279 v 0.025 c 0.178,0.178 0.28,0.408 0.28,0.688 0,0.28 -0.102,0.511 -0.28,0.688 -0.18,0.179 -0.434,0.308 -0.715,0.308 -0.281,0 -0.509,-0.129 -0.689,-0.307 m 11.632,-0.484 c -0.256,-0.256 -0.409,-0.588 -0.409,-0.971 0,-0.382 0.153,-0.714 0.409,-0.969 0.255,-0.255 0.585,-0.409 0.968,-0.409 0.383,0 0.715,0.154 0.97,0.409 h 0.025 c 0.229,0.255 0.382,0.587 0.382,0.969 0,0.383 -0.153,0.715 -0.407,0.971 -0.255,0.254 -0.587,0.406 -0.97,0.406 -0.383,0 -0.713,-0.152 -0.968,-0.406 m -7.729,-1.811 c -0.178,-0.179 -0.281,-0.433 -0.281,-0.715 0,-0.28 0.103,-0.509 0.281,-0.688 v -0.023 c 0.204,-0.182 0.434,-0.282 0.714,-0.282 0.28,0 0.51,0.127 0.688,0.306 0.205,0.18 0.307,0.408 0.307,0.688 0,0.282 -0.102,0.536 -0.307,0.715 -0.178,0.178 -0.408,0.28 -0.688,0.28 -0.28,0 -0.536,-0.104 -0.714,-0.281 m -4.693,-0.868 c -0.255,-0.254 -0.408,-0.586 -0.408,-0.969 0,-0.383 0.153,-0.74 0.408,-0.968 0.255,-0.256 0.586,-0.409 0.97,-0.409 0.381,0 0.713,0.153 0.968,0.409 0.256,0.228 0.408,0.585 0.408,0.968 0,0.383 -0.152,0.715 -0.408,0.969 -0.255,0.23 -0.587,0.409 -0.968,0.409 -0.384,0 -0.715,-0.179 -0.97,-0.409 m -1.479,-2.269 c -1.149,1.02 -1.862,2.55 -2.245,4.514 0,0.612 0.255,1.173 0.662,1.581 0.409,0.409 0.996,0.664 1.608,0.664 h 15.15 c 0.638,0 1.199,-0.255 1.608,-0.664 0.407,-0.408 0.663,-0.969 0.663,-1.607 0,-0.61 -0.256,-1.173 -0.663,-1.58 -0.409,-0.408 -0.97,-0.663 -1.608,-0.663 h -0.204 c -0.102,0 -0.178,-0.076 -0.178,-0.179 -0.051,-0.638 -0.409,-0.791 -0.867,-0.766 -0.409,0.051 -0.919,0.204 -1.404,0.357 -0.407,0.152 -0.815,0.28 -1.096,0.306 l -0.612,0.052 c -0.076,0 -0.128,-0.025 -0.179,-0.077 -0.255,-0.306 -0.561,-0.562 -0.917,-0.765 -0.332,-0.204 -0.715,-0.331 -1.123,-0.409 -0.052,0 -0.102,-0.023 -0.128,-0.075 -0.204,-0.384 -0.433,-0.715 -0.688,-0.996 -0.51,-0.459 -0.995,-0.891 -1.837,-1.097 -0.051,0 -0.101,-0.026 -0.127,-0.026 -0.332,-0.074 -0.715,-0.101 -1.123,-0.101 -2.015,0 -3.545,0.51 -4.692,1.531" /></defs>
	<clipPath
   id="SVGID_685_">
		<use
   xlink:href="#SVGID_684_"
   overflow="visible"
   id="use3396" />
	</clipPath>
	
		<linearGradient
   id="SVGID_686_"
   gradientUnits="userSpaceOnUse"
   x1="0"
   y1="425.19681"
   x2="1"
   y2="425.19681"
   gradientTransform="matrix(19.6911,0,0,-19.6911,62.578,8708.1797)">
		<stop
   offset="0"
   style="stop-color:#F7A715"
   id="stop3399" />
		<stop
   offset="1"
   style="stop-color:#FDC623"
   id="stop3401" />
	</linearGradient>
	<rect
   x="62.577"
   y="331.448"
   clip-path="url(#SVGID_685_)"
   fill="url(#SVGID_686_)"
   width="19.691"
   height="8.29"
   id="rect3404"
   style="fill:url(#SVGID_686_)" />
</g>






















































</svg>
