<?xml version="1.0" encoding="UTF-8" standalone="no"?>
<!-- Generator: Adobe Illustrator 13.0.0, SVG Export Plug-In . SVG Version: 6.00 Build 14948)  -->

<svg
   version="1.1"
   id="Layer_1"
   x="0px"
   y="0px"
   width="16.348997"
   height="23.402252"
   viewBox="0 0 16.348997 23.402253"
   enable-background="new 0 0 187.087 425.197"
   xml:space="preserve"
   sodipodi:docname="sfondo_cell.svg"
   xmlns:inkscape="http://www.inkscape.org/namespaces/inkscape"
   xmlns:sodipodi="http://sodipodi.sourceforge.net/DTD/sodipodi-0.dtd"
   xmlns:xlink="http://www.w3.org/1999/xlink"
   xmlns="http://www.w3.org/2000/svg"
   xmlns:svg="http://www.w3.org/2000/svg"><defs
   id="defs4221" /><sodipodi:namedview
   id="namedview4219"
   pagecolor="#ffffff"
   bordercolor="#000000"
   borderopacity="0.25"
   inkscape:showpageshadow="2"
   inkscape:pageopacity="0.0"
   inkscape:pagecheckerboard="0"
   inkscape:deskcolor="#d1d1d1"
   showgrid="false" />















































<g
   id="g631"
   transform="translate(-23.972369,-178.127)">
	<defs
   id="defs619"><path
     id="SVGID_129_"
     d="m 24.431,199.067 8.06,-16.374 4.183,2.551 h -0.356 c -0.103,0 -0.205,0.076 -0.205,0.178 0,0.051 0,0.076 0.026,0.102 l 0.357,0.664 -0.74,-0.026 c -0.102,0 -0.179,0.102 -0.179,0.204 0,0.025 0,0.076 0.026,0.102 l 0.357,0.638 h -0.739 c -0.103,0 -0.205,0.076 -0.205,0.203 0,0.026 0,0.051 0.026,0.103 l 0.357,0.638 h -0.74 c -0.102,0 -0.178,0.076 -0.178,0.178 0,0.05 0,0.076 0.025,0.102 l 0.357,0.663 -0.739,-0.025 c -0.102,0 -0.205,0.101 -0.205,0.204 0,0.025 0,0.076 0.026,0.102 l 0.357,0.637 h -0.74 c -0.102,0 -0.178,0.076 -0.178,0.204 0,0.025 0,0.051 0.026,0.102 l 0.356,0.638 h -0.739 c -0.102,0 -0.204,0.076 -0.204,0.178 0,0.051 0.025,0.077 0.025,0.103 l 0.383,0.637 h -0.765 c -0.103,0 -0.179,0.103 -0.179,0.204 0,0.025 0,0.077 0.026,0.102 l 0.357,0.638 h -0.74 c -0.102,0 -0.204,0.077 -0.204,0.203 0,0.027 0.026,0.052 0.026,0.077 l 0.383,0.662 h -0.766 c -0.102,0 -0.179,0.079 -0.179,0.18 0,0.051 0,0.077 0.026,0.102 l 0.357,0.638 h -0.74 c -0.102,0 -0.203,0.102 -0.203,0.204 0,0.026 0.025,0.076 0.025,0.101 l 0.382,0.638 h -0.739 c -0.128,0 -0.205,0.077 -0.205,0.18 0,0.05 0,0.076 0.026,0.101 l 0.357,0.663 -0.739,-0.026 c -0.102,0 -0.204,0.103 -0.204,0.205 0,0.05 0.025,0.076 0.025,0.102 l 0.382,0.638 h -0.739 c -0.127,0 -0.205,0.076 -0.205,0.204 0,0.025 0,0.051 0.026,0.101 l 0.357,0.638 H 28.64 c -0.103,0 -0.204,0.077 -0.204,0.179 0,0.05 0.026,0.076 0.026,0.102 l 0.382,0.662 -0.74,-0.025 c -0.127,0 -0.204,0.102 -0.204,0.205 0,0.025 0,0.075 0.025,0.102 l 0.358,0.637 h -0.74 c -0.102,0 -0.204,0.076 -0.204,0.204 0,0.026 0.026,0.051 0.026,0.102 l 0.204,0.306 z m 7.805,-16.757 -8.238,16.732 c -0.051,0.102 -0.026,0.229 0.076,0.28 l 3.903,2.169 c 0.051,0.051 0.127,0.051 0.204,0 0.102,-0.051 0.127,-0.153 0.076,-0.255 l -0.382,-0.664 0.739,0.026 c 0.052,0 0.077,-0.026 0.102,-0.026 0.102,-0.05 0.128,-0.178 0.077,-0.28 l -0.357,-0.638 h 0.739 c 0.026,0 0.077,0 0.102,-0.025 0.102,-0.051 0.128,-0.178 0.077,-0.256 l -0.383,-0.663 h 0.74 c 0.051,0.026 0.076,0 0.102,-0.025 0.102,-0.051 0.127,-0.153 0.077,-0.255 l -0.357,-0.638 h 0.739 c 0.026,0 0.051,0 0.102,-0.025 0.102,-0.051 0.128,-0.178 0.077,-0.28 l -0.383,-0.638 h 0.74 c 0.025,0 0.076,0 0.102,-0.026 0.102,-0.05 0.127,-0.178 0.077,-0.255 l -0.357,-0.663 h 0.739 c 0.026,0.025 0.051,0 0.101,0 0.078,-0.077 0.128,-0.178 0.078,-0.28 l -0.383,-0.638 h 0.74 c 0.025,0 0.077,0 0.102,-0.026 0.101,-0.051 0.128,-0.178 0.076,-0.28 l -0.357,-0.638 h 0.715 c 0.05,0 0.076,0 0.126,-0.025 0.077,-0.052 0.128,-0.179 0.077,-0.255 l -0.383,-0.664 0.74,0.026 c 0.026,0 0.077,-0.026 0.103,-0.026 0.102,-0.077 0.127,-0.179 0.076,-0.28 l -0.357,-0.637 h 0.714 c 0.051,0 0.076,0 0.128,-0.027 0.076,-0.051 0.127,-0.178 0.076,-0.279 l -0.382,-0.639 h 0.739 c 0.026,0 0.077,0 0.102,-0.025 0.102,-0.051 0.127,-0.179 0.077,-0.255 l -0.358,-0.664 0.715,0.026 c 0.05,0 0.076,-0.026 0.128,-0.026 0.076,-0.05 0.127,-0.178 0.076,-0.28 l -0.382,-0.638 h 0.739 c 0.026,0 0.076,0 0.102,-0.026 0.102,-0.05 0.127,-0.177 0.077,-0.28 l -0.358,-0.638 h 0.715 c 0.05,0 0.076,0 0.127,-0.025 0.076,-0.051 0.128,-0.153 0.051,-0.255 l -0.357,-0.638 h 0.74 c 0.026,0 0.076,0 0.102,-0.025 0.102,-0.051 0.127,-0.179 0.076,-0.281 l -0.357,-0.637 h 0.714 c 0.051,0 0.077,0 0.128,-0.026 0.076,-0.05 0.127,-0.178 0.05,-0.255 l -0.356,-0.663 h 0.74 c 0.05,0.025 0.127,-0.025 0.178,-0.076 0.051,-0.102 0.025,-0.23 -0.077,-0.281 l -4.999,-3.035 c -0.034,-0.017 -0.071,-0.026 -0.106,-0.026 -0.069,0 -0.132,0.035 -0.149,0.102" /></defs>
	<clipPath
   id="SVGID_130_">
		<use
   xlink:href="#SVGID_129_"
   overflow="visible"
   id="use621" />
	</clipPath>
	
		<linearGradient
   id="SVGID_131_"
   gradientUnits="userSpaceOnUse"
   x1="0"
   y1="425.19681"
   x2="1.001"
   y2="425.19681"
   gradientTransform="matrix(0,-19.321,-19.321,0,8246.0107,201.5191)">
		<stop
   offset="0"
   style="stop-color:#161730"
   id="stop624" />
		<stop
   offset="1"
   style="stop-color:#242C5B"
   id="stop626" />
	</linearGradient>
	<rect
   x="23.947001"
   y="182.20799"
   clip-path="url(#SVGID_130_)"
   fill="url(#SVGID_131_)"
   width="13.671"
   height="19.334"
   id="rect629"
   style="fill:url(#SVGID_131_)" />
</g>
<g
   id="g646"
   transform="translate(-23.972369,-178.127)">
	<defs
   id="defs634"><path
     id="SVGID_132_"
     d="m 32.21,182.081 2.041,-3.495 5.612,3.291 -2.118,3.571 z m 1.812,-3.853 -2.246,3.827 c -0.05,0.075 -0.024,0.204 0.078,0.255 l 5.866,3.571 c 0.102,0.051 0.229,0.025 0.28,-0.077 l 2.296,-3.902 c 0.051,-0.077 0.025,-0.204 -0.077,-0.255 l -5.942,-3.495 c -0.026,-0.017 -0.057,-0.025 -0.089,-0.025 -0.064,0 -0.132,0.034 -0.166,0.101" /></defs>
	<clipPath
   id="SVGID_133_">
		<use
   xlink:href="#SVGID_132_"
   overflow="visible"
   id="use636" />
	</clipPath>
	
		<linearGradient
   id="SVGID_134_"
   gradientUnits="userSpaceOnUse"
   x1="0"
   y1="425.19681"
   x2="1"
   y2="425.19681"
   gradientTransform="matrix(0,-7.7792,-7.7792,0,3343.728,185.9077)">
		<stop
   offset="0"
   style="stop-color:#161730"
   id="stop639" />
		<stop
   offset="1"
   style="stop-color:#242C5B"
   id="stop641" />
	</linearGradient>
	<rect
   x="31.726"
   y="178.127"
   clip-path="url(#SVGID_133_)"
   fill="url(#SVGID_134_)"
   width="8.6210003"
   height="7.8049998"
   id="rect644"
   style="fill:url(#SVGID_134_)" />
</g>
<g
   id="g661"
   transform="translate(-23.972369,-178.127)">
	<defs
   id="defs649"><path
     id="SVGID_135_"
     d="m 33.792,181.902 1.071,-1.811 3.392,1.99 -1.097,1.861 z m 0.816,-2.168 -1.249,2.143 c -0.052,0.101 -0.027,0.204 0.076,0.28 l 3.698,2.219 c 0.103,0.051 0.204,0.026 0.256,-0.077 l 1.3,-2.169 c 0.051,-0.1 0.025,-0.228 -0.076,-0.279 l -3.724,-2.194 c -0.034,-0.017 -0.071,-0.025 -0.107,-0.025 -0.072,0 -0.14,0.034 -0.174,0.102" /></defs>
	<clipPath
   id="SVGID_136_">
		<use
   xlink:href="#SVGID_135_"
   overflow="visible"
   id="use651" />
	</clipPath>
	
		<linearGradient
   id="SVGID_137_"
   gradientUnits="userSpaceOnUse"
   x1="0"
   y1="425.19681"
   x2="1"
   y2="425.19681"
   gradientTransform="matrix(0,-4.7698,-4.7698,0,2064.1082,184.3978)">
		<stop
   offset="0"
   style="stop-color:#161730"
   id="stop654" />
		<stop
   offset="1"
   style="stop-color:#242C5B"
   id="stop656" />
	</linearGradient>
	<rect
   x="33.306999"
   y="179.632"
   clip-path="url(#SVGID_136_)"
   fill="url(#SVGID_137_)"
   width="5.4330001"
   height="4.7950001"
   id="rect659"
   style="fill:url(#SVGID_137_)" />
</g>
<g
   id="g676"
   transform="translate(-23.972369,-178.127)">
	<defs
   id="defs664"><path
     id="SVGID_138_"
     d="m 26.982,195.089 -0.868,1.785 c -0.101,0.28 0.281,0.383 0.358,0.178 l 0.867,-1.785 c 0.081,-0.179 -0.046,-0.286 -0.175,-0.286 -0.072,0 -0.145,0.034 -0.182,0.108 m 0.715,-1.403 -0.179,0.357 c -0.128,0.281 0.255,0.382 0.357,0.153 l 0.178,-0.331 c 0.066,-0.18 -0.067,-0.287 -0.191,-0.287 -0.07,0 -0.138,0.034 -0.165,0.108 m 1.377,-2.831 -0.868,1.759 c -0.102,0.281 0.281,0.383 0.357,0.18 l 0.867,-1.786 c 0.081,-0.162 -0.044,-0.273 -0.172,-0.273 -0.073,0 -0.147,0.036 -0.184,0.12 m 0.713,-1.429 -0.178,0.357 c -0.128,0.281 0.255,0.383 0.356,0.179 l 0.18,-0.357 c 0.065,-0.18 -0.069,-0.286 -0.193,-0.286 -0.07,0 -0.137,0.034 -0.165,0.107 m 0.919,-1.913 -0.408,0.842 c -0.102,0.281 0.28,0.382 0.357,0.178 l 0.408,-0.841 c 0.081,-0.18 -0.046,-0.286 -0.175,-0.286 -0.072,0 -0.145,0.034 -0.182,0.107" /></defs>
	<clipPath
   id="SVGID_139_">
		<use
   xlink:href="#SVGID_138_"
   overflow="visible"
   id="use666" />
	</clipPath>
	
		<linearGradient
   id="SVGID_140_"
   gradientUnits="userSpaceOnUse"
   x1="0"
   y1="425.1987"
   x2="1"
   y2="425.1987"
   gradientTransform="matrix(0,-9.7538,-9.7538,0,4175.8945,197.1628)">
		<stop
   offset="0"
   style="stop-color:#161730"
   id="stop669" />
		<stop
   offset="1"
   style="stop-color:#242C5B"
   id="stop671" />
	</linearGradient>
	<rect
   x="26.013"
   y="187.40601"
   clip-path="url(#SVGID_139_)"
   fill="url(#SVGID_140_)"
   width="5.131"
   height="9.8509998"
   id="rect674"
   style="fill:url(#SVGID_140_)" />
</g>
<g
   id="g691"
   transform="translate(-23.972369,-178.127)">
	<defs
   id="defs679"><path
     id="SVGID_141_"
     d="m 37.133,184.376 -3.698,-2.219 c -0.103,-0.076 -0.128,-0.179 -0.076,-0.28 l 1.249,-2.143 c 0.051,-0.102 0.179,-0.127 0.281,-0.077 l 3.724,2.194 c 0.101,0.051 0.127,0.179 0.076,0.279 l -1.3,2.169 c -0.034,0.069 -0.091,0.103 -0.155,0.103 -0.032,0 -0.067,-0.009 -0.101,-0.026 m -4.923,-2.295 0.204,0.128 c 0.027,0 0.052,0 0.077,0.025 l 4.999,3.035 c 0.026,0.026 0.026,0.026 0.052,0.026 l 0.203,0.153 2.118,-3.571 -5.612,-3.291 z" /></defs>
	<clipPath
   id="SVGID_142_">
		<use
   xlink:href="#SVGID_141_"
   overflow="visible"
   id="use681" />
	</clipPath>
	
		<linearGradient
   id="SVGID_143_"
   gradientUnits="userSpaceOnUse"
   x1="0.00048828131"
   y1="425.19681"
   x2="1.0005"
   y2="425.19681"
   gradientTransform="matrix(0,-6.8611,-6.8611,0,2953.3521,185.4496)">
		<stop
   offset="0"
   style="stop-color:#F7A715"
   id="stop684" />
		<stop
   offset="1"
   style="stop-color:#FDC623"
   id="stop686" />
	</linearGradient>
	<rect
   x="32.209999"
   y="178.586"
   clip-path="url(#SVGID_142_)"
   fill="url(#SVGID_143_)"
   width="7.6529999"
   height="6.862"
   id="rect689"
   style="fill:url(#SVGID_143_)" />
</g>











































































































































































































































</svg>
