<?xml version="1.0" encoding="UTF-8" standalone="no"?>
<!-- Generator: Adobe Illustrator 13.0.0, SVG Export Plug-In . SVG Version: 6.00 Build 14948)  -->

<svg
   version="1.1"
   id="Layer_1"
   x="0px"
   y="0px"
   width="13.166031"
   height="22.03801"
   viewBox="0 0 13.16603 22.03801"
   enable-background="new 0 0 187.087 425.197"
   xml:space="preserve"
   sodipodi:docname="sfondo_cell.svg"
   xmlns:inkscape="http://www.inkscape.org/namespaces/inkscape"
   xmlns:sodipodi="http://sodipodi.sourceforge.net/DTD/sodipodi-0.dtd"
   xmlns:xlink="http://www.w3.org/1999/xlink"
   xmlns="http://www.w3.org/2000/svg"
   xmlns:svg="http://www.w3.org/2000/svg"><defs
   id="defs4221" /><sodipodi:namedview
   id="namedview4219"
   pagecolor="#ffffff"
   bordercolor="#000000"
   borderopacity="0.25"
   inkscape:showpageshadow="2"
   inkscape:pageopacity="0.0"
   inkscape:pagecheckerboard="0"
   inkscape:deskcolor="#d1d1d1"
   showgrid="false" />




















































<g
   id="g706"
   transform="translate(-65.053003,-179.45799)">
	<defs
   id="defs694"><path
     id="SVGID_144_"
     d="m 65.511,179.892 h 12.218 l -1.658,9.285 h -8.876 z m 12.473,-0.434 H 65.256 c -0.101,0 -0.203,0.103 -0.203,0.23 v 0.051 l 1.759,9.692 c 0,0.103 0.103,0.178 0.205,0.178 h 9.234 c 0.101,0 0.203,-0.075 0.203,-0.203 l 1.76,-9.693 c 0.026,-0.102 -0.051,-0.229 -0.179,-0.255 z" /></defs>
	<clipPath
   id="SVGID_145_">
		<use
   xlink:href="#SVGID_144_"
   overflow="visible"
   id="use696" />
	</clipPath>
	
		<linearGradient
   id="SVGID_146_"
   gradientUnits="userSpaceOnUse"
   x1="0.00048828131"
   y1="425.19781"
   x2="1.0005"
   y2="425.19781"
   gradientTransform="matrix(13.1658,0,0,-13.1658,65.0508,5782.6079)">
		<stop
   offset="0"
   style="stop-color:#161730"
   id="stop699" />
		<stop
   offset="1"
   style="stop-color:#242C5B"
   id="stop701" />
	</linearGradient>
	<rect
   x="65.053001"
   y="179.45799"
   clip-path="url(#SVGID_145_)"
   fill="url(#SVGID_146_)"
   width="13.187"
   height="10.151"
   id="rect704"
   style="fill:url(#SVGID_146_)" />
</g>
<g
   id="g721"
   transform="translate(-65.053003,-179.45799)">
	<defs
   id="defs709"><path
     id="SVGID_147_"
     d="m 73.801,182.953 c -0.153,0.204 -0.23,0.357 -0.255,0.357 -0.025,0 0.052,-0.586 0.052,-2.346 0,-0.129 -0.103,-0.204 -0.23,-0.204 -1.2,0 -2.016,0.918 -2.525,1.53 -0.179,0.229 -0.332,0.407 -0.358,0.407 -0.026,0 -0.051,-0.407 -0.051,-1.555 0,-0.128 -0.077,-0.229 -0.204,-0.229 h -4.693 c -0.128,0 -0.229,0.101 -0.229,0.229 0,0.127 0.101,0.204 0.229,0.204 h 4.489 c 0,1.326 0.128,1.785 0.459,1.785 0.23,0 0.434,-0.254 0.689,-0.56 0.434,-0.511 1.071,-1.276 1.989,-1.378 0,1.887 0.051,2.551 0.383,2.551 0.205,0 0.358,-0.23 0.611,-0.536 0.537,-0.765 1.608,-2.219 3.648,-2.219 0.103,0 0.204,-0.102 0.204,-0.229 0,-0.103 -0.101,-0.205 -0.204,-0.205 -2.269,0 -3.416,1.582 -4.004,2.398" /></defs>
	<clipPath
   id="SVGID_148_">
		<use
   xlink:href="#SVGID_147_"
   overflow="visible"
   id="use711" />
	</clipPath>
	
		<linearGradient
   id="SVGID_149_"
   gradientUnits="userSpaceOnUse"
   x1="-0.00048828131"
   y1="425.19681"
   x2="0.99949998"
   y2="425.19681"
   gradientTransform="matrix(12.7019,0,0,-12.7019,65.308,5582.9424)">
		<stop
   offset="0"
   style="stop-color:#161730"
   id="stop714" />
		<stop
   offset="1"
   style="stop-color:#242C5B"
   id="stop716" />
	</linearGradient>
	<rect
   x="65.307999"
   y="180.55499"
   clip-path="url(#SVGID_148_)"
   fill="url(#SVGID_149_)"
   width="12.701"
   height="3.1889999"
   id="rect719"
   style="fill:url(#SVGID_149_)" />
</g>
<g
   id="g736"
   transform="translate(-65.053003,-179.45799)">
	<defs
   id="defs724"><path
     id="SVGID_150_"
     d="m 70.715,200.884 c -0.714,-0.281 -1.302,-0.918 -1.302,-1.939 0,-0.944 0.332,-1.759 0.664,-2.576 0.791,-2.04 1.531,-3.953 -2.372,-6.76 h 7.856 c -3.673,2.73 -3.009,4.669 -2.296,6.76 0.281,0.817 0.561,1.658 0.561,2.576 0,1.021 -0.561,1.658 -1.274,1.939 -0.307,0.127 -0.613,0.179 -0.919,0.179 -0.306,0 -0.637,-0.052 -0.918,-0.179 m -3.698,-11.707 c -0.077,0 -0.153,0.05 -0.179,0.101 -0.076,0.102 -0.051,0.23 0.051,0.306 4.26,2.806 3.545,4.643 2.781,6.632 -0.332,0.842 -0.664,1.709 -0.664,2.729 0,1.224 0.664,1.99 1.557,2.346 0.331,0.128 0.712,0.205 1.07,0.205 0.357,0 0.713,-0.077 1.072,-0.205 0.866,-0.356 1.556,-1.122 1.556,-2.346 0,-0.994 -0.307,-1.862 -0.587,-2.729 -0.689,-2.015 -1.328,-3.902 2.678,-6.632 0.077,-0.025 0.102,-0.101 0.102,-0.178 0,-0.128 -0.076,-0.229 -0.203,-0.229 z" /></defs>
	<clipPath
   id="SVGID_151_">
		<use
   xlink:href="#SVGID_150_"
   overflow="visible"
   id="use726" />
	</clipPath>
	
		<linearGradient
   id="SVGID_152_"
   gradientUnits="userSpaceOnUse"
   x1="0"
   y1="425.19781"
   x2="1"
   y2="425.19781"
   gradientTransform="matrix(9.6601,0,0,-9.6601,66.7945,4302.7646)">
		<stop
   offset="0"
   style="stop-color:#161730"
   id="stop729" />
		<stop
   offset="1"
   style="stop-color:#242C5B"
   id="stop731" />
	</linearGradient>
	<rect
   x="66.762001"
   y="189.177"
   clip-path="url(#SVGID_151_)"
   fill="url(#SVGID_152_)"
   width="9.6920004"
   height="12.319"
   id="rect734"
   style="fill:url(#SVGID_152_)" />
</g>
<g
   id="g751"
   transform="translate(-65.053003,-179.45799)">
	<defs
   id="defs739"><path
     id="SVGID_153_"
     d="m 70.97,198.588 c -0.179,-0.153 -0.28,-0.383 -0.28,-0.663 0,-0.255 0.101,-0.485 0.28,-0.638 0.179,-0.178 0.407,-0.28 0.663,-0.28 0.255,0 0.484,0.102 0.663,0.28 0.154,0.153 0.256,0.383 0.256,0.638 0,0.28 -0.102,0.51 -0.256,0.663 -0.179,0.179 -0.408,0.281 -0.663,0.281 -0.256,0 -0.484,-0.102 -0.663,-0.281 m -0.306,-1.607 c -0.256,0.23 -0.408,0.587 -0.408,0.944 0,0.382 0.152,0.739 0.408,0.969 0.255,0.255 0.586,0.408 0.969,0.408 0.382,0 0.713,-0.153 0.969,-0.408 0.231,-0.23 0.383,-0.587 0.383,-0.969 0,-0.357 -0.152,-0.714 -0.383,-0.944 -0.256,-0.254 -0.587,-0.408 -0.969,-0.408 -0.383,0 -0.714,0.154 -0.969,0.408" /></defs>
	<clipPath
   id="SVGID_154_">
		<use
   xlink:href="#SVGID_153_"
   overflow="visible"
   id="use741" />
	</clipPath>
	
		<linearGradient
   id="SVGID_155_"
   gradientUnits="userSpaceOnUse"
   x1="0.00048828131"
   y1="425.19781"
   x2="1"
   y2="425.19781"
   gradientTransform="matrix(2.7296,0,0,-2.7296,70.2551,1358.5613)">
		<stop
   offset="0"
   style="stop-color:#161730"
   id="stop744" />
		<stop
   offset="1"
   style="stop-color:#242C5B"
   id="stop746" />
	</linearGradient>
	<rect
   x="70.255997"
   y="196.573"
   clip-path="url(#SVGID_154_)"
   fill="url(#SVGID_155_)"
   width="2.7290001"
   height="2.7290001"
   id="rect749"
   style="fill:url(#SVGID_155_)" />
</g>
<g
   id="g766"
   transform="translate(-65.053003,-179.45799)">
	<defs
   id="defs754"><path
     id="SVGID_156_"
     d="m 68.266,187.876 c -0.102,0 -0.178,0.05 -0.204,0.127 -0.076,0.128 0.026,0.306 0.204,0.306 h 2.142 c 0.077,0 0.179,-0.05 0.205,-0.127 0.077,-0.128 -0.05,-0.306 -0.205,-0.306 z m 3.443,0 c -0.076,0 -0.177,0.05 -0.203,0.127 -0.052,0.128 0.05,0.306 0.203,0.306 h 0.434 c 0.077,0 0.153,-0.05 0.203,-0.127 0.052,-0.128 -0.05,-0.306 -0.203,-0.306 z m 1.736,0 c -0.103,0 -0.18,0.05 -0.206,0.127 -0.076,0.128 0.052,0.306 0.206,0.306 H 75 c 0.076,0 0.178,-0.05 0.204,-0.127 0.076,-0.128 -0.051,-0.306 -0.204,-0.306 z" /></defs>
	<clipPath
   id="SVGID_157_">
		<use
   xlink:href="#SVGID_156_"
   overflow="visible"
   id="use756" />
	</clipPath>
	
		<linearGradient
   id="SVGID_158_"
   gradientUnits="userSpaceOnUse"
   x1="0"
   y1="425.19681"
   x2="1"
   y2="425.19681"
   gradientTransform="matrix(7.1902,0,0,-7.1902,68.036,3245.3257)">
		<stop
   offset="0"
   style="stop-color:#161730"
   id="stop759" />
		<stop
   offset="1"
   style="stop-color:#242C5B"
   id="stop761" />
	</linearGradient>
	<rect
   x="67.986"
   y="187.87601"
   clip-path="url(#SVGID_157_)"
   fill="url(#SVGID_158_)"
   width="7.2940001"
   height="0.433"
   id="rect764"
   style="fill:url(#SVGID_158_)" />
</g>
<g
   id="g781"
   transform="translate(-65.053003,-179.45799)">
	<defs
   id="defs769"><path
     id="SVGID_159_"
     d="m 70.664,198.894 c -0.256,-0.23 -0.408,-0.587 -0.408,-0.969 0,-0.357 0.152,-0.714 0.408,-0.944 0.255,-0.254 0.586,-0.408 0.969,-0.408 0.382,0 0.713,0.154 0.969,0.408 0.231,0.23 0.383,0.587 0.383,0.944 0,0.382 -0.152,0.739 -0.383,0.969 -0.256,0.255 -0.587,0.408 -0.969,0.408 -0.383,0 -0.714,-0.153 -0.969,-0.408 m -2.959,-9.285 c 3.903,2.807 3.163,4.72 2.372,6.76 -0.332,0.817 -0.664,1.632 -0.664,2.576 0,1.021 0.588,1.658 1.302,1.939 0.281,0.127 0.612,0.179 0.918,0.179 0.306,0 0.612,-0.052 0.919,-0.179 0.713,-0.281 1.274,-0.918 1.274,-1.939 0,-0.918 -0.28,-1.759 -0.561,-2.576 -0.713,-2.091 -1.377,-4.03 2.296,-6.76 z" /></defs>
	<clipPath
   id="SVGID_160_">
		<use
   xlink:href="#SVGID_159_"
   overflow="visible"
   id="use771" />
	</clipPath>
	
		<linearGradient
   id="SVGID_161_"
   gradientUnits="userSpaceOnUse"
   x1="0"
   y1="425.19681"
   x2="1"
   y2="425.19681"
   gradientTransform="matrix(7.8561,0,0,-7.8561,67.7052,3535.7068)">
		<stop
   offset="0"
   style="stop-color:#F7A715"
   id="stop774" />
		<stop
   offset="1"
   style="stop-color:#FDC623"
   id="stop776" />
	</linearGradient>
	<rect
   x="67.705002"
   y="189.60899"
   clip-path="url(#SVGID_160_)"
   fill="url(#SVGID_161_)"
   width="7.8559999"
   height="11.454"
   id="rect779"
   style="fill:url(#SVGID_161_)" />
</g>





































































































































































































































</svg>
