<?xml version="1.0" encoding="UTF-8" standalone="no"?>
<!-- Generator: Adobe Illustrator 13.0.0, SVG Export Plug-In . SVG Version: 6.00 Build 14948)  -->

<svg
   version="1.1"
   id="Layer_1"
   x="0px"
   y="0px"
   width="18.924999"
   height="18.365021"
   viewBox="0 0 18.924999 18.365021"
   enable-background="new 0 0 187.087 425.197"
   xml:space="preserve"
   sodipodi:docname="sfondo_cell.svg"
   xmlns:inkscape="http://www.inkscape.org/namespaces/inkscape"
   xmlns:sodipodi="http://sodipodi.sourceforge.net/DTD/sodipodi-0.dtd"
   xmlns:xlink="http://www.w3.org/1999/xlink"
   xmlns="http://www.w3.org/2000/svg"
   xmlns:svg="http://www.w3.org/2000/svg"><defs
   id="defs4221" /><sodipodi:namedview
   id="namedview4219"
   pagecolor="#ffffff"
   bordercolor="#000000"
   borderopacity="0.25"
   inkscape:showpageshadow="2"
   inkscape:pageopacity="0.0"
   inkscape:pagecheckerboard="0"
   inkscape:deskcolor="#d1d1d1"
   showgrid="false" />
























































































































































































































<g
   id="g3166"
   transform="translate(-21.439,-321.27099)">
	<defs
   id="defs3154"><path
     id="SVGID_636_"
     d="m 21.821,336.116 h 18.135 v 3.137 H 21.821 Z m -0.178,-0.383 c -0.128,0 -0.204,0.077 -0.204,0.179 v 3.546 c 0,0.102 0.076,0.179 0.204,0.179 h 18.518 c 0.101,0 0.203,-0.077 0.203,-0.179 v -3.546 c 0,-0.102 -0.102,-0.179 -0.203,-0.179 z" /></defs>
	<clipPath
   id="SVGID_637_">
		<use
   xlink:href="#SVGID_636_"
   overflow="visible"
   id="use3156" />
	</clipPath>
	
		<linearGradient
   id="SVGID_638_"
   gradientUnits="userSpaceOnUse"
   x1="-0.00048828131"
   y1="425.19681"
   x2="0.99949998"
   y2="425.19681"
   gradientTransform="matrix(18.9252,0,0,-18.9252,21.4464,8384.625)">
		<stop
   offset="0"
   style="stop-color:#161730"
   id="stop3159" />
		<stop
   offset="1"
   style="stop-color:#242C5B"
   id="stop3161" />
	</linearGradient>
	<rect
   x="21.438999"
   y="335.733"
   clip-path="url(#SVGID_637_)"
   fill="url(#SVGID_638_)"
   width="18.924999"
   height="3.9030001"
   id="rect3164"
   style="fill:url(#SVGID_638_)" />
</g>
<g
   id="g3181"
   transform="translate(-21.439,-321.27099)">
	<defs
   id="defs3169"><path
     id="SVGID_639_"
     d="m 28.479,333.183 c -0.612,-0.613 -0.995,-1.481 -0.995,-2.398 0,-0.943 0.383,-1.811 0.995,-2.423 0.612,-0.613 1.479,-0.995 2.423,-0.995 0.944,0 1.785,0.382 2.397,0.995 h 0.026 c 0.612,0.612 0.995,1.479 0.995,2.423 0,0.917 -0.383,1.785 -1.021,2.398 -0.612,0.611 -1.453,0.994 -2.397,0.994 -0.944,0 -1.811,-0.383 -2.423,-0.994 m -0.256,-5.101 c -0.687,0.688 -1.121,1.631 -1.121,2.703 0,1.046 0.434,1.989 1.121,2.678 0.689,0.689 1.633,1.098 2.679,1.098 1.045,0 1.989,-0.408 2.678,-1.098 0.688,-0.688 1.122,-1.632 1.122,-2.678 0,-1.046 -0.434,-1.99 -1.122,-2.678 v -0.025 c -0.689,-0.688 -1.633,-1.098 -2.678,-1.098 -1.046,0 -1.99,0.409 -2.679,1.098" /></defs>
	<clipPath
   id="SVGID_640_">
		<use
   xlink:href="#SVGID_639_"
   overflow="visible"
   id="use3171" />
	</clipPath>
	
		<linearGradient
   id="SVGID_641_"
   gradientUnits="userSpaceOnUse"
   x1="0"
   y1="425.19681"
   x2="0.99949998"
   y2="425.19681"
   gradientTransform="matrix(7.6009,0,0,-7.6009,27.1024,3562.6519)">
		<stop
   offset="0"
   style="stop-color:#161730"
   id="stop3174" />
		<stop
   offset="1"
   style="stop-color:#242C5B"
   id="stop3176" />
	</linearGradient>
	<rect
   x="27.101999"
   y="326.98401"
   clip-path="url(#SVGID_640_)"
   fill="url(#SVGID_641_)"
   width="7.5999999"
   height="7.5760002"
   id="rect3179"
   style="fill:url(#SVGID_641_)" />
</g>
<g
   id="g3196"
   transform="translate(-21.439,-321.27099)">
	<defs
   id="defs3184"><path
     id="SVGID_642_"
     d="m 28.53,335.733 c -0.077,0 -0.154,0.051 -0.179,0.103 -0.051,0.127 0.051,0.28 0.179,0.28 h 0.356 c 0.077,0 0.154,-0.051 0.18,-0.128 0.05,-0.102 -0.026,-0.255 -0.18,-0.255 z m 1.48,0 c -0.077,0 -0.154,0.051 -0.179,0.103 -0.052,0.127 0.05,0.28 0.179,0.28 h 1.861 c 0.051,0 0.128,-0.051 0.153,-0.128 0.076,-0.102 -0.025,-0.255 -0.153,-0.255 z m 2.958,0 c -0.077,0 -0.128,0.051 -0.153,0.103 -0.077,0.127 0.025,0.28 0.153,0.28 h 0.382 c 0.052,0 0.128,-0.051 0.153,-0.128 0.077,-0.102 -0.025,-0.255 -0.153,-0.255 z m -6.989,-1.173 c 0.383,0.51 0.867,0.942 1.377,1.301 0.23,0.153 0.408,-0.153 0.23,-0.282 -0.51,-0.355 -0.943,-0.764 -1.301,-1.249 -0.041,-0.048 -0.093,-0.067 -0.145,-0.067 -0.139,-10e-4 -0.272,0.148 -0.161,0.297 m 9.565,-0.281 c -0.332,0.46 -0.791,0.918 -1.276,1.25 -0.204,0.154 0.026,0.434 0.23,0.307 0.51,-0.383 0.969,-0.816 1.352,-1.328 0.111,-0.147 -0.02,-0.308 -0.158,-0.308 -0.052,0 -0.106,0.023 -0.148,0.079 m -10.33,-1.022 c 0.051,0.104 0.102,0.23 0.153,0.332 0.026,0.078 0.127,0.13 0.204,0.104 0.128,-0.025 0.179,-0.129 0.128,-0.256 -0.052,-0.126 -0.103,-0.229 -0.153,-0.332 -0.028,-0.074 -0.094,-0.108 -0.161,-0.108 -0.116,0 -0.236,0.101 -0.171,0.26 m 11.07,-0.227 c -0.052,0.127 -0.102,0.228 -0.153,0.331 -0.103,0.255 0.254,0.358 0.331,0.178 0.051,-0.128 0.102,-0.228 0.154,-0.355 0.066,-0.149 -0.062,-0.256 -0.181,-0.256 -0.064,-10e-4 -0.125,0.03 -0.151,0.102 m -11.58,-2.755 v 0.51 c 0,0.459 0.051,0.917 0.153,1.378 0.025,0.127 0.178,0.203 0.28,0.103 0.051,-0.026 0.103,-0.103 0.077,-0.18 -0.102,-0.408 -0.153,-0.892 -0.153,-1.301 0,-0.179 0,-0.332 0.025,-0.484 0,-0.137 -0.091,-0.194 -0.184,-0.194 -0.097,-0.001 -0.198,0.063 -0.198,0.168 m 11.988,-0.051 c 0.025,0.179 0.025,0.356 0.025,0.561 0.026,0.409 -0.025,0.816 -0.127,1.226 -0.052,0.255 0.331,0.305 0.357,0.075 0.102,-0.434 0.153,-0.842 0.153,-1.301 0,-0.204 0,-0.382 -0.025,-0.587 -0.024,-0.117 -0.107,-0.169 -0.19,-0.169 -0.097,0 -0.193,0.071 -0.193,0.195 m -11.657,-1.455 c -0.051,0.129 -0.101,0.256 -0.127,0.384 -0.051,0.254 0.332,0.306 0.357,0.076 0.026,-0.103 0.076,-0.229 0.102,-0.331 0.066,-0.133 -0.06,-0.243 -0.178,-0.243 -0.064,0 -0.127,0.033 -0.154,0.114 m 11.35,0.052 c 0.052,0.128 0.103,0.229 0.128,0.357 0.103,0.255 0.434,0.076 0.357,-0.103 -0.051,-0.127 -0.076,-0.255 -0.127,-0.383 -0.036,-0.081 -0.101,-0.114 -0.167,-0.114 -0.119,0.001 -0.24,0.111 -0.191,0.243 m -9.717,-2.575 c -0.459,0.433 -0.868,0.943 -1.174,1.479 -0.127,0.204 0.205,0.408 0.306,0.178 0.332,-0.509 0.664,-0.969 1.123,-1.402 0.136,-0.135 0.006,-0.314 -0.131,-0.314 -0.043,-0.002 -0.087,0.016 -0.124,0.059 m 8.162,0.203 c 0.434,0.408 0.816,0.893 1.122,1.403 0.127,0.204 0.433,0.024 0.306,-0.18 -0.306,-0.535 -0.714,-1.07 -1.173,-1.479 -0.043,-0.043 -0.091,-0.062 -0.135,-0.062 -0.142,0.001 -0.256,0.183 -0.12,0.318 m -6.938,-1.096 c -0.102,0.05 -0.203,0.127 -0.331,0.178 -0.179,0.127 -0.025,0.433 0.203,0.331 0.103,-0.076 0.204,-0.128 0.307,-0.204 0.19,-0.105 0.081,-0.336 -0.079,-0.336 -0.032,0 -0.066,0.009 -0.1,0.031 m 5.764,0.279 c 0.103,0.052 0.205,0.128 0.306,0.179 0.23,0.128 0.409,-0.179 0.205,-0.306 -0.128,-0.077 -0.23,-0.128 -0.332,-0.205 -0.028,-0.014 -0.056,-0.02 -0.084,-0.02 -0.169,0.001 -0.292,0.243 -0.095,0.352 m -2.806,-1.046 -0.025,-0.024 c -0.612,0 -1.3,0.127 -1.887,0.331 -0.255,0.102 -0.077,0.434 0.128,0.332 0.56,-0.18 1.172,-0.281 1.759,-0.281 h 0.051 c 0.689,0.051 1.071,0.051 1.786,0.281 0.204,0.075 0.356,-0.281 0.153,-0.357 -0.536,-0.205 -1.352,-0.281 -1.913,-0.306 z" /></defs>
	<clipPath
   id="SVGID_643_">
		<use
   xlink:href="#SVGID_642_"
   overflow="visible"
   id="use3186" />
	</clipPath>
	
		<linearGradient
   id="SVGID_644_"
   gradientUnits="userSpaceOnUse"
   x1="0"
   y1="425.19681"
   x2="1"
   y2="425.19681"
   gradientTransform="matrix(12.396,0,0,-12.396,24.7047,5601.0576)">
		<stop
   offset="0"
   style="stop-color:#161730"
   id="stop3189" />
		<stop
   offset="1"
   style="stop-color:#242C5B"
   id="stop3191" />
	</linearGradient>
	<rect
   x="24.704"
   y="324.56201"
   clip-path="url(#SVGID_643_)"
   fill="url(#SVGID_644_)"
   width="12.396"
   height="11.554"
   id="rect3194"
   style="fill:url(#SVGID_644_)" />
</g>
<g
   id="g3211"
   transform="translate(-21.439,-321.27099)">
	<defs
   id="defs3199"><path
     id="SVGID_645_"
     d="m 22.561,337.493 c -0.076,0 -0.153,0.051 -0.153,0.103 -0.076,0.127 0.025,0.279 0.153,0.279 h 1.862 c 0.052,0 0.127,-0.05 0.153,-0.101 0.077,-0.127 -0.026,-0.281 -0.153,-0.281 z m 2.959,0 c -0.051,0 -0.127,0.051 -0.153,0.103 -0.076,0.127 0.026,0.279 0.153,0.279 h 0.383 c 0.076,0 0.127,-0.05 0.152,-0.101 0.077,-0.127 -0.025,-0.281 -0.152,-0.281 z m 1.479,0 c -0.051,0 -0.128,0.051 -0.153,0.103 -0.076,0.127 0.025,0.279 0.153,0.279 h 1.862 c 0.077,0 0.153,-0.05 0.179,-0.101 0.051,-0.127 -0.051,-0.281 -0.179,-0.281 z m 2.985,0 c -0.077,0 -0.153,0.051 -0.179,0.103 -0.051,0.127 0.026,0.279 0.179,0.279 h 0.356 c 0.077,0 0.154,-0.05 0.179,-0.101 0.051,-0.127 -0.05,-0.281 -0.179,-0.281 z m 1.479,0 c -0.076,0 -0.154,0.051 -0.179,0.103 -0.051,0.127 0.025,0.279 0.179,0.279 h 1.836 c 0.077,0 0.153,-0.05 0.179,-0.101 0.051,-0.127 -0.026,-0.281 -0.179,-0.281 z m 2.958,0 c -0.076,0 -0.153,0.051 -0.178,0.103 -0.051,0.127 0.051,0.279 0.178,0.279 h 0.358 c 0.076,0 0.153,-0.05 0.178,-0.101 0.051,-0.127 -0.025,-0.281 -0.178,-0.281 z m 1.48,0 c -0.077,0 -0.153,0.051 -0.178,0.103 -0.052,0.127 0.051,0.279 0.178,0.279 h 1.862 c 0.051,0 0.127,-0.05 0.152,-0.101 0.078,-0.127 -0.025,-0.281 -0.152,-0.281 z m 2.958,0 c -0.076,0 -0.127,0.051 -0.153,0.103 -0.076,0.127 0.026,0.279 0.153,0.279 h 0.383 c 0.051,0 0.128,-0.05 0.153,-0.101 0.051,-0.127 -0.025,-0.281 -0.153,-0.281 z" /></defs>
	<clipPath
   id="SVGID_646_">
		<use
   xlink:href="#SVGID_645_"
   overflow="visible"
   id="use3201" />
	</clipPath>
	
		<linearGradient
   id="SVGID_647_"
   gradientUnits="userSpaceOnUse"
   x1="0"
   y1="425.19681"
   x2="1"
   y2="425.19681"
   gradientTransform="matrix(17.029,0,0,-17.029,22.3902,7578.3374)">
		<stop
   offset="0"
   style="stop-color:#161730"
   id="stop3204" />
		<stop
   offset="1"
   style="stop-color:#242C5B"
   id="stop3206" />
	</linearGradient>
	<rect
   x="22.332001"
   y="337.49301"
   clip-path="url(#SVGID_646_)"
   fill="url(#SVGID_647_)"
   width="17.114"
   height="0.382"
   id="rect3209"
   style="fill:url(#SVGID_647_)" />
</g>
<g
   id="g3226"
   transform="translate(-21.439,-321.27099)">
	<defs
   id="defs3214"><path
     id="SVGID_648_"
     d="m 30.085,321.374 -1.224,1.3 -0.051,0.026 -0.459,-0.791 c -0.025,-0.026 -0.051,-0.051 -0.077,-0.077 -0.025,-0.024 -0.051,-0.05 -0.076,-0.076 -0.102,-0.051 -0.204,-0.051 -0.28,-0.025 -0.103,0.025 -0.179,0.102 -0.229,0.179 l -0.843,1.581 -0.025,0.026 -0.638,-0.639 c -0.025,-0.024 -0.051,-0.051 -0.102,-0.077 -0.026,-0.024 -0.076,-0.024 -0.102,-0.051 -0.102,0 -0.204,0 -0.28,0.051 -0.077,0.053 -0.153,0.154 -0.179,0.256 l -0.408,1.734 -0.026,0.025 -0.764,-0.459 c -0.052,0 -0.077,-0.024 -0.103,-0.024 -0.051,-0.025 -0.076,-0.025 -0.128,-0.025 -0.101,0 -0.203,0.05 -0.254,0.127 -0.077,0.051 -0.102,0.152 -0.102,0.255 l 0.05,1.785 -0.025,0.051 -0.893,-0.254 h -0.101 c -0.027,0 -0.052,0 -0.103,0.024 -0.102,0.026 -0.178,0.076 -0.203,0.179 -0.052,0.076 -0.077,0.179 -0.052,0.28 l 0.536,1.709 -0.025,0.052 h -0.918 -0.103 c -0.025,0.025 -0.05,0.025 -0.102,0.051 -0.076,0.051 -0.128,0.127 -0.153,0.229 -0.026,0.104 0,0.205 0.051,0.281 l 0.944,1.53 v 0.051 l -0.893,0.23 c -0.025,0 -0.077,0.025 -0.102,0.025 -0.026,0.025 -0.051,0.051 -0.076,0.076 -0.077,0.077 -0.103,0.179 -0.103,0.28 0,0.077 0.051,0.179 0.128,0.255 l 1.301,1.226 v 0.05 l -0.791,0.434 c -0.025,0.024 -0.051,0.051 -0.076,0.078 -0.025,0.023 -0.052,0.05 -0.077,0.075 v 0.024 c -0.051,0.077 -0.051,0.179 -0.025,0.282 0.025,0.077 0.102,0.153 0.178,0.203 l 1.582,0.843 0.026,0.05 -0.638,0.637 c -0.052,0.053 -0.077,0.077 -0.103,0.13 0,0.051 -0.025,0.102 -0.025,0.152 v 0.025 c 0.025,0.077 0.051,0.179 0.128,0.229 0.05,0.076 0.152,0.128 0.254,0.128 h 1.378 v -0.357 l -1.378,-0.025 c -0.076,0 0.664,-0.688 0.74,-0.766 0.051,-0.05 0.077,-0.153 0.025,-0.203 l -0.101,-0.231 c -0.026,-0.024 -0.052,-0.051 -0.077,-0.051 L 22.28,333.59 c 0,-0.025 0.842,-0.51 0.918,-0.534 0.078,-0.051 0.103,-0.128 0.103,-0.23 l -0.077,-0.229 c 0,-0.026 -0.026,-0.052 -0.051,-0.077 -0.178,-0.179 -1.275,-1.173 -1.352,-1.275 0.027,-0.025 0.945,-0.255 1.046,-0.28 0.077,-0.025 0.128,-0.102 0.128,-0.179 v -0.229 c 0,-0.025 0,-0.076 -0.026,-0.103 l -0.968,-1.555 c 0,-0.052 0.968,-0.026 1.071,-0.026 0.076,0 0.152,-0.051 0.178,-0.127 l 0.051,-0.229 c 0.025,-0.026 0.025,-0.077 0,-0.103 -0.051,-0.204 -0.535,-1.683 -0.535,-1.76 0.025,-0.026 0.944,0.229 1.045,0.255 0.077,0.025 0.153,0 0.204,-0.077 l 0.128,-0.204 c 0,-0.024 0.025,-0.076 0.025,-0.102 l -0.077,-1.836 c 0.026,-0.026 0.843,0.459 0.919,0.511 0.076,0.05 0.178,0.05 0.23,-0.026 l 0.178,-0.152 c 0.026,-0.026 0.051,-0.052 0.051,-0.104 l 0.408,-1.785 h 0.026 c 0,0 0.663,0.663 0.74,0.739 0.076,0.052 0.153,0.077 0.228,0.026 l 0.205,-0.127 c 0.026,0 0.051,-0.026 0.076,-0.052 l 0.868,-1.633 c 0.025,-0.024 0.485,0.816 0.535,0.919 0.052,0.076 0.128,0.102 0.205,0.076 l 0.229,-0.051 c 0.051,0 0.077,-0.025 0.102,-0.051 l 1.249,-1.352 c 0.027,0.025 0.256,0.944 0.282,1.045 0.025,0.076 0.101,0.127 0.178,0.127 h 0.229 c 0.052,0 0.077,0 0.128,-0.024 l 1.555,-0.969 c 0.026,0 0,0.969 0,1.07 0,0.077 0.052,0.153 0.154,0.179 l 0.23,0.051 h 0.101 c 0.205,-0.051 1.683,-0.534 1.76,-0.534 0,0.024 -0.255,0.943 -0.281,1.019 -0.025,0.103 0.026,0.18 0.103,0.23 l 0.204,0.102 c 0.025,0.025 0.05,0.025 0.102,0.025 l 1.836,-0.051 c 0.026,0.025 -0.484,0.842 -0.536,0.943 -0.025,0.052 -0.025,0.153 0.026,0.204 l 0.179,0.18 c 0.026,0.024 0.051,0.051 0.076,0.051 l 1.811,0.408 c 0,0.024 -0.663,0.688 -0.74,0.765 -0.076,0.051 -0.076,0.153 -0.05,0.229 l 0.127,0.204 c 0.026,0.025 0.051,0.051 0.076,0.075 l 1.607,0.868 h 0.026 c -0.026,0.026 -0.842,0.485 -0.918,0.536 -0.077,0.026 -0.128,0.127 -0.102,0.204 l 0.05,0.229 c 0.026,0.052 0.026,0.077 0.077,0.104 l 1.326,1.249 c 0,0.025 -0.918,0.256 -1.02,0.281 -0.077,0.024 -0.127,0.102 -0.127,0.178 l -0.026,0.229 c 0,0.052 0.026,0.077 0.051,0.103 l 0.969,1.581 c 0,0.025 -0.969,0 -1.071,0 -0.076,0 -0.153,0.051 -0.179,0.127 l -0.076,0.23 v 0.128 c 0.076,0.203 0.536,1.685 0.536,1.76 0,0 -0.919,-0.257 -1.02,-0.281 -0.078,-0.026 -0.179,0.024 -0.205,0.102 l -0.127,0.204 c -0.026,0.026 -0.026,0.052 -0.026,0.104 l 0.026,0.841 H 37.1 v 0.357 h 0.561 0.026 c 0.101,0 0.178,-0.052 0.254,-0.103 0.052,-0.076 0.103,-0.178 0.103,-0.28 l -0.026,-0.791 v -0.024 l 0.893,0.229 h 0.102 0.102 c 0.102,-0.025 0.178,-0.102 0.229,-0.179 0.051,-0.102 0.051,-0.203 0.026,-0.306 l -0.511,-1.709 v -0.025 h 0.893 c 0.051,0 0.077,0 0.128,-0.025 0.025,0 0.076,-0.024 0.102,-0.052 0.102,-0.051 0.153,-0.127 0.179,-0.229 0.025,-0.077 0,-0.18 -0.052,-0.281 l -0.943,-1.505 v -0.052 l 0.892,-0.229 c 0.026,-0.026 0.051,-0.026 0.103,-0.051 0.025,-0.026 0.05,-0.051 0.075,-0.076 0.052,-0.077 0.103,-0.153 0.103,-0.256 0,-0.103 -0.051,-0.203 -0.128,-0.281 l -1.3,-1.198 v -0.051 l 0.765,-0.459 c 0.051,-0.025 0.076,-0.025 0.102,-0.051 v -0.025 c 0.025,-0.025 0.051,-0.052 0.051,-0.077 l 0.025,-0.024 c 0.026,-0.078 0.026,-0.181 0,-0.256 -0.025,-0.102 -0.076,-0.179 -0.178,-0.229 l -1.556,-0.842 -0.026,-0.051 0.638,-0.639 c 0.026,0 0.051,-0.051 0.051,-0.076 h 0.026 c 0,-0.051 0.025,-0.076 0.025,-0.102 v -0.025 c 0.025,-0.076 0,-0.18 -0.051,-0.255 -0.051,-0.077 -0.127,-0.152 -0.23,-0.179 l -1.734,-0.409 -0.025,-0.024 0.459,-0.816 c 0,-0.026 0.025,-0.052 0.025,-0.077 0,-0.051 0.026,-0.076 0.026,-0.102 -0.026,-0.103 -0.051,-0.204 -0.128,-0.254 -0.076,-0.078 -0.179,-0.104 -0.28,-0.104 l -1.786,0.051 -0.025,-0.025 0.229,-0.893 c 0,-0.024 0.025,-0.051 0.025,-0.101 0,-0.026 -0.025,-0.077 -0.025,-0.103 -0.025,-0.103 -0.102,-0.179 -0.178,-0.229 -0.103,-0.026 -0.204,-0.052 -0.281,-0.026 l -1.709,0.535 -0.05,-0.024 v -0.918 c 0,-0.025 0,-0.077 -0.026,-0.103 0,-0.024 -0.026,-0.051 -0.026,-0.102 -0.076,-0.076 -0.153,-0.127 -0.254,-0.153 -0.078,-0.025 -0.179,-0.025 -0.281,0.051 l -1.505,0.944 h -0.051 l -0.23,-0.893 c -0.026,-0.052 -0.026,-0.076 -0.051,-0.103 -0.025,-0.025 -0.05,-0.051 -0.076,-0.076 -0.051,-0.077 -0.153,-0.103 -0.256,-0.103 -0.102,0.001 -0.203,0.026 -0.255,0.104" /></defs>
	<clipPath
   id="SVGID_649_">
		<use
   xlink:href="#SVGID_648_"
   overflow="visible"
   id="use3216" />
	</clipPath>
	
		<linearGradient
   id="SVGID_650_"
   gradientUnits="userSpaceOnUse"
   x1="-0.00048828131"
   y1="425.19681"
   x2="0.99949998"
   y2="425.19681"
   gradientTransform="matrix(18.8744,0,0,-18.8744,21.467,8353.9883)">
		<stop
   offset="0"
   style="stop-color:#161730"
   id="stop3219" />
		<stop
   offset="1"
   style="stop-color:#242C5B"
   id="stop3221" />
	</linearGradient>
	<rect
   x="21.464001"
   y="321.271"
   clip-path="url(#SVGID_649_)"
   fill="url(#SVGID_650_)"
   width="18.875"
   height="14.819"
   id="rect3224"
   style="fill:url(#SVGID_650_)" />
</g>
<g
   id="g3241"
   transform="translate(-21.439,-321.27099)">
	<defs
   id="defs3229"><path
     id="SVGID_651_"
     d="m 22.408,337.595 c 0,-0.052 0.077,-0.103 0.153,-0.103 h 1.862 c 0.127,0 0.23,0.154 0.153,0.281 -0.026,0.051 -0.101,0.101 -0.153,0.101 h -1.862 c -0.128,10e-4 -0.229,-0.152 -0.153,-0.279 m 2.959,0 c 0.026,-0.052 0.102,-0.103 0.153,-0.103 h 0.383 c 0.127,0 0.229,0.154 0.152,0.281 -0.025,0.051 -0.076,0.101 -0.152,0.101 H 25.52 c -0.127,10e-4 -0.229,-0.152 -0.153,-0.279 m 1.479,0 c 0.025,-0.052 0.102,-0.103 0.153,-0.103 h 1.862 c 0.128,0 0.23,0.154 0.179,0.281 -0.026,0.051 -0.102,0.101 -0.179,0.101 h -1.862 c -0.128,10e-4 -0.229,-0.152 -0.153,-0.279 m 2.959,0 c 0.026,-0.052 0.102,-0.103 0.179,-0.103 h 0.356 c 0.129,0 0.23,0.154 0.179,0.281 -0.025,0.051 -0.102,0.101 -0.179,0.101 h -0.356 c -0.153,10e-4 -0.23,-0.152 -0.179,-0.279 m 1.479,0 c 0.025,-0.052 0.103,-0.103 0.179,-0.103 h 1.836 c 0.153,0 0.23,0.154 0.179,0.281 -0.026,0.051 -0.102,0.101 -0.179,0.101 h -1.836 c -0.154,10e-4 -0.23,-0.152 -0.179,-0.279 m 2.959,0 c 0.025,-0.052 0.102,-0.103 0.178,-0.103 h 0.358 c 0.153,0 0.229,0.154 0.178,0.281 -0.025,0.051 -0.102,0.101 -0.178,0.101 h -0.358 c -0.127,10e-4 -0.229,-0.152 -0.178,-0.279 m 1.48,0 c 0.025,-0.052 0.101,-0.103 0.178,-0.103 h 1.862 c 0.127,0 0.23,0.154 0.152,0.281 -0.025,0.051 -0.101,0.101 -0.152,0.101 h -1.862 c -0.127,10e-4 -0.23,-0.152 -0.178,-0.279 m 2.983,0 c 0.026,-0.052 0.077,-0.103 0.153,-0.103 h 0.383 c 0.128,0 0.204,0.154 0.153,0.281 -0.025,0.051 -0.102,0.101 -0.153,0.101 h -0.383 c -0.127,10e-4 -0.229,-0.152 -0.153,-0.279 m -16.885,1.656 h 18.135 v -3.137 H 21.821 Z" /></defs>
	<clipPath
   id="SVGID_652_">
		<use
   xlink:href="#SVGID_651_"
   overflow="visible"
   id="use3231" />
	</clipPath>
	
		<linearGradient
   id="SVGID_653_"
   gradientUnits="userSpaceOnUse"
   x1="-0.00048828131"
   y1="425.19681"
   x2="0.99949998"
   y2="425.19681"
   gradientTransform="matrix(18.1347,0,0,-18.1347,21.829,8048.4971)">
		<stop
   offset="0"
   style="stop-color:#F7A715"
   id="stop3234" />
		<stop
   offset="1"
   style="stop-color:#FDC623"
   id="stop3236" />
	</linearGradient>
	<rect
   x="21.820999"
   y="336.11499"
   clip-path="url(#SVGID_652_)"
   fill="url(#SVGID_653_)"
   width="18.135"
   height="3.1370001"
   id="rect3239"
   style="fill:url(#SVGID_653_)" />
</g>

































































</svg>
