<?xml version="1.0" encoding="UTF-8" standalone="no"?>
<!-- Generator: Adobe Illustrator 13.0.0, SVG Export Plug-In . SVG Version: 6.00 Build 14948)  -->

<svg
   version="1.1"
   id="Layer_1"
   x="0px"
   y="0px"
   width="22.292"
   height="19.256012"
   viewBox="0 0 22.291999 19.256012"
   enable-background="new 0 0 187.087 425.197"
   xml:space="preserve"
   sodipodi:docname="sfondo_cell.svg"
   xmlns:inkscape="http://www.inkscape.org/namespaces/inkscape"
   xmlns:sodipodi="http://sodipodi.sourceforge.net/DTD/sodipodi-0.dtd"
   xmlns:xlink="http://www.w3.org/1999/xlink"
   xmlns="http://www.w3.org/2000/svg"
   xmlns:svg="http://www.w3.org/2000/svg"><defs
   id="defs4221" /><sodipodi:namedview
   id="namedview4219"
   pagecolor="#ffffff"
   bordercolor="#000000"
   borderopacity="0.25"
   inkscape:showpageshadow="2"
   inkscape:pageopacity="0.0"
   inkscape:pagecheckerboard="0"
   inkscape:deskcolor="#d1d1d1"
   showgrid="false" />









































































































































































































































<g
   id="g3421"
   transform="translate(-101.90799,-322.26598)">
	<defs
   id="defs3409"><path
     id="SVGID_687_"
     d="m 107.239,339.251 1.836,-0.05 0.127,-0.051 1.174,-0.97 v 0.179 l -1.912,2.525 z m 1.759,-0.458 -2.55,0.103 1.861,2.424 0.154,0.203 2.27,-2.983 0.052,-0.103 v -1.072 z m 0.103,-14.691 c 0.18,-0.153 0.281,-0.383 0.281,-0.638 V 322.8 h 4.999 l -3.928,3.471 -0.077,0.076 v 5.892 l -3.825,3.112 v -9.004 c -1.328,-1.174 -2.652,-2.372 -3.979,-3.547 h 4.975 v 0.664 c 0,0.255 0.102,0.484 0.279,0.638 0.152,0.179 0.383,0.28 0.639,0.28 0.253,0 0.483,-0.101 0.636,-0.28 m -0.103,-1.684 v 1.046 c 0,0.127 -0.075,0.28 -0.152,0.357 -0.103,0.102 -0.229,0.153 -0.382,0.153 -0.154,0 -0.282,-0.052 -0.384,-0.153 -0.076,-0.077 -0.153,-0.23 -0.153,-0.357 v -1.046 h -5.891 l -0.128,0.331 4.26,3.775 v 9.438 l 0.383,0.025 0.025,-0.152 4.209,-3.419 v -5.892 l 1.019,-0.918 3.215,-2.857 -0.129,-0.331 z" /></defs>
	<clipPath
   id="SVGID_688_">
		<use
   xlink:href="#SVGID_687_"
   overflow="visible"
   id="use3411" />
	</clipPath>
	
		<linearGradient
   id="SVGID_689_"
   gradientUnits="userSpaceOnUse"
   x1="0"
   y1="425.19781"
   x2="1"
   y2="425.19781"
   gradientTransform="matrix(13.1107,0,0,-13.1107,101.9112,5906.6113)">
		<stop
   offset="0"
   style="stop-color:#161730"
   id="stop3414" />
		<stop
   offset="1"
   style="stop-color:#242C5B"
   id="stop3416" />
	</linearGradient>
	<rect
   x="101.908"
   y="322.418"
   clip-path="url(#SVGID_688_)"
   fill="url(#SVGID_689_)"
   width="13.11"
   height="19.104"
   id="rect3419"
   style="fill:url(#SVGID_689_)" />
</g>
<g
   id="g3436"
   transform="translate(-101.90799,-322.26598)">
	<defs
   id="defs3424"><path
     id="SVGID_690_"
     d="m 105.325,325.48 0.257,0.28 2.295,-2.271 -0.281,-0.28 z m -2.014,-1.761 0.281,0.256 1.225,-1.226 -0.28,-0.279 z m 1.173,1.046 0.279,0.256 2.271,-2.271 -0.254,-0.279 z m 2.959,1.481 0.28,0.279 3.774,-3.775 -0.28,-0.279 z m 2.218,0.025 0.281,0.254 3.774,-3.775 -0.28,-0.279 z" /></defs>
	<clipPath
   id="SVGID_691_">
		<use
   xlink:href="#SVGID_690_"
   overflow="visible"
   id="use3426" />
	</clipPath>
	
		<linearGradient
   id="SVGID_692_"
   gradientUnits="userSpaceOnUse"
   x1="0"
   y1="425.19681"
   x2="1"
   y2="425.19681"
   gradientTransform="matrix(10.4065,0,0,-10.4065,103.3085,4749.2905)">
		<stop
   offset="0"
   style="stop-color:#161730"
   id="stop3429" />
		<stop
   offset="1"
   style="stop-color:#242C5B"
   id="stop3431" />
	</linearGradient>
	<rect
   x="103.311"
   y="322.47"
   clip-path="url(#SVGID_691_)"
   fill="url(#SVGID_692_)"
   width="10.406"
   height="4.0549998"
   id="rect3434"
   style="fill:url(#SVGID_692_)" />
</g>
<g
   id="g3451"
   transform="translate(-101.90799,-322.26598)">
	<defs
   id="defs3439"><rect
     id="SVGID_693_"
     x="106.321"
     y="326.194"
     width="4.2859998"
     height="0.40799999" /></defs>
	<clipPath
   id="SVGID_694_">
		<use
   xlink:href="#SVGID_693_"
   overflow="visible"
   id="use3441" />
	</clipPath>
	
		<linearGradient
   id="SVGID_695_"
   gradientUnits="userSpaceOnUse"
   x1="0.00048828131"
   y1="425.19681"
   x2="1.0005"
   y2="425.19681"
   gradientTransform="matrix(4.2857,0,0,-4.2857,106.3202,2148.6609)">
		<stop
   offset="0"
   style="stop-color:#161730"
   id="stop3444" />
		<stop
   offset="1"
   style="stop-color:#242C5B"
   id="stop3446" />
	</linearGradient>
	<rect
   x="106.321"
   y="326.194"
   clip-path="url(#SVGID_694_)"
   fill="url(#SVGID_695_)"
   width="4.2859998"
   height="0.40799999"
   id="rect3449"
   style="fill:url(#SVGID_695_)" />
</g>
<g
   id="g3466"
   transform="translate(-101.90799,-322.26598)">
	<defs
   id="defs3454"><path
     id="SVGID_696_"
     d="m 108.285,339.023 v 0.025 c 0,0.076 0.024,0.153 0.102,0.179 0.128,0.051 0.255,-0.052 0.255,-0.179 v -0.025 c 0,-0.077 -0.024,-0.152 -0.103,-0.178 -0.023,-0.01 -0.045,-0.014 -0.067,-0.014 -0.101,10e-4 -0.187,0.087 -0.187,0.192 m 0,-8.57 v 1.71 1.886 c 0,0.077 0.024,0.153 0.102,0.153 0.128,0.077 0.255,-0.024 0.255,-0.153 v -3.596 c 0,-0.076 -0.024,-0.152 -0.103,-0.178 -0.023,-0.009 -0.046,-0.014 -0.068,-0.014 -0.1,0 -0.186,0.088 -0.186,0.192 m 0,-2.729 v 1.811 c 0,0.051 0.024,0.128 0.102,0.153 0.128,0.077 0.255,-0.025 0.255,-0.153 v -1.811 c 0,-0.076 -0.024,-0.128 -0.103,-0.153 -0.03,-0.018 -0.062,-0.026 -0.089,-0.026 -0.091,-0.001 -0.165,0.081 -0.165,0.179" /></defs>
	<clipPath
   id="SVGID_697_">
		<use
   xlink:href="#SVGID_696_"
   overflow="visible"
   id="use3456" />
	</clipPath>
	
		<linearGradient
   id="SVGID_698_"
   gradientUnits="userSpaceOnUse"
   x1="0.00048828131"
   y1="425.1431"
   x2="1.0005"
   y2="425.1431"
   gradientTransform="matrix(0.3565,0,0,-0.3565,108.2852,484.9597)">
		<stop
   offset="0"
   style="stop-color:#161730"
   id="stop3459" />
		<stop
   offset="1"
   style="stop-color:#242C5B"
   id="stop3461" />
	</linearGradient>
	<rect
   x="108.285"
   y="327.54401"
   clip-path="url(#SVGID_697_)"
   fill="url(#SVGID_698_)"
   width="0.35600001"
   height="11.733"
   id="rect3464"
   style="fill:url(#SVGID_698_)" />
</g>
<g
   id="g3481"
   transform="translate(-101.90799,-322.26598)">
	<defs
   id="defs3469"><path
     id="SVGID_699_"
     d="m 106.576,335.835 9.309,-7.601 0.23,-5.332 3.138,3.852 -0.511,0.435 c -0.179,0.152 -0.307,0.382 -0.332,0.61 0,0.23 0.052,0.486 0.205,0.664 0.178,0.204 0.382,0.306 0.638,0.331 0.229,0.026 0.459,-0.025 0.663,-0.203 l 0.509,-0.408 3.164,3.877 -5.179,-0.842 -0.102,-0.024 -9.311,7.6 -3.162,0.128 z m 9.156,-13.467 -0.23,5.662 -9.233,7.549 -0.051,0.104 -0.893,3.646 3.75,-0.127 0.127,-0.051 9.233,-7.55 1.353,0.229 4.234,0.688 0.178,-0.307 -3.725,-4.564 -0.815,0.663 c -0.103,0.077 -0.254,0.127 -0.382,0.102 -0.128,0 -0.255,-0.077 -0.357,-0.178 -0.077,-0.128 -0.128,-0.255 -0.102,-0.383 0,-0.153 0.075,-0.281 0.178,-0.357 l 0.816,-0.664 -3.725,-4.564 z" /></defs>
	<clipPath
   id="SVGID_700_">
		<use
   xlink:href="#SVGID_699_"
   overflow="visible"
   id="use3471" />
	</clipPath>
	
		<linearGradient
   id="SVGID_701_"
   gradientUnits="userSpaceOnUse"
   x1="0.00048828131"
   y1="425.19781"
   x2="1.0005"
   y2="425.19781"
   gradientTransform="matrix(18.8747,0,0,-18.8747,105.3284,8356.2422)">
		<stop
   offset="0"
   style="stop-color:#161730"
   id="stop3474" />
		<stop
   offset="1"
   style="stop-color:#242C5B"
   id="stop3476" />
	</linearGradient>
	<rect
   x="105.325"
   y="322.26599"
   clip-path="url(#SVGID_700_)"
   fill="url(#SVGID_701_)"
   width="18.875"
   height="17.063"
   id="rect3479"
   style="fill:url(#SVGID_701_)" />
</g>
<g
   id="g3496"
   transform="translate(-101.90799,-322.26598)">
	<defs
   id="defs3484"><path
     id="SVGID_702_"
     d="m 117.876,330.963 5.33,0.561 0.051,-0.407 -5.331,-0.536 z m -1.378,-1.709 5.305,0.535 0.051,-0.383 -5.306,-0.535 z m -0.766,-2.117 3.215,0.306 0.05,-0.381 -3.24,-0.332 z m 0.051,-1.122 3.214,0.332 0.026,-0.384 -3.216,-0.331 z m 0.052,-1.581 1.734,0.178 0.05,-0.382 -1.734,-0.18 z" /></defs>
	<clipPath
   id="SVGID_703_">
		<use
   xlink:href="#SVGID_702_"
   overflow="visible"
   id="use3486" />
	</clipPath>
	
		<linearGradient
   id="SVGID_704_"
   gradientUnits="userSpaceOnUse"
   x1="0"
   y1="425.19681"
   x2="1"
   y2="425.19681"
   gradientTransform="matrix(7.5246,0,0,-7.5246,115.7337,3527.2427)">
		<stop
   offset="0"
   style="stop-color:#161730"
   id="stop3489" />
		<stop
   offset="1"
   style="stop-color:#242C5B"
   id="stop3491" />
	</linearGradient>
	<rect
   x="115.732"
   y="324.04999"
   clip-path="url(#SVGID_703_)"
   fill="url(#SVGID_704_)"
   width="7.5240002"
   height="7.474"
   id="rect3494"
   style="fill:url(#SVGID_704_)" />
</g>
<g
   id="g3511"
   transform="translate(-101.90799,-322.26598)">
	<defs
   id="defs3499"><polygon
     id="SVGID_705_"
     points="115.554,328.208 118.257,331.524 118.563,331.294 115.86,327.98 " /></defs>
	<clipPath
   id="SVGID_706_">
		<use
   xlink:href="#SVGID_705_"
   overflow="visible"
   id="use3501" />
	</clipPath>
	
		<linearGradient
   id="SVGID_707_"
   gradientUnits="userSpaceOnUse"
   x1="0"
   y1="425.1958"
   x2="1"
   y2="425.1958"
   gradientTransform="matrix(3.0093,0,0,-3.0093,115.5526,1609.3103)">
		<stop
   offset="0"
   style="stop-color:#161730"
   id="stop3504" />
		<stop
   offset="1"
   style="stop-color:#242C5B"
   id="stop3506" />
	</linearGradient>
	<rect
   x="115.554"
   y="327.98001"
   clip-path="url(#SVGID_706_)"
   fill="url(#SVGID_707_)"
   width="3.01"
   height="3.5439999"
   id="rect3509"
   style="fill:url(#SVGID_707_)" />
</g>
<g
   id="g3526"
   transform="translate(-101.90799,-322.26598)">
	<defs
   id="defs3514"><path
     id="SVGID_708_"
     d="m 108.591,336.421 -1.454,1.199 c -0.179,0.127 0.05,0.434 0.229,0.28 l 1.479,-1.198 c 0.145,-0.104 0.022,-0.323 -0.138,-0.323 -0.036,0 -0.077,0.013 -0.116,0.042 m 1.173,-0.943 -0.279,0.229 c -0.204,0.153 0.023,0.434 0.229,0.28 l 0.28,-0.229 c 0.163,-0.121 0.05,-0.324 -0.106,-0.324 -0.04,0 -0.083,0.013 -0.124,0.044 m 2.32,-1.914 -1.453,1.2 c -0.178,0.128 0.051,0.433 0.255,0.28 l 1.455,-1.198 c 0.145,-0.103 0.021,-0.323 -0.139,-0.323 -0.038,0 -0.078,0.012 -0.118,0.041 m 1.175,-0.943 -0.282,0.231 c -0.203,0.127 0.026,0.432 0.23,0.279 l 0.306,-0.229 c 0.143,-0.121 0.025,-0.325 -0.131,-0.325 -0.04,0 -0.082,0.012 -0.123,0.044 m 2.346,-1.913 -1.48,1.199 c -0.179,0.128 0.052,0.434 0.256,0.28 l 1.454,-1.198 c 0.165,-0.103 0.046,-0.323 -0.113,-0.323 -0.038,0 -0.078,0.012 -0.117,0.042" /></defs>
	<clipPath
   id="SVGID_709_">
		<use
   xlink:href="#SVGID_708_"
   overflow="visible"
   id="use3516" />
	</clipPath>
	
		<linearGradient
   id="SVGID_710_"
   gradientUnits="userSpaceOnUse"
   x1="0"
   y1="425.19089"
   x2="1"
   y2="425.19089"
   gradientTransform="matrix(8.8419,0,0,-8.8419,107.0712,4093.8657)">
		<stop
   offset="0"
   style="stop-color:#161730"
   id="stop3519" />
		<stop
   offset="1"
   style="stop-color:#242C5B"
   id="stop3521" />
	</linearGradient>
	<rect
   x="106.958"
   y="330.66599"
   clip-path="url(#SVGID_709_)"
   fill="url(#SVGID_710_)"
   width="9.0419998"
   height="7.3889999"
   id="rect3524"
   style="fill:url(#SVGID_710_)" />
</g>
<g
   id="g3541"
   transform="translate(-101.90799,-322.26598)">
	<defs
   id="defs3529"><path
     id="SVGID_711_"
     d="m 107.137,337.621 1.454,-1.199 c 0.204,-0.152 0.434,0.153 0.255,0.281 l -1.479,1.198 c -0.034,0.03 -0.07,0.042 -0.105,0.042 -0.148,0 -0.27,-0.219 -0.125,-0.322 m 2.347,-1.913 0.279,-0.229 c 0.203,-0.153 0.434,0.128 0.229,0.28 l -0.28,0.229 c -0.042,0.031 -0.084,0.044 -0.124,0.044 -0.155,0 -0.267,-0.202 -0.104,-0.324 m 1.147,-0.944 1.453,-1.2 c 0.205,-0.153 0.435,0.155 0.257,0.282 l -1.455,1.198 c -0.039,0.029 -0.079,0.041 -0.117,0.041 -0.16,0 -0.282,-0.218 -0.138,-0.321 m 2.346,-1.912 0.282,-0.231 c 0.203,-0.152 0.434,0.129 0.254,0.281 l -0.306,0.229 c -0.039,0.03 -0.079,0.042 -0.117,0.042 -0.159,0 -0.278,-0.218 -0.113,-0.321 m 1.148,-0.945 1.48,-1.199 c 0.202,-0.152 0.434,0.154 0.229,0.281 l -1.454,1.198 c -0.039,0.029 -0.08,0.043 -0.118,0.043 -0.159,0 -0.281,-0.22 -0.137,-0.323 m -3.34,0.51 -4.209,3.419 -0.025,0.152 -0.715,2.934 0.612,-0.025 2.55,-0.103 1.787,-1.429 7.345,-5.993 -2.449,-2.983 z" /></defs>
	<clipPath
   id="SVGID_712_">
		<use
   xlink:href="#SVGID_711_"
   overflow="visible"
   id="use3531" />
	</clipPath>
	
		<linearGradient
   id="SVGID_713_"
   gradientUnits="userSpaceOnUse"
   x1="0"
   y1="425.19781"
   x2="1"
   y2="425.19781"
   gradientTransform="matrix(12.294,0,0,-12.294,105.8392,5561.0127)">
		<stop
   offset="0"
   style="stop-color:#F7A715"
   id="stop3534" />
		<stop
   offset="1"
   style="stop-color:#FDC623"
   id="stop3536" />
	</linearGradient>
	<rect
   x="105.836"
   y="328.388"
   clip-path="url(#SVGID_712_)"
   fill="url(#SVGID_713_)"
   width="12.294"
   height="10.533"
   id="rect3539"
   style="fill:url(#SVGID_713_)" />
</g>













































</svg>
